<svg width="444" height="320" viewBox="0 0 444 320" fill="none" xmlns="http://www.w3.org/2000/svg">
<path d="M435.33 207.833C429.852 207.776 424.434 207.546 418.989 208.306C418.989 205.222 418.989 202.137 418.989 199.052C418.989 198.661 416.091 199.054 416.091 199.829C416.091 206.222 416.091 212.614 416.091 219.006C414.347 219.409 412.419 219.773 411.385 218.46C411.28 218.326 411.105 218.249 410.895 218.214C409.414 215.323 407.391 210.491 403.394 211.883C403.362 211.894 403.338 211.91 403.307 211.922C398.541 208.82 393.097 207.151 387.521 206.771C379.683 205.091 371.168 208.843 367.706 210.636C368.895 206.041 368.523 200.82 368.624 196.134C368.624 196.132 368.625 196.131 368.625 196.13C368.625 196.11 368.625 196.09 368.625 196.07C368.623 195.37 365.748 195.878 365.727 196.846C365.678 199.04 365.736 201.344 365.69 203.643C361.956 202.66 357.951 202.903 354.088 202.526C353.859 202.425 353.538 202.384 353.193 202.403C357.644 190.16 361.304 178.345 375.683 176.371C373.601 178.343 372.168 181.036 373.074 183.942C374.464 188.406 380.62 188.358 384.265 187.757C384.4 187.735 384.528 187.694 384.652 187.647C384.698 187.653 384.746 187.654 384.793 187.655C390.57 189.381 397.422 189.315 401.366 184.068C403.899 180.698 404.355 175.748 403.195 171.569L403.382 171.482C406.922 172.187 410.388 173.217 413.817 174.351C418.363 176.038 423.669 178.189 427.712 180.365C435.582 186.468 436.325 198.616 435.33 207.833ZM415.79 239.505C415.841 245.026 414.388 250.057 411.826 254.347C415.878 255.059 420.158 254.848 424.196 253.964C424.566 249.586 424.86 245.189 424.892 240.796C421.971 241.265 418.812 240.616 415.79 239.505ZM272.687 239.141C272.91 239.161 273.164 239.182 273.457 239.203C273.205 239.127 272.963 239.046 272.729 238.959C272.714 239.019 272.701 239.08 272.687 239.141ZM292.499 256.538C294.467 255.422 296.001 254.433 296.394 253.874C296.352 253.726 296.306 253.578 296.264 253.43C295.093 254.583 293.829 255.607 292.499 256.538ZM293.642 235.06C293.622 235.148 293.606 235.236 293.584 235.324C293.788 236.035 294.008 236.748 294.234 237.462L293.642 235.06ZM295.14 252.052C295.244 251.929 295.477 251.814 295.763 251.718C294.327 247.023 292.6 242.401 291.173 237.709C290.721 237.952 290.248 238.175 289.759 238.38C288.858 246.33 284.898 253.512 282.347 261.075C287.02 258.626 291.669 256.172 295.14 252.052ZM288.044 237.232C288.786 236.961 289.491 236.637 290.133 236.236C290.285 236.141 290.472 236.077 290.671 236.035C290.633 235.872 290.671 235.718 290.76 235.573C292.986 226.056 291.712 215.841 284.245 208.862C278.671 203.651 271.566 200.679 264.024 200.008C265.319 203.96 263.991 208.902 261.302 211.951C259.676 213.795 257.356 215.22 254.81 214.66C252.659 214.187 251.24 212.487 250.225 210.589C248.038 214.827 243.139 217.394 238.553 214.687C233.744 211.849 234.455 206.623 237.097 202.691C227.312 205.23 217.063 211.275 212.397 220.305C210.712 223.567 206.469 235.271 212.851 236.691C213.583 236.853 214.348 236.943 215.122 237.002L221.622 236.538C222.866 236.29 224.073 235.967 225.217 235.595C224.676 232.201 224.289 228.789 224.235 225.346C224.218 224.268 227.12 223.723 227.133 224.571C227.212 229.581 227.983 234.504 228.942 239.4C229.188 239.417 229.35 239.472 229.345 239.573C229.324 240.036 229.294 240.511 229.259 240.994C230.023 244.749 230.865 248.493 231.565 252.252C231.997 254.571 232.701 257.54 232.92 260.47C241.325 267.55 255.462 266.152 265.255 263.215C265.741 263.069 266.108 263.089 266.363 263.191C268.989 254.898 267.831 245.979 270.26 237.629C266.151 234.437 266.991 228.492 267.093 222.974C267.113 221.903 270.028 221.338 270.003 222.658C269.918 227.277 268.785 233.763 272.888 236.529C273.01 236.574 273.106 236.638 273.166 236.724C273.826 237.118 274.607 237.425 275.539 237.62C279.109 238.367 283.877 238.624 287.668 237.372C287.787 237.315 287.915 237.27 288.044 237.232ZM88.2513 202.831C88.4783 202.45 88.7423 202.056 89.0343 201.652C88.7823 201.826 88.5333 202.008 88.2783 202.173C88.2213 202.21 88.1593 202.239 88.0963 202.268C88.1493 202.455 88.2003 202.643 88.2513 202.831ZM75.0423 171.102C74.7083 171.84 73.9963 172.441 72.6363 172.613C69.9133 173.749 66.5783 173.628 63.6043 172.999C58.3893 180.112 42.4293 178.47 44.1023 168.491C33.1733 168.42 26.0063 178.974 22.4273 188.163C21.1943 191.329 20.0463 194.656 19.6353 198.047C18.7003 205.748 33.3633 204.165 36.9043 202.923C37.1833 202.825 37.4793 202.797 37.7573 202.816C37.8503 197.892 38.4743 193.032 39.1683 188.16C39.3013 187.231 42.2123 186.694 42.0593 187.771C41.3583 192.689 40.6883 197.604 40.6353 202.58C40.6283 203.209 39.6423 203.645 38.8223 203.739C38.7063 203.897 38.4733 204.056 38.0713 204.197C37.3913 204.435 36.6653 204.663 35.9113 204.873C34.0783 213.836 32.4243 223.344 32.5853 232.686C32.6563 232.697 32.7273 232.71 32.7933 232.733C50.6253 238.859 72.7003 239.379 89.8623 230.345C88.4793 215.327 85.6403 199.147 78.6083 185.74C77.9113 184.411 80.6793 183.362 81.2643 184.476C83.8503 189.407 85.8793 194.687 87.4933 200.137C94.4253 195.171 100.077 186.456 101.252 178.057C92.8083 173.479 85.6923 169.073 76.1273 168.356C76.2823 169.263 75.9993 170.196 75.0423 171.102Z" fill="#269F9C"/>
<path d="M44.9732 133.803C46.1072 129.829 50.7602 128.129 54.5592 128.707C55.2242 128.808 54.3832 129.334 54.1932 129.421C53.5892 129.697 52.8392 129.902 52.1712 129.801C49.8842 129.453 48.4132 131.227 47.8272 133.278C47.6242 133.985 44.8172 134.35 44.9732 133.803ZM74.3482 118.608C74.3192 119.223 77.2002 118.803 77.2462 117.833C77.3292 116.08 79.2602 113.423 81.1372 114.726C81.8742 115.238 84.4332 114.082 83.8522 113.679C80.4492 111.315 74.5382 114.618 74.3482 118.608ZM73.2502 110.354C73.3082 109.201 75.0212 107.368 76.0992 108.614C77.0032 109.66 79.7452 108.467 78.7442 107.309C76.1962 104.365 70.4942 106.824 70.3072 110.547C70.2292 112.116 73.1812 111.735 73.2502 110.354ZM47.6682 122.966C48.9442 123.559 51.0122 121.717 49.3182 120.931C46.4982 119.62 43.1722 121.079 42.0492 123.926C41.4202 125.522 44.3342 125.588 44.8362 124.317C45.3632 122.984 46.3102 122.336 47.6682 122.966ZM34.1062 151.08C31.6172 149.96 28.6582 151.047 26.7822 152.823C26.2692 153.308 27.2202 153.485 27.5132 153.476C28.2052 153.454 28.9332 153.217 29.4402 152.737C30.2192 152 30.7812 151.894 31.7602 152.336C32.3472 152.6 33.2772 152.292 33.7982 152.013C34.1562 151.821 34.7042 151.349 34.1062 151.08ZM71.0512 125.821C72.2312 125.41 72.9812 125.179 73.9332 125.883C74.1402 126.98 73.4722 127.844 73.4172 128.942C73.3422 130.439 76.2862 130.005 76.3512 128.713C76.3892 127.961 76.7712 127.269 76.9212 126.534C77.0112 126.097 76.9522 125.624 76.8762 125.191C76.7802 124.639 76.3692 124.35 75.9492 124.029C74.3622 122.815 72.2472 123.265 70.5272 123.864C69.9812 124.054 69.1452 124.504 69.3392 125.231C69.5202 125.9 70.5052 126.01 71.0512 125.821ZM56.6662 143.346C56.5722 143.001 57.1752 142.646 57.8552 142.444C58.2982 141.894 59.7482 141.412 60.3352 141.735C62.3792 142.858 66.8682 143.524 67.9162 140.749C68.2862 139.766 71.1912 139.405 70.8162 140.397C70.8132 140.406 70.8082 140.413 70.8042 140.42C70.6622 144.514 68.9832 148.361 64.6192 149.254C60.4502 150.109 57.7022 147.128 56.6662 143.346ZM60.0212 143.936C60.8112 145.934 62.2402 148.067 64.4692 148.143C66.3372 148.206 67.2362 145.725 67.6352 143.56C65.3572 144.567 62.4022 144.593 60.0212 143.936ZM377.785 153.093C376.393 155.08 372.721 157.425 370.526 155.401C369.756 154.69 367.03 155.801 367.838 156.547C371.457 159.887 378.104 156.582 380.489 153.179C381.269 152.067 378.342 152.299 377.785 153.093ZM378.275 139.112C377.843 139.411 377.855 139.694 378.433 139.706C379.089 139.72 379.936 139.535 380.482 139.157C382.454 137.793 384.665 138.751 386.156 140.371C386.636 140.892 389.302 139.847 388.89 139.398C386.126 136.397 381.4 136.948 378.275 139.112ZM344.278 138.392C343.962 138.963 346.715 138.735 347.153 137.943C348.231 135.996 351.259 137.765 352.052 139.184C352.517 140.015 355.275 138.989 354.95 138.409C352.95 134.828 346.279 134.782 344.278 138.392ZM354.143 128.953C352.337 128.662 350.456 128.96 348.803 129.729C348.252 129.985 347.704 130.691 348.136 131.287C348.576 131.897 349.515 131.818 350.114 131.54C351.07 131.095 352.129 130.983 353.165 131.15C353.859 131.262 354.748 130.914 355.047 130.244C355.35 129.564 354.77 129.053 354.143 128.953ZM383.784 130.337C383.268 130.65 382.659 131.264 383.118 131.901C383.528 132.47 384.537 132.499 385.097 132.157C386.493 131.306 387.679 132.169 388.383 133.477C389.035 134.69 391.779 133.565 391.028 132.17C389.616 129.546 386.294 128.805 383.784 130.337ZM408.224 149.393C407.906 148.852 407.892 148.329 408.124 147.752C408.192 147.582 408.308 147.417 408.437 147.275C409.041 147.365 409.714 147.194 410.231 146.917C410.515 146.765 411.205 146.18 410.539 145.984C409.076 145.556 407.295 145.989 406.152 146.995C405.266 147.774 404.675 149.058 405.326 150.17C405.82 151.013 408.566 149.977 408.224 149.393ZM365.915 149.436C365.102 150.051 364.112 150.391 363.102 150.483C361.366 150.64 360.52 149.222 360.186 147.719C359.89 146.392 356.988 147.15 357.288 148.496C358.417 153.56 364.356 153.368 367.829 150.732C369.4 149.542 367.044 148.579 365.915 149.436ZM402.784 161.896C401.956 163.981 401.592 166.194 402.278 168.78C402.303 168.874 402.288 168.966 402.255 169.055C402.449 169.454 402.624 169.869 402.783 170.295C403.238 170.139 403.684 170.033 403.913 170.07C408.994 170.904 413.96 172.439 418.809 174.149C422.9 175.591 427.922 176.833 431.103 179.974C438.572 187.352 439.35 198.587 438.066 208.453C438.013 208.857 437.321 209.115 436.626 209.244C436.245 209.579 435.721 209.843 435.241 209.84C435.186 209.84 435.133 209.839 435.079 209.838C435.229 218.088 436.831 230.766 431.168 237.275C430.14 238.457 429.003 239.305 427.794 239.891C427.765 244.495 427.447 249.104 427.054 253.69C427.013 254.17 426.076 254.402 425.716 254.495C425.618 254.52 425.519 254.54 425.421 254.564C425.459 263.667 425.945 272.774 426.49 281.858C426.511 282.219 425.891 282.459 425.372 282.599C424.957 288.859 422.203 294.678 421.649 300.906C421.855 301.105 422.06 301.311 422.262 301.522C429.863 302.092 435.714 306.811 436.053 314.943C436.973 315.004 437.721 315.599 436.661 316.403C433.195 319.033 426.987 319.1 422.892 319.333C416.392 319.7 409.56 319.766 403.3 317.745C403.28 317.739 403.268 317.73 403.249 317.724C403.007 317.664 402.823 317.543 402.739 317.357C402.729 317.336 402.723 317.314 402.718 317.291C402.707 317.257 402.695 317.223 402.694 317.187C402.693 317.182 402.695 317.177 402.694 317.172C402.69 317.116 402.687 317.059 402.699 316.994C403.465 312.551 404.15 306.871 406.435 302.773C406.433 302.753 406.426 302.736 406.425 302.714C406.199 295.884 403.132 289.469 402.829 282.639C402.393 282.524 401.961 282.402 401.53 282.269C400.832 282.054 396.413 280.798 396.257 279.802C395.595 275.574 395.55 271.454 396.109 267.239C395.056 267.635 393.978 267.976 392.88 268.266C392.217 272.12 391.554 275.975 390.89 279.829C390.79 280.409 389.673 280.678 389.225 280.743C388.831 280.801 388.428 280.865 388.025 280.929C388.03 280.968 388.039 281.004 388.038 281.047C387.8 287.877 384.351 294.178 384.043 300.996C384.23 301.055 384.387 301.149 384.486 301.298C387.249 305.436 387.969 311.643 388.798 316.455C388.892 317 388.358 317.443 387.723 317.664C387.674 317.684 387.641 317.711 387.586 317.728C381.522 319.673 374.764 319.703 368.471 319.124C364.694 318.777 359.124 318.674 355.885 316.308C355.844 316.278 355.799 316.252 355.758 316.221C355.756 316.22 355.756 316.219 355.754 316.217C355.701 316.179 355.654 316.136 355.614 316.086C355.571 316.037 355.536 315.987 355.508 315.938C355.463 315.842 355.434 315.734 355.432 315.608C355.432 315.594 355.428 315.585 355.428 315.571C355.605 307.094 361.985 302.175 369.754 301.536C369.942 301.348 370.135 301.159 370.332 300.974C370.197 300.85 370.11 300.684 370.107 300.461C370.022 293.772 369.033 287.129 368.938 280.436C366.703 279.883 364.484 279.258 362.283 278.637C362.145 278.594 362.051 278.506 362 278.375C362 273.359 362 268.344 362 263.328C362 263.014 362.274 262.749 362.653 262.555C361.05 261.369 359.567 260.033 358.261 258.522C354.359 254.007 352.435 248.882 352.167 243.509C352.07 243.454 352.077 243.373 352.157 243.279C352.128 242.553 352.122 241.825 352.152 241.091C351.988 241.143 351.823 241.173 351.667 241.173C332.938 241.173 314.21 241.173 295.481 241.173C298.027 248.418 301.037 255.817 301.192 263.377C301.194 263.461 301.188 263.542 301.189 263.626C303.467 261.314 306.485 260.092 309.896 261.917C314.772 264.525 317.682 270.599 319.27 275.642C320.774 280.417 322.318 287.573 318.858 291.928C314.869 296.949 307.855 294.634 303.078 292.233C303.076 292.232 303.075 292.231 303.073 292.23C298.31 296.688 292.161 299.532 285.328 302.614C285.259 302.645 285.187 302.672 285.116 302.695C285.118 303.444 285.121 304.192 285.124 304.94C285.124 304.972 285.114 305.003 285.108 305.034C285.097 305.102 285.076 305.17 285.043 305.233C284.927 305.458 284.689 305.647 284.394 305.794C279.491 309.615 274.587 313.436 269.683 317.256C269.663 317.272 269.634 317.286 269.611 317.301C269.039 317.698 267.978 317.895 267.436 317.776C251.276 317.776 235.116 317.776 218.956 317.776C218.096 318.2 216.728 318.183 216.727 317.273C216.707 306.069 216.688 294.865 216.668 283.661C216.666 283.061 217.594 282.703 218.243 282.617C217.706 282.026 217.192 281.455 216.712 280.924C207.982 271.283 206.186 253.371 210.232 240.971C210.036 241.034 209.849 241.075 209.699 241.075C170.854 241.106 132.01 241.054 93.1662 240.926C93.6952 250.74 94.7792 260.564 95.7742 270.304C95.8282 270.829 95.4022 271.245 94.9332 271.424C93.5102 271.968 92.0712 272.402 90.6202 272.757C90.6392 272.824 90.6502 272.898 90.6502 272.978C90.6472 282.308 90.2192 291.12 87.5512 300.095C94.9842 300.695 99.5822 307.03 101.892 313.671C101.974 313.907 101.648 314.17 101.188 314.376C97.7662 316.699 92.2622 316.867 88.3762 317.146C81.5492 317.633 74.2782 317.786 67.6922 315.659C67.5632 315.617 67.5062 315.559 67.4982 315.493C67.4572 315.445 67.4342 315.389 67.4452 315.319C68.2552 310.612 68.9432 304.42 71.6442 300.374C71.7482 300.219 71.9562 300.093 72.2102 299.992C72.2082 299.987 72.2042 299.984 72.2022 299.98C68.0812 291.333 71.4052 281.201 67.6412 272.573C66.1142 272.279 64.5942 271.953 63.0872 271.598C62.8712 271.547 62.5262 271.357 62.4982 271.099C62.2692 268.988 62.0402 266.87 61.7762 264.758C61.5532 265.896 61.3372 267.029 61.1192 268.145C60.5642 270.993 60.6712 271.921 57.7892 272.859C56.0982 273.41 54.3692 273.776 52.6212 274.008C53.0712 282.545 52.3512 291.907 48.2772 299.548C48.3812 299.589 48.4682 299.648 48.5262 299.734C51.2272 303.781 51.9152 309.972 52.7252 314.679C52.7592 314.881 52.5942 315.074 52.3292 315.239C52.1482 315.427 51.8632 315.606 51.4562 315.738C45.2352 317.746 38.2712 317.835 31.8092 317.373C27.9252 317.096 22.2832 317.192 18.8052 314.914C18.3772 314.843 18.1042 314.618 18.2492 314.199C20.6002 307.437 25.2472 301.022 32.5522 299.886C32.5382 290.744 32.5512 281.603 32.5522 272.462C30.9372 272.143 29.3382 271.815 27.7712 271.503C27.5652 271.462 27.2252 271.296 27.1942 271.048C26.3522 264.268 25.9302 257.255 26.7442 250.458C26.7442 250.458 26.7442 250.458 26.7442 250.457C26.3272 250.546 25.9622 250.929 25.6602 251.778C24.8532 254.046 25.2252 258.842 22.3742 259.751C20.3082 260.409 19.0572 259.135 18.3332 257.317C18.1852 257.543 18.0282 257.761 17.8532 257.964C16.7522 259.233 14.4742 260.412 12.7352 259.899C11.9162 259.657 11.4582 259.032 11.2352 258.196C10.1152 258.848 8.52617 259.235 7.38517 258.903C6.54817 258.659 6.15317 257.922 6.02317 256.97C5.26217 257.468 4.39217 257.69 3.38517 257.448C-1.38783 256.3 1.48217 249.76 2.87417 247.122C6.22917 240.762 10.1222 235.445 10.9522 228.142C11.9752 219.128 13.3322 210.128 16.6632 201.642C16.7472 201.428 17.0252 201.252 17.3742 201.12C15.6472 197.67 17.8542 192.786 19.1532 189.45C23.4992 178.295 31.5762 167.076 44.5232 166.789C44.5262 166.779 44.5282 166.771 44.5312 166.763C44.6092 166.534 44.8952 166.341 45.2552 166.198C43.8862 160.905 38.7932 159.991 34.7872 157.005C30.0262 160.395 22.2332 159.415 21.9102 152.173C21.8142 150.026 22.5092 148.334 23.6522 147.068C18.5372 142.816 11.9652 141.802 7.64717 136.224C4.18517 131.751 1.49417 126.328 0.520169 120.718C-1.14283 111.121 1.03016 101.275 9.23916 95.645C7.74316 95.757 6.28416 96.028 4.86516 96.691C3.49416 97.332 1.84817 96.134 3.66417 95.287C6.07117 94.162 8.57417 93.849 11.1512 93.765C11.1532 93.76 11.1532 93.756 11.1542 93.751C9.49316 91.885 8.54716 89.588 8.71016 87.002C8.76916 86.069 11.6422 85.691 11.6082 86.225C11.5082 87.793 11.8182 89.246 12.4492 90.563C17.3162 81.222 29.5772 76.474 39.2372 74.459C45.2462 73.206 51.4992 72.485 57.4992 74.229C57.4992 50.362 57.4992 26.495 57.4992 2.62599C57.4992 2.17299 58.1512 1.79699 58.8362 1.65399C58.6862 1.65399 58.5362 1.65399 58.3862 1.65399C56.4272 1.65399 58.4202 0 59.5112 0C174.849 0 290.187 0 405.525 0C406.505 0 406.497 0.413988 406.106 0.827988C406.226 0.933988 406.302 1.07499 406.302 1.26599C406.302 24.969 406.302 48.671 406.302 72.375C408.606 71.915 411.047 72.344 413.393 74.046C416.957 76.634 420.583 81.111 420.922 85.685C425.583 85.045 430.554 85.789 433.307 90.022C435.357 93.174 434.968 97.028 433.728 100.46C442.888 100.901 442.61 112.427 438.059 119.208C438.097 119.217 438.137 119.222 438.173 119.235C447.351 122.595 442.214 133.177 437.464 139.152C445.038 147.645 431.037 153.952 422.509 155.031C418.316 161.221 409.918 164.075 402.784 161.896ZM384.501 207.797C384.742 207.939 384.829 208.178 384.611 208.536C382.657 211.754 381.258 215.287 380.261 218.971C385.153 218.955 390.93 215.989 395.861 217.137C397.805 216.795 400.183 217.589 402.237 218.557C401.434 216.85 400.891 214.789 401.622 213.344C401.435 213.349 401.275 213.324 401.167 213.25C396.222 209.866 390.396 208.031 384.501 207.797ZM395.314 230.71C395.314 230.706 395.316 230.702 395.316 230.697C395.295 230.676 395.274 230.654 395.252 230.634C394.543 234.01 394.141 237.719 394.263 241.378C400.047 243.691 405.612 246.567 411.882 247.939C412.649 245.24 413.013 242.33 412.877 239.236C412.864 238.941 413.027 238.683 413.278 238.473C412.076 237.929 410.918 237.34 409.828 236.75C404.7 239.671 394.878 237.778 395.314 230.71ZM411.459 249.289C411.158 249.37 410.889 249.411 410.72 249.381C404.867 248.308 399.655 245.812 394.4 243.574C395.054 250.478 397.789 256.909 404.138 260.212C407.427 257.294 409.977 253.592 411.459 249.289ZM424.893 240.796C421.971 241.266 418.812 240.616 415.79 239.505C415.841 245.026 414.388 250.057 411.826 254.347C415.878 255.059 420.158 254.848 424.196 253.964C424.567 249.586 424.861 245.188 424.893 240.796ZM393.464 224.702C393.421 224.656 393.372 224.608 393.331 224.562C392.705 223.864 391.801 222.806 392.122 221.786C392.311 221.183 392.785 220.784 393.349 220.516C392.983 219.918 392.926 219.29 393.353 218.656C388.889 217.721 384.263 220.229 379.821 220.712C378.496 226.38 378.067 232.34 378.072 238.05C379.03 238.019 379.989 238.018 380.945 238.069C384.636 238.265 388.043 239.121 391.329 240.269C391.35 235.887 392.058 231.513 393.128 227.744C393.152 227.658 393.197 227.579 393.252 227.503C393.035 226.716 392.988 225.885 393.188 225.029C393.214 224.91 393.318 224.801 393.464 224.702ZM219.637 316.455C235.458 316.455 251.279 316.455 267.1 316.455C267.1 309.045 267.1 301.635 267.1 294.224C267.048 294.265 266.997 294.313 266.946 294.353C265.443 295.507 261.691 297.538 260.574 294.982C259.871 295.124 259.093 295.128 258.603 294.677C258.291 294.391 258.06 294.041 257.857 293.672C257.687 293.364 257.579 293.208 257.532 293.128C257.504 293.126 257.476 293.132 257.448 293.129C257.383 293.122 257.322 293.11 257.268 293.094C256.695 293.335 256.013 293.435 255.63 293.217C253.388 291.941 253.954 289.56 254.954 287.589C255.6 286.314 256.376 285.122 257.108 283.897C257.36 283.475 257.634 283.05 257.83 282.597C257.851 282.548 257.872 282.513 257.892 282.476C253.474 282.56 249.056 282.643 244.637 282.726C244.661 282.75 244.688 282.773 244.712 282.797C244.727 282.812 244.732 282.826 244.743 282.841C244.757 282.857 244.768 282.874 244.778 282.89C244.794 282.916 244.809 282.941 244.814 282.972C244.823 283.035 244.821 283.089 244.827 283.15C245.016 285.03 243.851 286.031 242.345 286.326C242.182 287.572 241.307 288.312 240.181 288.618C239.774 290.415 237.765 291.026 235.853 290.738C235.658 292.689 231.795 292.646 230.257 292.169C226.751 291.08 223.222 287.887 220.228 284.754C220.013 284.735 219.797 284.713 219.582 284.686C219.6 295.274 219.618 305.865 219.637 316.455ZM238.593 277.95C238.602 277.946 238.607 277.945 238.615 277.941C238.596 277.947 238.561 277.957 238.49 277.975C238.54 277.963 238.572 277.955 238.593 277.95ZM238.732 278.954C240.087 279.382 241.323 280.048 242.457 280.872C242.645 280.797 242.853 280.747 243.086 280.743C245.024 280.707 246.961 280.671 248.899 280.634C248.856 280.234 249.009 279.744 249.403 279.155C249.439 278.988 249.599 278.796 249.953 278.583C252.904 276.802 256.108 275.531 259.076 273.803C260.341 273.067 261.338 272.233 262.183 271.316C252.272 271.316 242.361 271.316 232.451 271.316C234.494 273.156 237.4 274.367 241.457 274.693C242.107 274.715 242.922 274.812 243.258 275.356C243.546 275.824 243.112 276.411 242.797 276.741C241.765 277.821 240.232 278.596 238.732 278.954ZM195.448 151.512C196.07 151.233 196.886 151.037 197.226 151.175C197.606 151.328 197.989 151.443 198.372 151.567C198.449 151.539 198.523 151.52 198.601 151.487C199.519 151.106 200.457 151.569 200.679 152.164C209.14 153.686 217.898 148.937 224.928 144.537C225.152 144.397 225.728 144.276 226.278 144.225C226.875 143.908 227.671 143.804 228.093 144.167C236.539 151.424 250.093 155.367 261.22 154.293C263.16 154.105 262.515 156.017 261.028 156.246C257.819 162.057 258.949 169.53 263.933 174.011C265.968 172.236 268.812 170.963 271.435 170.934C273.656 166.827 277.445 163.746 279.128 159.297C281.352 153.422 281.829 146.858 280.48 140.695C280.22 139.507 279.896 138.326 279.514 137.16C278.96 137.148 278.665 137.017 279.351 136.686C276.511 128.415 270.559 121.179 261.306 120.288C261.234 120.323 261.161 120.359 261.089 120.394C260.308 120.781 259.443 120.553 259.181 120.123C258.531 120.193 257.98 120.105 258.095 119.806C258.179 119.587 258.244 119.368 258.314 119.149C248.801 110.026 228.438 113.183 218.07 119.268C210.684 123.604 207.793 130.903 201.806 136.521C198.498 139.625 195.156 140.601 191.531 139C191.348 143.13 192.275 149.919 195.448 151.512ZM305.843 166.651C308.299 155.196 296.681 132.06 282.515 136.442C282.736 137.171 282.938 137.907 283.101 138.651C284.401 144.589 284.789 151.484 282.596 157.279C280.572 162.63 276.195 166.262 273.88 171.329C275.308 171.844 276.536 172.892 277.334 174.645C280.472 181.537 274.299 186.535 268.173 185.465C268.149 185.512 268.123 185.56 268.098 185.608C271.733 196.485 282.524 199.902 293.175 201.499C286.88 188.135 303.227 178.849 305.843 166.651ZM199.906 153.667C200.162 167.112 199.187 188.019 213.488 194.638C223.339 199.198 237.66 194.069 245.172 203.391C245.251 203.439 245.32 203.496 245.364 203.573C246.29 205.172 248.248 206.186 250.181 206.521C250.635 206.412 251.126 206.435 251.49 206.641C251.75 206.643 252.008 206.641 252.254 206.616C256.956 206.127 258.645 201.647 259.156 197.507C259.121 197.096 259.424 196.707 259.849 196.446C260.156 192.533 263.124 189.831 265.129 186.167C264.937 185.568 264.757 184.955 264.608 184.313C264.485 183.78 266.49 183.187 267.235 183.348C267.52 183.312 267.777 183.324 267.952 183.417C270.7 184.894 274.093 184.525 275.042 181.127C275.563 179.26 275.396 177.144 274.437 175.424C273.691 174.085 272.724 173.231 271.672 172.806C271.147 172.845 270.718 172.769 270.695 172.549C268.626 172.227 266.401 173.382 264.943 175.666C264.461 176.423 261.768 176.603 262.072 176.127C262.131 176.035 262.196 175.944 262.26 175.854C262.219 175.836 262.179 175.82 262.147 175.795C256.12 171.264 254.587 162.76 258.357 156.392C252.739 156.424 247.283 154.913 241.751 153.918C235.829 152.855 230.337 149.628 225.838 145.763C225.786 145.719 225.75 145.673 225.712 145.628C218.197 150.197 208.822 154.775 199.906 153.667ZM240.45 202.366C238.029 205.292 236.306 209.841 240.054 212.513C243.753 215.151 246.927 212.321 248.121 208.633C248.19 208.419 248.335 208.244 248.518 208.105C246.133 207.731 243.828 206.709 242.673 204.714C242.655 204.684 242.65 204.652 242.637 204.622C241.961 203.747 241.227 203.006 240.45 202.366ZM252.88 208.115C252.708 208.142 252.53 208.164 252.351 208.184C253.106 210.012 254.359 212.424 256.301 212.555C257.82 212.658 259.179 210.823 259.825 209.671C261.227 207.175 262.147 203.64 261.208 200.787C259.885 204.505 257.205 207.428 252.88 208.115ZM215.122 237.001C217.242 237.162 219.472 236.967 221.622 236.537C222.866 236.289 224.073 235.966 225.217 235.594C224.676 232.2 224.289 228.788 224.235 225.345C224.218 224.267 227.12 223.722 227.133 224.57C227.212 229.58 227.983 234.503 228.942 239.399C229.188 239.416 229.35 239.471 229.345 239.572C229.324 240.035 229.294 240.51 229.259 240.993C230.023 244.748 230.865 248.492 231.565 252.251C231.997 254.57 232.701 257.539 232.92 260.469C241.325 267.549 255.462 266.151 265.255 263.214C265.741 263.068 266.108 263.088 266.363 263.19C268.989 254.897 267.831 245.978 270.26 237.628C266.151 234.436 266.991 228.491 267.093 222.973C267.113 221.902 270.028 221.337 270.003 222.657C269.918 227.276 268.785 233.762 272.888 236.528C272.983 236.591 273.066 236.664 273.166 236.723C273.826 237.117 274.607 237.424 275.539 237.619C279.109 238.366 283.877 238.623 287.668 237.371C287.786 237.316 287.914 237.271 288.043 237.233C288.785 236.962 289.49 236.638 290.132 236.237C290.284 236.142 290.471 236.078 290.67 236.036C290.632 235.873 290.67 235.719 290.759 235.574C292.985 226.057 291.711 215.842 284.244 208.863C278.67 203.652 271.565 200.68 264.023 200.009C265.318 203.961 263.99 208.903 261.301 211.952C259.675 213.796 257.355 215.221 254.809 214.661C252.658 214.188 251.239 212.488 250.224 210.59C248.037 214.828 243.138 217.395 238.552 214.688C233.743 211.85 234.454 206.624 237.096 202.692C227.311 205.231 217.062 211.276 212.396 220.306C210.711 223.568 206.468 235.272 212.85 236.692C213.584 236.852 214.349 236.942 215.122 237.001ZM229.447 266.952C230.074 265.38 230.256 263.521 230.182 261.567C230.158 261.546 230.129 261.529 230.105 261.507C229.883 261.317 229.94 261.092 230.146 260.881C229.918 257.438 228.98 253.776 228.288 250.876C227.758 256.633 227.594 262.477 229.447 266.952ZM230.619 269.171C230.77 269.398 230.925 269.622 231.091 269.839C231.224 269.805 231.351 269.783 231.464 269.783C242.114 269.783 252.765 269.783 263.413 269.783C264.436 268.268 265.181 266.531 265.899 264.559C265.814 264.595 265.745 264.637 265.645 264.667C255.893 267.59 242.257 269.064 232.933 263.5C232.777 265.531 232.236 267.42 231.005 268.9C230.923 269.002 230.784 269.091 230.619 269.171ZM237.247 289.736C236.974 289.877 237.119 289.985 237.247 289.736V289.736ZM258.142 293.093C258.41 293.066 258.764 292.972 259.214 292.737C259.195 292.745 259.176 292.752 259.156 292.759C258.837 292.919 258.495 293.036 258.142 293.093ZM269.998 297.141C275.622 286.925 275.473 275.912 278.284 264.808C280.477 256.145 285.572 248.264 286.782 239.363C282.499 240.428 277.593 240.357 273.8 239.319C273.677 239.286 273.575 239.239 273.456 239.203C273.204 239.127 272.962 239.046 272.728 238.959C272.713 239.02 272.701 239.08 272.686 239.142C270.465 248.711 272.047 259.071 267.352 268.062C264.082 274.322 257.799 276.013 252.076 279.394C251.628 280.249 252.536 280.496 253.919 280.54C254.972 280.52 256.023 280.5 257.075 280.48C257.293 280.476 257.511 280.472 257.729 280.467C258.257 280.457 258.786 280.447 259.315 280.438C259.832 280.428 260.165 280.561 260.352 280.76C260.613 280.875 260.79 281.029 260.848 281.24C261.592 283.99 254.067 289.531 257.91 291.719C257.917 291.723 257.92 291.727 257.926 291.731C260.541 289.306 262.569 286.379 264.543 283.418C264.965 282.786 267.811 282.37 267.193 283.297C265.062 286.49 262.865 289.532 260.016 292.105C260.312 292.332 260.59 292.651 260.865 293.088C260.898 293.141 260.938 293.196 260.974 293.253C261.671 292.407 262.292 291.507 262.984 290.656C264.424 288.882 265.931 287.16 267.111 285.194C267.574 284.424 270.29 284.225 269.984 284.735C268.605 287.031 266.812 288.981 265.188 291.097C264.518 291.97 263.886 292.94 263.077 293.695C263.219 293.758 263.328 293.851 263.374 293.987C263.419 294.12 263.514 294.447 263.666 294.612C263.758 294.52 264.168 294.38 264.358 294.233C265.288 293.518 266.13 292.706 266.88 291.802C268.373 290.003 269.746 288.002 270.319 285.706C270.542 284.813 273.437 284.359 273.204 285.294C272.634 287.575 271.288 289.858 269.638 291.77C269.854 291.813 269.996 291.901 269.996 292.046C269.996 292.057 269.996 292.067 269.996 292.078C269.998 293.768 269.998 295.455 269.998 297.141ZM279.22 275.692C279.383 275.478 279.554 275.27 279.715 275.055C280.334 274.227 280.952 273.394 281.52 272.529C281.644 272.341 281.757 272.143 281.871 271.948C281.199 271.948 280.527 271.948 279.855 271.948C279.643 273.2 279.433 274.448 279.22 275.692ZM282.347 261.076C287.02 258.626 291.669 256.173 295.14 252.053C295.244 251.93 295.477 251.815 295.763 251.719C294.327 247.024 292.6 242.402 291.173 237.71C290.721 237.953 290.248 238.176 289.759 238.381C288.858 246.331 284.898 253.512 282.347 261.076ZM294.634 226.825C311.262 226.824 327.889 226.821 344.517 226.815C344.29 226.142 344.12 225.413 344.056 224.578C343.501 217.241 347.058 209.784 351.066 203.779C350.773 203.739 350.48 203.696 350.19 203.645C349.396 203.506 349.675 203.117 350.244 202.783C350.234 202.65 350.25 202.504 350.31 202.336C352.545 196.203 354.013 189.667 357.96 184.315C362.639 177.971 369.245 174.833 376.933 174.081C368.411 168.925 356.176 171.091 348.031 164.553C342.416 160.046 339.543 154.095 338.039 147.601C328.085 147.69 315.99 138.837 322.422 128.776C315.855 126.812 317.664 114.106 324.239 113.572C321.431 109.119 320.104 103.482 324.187 99.212C327.628 95.612 332.276 93.869 337.137 93.443C336.692 88.035 338.033 81.899 343.052 78.977C347.138 76.599 351.467 76.646 355.527 78.255C358.279 68.993 371.814 68.321 379.136 72.845C379.142 72.849 379.145 72.853 379.151 72.857C379.255 72.783 379.363 72.707 379.48 72.628C382.07 69.184 386.406 67.882 390.578 68.375C390.578 50.409 390.578 32.443 390.578 14.478C284.796 14.478 179.012 14.478 73.2282 14.478C73.2282 36.738 73.2282 58.998 73.2282 81.257C76.7862 82.216 79.9322 81.926 81.6362 78.639C82.1182 77.708 83.6212 77.321 84.3522 78.184C88.4002 82.962 91.3612 94.354 84.7302 97.253C91.1262 110.982 100.26 128.049 90.0012 142.134C84.3702 149.864 73.3602 153.447 69.3322 162.164C71.1722 163.091 74.3322 164.934 75.6092 167.041C75.6972 167.023 75.7772 167.011 75.8362 167.012C86.5282 167.177 94.1372 171.685 103.162 176.604C103.788 176.607 104.312 176.881 104.231 177.516C104.003 179.3 103.584 181.099 103 182.877C108.909 185.438 114.658 188.643 120.879 190.045C124.234 180.424 127.592 170.802 130.948 161.18C130.983 160.547 132.445 159.705 133.271 159.912C148.449 163.723 163.627 167.532 178.806 171.342C179.826 171.598 179.432 172.281 178.71 172.74C172.577 190.713 166.446 208.685 160.315 226.658C160.534 226.573 160.753 226.519 160.95 226.519C176.389 226.527 191.829 226.535 207.268 226.54C207.496 225.559 207.753 224.653 207.989 223.889C211.763 211.628 225.787 203.431 237.823 200.659C229.224 196.346 216.95 200.636 208.72 194.426C196.438 185.158 197.324 167.891 196.999 154.02C189.782 154.359 187.335 143.092 188.86 136.892C189.117 135.85 190.537 135.281 191.44 135.929C197.776 140.479 201.795 132.793 205.07 128.325C207.019 125.665 209.106 122.985 211.689 120.898C216.419 117.075 221.945 114.766 227.84 113.382C237.591 111.094 250.227 109.78 258.793 116C258.765 114.57 258.399 113.162 257.631 111.811C257.339 111.296 260.08 110.245 260.529 111.034C261.82 113.305 261.997 115.775 261.331 118.201C261.356 118.225 261.382 118.249 261.405 118.274C263.846 117.165 266.291 116.35 269.061 116.293C269.6 116.281 270.227 116.718 269.887 117.296C269.508 117.94 268.664 118.113 267.985 118.127C266.573 118.157 265.252 118.539 263.971 119.058C272.907 120.288 279.467 127.291 282.26 135.668C295.434 132.245 306.559 145.285 308.713 157.884C310.111 166.056 306.49 171.937 301.961 178.47C296.963 185.681 291.816 193.497 296.794 202.111C297.123 202.68 294.451 203.082 294.15 203.045C283.119 201.71 271.009 198.998 266.129 188.716C264.208 191.483 262.329 194.07 262.832 197.682C263.094 198.045 263.33 198.422 263.528 198.819C263.89 198.681 264.234 198.59 264.427 198.599C272.884 199.022 281.901 202.221 287.725 208.604C292.563 213.899 294.636 220.187 294.634 226.825ZM175.771 172.821C161.611 169.266 147.451 165.712 133.29 162.157C129.994 171.605 126.699 181.053 123.403 190.501C124.898 190.706 126.422 190.804 127.986 190.74C128.517 190.719 128.744 190.826 128.781 190.991C129.33 190.931 129.781 190.975 129.775 191.147C129.62 195.28 125.152 196.711 121.554 197.432C117.327 204.815 115.689 213.242 112.033 220.801C119.637 222.673 127.24 224.545 134.844 226.416C134.869 226.416 134.894 226.416 134.919 226.416C135.312 226.416 135.552 226.497 135.683 226.622C142.366 228.268 149.048 229.912 155.732 231.558C162.412 211.979 169.091 192.399 175.771 172.821ZM36.9042 202.922C37.1832 202.824 37.4792 202.796 37.7572 202.815C37.8502 197.891 38.4742 193.031 39.1682 188.159C39.3012 187.23 42.2122 186.693 42.0592 187.77C41.3582 192.688 40.6882 197.603 40.6352 202.579C40.6282 203.208 39.6422 203.644 38.8222 203.738C38.7062 203.896 38.4732 204.055 38.0712 204.196C37.3912 204.434 36.6652 204.662 35.9112 204.872C34.0782 213.835 32.4242 223.343 32.5852 232.685C32.6562 232.696 32.7272 232.709 32.7932 232.732C50.6252 238.858 72.7002 239.378 89.8622 230.344C88.4792 215.326 85.6402 199.146 78.6082 185.739C77.9112 184.41 80.6792 183.361 81.2642 184.475C83.8502 189.406 85.8792 194.686 87.4932 200.136C94.4252 195.17 100.077 186.455 101.252 178.056C92.8082 173.478 85.6922 169.072 76.1272 168.355C76.2832 169.264 76.0012 170.197 75.0442 171.103C74.9312 171.21 74.8122 171.317 74.6802 171.423C74.0582 171.923 73.3682 172.31 72.6382 172.613C69.9152 173.749 66.5802 173.628 63.6062 172.999C58.3912 180.112 42.4312 178.47 44.1042 168.491C33.1752 168.42 26.0082 178.974 22.4292 188.163C21.1962 191.329 20.0482 194.656 19.6372 198.047C18.7002 205.748 33.3632 204.165 36.9042 202.922ZM64.9372 170.954C67.5622 171.538 70.6892 171.737 72.5662 170.225C74.8482 168.389 70.7392 165.78 68.4532 164.544C68.3292 164.984 68.2162 165.433 68.1262 165.898C68.1252 165.916 68.1312 165.931 68.1272 165.95C67.6382 168.495 66.4882 170.064 64.9372 170.954ZM46.9792 168.041C46.4802 171.263 47.7182 174.284 51.2552 175.426C54.8092 176.572 59.3162 176.158 61.2992 172.585C61.3282 172.532 61.3682 172.483 61.4172 172.437C61.1442 172.353 60.8762 172.265 60.6162 172.176C60.3972 172.101 60.2412 172.007 60.1362 171.9C55.8022 171.703 50.6502 169.564 46.9792 168.041ZM120.269 191.808C113.972 190.604 108.178 187.593 102.241 184.932C100.462 189.347 97.7092 193.549 94.4162 197.016C101.299 196.382 109.968 200.115 115.889 203.529C116.764 201.365 117.739 199.241 118.917 197.202C119.238 196.645 120.566 196.342 121.278 196.524C123.81 196.044 126.496 195.163 126.837 192.332C125.017 192.405 123.249 192.29 121.522 192.03C120.835 192.13 120.21 192.074 120.269 191.808ZM92.4492 226.444C92.5392 226.426 92.6282 226.417 92.7152 226.417C103.578 226.417 114.442 226.417 125.305 226.417C120.014 225.114 114.723 223.812 109.432 222.51C108.694 222.328 108.661 221.904 108.955 221.495C108.948 221.497 108.942 221.498 108.935 221.5C111.484 216.479 113.055 211.028 115.032 205.735C114.957 205.717 114.887 205.693 114.83 205.658C110.77 203.19 106.323 201.325 101.729 200.103C99.0692 199.395 95.7632 198.259 92.9802 198.713C92.8672 198.732 92.7662 198.741 92.6722 198.748C91.5072 199.82 90.2872 200.787 89.0342 201.651C88.7822 201.825 88.5332 202.007 88.2782 202.172C88.2212 202.209 88.1592 202.238 88.0962 202.267C88.1482 202.455 88.2002 202.643 88.2502 202.83C90.3312 210.579 91.6162 218.608 92.4492 226.444ZM47.7662 110.26C48.6372 109.104 49.4402 107.918 50.1692 106.709C49.4762 107.788 48.6662 108.999 47.7662 110.26ZM404.357 154.051C404.67 153.403 406.305 153.081 406.978 153.27C407.041 153.284 407.1 153.303 407.152 153.331C407.154 153.331 407.157 153.332 407.159 153.333C409.906 154.81 413.301 154.442 414.249 151.044C414.77 149.177 414.602 147.061 413.643 145.34C411.254 141.054 406.61 141.73 404.153 145.582C403.671 146.339 400.978 146.519 401.282 146.043C401.341 145.951 401.405 145.86 401.469 145.771C401.428 145.754 401.388 145.737 401.356 145.712C395.45 141.273 393.873 133.023 397.356 126.702C397.074 126.682 396.832 126.602 396.687 126.433C395.169 124.663 393.161 125.019 392.494 122.989C392.49 122.985 392.485 122.981 392.48 122.977C387.318 124.829 380.295 124.733 378.945 119.25C377.064 121.497 374.594 123.035 371.416 123.206C368.357 123.371 366.298 121.39 365.005 118.928C361.99 122.15 356.045 119.535 351.535 117.307C350.767 123.405 344.438 123.913 339.115 123.483C339.4 137.221 338.493 156.102 351.792 164.277C361.71 170.374 376.475 167.292 384.15 177.03C384.298 177.094 384.394 177.195 384.396 177.339C384.44 180.396 384.943 182.962 386.332 185.576C392.639 182.075 396.822 175.768 398.924 168.94C398.93 168.919 398.938 168.9 398.944 168.88C398.947 168.871 398.95 168.862 398.953 168.854C398.954 168.852 398.954 168.851 398.955 168.85C398.96 168.836 398.97 168.823 398.976 168.809C399.015 168.713 399.078 168.621 399.167 168.538C398.183 162.872 401.961 158.993 404.357 154.051ZM400.323 172.493C397.67 178.434 393.382 183.431 387.606 186.571C393.236 188.094 398.707 187.098 400.322 180.625C400.984 177.974 401.01 175.139 400.323 172.493ZM375.868 182.838C376.875 186.07 380.356 186.456 383.323 186.161C382.012 183.614 381.54 181.101 381.495 178.122C380.845 177.286 380.143 176.55 379.403 175.893C377.193 177.381 374.991 180.02 375.868 182.838ZM333.719 96.124C331.751 96.588 329.845 97.352 328.273 98.525C330.029 97.602 331.98 96.783 333.719 96.124ZM359.428 229.896C359.491 229.884 359.541 229.895 359.602 229.888C361.668 229.242 363.664 228.498 365.562 227.365C366.393 226.868 370.026 224.823 368.728 223.628C367.095 224.405 365.403 225.043 363.768 225.829C362.273 226.548 360.683 224.912 362.467 224.054C364.045 223.295 365.704 222.71 367.281 221.942C368.131 221.528 369.031 221.111 369.782 220.523C369.341 220.439 369.083 220.263 368.958 220.048C367.39 220.484 365.784 220.837 364.308 221.548C363.726 221.828 362.92 222.091 362.273 221.884C361.635 221.681 362.294 221.146 362.593 221.001C364.802 219.938 367.077 219.475 369.384 218.769C369.67 218.528 370.044 218.358 370.441 218.339C370.755 218.153 371.044 217.913 371.131 217.642C371.361 216.935 370.096 216.96 369.696 216.934C369.653 216.931 369.633 216.913 369.595 216.908C368.095 217.077 366.588 217.226 365.206 217.769C363.852 218.302 362.149 217.185 364.026 216.447C365.857 215.725 367.643 215.421 369.597 215.201C369.939 215.162 373.216 214.726 372.97 214.263C372.418 213.221 370.556 213.06 369.601 213.063C366.503 213.073 363.812 214.078 361.197 215.638C359.9 216.412 358.637 217.05 357.162 217.401C355.407 217.818 354.964 216.236 356.736 215.815C358.783 215.329 360.232 213.798 362.165 213.094C363.08 212.761 363.992 212.413 364.92 212.118C364.719 212.05 364.607 211.929 364.663 211.74C365.235 209.813 365.49 207.766 365.609 205.69C361.931 204.093 357.822 204.26 353.82 204.03C350.645 208.784 347.787 214.346 347.088 220.046C346.047 228.551 351.514 231.317 359.428 229.896ZM355.033 242.436C359.114 243.204 362.062 241.544 365.629 240.304C365.867 236.38 365.654 232.469 365.306 229.081C363.919 229.736 362.493 230.286 361.031 230.775C361.024 231.175 360.696 231.584 359.919 231.723C358.914 231.904 357.825 232.047 356.71 232.135C355.591 235.5 354.976 239 355.033 242.436ZM368.515 239.464C370.698 238.913 372.929 238.49 375.177 238.25C375.206 232.417 375.644 226.405 376.997 220.684C375.477 220.461 373.99 219.846 372.549 218.605C372.432 218.676 372.313 218.742 372.194 218.807C372.742 219.092 373.155 219.528 373.015 220.219C372.826 221.16 371.934 221.826 371.104 222.339C373.32 223.947 370.178 226.199 368.644 227.218C368.472 227.332 368.296 227.433 368.124 227.541C368.516 231.085 368.771 235.263 368.515 239.464ZM382.866 207.762C377.923 207.817 372.988 209.016 368.532 211.389C370.755 211.154 373.113 211.245 375.02 212.435C376.383 213.285 375.921 214.715 374.753 215.467C374.381 215.707 373.993 215.901 373.596 216.063C373.785 216.184 373.929 216.346 374.012 216.551C374.251 216.59 374.463 216.676 374.616 216.826C375.509 217.713 376.489 218.27 377.537 218.596C378.546 215.004 379.95 211.553 381.885 208.367C382.052 208.092 382.435 207.885 382.866 207.762ZM59.8732 1.64799C60.1842 1.738 60.3992 1.92999 60.3992 2.25999C60.3992 26.593 60.3992 50.926 60.3992 75.26C60.3992 75.3 60.3872 75.338 60.3782 75.377C63.2552 76.75 66.8532 78.855 70.3292 80.264C70.3292 58.333 70.3292 36.403 70.3292 14.471C68.5252 14.42 70.4642 12.822 71.5372 12.822C71.6472 12.822 71.7572 12.822 71.8672 12.822C72.1132 12.788 72.3552 12.784 72.5652 12.822C179.081 12.822 285.598 12.822 392.115 12.822C392.387 12.784 392.653 12.787 392.878 12.839C393.274 12.884 393.427 13.027 393.415 13.21C393.45 13.286 393.476 13.37 393.476 13.47C393.476 31.986 393.476 50.5 393.476 69.017C396.661 70.072 399.445 72.22 400.852 75.288C401.649 74.559 402.505 73.937 403.406 73.444C403.406 49.512 403.406 25.581 403.406 1.64799C288.895 1.64799 174.384 1.64799 59.8732 1.64799ZM48.3132 166.053C48.3342 166.16 48.3102 166.264 48.2632 166.364C50.8802 167.435 53.4512 168.637 56.1542 169.481C57.7902 169.991 59.4292 170.419 60.8722 170.415C61.3202 170.175 61.8542 170.057 62.2852 170.205C62.3022 170.211 62.3202 170.217 62.3382 170.223C63.7412 169.814 64.8092 168.708 65.2522 166.399C65.2572 166.375 65.2722 166.352 65.2802 166.328C67.5002 155.055 80.0132 151.504 86.5612 143.343C97.7312 129.423 88.2352 111.78 81.7882 97.934C81.1042 98.243 80.3672 98.482 79.5942 98.67C76.9262 99.895 73.5762 99.624 70.8432 99.011C69.0432 98.825 67.3022 98.532 65.7492 98.211C65.6352 98.812 65.4932 99.419 65.3372 100.027C64.9202 101.838 64.1492 104.534 62.7352 108.023C60.9992 112.306 58.1502 113.805 56.2662 114.328C55.5662 114.923 54.1392 115.085 53.7712 114.556C52.9922 114.516 52.5492 114.088 53.8262 113.521C54.4312 110.913 54.2592 108.43 53.5582 105.987C51.3422 110.191 48.3912 114.125 44.5912 116.94C40.0812 120.282 35.8572 124.079 30.8132 126.545C36.9592 130.582 39.3562 138.869 35.9702 145.565C35.9492 145.607 35.9182 145.647 35.8832 145.685C35.9762 145.737 36.0752 145.778 36.1662 145.833C36.6972 146.155 34.2112 147.332 33.4492 146.87C31.5622 145.724 28.7212 144.816 26.7862 146.362C26.7872 146.362 26.7882 146.363 26.7882 146.363C27.0832 146.623 26.5722 147.027 25.9052 147.295C24.9192 148.623 24.5732 150.367 24.8832 152.015C25.2862 154.157 26.3452 156.492 28.5532 157.306C31.0692 158.233 32.8472 157.041 34.2872 154.986C34.7232 154.364 37.5662 153.962 36.9352 154.863C36.7642 155.107 36.5772 155.337 36.3822 155.56C36.7282 155.528 37.0372 155.568 37.2292 155.716C41.5742 159.095 47.1422 159.84 48.3132 166.053ZM31.1342 249.807C31.5232 250.143 31.8982 250.516 32.2822 250.877C32.2432 250.327 32.1922 249.777 32.1202 249.231C32.0742 249.188 32.0382 249.138 32.0182 249.077C27.6802 235.107 30.1202 219.604 32.9862 205.552C28.0492 206.467 22.4992 206.273 18.8632 202.966C16.6002 209.277 15.3112 215.859 14.4502 222.509C13.6832 228.432 13.3362 233.139 10.4022 238.376C8.15717 242.385 4.79117 246.686 3.85517 251.268C3.79317 251.567 4.20217 256.709 4.86117 255.568C5.99917 253.597 6.81216 251.505 7.64316 249.392C7.94616 248.621 10.7392 248.316 10.5062 248.906C10.2622 249.526 9.96616 250.405 9.60016 251.363C9.06116 253.095 8.69317 255.089 9.12317 256.744C9.17617 256.948 9.54516 257.704 9.50416 257.747C9.89116 257.344 10.2022 256.886 10.4292 256.372C10.8802 255.348 11.1662 254.287 11.3952 253.193C11.4142 253.105 11.4732 253.02 11.5612 252.941C11.8832 251.479 12.2632 250.153 12.3952 249.402C12.5192 248.693 15.3762 248.198 15.2542 248.896C14.7902 251.542 13.6192 254.632 14.1702 257.33C14.2592 257.762 14.3782 258.375 14.7982 258.625C14.8482 258.584 14.8792 258.556 14.9422 258.504C15.0872 258.32 15.2332 258.137 15.3782 257.953C15.5552 257.685 15.7122 257.408 15.8522 257.119C16.6272 255.401 16.9802 253.587 17.0172 251.705C17.0222 251.484 17.2222 251.295 17.5142 251.142C17.5202 251.075 17.5242 250.997 17.5312 250.935C17.6852 249.581 20.6452 249.206 20.4722 250.732C20.2982 252.254 20.2672 253.817 20.7972 255.281C20.9852 255.895 21.2482 256.477 21.5722 257.032C21.8372 256.067 21.9552 255.061 22.1572 254.084C22.6282 251.813 23.2842 249.624 25.4572 248.472C27.4342 247.422 29.6122 248.493 31.1342 249.807ZM45.6312 300.508C45.6272 300.502 45.6292 300.494 45.6262 300.487C45.5302 300.456 45.4402 300.416 45.3672 300.357C44.0362 299.303 42.3252 297.897 40.5342 297.838C38.3422 297.766 36.7392 299.506 35.3662 300.992C35.3072 301.055 35.2332 301.111 35.1532 301.163C34.8842 301.412 34.4922 301.599 34.0212 301.614C27.3212 301.844 23.3332 307.88 21.2722 313.643C24.4332 315.836 30.6692 315.743 34.2102 315.891C39.3642 316.106 44.6992 316.12 49.7192 314.781C48.9532 310.169 48.2082 304.368 45.6312 300.508ZM49.7002 274.266C44.9862 274.496 40.1642 273.868 35.4532 273.01C35.4512 281.345 35.4422 289.679 35.4532 298.013C36.8202 296.942 38.3722 296.113 40.1012 295.991C42.4762 295.824 44.4552 296.614 46.3212 297.865C49.6132 290.684 50.1522 281.99 49.7002 274.266ZM86.3172 301.397C85.5342 301.651 84.6272 301.596 84.5072 301.108C83.2752 299.774 81.7672 298.186 79.9052 297.86C77.9382 297.514 76.2912 298.721 74.8292 299.879C74.6712 300.004 74.4962 300.11 74.3132 300.204C71.8292 304.178 71.1202 310.005 70.3482 314.558C75.3012 316.099 80.7202 316.302 85.8692 316.087C89.4272 315.939 95.6512 316.309 98.9182 314.239C96.8302 308.356 92.8272 302.308 86.3172 301.397ZM87.7322 273.34C82.2532 274.242 76.6382 274.006 71.0902 273.167C73.8212 281.021 71.5032 289.951 74.5242 297.82C76.2372 296.709 78.1602 295.853 80.2022 295.998C82.1952 296.139 83.8112 296.961 85.2552 298.121C87.3582 289.946 87.7282 281.858 87.7322 273.34ZM92.7942 270.28C91.5132 257.788 90.1412 245.176 89.9542 232.61C72.6152 241.242 50.7252 240.971 32.6682 235.165C32.8832 239.173 33.4762 243.135 34.5552 246.999C34.7362 247.119 34.8642 247.3 34.9002 247.552C35.1112 249.019 36.0462 256.108 32.0532 254.037C31.0672 253.526 30.3012 252.755 29.4892 252.022C29.1602 255.918 29.2132 259.837 29.4922 263.739C29.6122 265.423 29.7432 267.106 29.9272 268.785C30.0472 269.891 30.4022 269.987 29.6082 269.831C35.1802 270.929 40.9752 272.292 46.6652 272.427C50.3012 272.513 54.1692 272.558 57.6012 271.146C57.6082 271.031 57.7922 270.66 57.9352 269.917C58.1412 268.839 58.3502 267.762 58.5732 266.688C59.7192 261.163 60.7932 255.373 63.1872 250.226C63.6272 249.281 66.5372 249.017 65.9082 250.369C64.9352 252.458 64.1792 254.674 63.5512 256.941C63.5982 257.01 63.6352 257.087 63.6532 257.178C64.3002 260.661 64.7042 264.192 65.1082 267.71C65.2462 268.908 65.8482 270.061 64.8912 269.842C65.4772 269.976 66.0652 270.102 66.6562 270.216C75.3082 271.888 84.3052 273.196 92.7942 270.28ZM210.682 239.678C210.745 239.506 210.797 239.324 210.864 239.155C210.958 238.915 211.338 238.729 211.789 238.602C211.298 238.481 210.816 238.342 210.357 238.166C206.47 236.678 206.267 232.221 206.923 228.289C191.232 228.284 175.542 228.276 159.851 228.268C159.82 228.268 159.797 228.264 159.768 228.263C159.21 229.895 158.654 231.528 158.097 233.16C157.816 233.984 156.506 234.259 155.764 233.914C148.255 232.065 140.746 230.218 133.238 228.369C119.707 228.369 106.176 228.369 92.6452 228.369C92.7082 229.019 92.7732 229.67 92.8312 230.316C92.8352 230.357 92.8222 230.388 92.8212 230.426C92.8292 230.47 92.8412 230.511 92.8412 230.56C92.8582 233.545 92.9562 236.535 93.1012 239.525C132.294 239.657 171.488 239.709 210.682 239.678ZM222.474 282.996C223.241 282.998 223.372 283.306 223.177 283.669C223.645 284.102 224.122 284.529 224.612 284.952C226.531 286.611 228.397 288.684 230.468 290.127C231.125 290.584 231.865 290.914 232.652 291.095C233.845 291.368 233.164 291.529 232.808 290.575C232.74 290.389 233.089 290.148 233.569 289.95C231.694 289.073 229.93 287.911 228.303 286.65C227.769 286.236 230.347 285.1 231.024 285.625C232.171 286.515 233.386 287.344 234.644 288.07C235.499 288.565 236.398 289.063 237.353 289.348C237.395 289.094 237.397 288.844 237.375 288.592C237.113 288.526 236.855 288.447 236.609 288.349C234.381 287.452 232.313 286.091 230.419 284.624C229.885 284.21 232.463 283.074 233.14 283.599C234.288 284.489 235.502 285.318 236.759 286.044C237.441 286.438 238.148 286.838 238.889 287.13C239.102 287.089 239.311 287.065 239.499 287.063C239.517 286.749 239.485 286.438 239.438 286.113C239.32 286.074 239.201 286.035 239.086 285.989C236.858 285.092 234.789 283.731 232.896 282.264C232.362 281.85 234.94 280.715 235.617 281.239C236.764 282.129 237.979 282.958 239.237 283.684C240.092 284.179 240.991 284.678 241.946 284.963C242.008 284.586 241.979 284.218 241.926 283.834C240.406 282.355 238.655 280.957 236.58 280.383C235.585 280.108 236.139 279.498 236.923 279.122C236.735 279.076 236.617 278.98 236.703 278.793C236.935 278.283 237.91 278.041 238.394 277.979C238.438 277.973 238.614 277.934 238.63 277.934C238.679 277.913 238.888 277.822 238.862 277.837C238.968 277.786 239.075 277.736 239.176 277.68C239.436 277.537 239.893 277.222 240.16 276.92C240.889 276.099 239.922 275.924 239.2 275.914C239.021 275.912 238.91 275.866 238.831 275.806C232.085 275.099 226.457 271.957 225.327 264.582C224.17 257.026 225.84 249.396 226.357 241.834C226.057 240.356 225.767 238.877 225.507 237.393C221.959 238.539 217.499 239.387 213.602 238.928C209.892 248.725 210.427 262.881 214.742 272.412C216.624 276.565 219.277 279.928 222.474 282.996ZM282.227 305.432C282.218 303.016 282.209 300.599 282.201 298.183C282.133 298.16 282.1 298.129 282.125 298.09C282.152 298.047 282.174 298.003 282.2 297.961C282.173 290.643 282.146 283.326 282.119 276.008C281.3 277.106 280.466 278.192 279.607 279.257C279.348 279.578 278.92 279.752 278.48 279.802C277.242 286.25 275.566 292.524 272.043 298.403C271.765 298.867 270.731 299.159 269.998 299.118C269.998 304.398 269.998 309.68 269.998 314.96C274.075 311.784 278.151 308.608 282.227 305.432ZM307.554 281.283C306.199 276.929 303.687 272.903 300.545 269.619C298.993 276.256 294.765 281.571 289.162 286.182C288.196 290.041 287.201 293.94 285.099 297.353C285.103 298.662 285.108 299.969 285.113 301.278C289.737 299.241 294.698 297.379 298.705 294.278C303.124 290.858 305.749 286.464 307.554 281.283ZM301.158 267.999C301.08 268.155 300.959 268.288 300.812 268.401C301.499 267.983 302.632 267.802 303.104 268.29C306.18 271.474 308.712 275.416 310.18 279.636C310.555 279.674 310.797 279.812 310.71 280.079C310.645 280.279 310.565 280.46 310.497 280.655C310.569 280.892 310.653 281.126 310.719 281.364C310.859 281.874 310.39 282.309 309.789 282.542C308.504 285.618 306.858 288.158 304.926 290.337C308.46 292.102 314.988 295.001 317.068 289.886C318.701 285.874 317.812 280.983 316.554 276.99C314.525 270.546 306.904 256.456 301.158 267.999ZM297.963 260.733C297.58 258.412 297.028 256.132 296.394 253.874C296.352 253.726 296.306 253.578 296.264 253.43C295.093 254.583 293.829 255.608 292.499 256.538C289.237 258.817 285.597 260.572 282.059 262.478C282.015 262.501 281.949 262.526 281.875 262.549C281.413 264.048 281.009 265.564 280.715 267.108C280.522 268.123 280.341 269.136 280.165 270.149C281.106 270.149 282.05 270.149 282.992 270.149C283.305 269.981 283.673 269.895 284.042 269.957C285.101 270.134 285.241 270.8 285.003 271.583C285.027 278.151 285.052 284.72 285.075 291.289C285.564 289.677 285.977 288.036 286.386 286.404C286.273 286.253 286.328 286.042 286.667 285.765C294.54 279.333 299.689 271.193 297.963 260.733ZM352.287 239.269C352.536 236.935 353.072 234.574 353.876 232.21C350.219 232.09 346.71 231.037 345.042 228.022C328.233 228.028 311.424 228.03 294.615 228.032C294.528 230.346 294.192 232.697 293.641 235.06C293.621 235.148 293.605 235.236 293.583 235.324C293.787 236.035 294.007 236.748 294.233 237.462C294.424 238.064 294.623 238.666 294.826 239.27C313.981 239.269 333.134 239.269 352.287 239.269ZM360.145 256.414C363.502 252.682 365.004 247.344 365.514 241.852C362.095 242.993 358.722 244.056 355.102 243.911C355.437 248.399 356.977 252.723 360.145 256.414ZM379.507 267.123C379.511 267.124 379.515 267.124 379.519 267.124C375.732 260.053 375.411 250.112 375.223 242.555C375.198 241.523 375.185 240.479 375.181 239.43C375.11 239.437 375.04 239.439 374.969 239.446C372.684 239.667 370.518 240.244 368.399 240.91C367.814 247.42 365.894 253.775 361.259 257.64C366.081 262.67 372.597 266.071 379.507 267.123ZM381.814 302.498C381.76 302.418 381.73 302.339 381.71 302.261C381.495 302.198 381.319 302.089 381.216 301.922C379.972 300.937 378.456 299.745 376.814 299.526C375.029 299.287 373.615 300.388 372.412 301.603C373.166 302.057 371.797 303.435 370.705 303.423C363.591 303.341 358.707 307.91 358.379 314.9C361.61 317.067 367.151 317.088 370.801 317.3C375.772 317.589 380.887 317.618 385.731 316.345C385.327 314.124 384.855 311.911 384.297 309.726C383.694 307.363 383.19 304.559 381.814 302.498ZM385.12 281.389C382.018 281.869 378.809 282.249 375.845 281.824C374.518 281.634 373.197 281.387 371.88 281.109C372.037 287.072 372.821 293 372.988 298.963C373.982 298.399 375.055 298.006 376.213 297.924C378.14 297.788 379.787 298.246 381.331 299.07C382.149 293.103 384.896 287.454 385.12 281.389ZM389.961 268.9C387.319 269.351 384.587 269.489 381.819 269.291C381.494 269.337 381.177 269.322 380.935 269.218C375.413 268.69 369.734 267.01 364.899 264.064C364.899 266.556 364.899 269.048 364.899 271.541C364.899 273.158 364.899 274.775 364.899 276.393C364.899 277.607 364.503 277.311 365.495 277.582C367.137 278.033 368.882 278.592 370.66 279.101C371.042 279.086 371.393 279.168 371.614 279.365C374.014 280.014 376.454 280.516 378.767 280.462C381.897 280.387 385.024 279.996 388.127 279.554C388.74 276.002 389.35 272.451 389.961 268.9ZM402.105 261.845C394.634 258.115 391.748 250.368 391.373 242.329C387.164 240.679 382.846 239.398 378.078 239.325C378.084 239.881 378.092 240.434 378.105 240.983C378.306 249.102 378.443 260.319 383.097 267.46C390.153 267.741 396.851 265.68 402.105 261.845ZM420.134 303.421C419.856 303.425 419.635 303.385 419.457 303.32C419.005 303.332 418.659 303.233 418.668 302.995C418.683 302.587 418.71 302.181 418.744 301.776C417.72 300.76 416.53 299.808 415.169 299.569C413.161 299.215 411.588 300.404 410.093 301.588C410.029 301.64 409.941 301.685 409.843 301.726C409.823 301.808 409.789 301.894 409.724 301.992C409.587 302.197 409.476 302.431 409.349 302.648C409.317 302.876 409.195 303.072 409.015 303.231C407.05 306.987 406.388 312.058 405.708 316.139C410.901 317.673 416.602 317.791 421.96 317.489C425.083 317.311 430.072 317.504 433.348 316.085C433.234 315.953 433.16 315.787 433.156 315.572C433 308.139 427.455 303.338 420.134 303.421ZM422.49 283.141C417.008 284.027 411.289 284.261 405.82 283.297C406.265 288.997 408.489 294.438 409.174 300.111C411.046 298.804 413.229 297.7 415.508 297.861C416.876 297.957 418.053 298.365 419.124 298.971C420.079 293.662 422.181 288.568 422.49 283.141ZM422.521 255.235C422.521 255.219 422.529 255.206 422.531 255.19C418.734 255.897 414.801 256.14 410.987 255.669C408.033 260.05 403.896 263.574 399.076 265.952C398.527 269.709 398.363 273.478 398.895 277.254C399.201 279.422 400.091 279.702 402.149 280.519C402.788 280.772 403.436 280.995 404.087 281.202C404.681 281.094 405.316 281.214 405.6 281.641C411.14 283.1 417.059 283.06 422.737 282.201C422.925 282.009 423.215 281.852 423.541 281.739C423.017 272.916 422.556 264.073 422.521 255.235ZM432.167 209.806C427.759 209.743 423.382 209.686 418.989 210.268C418.989 213.024 418.989 215.78 418.989 218.535C420.464 218.466 421.975 218.641 422.951 219.879C423.651 220.767 420.86 221.769 420.258 221.004C418.772 219.118 415.442 220.691 413.464 220.873C412.186 220.991 410.794 221.032 409.689 220.429C409.183 220.493 408.691 220.36 408.461 219.929C407.842 218.769 407.316 217.556 406.629 216.432C406.171 215.683 405.303 214.042 404.281 213.913C404.272 213.943 404.26 213.981 404.242 214.052C404.19 214.242 404.192 214.491 404.203 214.687C404.233 215.234 404.383 215.791 404.561 216.308C404.905 217.302 405.346 218.247 405.938 219.121C406.283 219.629 406.073 220.114 405.645 220.45C406.457 221.311 404.233 222.592 403.172 221.969C401.859 221.2 400.449 220.546 399.017 220.035C398.221 219.752 397.401 219.45 396.554 219.363C396.496 219.357 396.313 219.373 396.17 219.371C397.484 221.062 400.305 221.984 402.277 222.6C404.038 223.151 401.922 225.025 400.621 224.62C399.71 224.335 397.008 223.391 395.092 222.135C395.154 222.267 395.233 222.392 395.3 222.489C395.869 223.31 396.596 224.018 397.362 224.655C398.628 225.708 400.311 227.109 401.982 227.411C402.628 227.528 402.719 228.171 402.298 228.592C401.769 229.12 400.959 229.27 400.249 229.142C398.924 228.902 397.531 228.146 396.266 227.219C397.174 229.556 399.793 231.383 402.139 231.713C402.821 231.809 401.975 232.381 401.785 232.471C401.168 232.763 400.44 232.936 399.76 232.84C399.39 232.788 399.017 232.696 398.645 232.583C400.186 235.957 405.958 237.017 408.814 234.754C409.528 234.19 410.678 234.38 411.101 234.895C411.112 234.901 411.126 234.904 411.137 234.91C414.793 236.982 423.051 242.005 427.218 238.598C429.498 236.734 430.586 233.841 431.155 231.022C432.56 224.061 432.187 216.866 432.167 209.806ZM403.158 171.442C403.171 171.484 403.182 171.526 403.194 171.569C404.354 175.748 403.898 180.698 401.365 184.068C397.421 189.315 390.569 189.381 384.792 187.655C384.745 187.654 384.697 187.653 384.651 187.647C384.527 187.695 384.399 187.735 384.264 187.757C380.618 188.358 374.462 188.405 373.073 183.942C372.168 181.036 373.6 178.342 375.682 176.371C361.303 178.346 357.643 190.16 353.192 202.403C353.537 202.384 353.858 202.425 354.087 202.526C357.949 202.903 361.954 202.66 365.689 203.643C365.735 201.344 365.677 199.04 365.726 196.846C365.747 195.877 368.622 195.369 368.624 196.07C368.624 196.09 368.624 196.11 368.624 196.13C368.624 196.131 368.623 196.132 368.623 196.134C368.522 200.82 368.894 206.041 367.705 210.636C367.698 210.661 367.693 210.688 367.686 210.713C373.812 207.733 380.753 206.309 387.52 206.771C393.096 207.152 398.541 208.821 403.306 211.922C403.337 211.91 403.361 211.894 403.393 211.883C407.39 210.491 409.413 215.323 410.894 218.214C411.104 218.249 411.279 218.326 411.384 218.46C412.418 219.773 414.346 219.409 416.09 219.006C416.09 212.614 416.09 206.222 416.09 199.829C416.09 199.054 418.988 198.661 418.988 199.052C418.988 202.137 418.988 205.222 418.988 208.306C424.433 207.546 429.851 207.777 435.329 207.833C436.324 198.616 435.581 186.469 427.709 180.365C427.667 180.332 427.631 180.294 427.588 180.261C424.252 177.726 419.994 176.454 416.071 175.111C415.32 174.854 414.568 174.601 413.814 174.352C410.385 173.218 406.919 172.188 403.379 171.483C403.307 171.467 403.233 171.456 403.158 171.442ZM241.284 183.261C242.063 182.149 239.136 182.381 238.579 183.175C237.186 185.163 233.515 187.507 231.319 185.483C230.548 184.772 227.822 185.883 228.631 186.629C232.252 189.968 238.899 186.667 241.284 183.261ZM239.227 169.789C239.882 169.803 240.73 169.618 241.277 169.24C243.247 167.876 245.458 168.833 246.949 170.453C247.429 170.974 250.095 169.929 249.683 169.48C246.92 166.48 242.193 167.031 239.068 169.195C238.636 169.494 238.649 169.777 239.227 169.789ZM212.845 169.268C213.309 170.098 216.068 169.072 215.743 168.491C213.744 164.909 207.071 164.866 205.07 168.475C204.754 169.046 207.506 168.817 207.945 168.026C209.025 166.079 212.053 167.847 212.845 169.268ZM210.908 161.622C211.864 161.177 212.923 161.065 213.959 161.232C214.653 161.344 215.542 160.996 215.841 160.326C216.145 159.646 215.565 159.136 214.938 159.035C213.131 158.744 211.252 159.042 209.598 159.811C209.047 160.067 208.5 160.773 208.93 161.369C209.37 161.979 210.309 161.9 210.908 161.622ZM245.89 162.239C247.286 161.389 248.472 162.251 249.176 163.559C249.828 164.772 252.572 163.647 251.821 162.252C250.409 159.627 247.089 158.888 244.578 160.418C244.062 160.731 243.453 161.345 243.912 161.982C244.322 162.552 245.33 162.581 245.89 162.239ZM266.972 180.561C267.596 180.541 268.48 180.334 268.898 179.822C269.587 178.979 270.179 179.001 271.191 179.313C271.841 179.513 272.649 179.3 273.229 178.99C273.521 178.833 274.196 178.261 273.537 178.057C271.047 177.287 267.951 177.814 266.24 179.908C265.813 180.429 266.603 180.573 266.972 180.561ZM221.147 177.346C220.642 176.589 219.102 175.611 219.397 174.607C219.669 173.681 219.896 172.744 220.128 171.807C220.432 170.59 220.746 169.377 221.091 168.172C221.278 167.522 221.501 166.887 221.738 166.254C221.873 165.893 222.659 164.89 221.981 165.12C223.711 164.531 223.223 162.562 221.458 163.163C218.946 164.017 218.433 167.374 217.816 169.617C217.372 171.233 217.008 172.87 216.565 174.486C216.048 176.373 217.55 177.205 218.492 178.613C219.211 179.691 221.978 178.589 221.147 177.346ZM202.767 302.801C202.785 302.818 202.793 302.835 202.779 302.857C199.82 307.161 196.861 311.465 193.902 315.77C193.9 316.112 193.5 316.432 192.992 316.639C192.659 316.846 192.278 316.992 191.935 316.992C178.362 316.992 164.788 316.992 151.214 316.992C150.714 316.992 150.459 316.868 150.374 316.684C150.197 316.504 150.16 316.241 150.36 315.887C156.432 305.171 162.506 294.455 168.578 283.739C169.087 282.843 171.18 282.684 171.446 283.448C181.866 289.829 192.286 296.211 202.707 302.592C202.794 302.645 202.804 302.718 202.767 302.801ZM190.063 315.095C183.375 305.539 176.686 295.984 169.997 286.429C164.582 295.984 159.168 305.539 153.753 315.095C165.856 315.095 177.959 315.095 190.063 315.095ZM199.816 303.535C191.433 298.401 183.05 293.267 174.667 288.134C180.677 296.72 186.687 305.306 192.697 313.892C195.07 310.439 197.443 306.987 199.816 303.535ZM145.093 294.535C145.241 294.694 145.335 294.905 145.335 295.18C145.335 300.36 145.335 305.538 145.335 310.718C145.335 311.34 144.723 311.759 144.057 311.885C141.11 313.218 138.162 314.55 135.214 315.881C134.823 316.161 134.257 316.294 133.763 316.241C133.202 316.509 132.482 316.758 132.206 316.758C125.844 316.758 119.482 316.758 113.121 316.758C112.304 317.022 111.338 317.007 111.338 316.564C111.338 310.491 111.338 304.418 111.338 298.345C111.338 297.644 112.669 297.186 113.526 297.201C117.551 296.167 121.577 295.134 125.603 294.098C125.993 293.828 126.48 293.619 126.874 293.619C132.722 293.619 138.569 293.619 144.417 293.619C145.186 293.619 145.352 293.884 145.206 294.205C145.264 294.299 145.238 294.411 145.093 294.535ZM117.408 297.336C122.646 297.336 127.886 297.336 133.125 297.336C133.639 296.894 134.564 296.741 135.154 297.018C136.705 296.459 138.256 295.9 139.806 295.341C135.126 295.341 130.447 295.341 125.767 295.341C125.591 295.341 125.457 295.323 125.341 295.298C122.697 295.977 120.052 296.657 117.408 297.336ZM132.803 315.591C132.773 315.497 132.751 315.397 132.751 315.281C132.751 309.714 132.751 304.144 132.751 298.577C126.579 298.577 120.408 298.577 114.236 298.577C114.236 304.248 114.236 309.92 114.236 315.591C120.425 315.591 126.615 315.591 132.803 315.591ZM135.689 313.355C137.924 312.345 140.159 311.335 142.394 310.325C142.394 305.421 142.394 300.516 142.394 295.613C140.16 296.419 137.923 297.224 135.689 298.03C135.689 303.139 135.689 308.247 135.689 313.355Z" fill="#0F4851"/>
</svg>
