<svg width="1152" height="720" viewBox="0 0 1152 720" fill="none" xmlns="http://www.w3.org/2000/svg">
<path d="M476.4 237.9L571 182.9C571 182.9 546.8 150 513.1 168.4C479.4 186.8 468.7 207.6 468.7 207.6L476.4 237.9Z" fill="#8CB4E6"/>
<path d="M692.1 589.6C692.1 589.6 713.4 625.8 753.7 619.1C794 612.4 797.9 602 803.5 582.6C809 563.2 808 539.3 806.4 534C804.7 528.7 784.2 531 784.2 531L692.1 589.6Z" fill="#9ABFED"/>
<path d="M486.2 300.9L803.5 484.5L807.7 540.7L700.1 603.9L353.2 402.9C353.2 402.9 320.4 384.2 320.4 381.7C320.4 379.2 336.8 334 336.8 334L395.2 298.3L473 296.6L486.2 300.9Z" fill="#BBD5F2"/>
<path d="M337.1 388.1L486.3 301.1C486.3 301.1 456 279.1 439.7 249.7C423.4 220.4 418 201.8 417.7 177.2C417.4 152.6 373.7 180.6 342.8 186.9C311.9 193.2 282.8 195 275.1 207.7C267.4 220.4 258.9 248.2 260.2 261.4C261.5 274.6 279.4 330.9 288.3 341.8C297.2 352.7 320.4 379.4 320.4 379.4L333.6 391.1H337.2L337.1 388.1Z" fill="#9ABFED"/>
<path d="M342.8 210.9L414.2 170.3C414.2 170.3 359.2 171.7 352.8 176.5C346.4 181.3 338 200.4 338 200.4L342.8 210.9Z" fill="#8CB4E6"/>
<path d="M281.4 193.2L302.6 180.9L382.1 134.7L430.7 106.5C430.7 106.5 440.9 98.6 458.4 100.5C475.9 102.4 484.8 107.6 484.8 107.6L334 199.1L281.4 193.2Z" fill="url(#paint0_linear_2_2)"/>
<path d="M350 178.3L404.7 146.2L495 93.7C495 93.7 512.3 76.5 540.3 82.3C568.3 88.1 575.9 95.6 590.1 103.9C604.3 112.2 619.6 130.1 619.6 130.1C619.6 130.1 475 216.7 470.5 221.6C466.1 226.5 426.4 170 380.3 178.8C380.4 178.8 349.7 191.1 350 178.3Z" fill="url(#paint1_linear_2_2)"/>
<path d="M494 191.9L590.3 135.9L644.4 104.5C644.4 104.5 662.5 90.5 694.5 98.2C726.5 105.9 743.7 120.6 759.7 132.7C775.7 144.8 794.4 167.2 810.6 191.3C826.9 215.4 837.1 239.7 842 255.2C846.8 270.7 848.3 275.1 848.3 275.1L694.1 364.1L671 305.4L631.4 242.7L591 210.8C582 205.4 572.9 200 563.9 194.6C554.2 193.5 544.5 192.4 534.8 191.3L511.6 192.4L497.6 197.7L494 191.9Z" fill="url(#paint2_linear_2_2)"/>
<path d="M692 359.5C692 359.1 846.4 270.8 846.4 270.8C846.4 270.8 873.5 282 902.5 315.4C931.5 348.8 942.8 376.9 945 382.2C947.2 387.4 963 421.4 963.9 459.3C964.8 497.2 954.4 508.6 951 515.8C947.6 523 934.8 532.6 934 533.2C933.1 533.7 916.8 543.3 916.8 543.3L782.8 621.2C782.8 621.2 804.7 583.8 805.2 571.9C805.7 560 809.8 521.4 809.8 521.4L800.5 491.2L783.3 453.5L759.5 412.5C759.5 412.5 723.5 380.5 723.5 379.8C723.5 379.1 698.7 366.3 698.7 366.3L692 364.3V359.5Z" fill="url(#paint3_linear_2_2)"/>
<path d="M705.6 361.9C766 396.8 815 481.6 814.8 550.9C814.6 620.3 765.3 648.4 704.9 613.5L336.5 400.8L335.1 399.4C289.3 367.4 254.9 303.6 255.1 250.5C255.2 198.1 290.4 173.8 335.6 194.4C353.8 164.5 389.4 160 428.9 182.9C443.4 191.3 457.4 202.8 470.8 217.3C491.1 179.1 534.6 172.2 582.7 200C633.7 229.5 679.5 292.4 697.4 357.6C700.1 358.8 702.9 360.3 705.6 361.9ZM704.9 600.5C759.1 631.8 803.3 606.6 803.5 544.4C803.7 482.2 759.7 406.1 705.6 374.8C702.3 372.9 698.9 371.1 695.6 369.6L689.8 366.9L687.9 359.4C672.3 299 630 240.1 582.7 212.8C537.9 186.9 497.4 194.2 479.6 231.4L476.5 237.9L469.5 230C456.7 215.4 443 204 429 195.8C393.1 175.1 360.8 179.6 344.8 207.6L342.9 210.9L338.7 208.9C298.3 189.4 266.6 210.6 266.5 257.1C266.4 303.7 296.7 359.9 337 387.7L704.9 600.5Z" fill="#B8D4F2"/>
<path d="M809.9 186.2C809.9 186.2 776.7 168.8 777.7 193.1C778.6 217.5 824.7 234.4 809.9 186.2Z" fill="#F5B68F"/>
<path d="M810.7 202.4C806.5 195 807.7 190.7 810 186.3C812.7 181.1 818.8 180.1 826.1 190C833.3 199.8 844.4 218.6 850.7 234.3C853.8 241.9 857.7 254.5 859 271.5C859.9 283.3 858.7 292.7 857.1 304.4C857.1 304.6 857 304.9 857 305.1C857.5 307.2 858.2 311.4 857.2 316.5C856.3 321.3 858.5 326.2 857.7 330.1C857.3 332.2 855.5 332.7 854.8 330.7C853.8 327.9 854.1 323.6 853.7 323.1C853.3 323.2 852.9 328.9 852.8 329.3C852.6 331 852.4 332.6 852.1 334.2C851.7 336.2 851.3 338.8 849.4 338.4C848.7 338.2 848.6 337.7 848.5 336.9C848.4 335.7 849.3 323.9 848.6 323.5C847.5 323.8 845.9 337 845 340.2C844.4 342.2 841.4 342 841.6 339.4C841.7 338.2 844.3 323.7 843.9 322.8C843.7 322.5 843.4 322.2 843.1 322.3C842.6 322.5 839 335.4 838.9 335.9C838.7 336.7 838.3 337.7 837.6 337.9C836.8 338.2 835.9 337.4 835.7 336.5C835.4 335.6 835.6 334.7 835.7 333.8C836 331.9 838.4 323.3 839 320.8C839.6 318.3 840.4 314.4 838.8 312.4C837.9 311.2 836 311.9 834.9 312C830.9 312.3 829.6 311.7 829.9 310.2C830.2 309 832.8 308.2 833.8 307.7C836.5 306.3 838.2 304.6 840.7 303.4C841.5 303 842.2 301.1 842.6 299.6C842.6 299.4 842.7 299.3 842.8 299.1C843.5 293.6 843.5 284.6 842.9 276.1C842 262.9 836.5 246.8 833.3 240.3C826.9 227.1 814.9 209.8 810.7 202.4Z" fill="#F5B68F"/>
<path d="M858.3 453.1C857.5 456.7 858.7 457.5 859.5 458.1C862.9 460.5 883.4 467.2 884.8 467.4C885.8 467.5 886.9 467.7 887.9 467.5C894.8 466.3 898.1 461.8 897.2 458.5C897.2 458.4 896.3 455.9 896.3 455.9C896.1 455.3 893.2 454.4 888 455.2C888 455.2 882.9 452.3 877 447.6C875.9 446.7 874.7 446.4 873.4 446.3C871.1 446.1 868.9 445.4 866.6 445.4C864.8 445.4 862.7 445.7 861.6 447.3C861.1 448.1 858.6 451.9 858.3 453.1Z" fill="#292766"/>
<path d="M858.6 451.2C858.2 452.7 858.3 454.1 859.4 455.2C861.1 456.9 882.7 464.5 884 464.7C885 464.8 886.1 464.9 887.1 464.8C898 463.8 900.2 453.9 891.2 452.9C890.1 452.8 887.2 452.5 887.2 452.5C887.2 452.5 882.2 449.7 876.4 444.4C875.4 443.5 863.3 438.9 860.8 444.6C860.4 445.4 858.9 450 858.6 451.2Z" fill="#292766"/>
<path d="M848.8 491.2C846.7 489.3 841.9 486.2 837.8 484.1C835.4 484.5 832.9 484.7 830.3 484.7C825 484.7 818.8 484.3 814.1 481.3C814.1 482.4 814.1 483.5 814.2 484.7C814.4 487 814.7 487.9 817.1 489.4C829.7 496.8 831.4 497.8 833.6 498.9C836.2 500.1 839.3 501.6 845.8 499.3C849.1 497.5 849 496 849 494.7C849.1 493.6 849 491.4 848.8 491.2Z" fill="#292766"/>
<path d="M847.8 489.4C845.1 486.4 838.3 482.8 833.4 478.8C832.3 477.9 831.2 476.6 830.6 475.2C829 471.7 819.7 471.5 815.7 474.1C813.8 475.3 813.6 479 814 482.3C814.2 484.6 814.5 485.5 816.9 487C829.5 494.4 832.2 495.7 834.5 496.7C836.7 497.6 839.1 498.4 843.8 497.1C845.4 496.6 846.9 495.7 848 494.3C848.9 493 849.8 491.5 847.8 489.4Z" fill="#292766"/>
<path d="M828.7 470.8C828.4 470 828 469.3 827.4 468.8C826.9 468.4 826.2 468.3 825.6 468.2C822.8 467.9 819.9 468.6 817.4 470.3L815.9 471.2C815.1 472.6 815.2 474.5 815.4 476.2C815.5 477.1 815.7 477.4 816.4 477.9C820.5 480.7 829.9 479.1 829.6 475.5C829.6 473.9 829.3 472.3 828.7 470.8Z" fill="#F5B68F"/>
<path d="M876.4 440.6C876.4 440.1 876.2 438.1 875.1 437.6C874.8 437.4 874.5 437.5 874.3 437.5C873.3 437.6 870.6 437.5 865.1 436.8L863.2 437.2C862.8 438.7 862.5 439.9 862.3 440.9C862.2 441.4 862 442.2 861.9 443.2C861.9 443.5 861.8 444.2 861.8 444.4C862 446.9 873.7 449.7 875.4 446.3C875.6 446 875.7 445.2 876 443.5C876.5 441.4 876.5 440.8 876.4 440.6Z" fill="#F5B68F"/>
<path d="M810 183.4C805.5 186.9 805.9 194.3 809.8 202.2C813.8 210.1 823.7 225.6 826.5 231.8C829.3 238 832.3 242.1 832.3 242.1C832.3 242.1 844.4 240.7 850 231C850 231 841.7 212.5 832.9 198.9C824.1 185.3 818.1 177 810 183.4Z" fill="#6A89CE"/>
<path d="M760.7 307.1C755.5 342 772.1 352.2 787.8 365.2C800.5 375.8 813.1 383.6 813.1 383.6C813.1 383.6 811.7 391.8 811.5 409C811.4 424.1 815.1 473.3 815.1 473.3C815.1 473.3 822.8 477.6 829.3 473.1C829.3 473.1 834.1 435.8 836.4 416.8C839.6 390.1 842.3 378 841.1 372.5C840 367.6 819.6 343.1 814.7 334.9L860.2 363.5C860.2 363.5 858.6 376 858.9 385.4C859.4 405.9 862.2 441.4 862.2 441.4C862.2 441.4 869.7 447.3 876.1 441.5C876.1 441.5 890.4 358 890.4 350.6C890.4 339.4 848.7 311.4 839.4 304.8C831.9 299.4 823.5 292.4 823.5 292.4L760.7 307.1Z" fill="#31437A"/>
<path d="M801.4 192.8C803.3 190.8 802.6 187.5 802.4 186.9C801.5 183.1 798 181.5 797.6 181.4C791.3 179.3 779.5 173.7 779.5 173.7C779.5 173.7 779.7 177.5 779.8 180.2C779.8 183.3 781.6 186.5 783.9 188.4C785.6 189.8 787.9 191.5 790.7 192.7C792.9 193.7 798.7 195.7 801.4 192.8Z" fill="#E89B70"/>
<path d="M777.7 193.2C777.7 193.2 788.8 211.2 804.4 212.8C809.3 207.6 809.7 189 803 183C803 183 809.2 177.6 813.5 178.6C813.5 178.6 820.2 182.4 823.1 191.8C826 201.3 828.9 212.6 828.6 230.2C828.3 249.7 826.5 302.4 826.8 293C826.8 293 828.8 302.4 814.7 310.8C800.7 319.3 787.7 323.2 778.2 320.8C770.3 318.8 761.9 313.6 760.7 306.9C761.4 294.6 763.8 273.9 761.9 258.4C760 242.9 760.2 230 759.4 217.4C758.6 204.8 760.9 205.1 766.7 200.6C774.5 194.8 777.7 193.2 777.7 193.2Z" fill="#F4FBFB"/>
<path d="M804.4 212.8C804.4 212.8 805.7 204.8 805.7 200.5C805.3 194.7 801.4 187.2 801.4 187.2V182.5C801.4 182.5 804.5 183 807.1 186.5C809.7 190 813.7 197.5 812.7 204.8C812.7 204.9 810.7 209.2 804.4 212.8Z" fill="#6A89CE"/>
<path d="M780 187.4C780.3 190 792.8 200 795.8 201.3C798.8 202.6 804.5 212.8 804.5 212.8C800 212 796.4 214 793.1 217.6C793.1 217.6 775.4 209.5 772.5 196.6C772.5 196.6 775.8 189.7 776.3 187.9C776.8 186.1 778.1 184.1 780 184V187.4Z" fill="#6A89CE"/>
<path d="M814.2 149C812.4 136.1 803.8 126.3 791.5 127.1C778.4 127.9 768.4 140 769.2 154.1C769.6 162.4 773.6 169.4 779.5 173.7C780.1 176.5 781.2 178.4 782 179.4C783.4 181.3 785.4 182.8 803.8 186.1C804.7 186.3 806.2 186.5 807.8 185.9C810.4 184.8 811.4 181.8 812.5 179.1C816.5 168.9 815.2 155.4 814.2 149Z" fill="#F5B68F"/>
<path d="M759.7 253.2C759.7 253.2 752.1 268.7 751.1 281.7C750.1 294.7 736.4 295.9 733.7 285C731 274.1 744.8 231 750.3 220.8C755.8 210.6 764.1 238.3 759.7 253.2Z" fill="#F5B68F"/>
<path d="M760 329.9C741.6 311.7 733.5 288.4 733.5 288.4C730.1 266.7 745.8 264.5 747.6 273.5C749.4 282.6 752.2 288.8 757 299.2C757.4 299.9 757.7 300.5 758.1 301.2C761.3 306.7 765 312.2 768.1 316.3C769.9 318.6 771.3 320.1 771.8 320.7C771.9 320.8 771.9 320.9 772 320.9C772.6 320.9 773.2 321.8 773.7 321.7C776.6 321.6 778.8 322.3 781.8 322.3C783 322.3 785.6 321.8 786.4 322.7C787.3 323.8 786.5 325 782.8 326.6C781.8 327 779.9 327.3 779.6 328.8C779.2 331.3 781.6 334.4 783.4 336.3C785.1 338.2 791.3 344.7 792.4 346.2C793 346.9 793.5 347.7 793.7 348.6C793.9 349.5 793.5 350.6 792.6 350.7C791.8 350.8 791.1 350.2 790.5 349.6C790.1 349.2 780.9 339.5 780.4 339.6C780.1 339.7 779.9 340.1 779.9 340.5C780 341.5 789.1 353 789.7 354.1C791 356.3 788.5 357.9 787.1 356.4C784.8 354 777.1 343.1 776.1 343.3C775.6 344 782 354 782.4 355.1C782.7 355.8 782.9 356.4 782.4 356.8C780.9 358 779.3 355.9 778.1 354.3C777.1 353 776.1 351.6 775.2 350.2C774.9 349.8 772 345 771.5 345.1C771.4 345.7 773.6 349.3 774.1 352.3C774.4 354.4 772.6 354.8 771.3 353.2C768.7 350.1 768.4 344.7 765.4 340.9C761.4 336.3 760.3 331.6 760 329.9Z" fill="#F5B68F"/>
<path d="M767.4 206.1C772.4 208.7 773.3 216 770.7 224.6C768.1 233.2 760.9 250.4 759.2 257C757.5 263.6 755.2 268.3 755.2 268.3C755.2 268.3 743 269.3 735.9 260.8C735.9 260.8 741 240.9 747.4 225.9C753.8 210.7 758.4 201.4 767.4 206.1Z" fill="#6A89CE"/>
<path d="M770.3 138.5C772.2 134.5 775.4 131.2 779 128.5C783.8 124.9 789.4 122.2 795.3 121.5C801.2 120.8 807.6 122.2 812.2 125.9C816 129 818.6 133.6 819.2 138.4C819.7 142.5 818.7 147.1 815.6 149.8C812.3 152.6 807 152.8 803.6 150.2C802.8 151.9 800.9 152.7 799.1 153.2C796.8 153.7 795.4 153.1 788.6 152C788.4 152.7 787.7 155.4 786 155.8C785.4 156 784.9 155.8 784 156.1C784 156.1 783.2 156.4 782.5 157C781 158.3 778.4 164.3 779.7 174.1C779.8 174.8 779.9 175.3 779.9 175.6C777.5 173.7 774.4 170.7 772.2 166.2C771.7 165.2 771.3 164.2 771 163.4C770.9 163.2 770.7 162.9 770.6 162.7C768.3 158.8 768 155.1 767.8 152.9C767.5 150.7 767.2 144.9 770.3 138.5Z" fill="#FFD988"/>
<path d="M775.6 168C776.7 170 779.1 172.2 781 171.7C783.3 171 784 166.4 783.3 163.2C782.6 159.8 780 155.9 778 156.2C775.4 156.6 773.1 163.5 775.6 168Z" fill="#F5B68F"/>
<defs>
<linearGradient id="paint0_linear_2_2" x1="411.709" y1="173.636" x2="336.688" y2="112.737" gradientUnits="userSpaceOnUse">
<stop stop-color="#A5CBFA"/>
<stop offset="1" stop-color="#C8E2FF"/>
</linearGradient>
<linearGradient id="paint1_linear_2_2" x1="502.283" y1="174.704" x2="446.679" y2="112.922" gradientUnits="userSpaceOnUse">
<stop stop-color="#A5CBFA"/>
<stop offset="1" stop-color="#C8E2FF"/>
</linearGradient>
<linearGradient id="paint2_linear_2_2" x1="769.094" y1="343.99" x2="653.474" y2="193.066" gradientUnits="userSpaceOnUse">
<stop stop-color="#A5CBFA"/>
<stop offset="1" stop-color="#C8E2FF"/>
</linearGradient>
<linearGradient id="paint3_linear_2_2" x1="908.647" y1="563.515" x2="745.32" y2="323.38" gradientUnits="userSpaceOnUse">
<stop stop-color="#A5CBFA"/>
<stop offset="1" stop-color="#C8E2FF"/>
</linearGradient>
</defs>
</svg>
