<svg width="689" height="358" viewBox="0 0 689 358" fill="none" xmlns="http://www.w3.org/2000/svg">
<path d="M633.274 278.625C632.82 278.609 632.363 278.611 631.902 278.628C632.173 278.602 632.432 278.584 632.662 278.584C632.878 278.584 633.079 278.6 633.274 278.625ZM621.495 283.356C617.007 285.16 608.942 287.185 606.562 291.913C604.482 296.047 607.577 300.651 610.409 304.121C615.001 300.644 624.435 299.374 629.197 298.535C629.082 298.429 628.971 298.318 628.855 298.214C628.543 297.932 629.044 297.884 629.804 297.969C633.058 294.645 636.784 289.8 635.758 285.317C634.246 278.714 625.754 281.645 621.495 283.356ZM605.996 287.918C605.996 287.918 603.665 288.927 602.535 291.403C602.766 291.081 603.022 290.762 603.319 290.449C604.256 289.461 605.337 288.542 606.517 287.684C606.181 287.835 605.996 287.918 605.996 287.918ZM667.126 327.248C667.125 327.11 667.142 326.981 667.17 326.861C665.956 326.845 664.713 327.037 663.455 327.478C659.901 332.503 657.909 338.533 656.232 344.452C664.85 345.778 672.925 351.349 681.667 350.971C681.868 350.962 682.054 350.938 682.231 350.902C682.003 350.918 681.758 350.893 681.497 350.811C670.957 347.509 667.191 337.516 667.126 327.248ZM680.443 335.373C678.089 332.073 674.732 328.897 670.883 327.544C670.995 335.932 673.652 344.921 682.498 347.693C684.061 348.183 684.047 349.747 683.2 350.498C686.614 348.146 682.097 337.693 680.443 335.373ZM470.379 296.976C469.513 297.901 468.71 298.88 467.996 299.917C467.936 300.004 467.881 300.092 467.821 300.179C467.888 300.198 467.963 300.219 468.042 300.246C468.774 299.149 469.557 298.054 470.379 296.976ZM546.266 286.211C545.742 286.01 545.233 285.769 544.739 285.492C541.039 296.176 520.602 291.399 516.106 283.31C516.039 283.273 516 283.251 516 283.251H512.558C511.444 283.531 510.238 283.657 509.157 283.456C507.054 283.927 505.276 284.282 504.026 284.458C501.336 284.956 498.49 285.132 495.68 284.946C497.262 285.508 498.866 286.331 500.487 287.477C502.141 288.646 502.854 292.911 500.186 291.025C487.252 281.883 474.932 297.194 469.203 307.579C466.335 312.778 463.587 318.464 462.437 324.336C461.935 326.898 460.347 334.143 464.009 335.265C471.884 337.679 482.24 329.367 487.662 324.675C488.718 323.761 489.883 322.734 491.081 321.616C490.875 321.205 491.102 321.117 491.516 321.207C496.994 316.024 502.975 308.982 502.412 301.892C502.177 298.936 506.114 301.416 506.262 303.276C506.875 310.982 501.634 318.4 495.702 324.234C498.403 327.034 501.531 329.389 504.914 331.391C506.21 332.098 507.565 332.829 508.96 333.569C515.291 336.664 522.226 338.738 528.812 340.279C532.76 341.202 536.744 341.99 540.763 342.541C541.712 342.67 542.661 342.796 543.614 342.893C543.555 342.879 543.52 342.784 543.932 342.069C548.697 333.805 553.491 325.412 559.132 317.708C565.174 309.456 573.94 299.774 584.542 297.901C576.385 293.444 567.618 294.206 558.555 293.406C553.069 292.922 548.166 291.436 546.266 286.211ZM467.412 301.209C467.319 301.215 467.225 301.213 467.131 301.215C463.881 306.135 461.221 311.279 459.61 316.082C459.707 316.074 459.802 316.069 459.904 316.053C461.837 310.732 464.609 305.734 466.695 302.347C466.928 301.97 467.167 301.59 467.412 301.209ZM494.393 325.481C494.548 325.571 494.751 325.689 494.993 325.829C494.833 325.677 494.661 325.536 494.503 325.382C494.466 325.416 494.43 325.447 494.393 325.481ZM458.097 322.487C458.422 320.779 458.887 319.052 459.455 317.347C459.378 317.344 459.303 317.329 459.226 317.325C458.686 319.113 458.304 320.843 458.097 322.487ZM123.267 174.907C122.584 173.928 121.895 172.841 121.047 171.958C119.925 171.209 118.765 170.565 117.686 170.196C115.726 170.015 113.763 171.045 111.936 172.15C108.477 174.243 105.284 176.678 102.174 179.254C101.968 179.424 101.563 179.534 101.084 179.595L101.257 180.286C101.299 180.369 101.352 180.456 101.379 180.532C102.242 182.959 103.17 185.492 104.247 187.978L109.332 184.587L111.879 183.411C115.363 181.492 118.946 179.789 122.729 178.404L125.335 177.201C124.588 176.546 123.887 175.796 123.267 174.907ZM300.757 128.209C300.136 128.121 299.513 128.04 298.887 127.966C298.697 127.944 298.512 127.899 298.33 127.846C296.863 129.647 295.245 131.332 293.511 132.908C297.779 135.609 302.398 137.932 306.19 141.292L307.665 139.972C309.767 137.272 311.715 134.402 313.475 131.349C312.99 131.169 312.503 131.001 312.016 130.835L300.757 128.209ZM303.999 143.255L304.422 142.876C302.932 141.696 301.341 140.644 299.713 139.646L303.999 143.255ZM291.332 132.588L291.601 132.814C291.614 132.801 291.628 132.79 291.64 132.777C291.661 132.359 291.833 132.094 292.217 132.177C293.132 131.207 293.979 130.181 294.791 129.13L291.332 132.588ZM217.6 176.862C216.245 168.449 214.115 159.717 210.513 151.772C210.121 151.832 209.762 151.831 209.518 151.731C205.64 150.145 201.577 148.351 197.88 146.164C197.78 146.289 197.677 146.418 197.574 146.555C196.403 148.103 195.155 149.599 193.862 151.047C192.683 152.367 191.472 153.754 190.091 154.882C198.388 177.024 203.523 200.082 202.468 223.999C207.001 223.999 211.535 223.999 216.069 223.999C215.837 223.525 215.745 222.984 215.902 222.426C220.005 207.779 220.007 191.803 217.6 176.862ZM199.949 136.055C199.303 138.144 198.817 140.293 198.539 142.501C198.52 142.648 198.396 142.765 198.212 142.858C201.513 145.125 205.256 147 208.99 148.634C206.593 144.022 203.62 139.758 199.949 136.055ZM193.93 145.669C194.14 145.386 194.863 144.651 194.868 144.22C194.753 144.139 194.632 144.064 194.518 143.982C194.17 143.732 194.113 143.465 194.235 143.216C190.937 141.421 187.373 140.167 183.689 139.271C185.501 143.355 187.226 147.472 188.844 151.621C189.57 150.861 190.282 150.089 190.969 149.295C191.99 148.116 192.999 146.921 193.93 145.669Z" fill="#F1A351"/>
<path d="M4.038 341.478L2.573 341.263L3.519 341.607L4.038 341.478ZM0 342.165C0.331 342.137 0.973998 342.082 1.225 342.228L0.879997 341.579L0 342.165ZM329.078 344.179C329.057 344.179 329.04 344.178 329.015 344.178C329.232 344.263 329.195 344.246 329.078 344.179ZM271.015 346.553C272.126 346.011 272.758 346.076 273.599 346.189L272.736 344.939L271.015 346.553ZM152.942 346.93L152.859 346.925C152.813 346.953 152.789 346.983 152.775 347.011L152.942 346.93ZM319.286 346.099C318.78 346.031 318.497 345.942 318.309 345.851C318.282 345.97 318.512 346.069 319.286 346.099ZM316.309 344.401L316.798 344.392L316.726 343.374L316.309 344.401ZM183.389 346.603L182.614 346.713C182.981 346.68 183.216 346.643 183.389 346.603ZM188.994 346.639L189.132 346.444C188.871 346.552 188.765 346.631 188.994 346.639ZM371.812 342.702C371.938 343.108 372.925 342.968 374.027 342.891C373.961 342.892 373.899 342.896 373.832 342.891C374.155 342.323 372.981 342.513 371.812 342.702ZM232.645 345.895C232.979 345.992 233.458 346.085 234.131 346.172L232.645 345.895ZM273.623 346.224C273.657 346.22 273.675 346.208 273.706 346.203C273.672 346.198 273.63 346.192 273.599 346.188L273.623 346.224ZM367.655 343.563C367.349 343.569 366.691 343.586 366.238 343.648C366.803 343.658 367.341 343.646 367.655 343.563ZM349.981 345.224L350.887 344.982C350.367 344.879 350.331 344.767 350.038 344.603L349.981 345.224ZM371.698 343.942L372.711 344.037L372.314 343.537L371.698 343.942ZM345.28 345.137C345.089 345.31 342.491 345.637 344.928 345.594C345.122 345.422 347.048 345.276 345.28 345.137ZM345.068 343.62L343.146 343.767C342.951 343.939 343.475 344.043 344.19 343.974C344.65 343.853 345.363 343.786 345.068 343.62ZM368.538 344.054L370.303 344.192L369.782 344.088L368.538 344.054ZM364.004 343.684L365.766 343.82C365.739 343.736 365.963 343.686 366.237 343.648C365.152 343.634 363.962 343.536 364.004 343.684ZM366.083 343.253C366.142 343.148 366.243 343.082 366.372 343.042C366.217 343.091 366.1 343.153 366.083 343.253ZM234.239 345.965C234.089 345.883 234.048 345.794 234.012 345.703C233.804 345.784 233.799 345.878 234.239 345.965ZM363.779 341.323C364.029 341.339 364.227 341.352 364.414 341.364C364.505 341.291 364.424 341.246 363.779 341.323ZM362.833 341.332C362.62 341.337 362.319 341.345 361.821 341.357C362.236 341.35 362.624 341.369 362.997 341.4C362.855 341.371 362.795 341.347 362.833 341.332ZM362.833 341.332C362.948 341.284 363.559 341.303 362.833 341.332ZM363.927 341.528C363.654 341.475 363.34 341.431 362.998 341.401C363.148 341.433 363.43 341.475 363.927 341.528ZM339.115 341.46C338.248 341.276 337.257 341.164 336.304 341.466C336.476 341.509 336.644 341.53 336.819 341.567C337.531 341.494 338.246 341.434 339.115 341.46ZM234.929 344.376C235.036 344.419 235.148 344.463 235.259 344.507C235.532 344.358 235.789 344.217 236.021 344.091C235.692 344.177 235.32 344.274 234.929 344.376ZM181.542 347.235L181.884 347.249L181.246 346.661L181.542 347.235ZM292.522 341.686C291.394 341.319 290.133 340.748 290.27 341.192L290.617 341.625C291.405 341.547 292.008 341.595 292.522 341.686ZM9.405 342.034C9.723 342.008 10.243 342.008 10.733 342.003C10.495 341.973 10.094 341.975 9.405 342.034ZM41.75 346.466C41.669 346.446 41.572 346.437 41.499 346.414C41.474 346.472 41.586 346.476 41.75 346.466ZM185.601 342.003C185.127 342.081 184.924 342.169 184.938 342.266C185.426 342.192 185.702 342.11 185.601 342.003ZM341.544 341.718C340.57 341.551 339.796 341.481 339.115 341.461C340.288 341.707 341.235 342.079 341.544 341.718ZM101.239 345.405C101.191 345.391 101.135 345.383 101.084 345.364C100.35 345.543 100.672 345.514 101.239 345.405ZM152.775 347.012L151.871 347.452C153.285 347.452 152.662 347.228 152.775 347.012ZM201.41 347.754L201.522 347.598C201.295 347.429 200.953 347.415 200.266 347.388L201.41 347.754ZM292.244 346.098C292.464 346.058 292.698 346.009 292.946 345.942C292.547 346.007 292.359 346.056 292.244 346.098ZM292.244 346.098C290.869 346.355 290.147 346.212 290.779 346.881C293.057 347.121 291.319 346.252 293.379 346.553C293.912 346.312 291.695 346.307 292.244 346.098ZM164.866 347.956C165.546 347.981 166.346 347.852 167.03 347.878C165.546 347.981 164.682 347.223 164.866 347.956ZM398.488 341.558L398.467 341.544C397.808 341.533 397.351 341.526 397.155 341.523C397.323 341.528 397.724 341.538 398.488 341.558ZM399.183 342.222L399.985 342.085L399.377 342.05L399.183 342.222ZM398.467 341.545C398.652 341.546 398.862 341.548 399.075 341.55C398.955 341.458 398.724 341.218 397.858 341.118L398.467 341.545ZM399.075 341.55C399.134 341.592 399.169 341.606 399.228 341.551C399.172 341.551 399.13 341.551 399.075 341.55ZM403.248 341.357L401.705 341.62C403.085 341.649 403.336 341.525 403.248 341.357ZM402.671 340.759C402.585 340.911 403.143 341.163 403.249 341.357L404.28 341.181C403.748 341.078 402.743 340.984 402.671 340.759ZM401.745 341.784L399.985 342.085L401.626 342.18C401.593 342.067 401.296 341.903 401.745 341.784ZM380.506 341.655L383.791 341.705L383.563 341.765L384.23 341.715C383.469 341.647 382.924 341.49 381.921 341.181C380.812 341.375 380.582 341.523 380.506 341.655ZM387.393 341.472L387.408 341.471L387.405 341.478C387.541 341.532 387.586 341.564 387.433 341.533C387.422 341.539 387.384 341.541 387.367 341.542C387.346 341.602 387.287 341.655 387.225 341.705C386.31 341.618 387.081 341.593 387.367 341.542C387.377 341.521 387.402 341.501 387.405 341.478L387.393 341.472L384.23 341.714C384.9 341.773 385.738 341.759 387.225 341.707C386.706 342.139 385.105 342.325 386.089 342.789C388.047 342.756 387.459 342.427 388.627 342.238C385.469 342.35 389.533 341.996 387.25 341.756C387.871 341.681 388.428 341.658 388.956 341.639C388.387 341.588 387.838 341.524 387.321 341.445C387.349 341.456 387.369 341.463 387.393 341.472ZM386.098 341.213C386.466 341.301 386.883 341.377 387.321 341.445C386.961 341.311 386.227 341.101 386.098 341.213ZM396.091 340.931L396.774 340.75L397.648 340.397L396.091 340.931ZM403.114 343.841C403.016 343.803 403.02 343.772 403.012 343.741C402.808 343.794 402.731 343.83 403.114 343.841ZM380.475 341.728C380.485 341.703 380.493 341.679 380.506 341.654L380.336 341.65C380.383 341.677 380.427 341.701 380.475 341.728ZM391.312 341.404C390.605 341.592 389.83 341.608 388.955 341.64C389.893 341.722 390.864 341.766 391.785 341.764C391.914 341.628 392.318 341.387 391.312 341.404ZM393.471 341.686C393.9 341.651 394.298 341.604 394.643 341.541C394.556 341.511 394.468 341.465 394.405 341.423C394.041 341.486 393.756 341.592 393.471 341.686ZM394.404 341.423C394.439 341.417 394.471 341.411 394.509 341.404C394.278 341.312 394.307 341.358 394.404 341.423ZM420.629 342.466C421.586 343.178 424.278 342.344 426.074 342.595L426.371 342.757L427.177 342.181C424.996 342.277 422.166 342.663 420.629 342.466ZM415.249 340.931C415.582 341.208 414.088 341.172 416.502 341.016C416.38 340.986 416.345 340.968 416.274 340.946C416.057 340.951 415.758 340.951 415.249 340.931ZM416.274 340.947C415.578 340.714 417.335 340.925 416.274 340.947ZM400.354 342.635C400.322 342.604 400.29 342.575 400.258 342.542C400.212 342.554 400.261 342.59 400.354 342.635ZM687.584 350.744C684.851 355.522 677.796 354.698 673.403 353.608C666.134 351.803 658.813 347.91 651.254 347.666C650.695 347.648 650.362 347.507 650.197 347.294C647.285 347.207 644.377 347.04 641.466 346.936C636.891 351.452 630.606 354.266 623.758 355.549C609.765 358.17 595.034 357.762 580.991 355.716C569.524 354.045 557.746 351.369 547.331 346.064C547.313 346.095 547.295 346.126 547.278 346.156C547.128 346.28 546.956 346.311 546.763 346.251C528.782 344.571 508.438 338.607 494.993 325.83C494.833 325.678 494.661 325.537 494.503 325.383C494.466 325.417 494.43 325.448 494.393 325.483C492.219 327.508 490.006 329.317 487.994 330.84C483.759 334.047 476.524 339.132 469.964 339.868C469.933 340.212 469.704 340.459 469.17 340.504C461.65 341.135 455.609 343.88 448.885 347.129C448.34 347.393 447.519 347.037 446.801 346.451C446.14 346.974 445.187 347.134 444.197 346.534C438.72 343.211 432.575 340.737 426.586 338.52C418.918 335.682 410.738 332.989 402.492 332.833C399.426 332.775 398.93 328.276 402.178 328.338C402.543 328.345 402.908 328.362 403.273 328.378C415.716 317.993 435.012 310.074 451.361 313.624C450.622 312.312 450.409 310.611 451.007 308.44C452.098 304.473 454.663 302.086 457.854 300.86C457.862 300.752 457.888 300.644 457.941 300.534C459.956 296.39 461.317 291.906 464.135 288.198C465.247 286.735 469.853 288.574 468.536 290.307C466.364 293.165 465.125 296.547 463.705 299.822C465.004 299.812 466.324 299.922 467.625 300.135C467.669 300.142 467.74 300.159 467.822 300.181C467.889 300.2 467.964 300.221 468.043 300.248C468.774 299.151 469.558 298.056 470.379 296.978C475.525 290.23 482.366 284.252 490.024 284.033C486.049 283.006 482.458 281.163 479.933 278.365C475.717 273.693 476.137 268.417 478.232 263.287C476.828 263.377 475.382 263.079 473.967 262.247C463.383 256.027 478.041 237.095 488.219 239.469C488.708 237.493 489.119 235.48 489.43 233.413C487.763 231.21 486.827 228.502 487.114 225.431C487.396 222.41 489.283 219.753 492.294 218.961C494.182 218.465 496.104 218.631 497.959 219.16C496.278 216.506 495.279 213.458 495.923 210.259C496.663 206.585 499.031 203.29 502.45 201.65C506.033 199.93 510.16 199.929 513.878 201.24C516.28 202.087 518.142 203.629 519.584 205.536C519.992 205.37 520.522 205.159 521.15 204.919C529.365 199.39 543.31 198.142 543.676 208.169C555.275 206.436 573.573 214.337 565.505 225.948C574.78 230.863 578.234 247.329 570.334 254.432C573.443 258.938 574.744 265.129 571.944 269.993C569.835 273.657 566.607 274.08 563.502 272.997C563.143 278.87 559.393 284.637 553.543 286.408C552.941 286.59 552.354 286.709 551.775 286.796C554.871 292.277 562.82 291.257 568.703 291.534C576.286 291.891 583.557 293.057 590.089 297.148C590.682 297.519 590.498 297.908 589.966 298.228C590.765 298.843 591.552 299.752 591.928 300.344C596.435 301.718 600.935 303.052 605.208 305.056C602.096 300.92 599.392 295.78 602.535 291.404C602.766 291.082 603.022 290.763 603.319 290.45C604.256 289.462 605.337 288.543 606.517 287.685C611.77 283.872 619.036 281.322 624.731 279.806C626.509 279.332 629.221 278.731 631.902 278.63C632.362 278.613 632.82 278.61 633.274 278.627C636.603 278.744 639.621 279.835 640.394 283.21C641.763 289.188 637.314 294.905 633.174 298.982C638.767 304.035 643.936 310.638 646.709 317.951C651.819 319.268 656.793 321.121 662.045 321.81C662.776 321.906 663.42 322.249 663.874 322.666C664.957 322.694 665.997 323.025 666.187 323.596C672.646 322.557 678.63 325.676 683.067 330.699C687.344 335.537 691.128 344.551 687.584 350.744ZM656.232 344.452C664.85 345.778 672.925 351.349 681.667 350.971C681.868 350.962 682.054 350.938 682.231 350.902C682.003 350.918 681.758 350.893 681.497 350.811C670.957 347.509 667.192 337.516 667.126 327.248C667.125 327.11 667.142 326.981 667.17 326.861C665.956 326.845 664.713 327.037 663.455 327.478C659.901 332.503 657.909 338.533 656.232 344.452ZM680.443 335.373C678.089 332.073 674.732 328.897 670.883 327.544C670.995 335.932 673.652 344.921 682.498 347.693C684.061 348.183 684.047 349.747 683.2 350.498C686.614 348.146 682.097 337.693 680.443 335.373ZM610.41 304.121C615.002 300.644 624.436 299.374 629.198 298.535C629.083 298.429 628.972 298.318 628.856 298.214C628.544 297.932 629.045 297.884 629.805 297.969C633.059 294.645 636.785 289.8 635.759 285.317C634.247 278.714 625.755 281.645 621.496 283.357C617.008 285.161 608.943 287.186 606.563 291.914C604.483 296.047 607.578 300.651 610.41 304.121ZM550.481 210.018C552.865 210.529 555.994 211.258 558.769 212.093C556.459 210.731 553.46 209.995 550.481 210.018ZM511.748 260.868C511.77 260.859 511.775 260.858 511.792 260.852C511.776 260.857 511.766 260.861 511.748 260.868ZM499.893 256.961C500.565 257.424 501.385 257.674 502.263 257.714C501.517 257.569 500.703 257.331 499.893 256.961ZM486.917 244.043C487.024 243.489 487.136 242.936 487.212 242.379C487.248 242.115 487.415 241.889 487.653 241.693C487.712 241.486 487.758 241.274 487.815 241.066C486.789 241.437 485.54 241.675 484.972 241.472C483.565 240.969 480.995 243.947 480.187 244.889C478.652 246.678 477.263 248.688 476.431 250.912C475.174 254.275 474.663 259.621 479.093 261.023C479.146 261.04 479.203 261.023 479.259 261.026C479.548 260.446 479.848 259.869 480.165 259.297C482.954 254.272 485.228 249.264 486.917 244.043ZM506.718 281.798C506.21 280.734 506.337 279.381 506.521 278.218C506.564 277.943 506.741 277.714 506.991 277.522C504.721 276.948 502.578 275.658 500.7 274.022C499.605 273.068 504.11 271.438 505.305 272.479C506.736 273.725 508.436 275.062 510.352 275.429C510.785 275.512 510.646 275.508 510.939 275.503C510.98 275.481 511.033 275.451 511.127 275.4C510.754 275.606 511.469 275.155 511.571 275.069C513.243 273.676 514.244 270.604 514.395 268.232C514.539 265.983 514.375 262.881 512.517 261.287C512.273 261.079 512.379 261.132 512.092 260.991C511.926 260.909 511.861 260.878 511.82 260.862C511.651 260.945 511.284 261.106 511.359 261.06C510.98 261.295 510.608 261.541 510.256 261.816C509.4 262.482 508.636 263.235 507.896 264.027C507.119 264.859 505.718 265.156 504.625 265.102C503.995 265.071 502.656 264.651 503.444 263.809C503.778 263.452 504.114 263.095 504.468 262.756C504.669 262.564 504.885 262.368 505.11 262.171C501.218 262.59 497.21 260.152 495.024 255.878C492.311 250.572 496.007 243.994 499.445 239.25C497.446 238.905 495.486 238.192 493.729 237.163C493.084 240.542 492.202 243.885 491.015 247.099C490.015 251.021 488.502 254.922 486.326 258.081C485.657 259.052 484.847 259.964 483.939 260.746C482.385 263.751 481.236 266.864 481.481 270.007C482.33 280.938 497.519 285.882 506.718 281.798ZM457.949 315.786C458.044 315.828 458.141 315.866 458.236 315.91C458.635 316.061 459.092 316.125 459.611 316.083C459.708 316.075 459.803 316.07 459.905 316.054C461.838 310.733 464.61 305.735 466.696 302.348C466.929 301.97 467.168 301.59 467.413 301.209C467.32 301.215 467.226 301.213 467.132 301.215C466.424 301.232 465.699 301.142 465.044 301.034C464.4 300.929 463.761 300.965 463.135 301.093C463 301.385 462.869 301.679 462.729 301.968C462.32 302.809 461.104 302.917 459.987 302.633C457.99 304.212 456.466 306.645 455.997 308.729C455.508 310.899 455.813 314.679 457.949 315.786ZM461.635 337.446C461.515 337.338 461.392 337.237 461.275 337.12C457.532 333.399 457.042 328.045 458.097 322.487C458.422 320.779 458.887 319.052 459.455 317.347C459.378 317.344 459.303 317.329 459.226 317.325C458.713 317.295 458.201 317.253 457.697 317.178C456.692 318.003 455.026 318.873 454.277 318.523C438.859 311.307 418.488 317.895 406.028 328.571C413.415 329.298 420.664 331.595 427.578 334.154C433.998 336.529 440.597 339.078 446.471 342.642C446.599 342.72 446.704 342.806 446.811 342.892C451.795 340.513 456.454 338.538 461.635 337.446ZM508.957 333.568C515.288 336.663 522.223 338.737 528.809 340.278C532.757 341.201 536.741 341.989 540.76 342.54C541.709 342.669 542.658 342.795 543.611 342.892C543.552 342.878 543.517 342.783 543.929 342.068C548.694 333.804 553.488 325.411 559.129 317.707C565.171 309.455 573.937 299.773 584.539 297.9C576.382 293.443 567.615 294.205 558.552 293.405C553.069 292.921 548.166 291.436 546.265 286.211C545.741 286.01 545.232 285.769 544.738 285.492C541.038 296.176 520.601 291.399 516.105 283.31C516.038 283.273 515.999 283.251 515.999 283.251H512.557C511.443 283.531 510.237 283.657 509.156 283.456C508.919 283.412 508.681 283.371 508.459 283.291C507.057 283.783 505.566 284.173 504.024 284.458C501.334 284.956 498.488 285.132 495.678 284.946C497.26 285.508 498.864 286.331 500.485 287.477C502.139 288.646 502.852 292.911 500.184 291.025C487.25 281.883 474.93 297.194 469.201 307.579C466.333 312.778 463.585 318.464 462.435 324.336C461.933 326.898 460.345 334.143 464.007 335.265C471.882 337.679 482.238 329.367 487.66 324.675C488.716 323.761 489.881 322.734 491.079 321.616C490.873 321.205 491.1 321.117 491.514 321.207C496.992 316.024 502.973 308.982 502.41 301.892C502.175 298.936 506.112 301.416 506.26 303.276C506.873 310.982 501.632 318.4 495.7 324.234C498.401 327.034 501.529 329.389 504.912 331.391C506.225 332.168 507.577 332.893 508.957 333.568ZM643.935 329.195C644.243 318.528 639.246 308.942 632.097 301.38C631.972 301.436 631.833 301.484 631.67 301.517C628.646 302.123 625.624 302.765 622.638 303.539C619.615 304.324 615.021 304.989 612.336 306.995C612.211 307.301 611.891 307.597 611.467 307.852C609.851 310.461 616.251 316.668 617.627 318.394C619.617 320.892 621.525 323.423 622.137 326.618C622.238 327.142 621.922 327.826 621.41 328.03C608.982 332.984 600.059 318.856 588.554 317.557C586.483 317.323 585.689 314.002 588.115 314.276C596.029 315.169 602.007 320.78 609.03 323.969C611.116 324.916 613.515 325.968 615.873 325.857C619.393 325.692 617.729 323.881 616.199 321.867C613.79 318.695 610.987 315.807 608.949 312.369C608.033 310.824 607.706 309.465 607.812 308.257C607.8 308.245 607.783 308.237 607.772 308.224C607.726 308.17 607.678 308.113 607.632 308.058C606.575 308.29 605.119 308.273 604.48 307.91C599.033 304.811 592.939 303.285 586.975 301.458C575.817 303.991 566.796 315.059 560.771 324.084C556.278 330.814 552.099 337.764 548.07 344.783C559.729 351.406 573.819 353.891 587.015 354.934C599.333 355.907 613.449 356.428 625.326 352.318C629.42 350.901 633.143 348.724 636.177 345.916C636.185 345.31 636.893 344.574 637.858 344.211C641.469 340.198 643.765 335.12 643.935 329.195ZM651.259 344.423C653.269 337.306 655.729 330.048 660.563 324.364C656.198 323.575 651.988 322.194 647.713 321.024C648.857 325.163 649.191 329.481 648.373 333.84C647.624 337.828 646.072 341.241 643.925 344.121C646.37 344.225 648.813 344.349 651.259 344.423ZM430.702 342.457L430.892 342.286L429.307 342.708L430.702 342.457ZM420.12 343.205L421.169 343.412L422.074 343.171C421.621 343.291 420.053 342.982 420.12 343.205ZM404.797 342.911C405.446 342.618 404.397 342.411 405.76 342.05C404.854 342.291 402.964 342.55 404.797 342.911ZM409.81 342.43L412.344 341.878L409.322 342.439L409.81 342.43ZM403.174 343.222L402.95 343.281C401.939 343.166 400.713 342.808 400.354 342.635C400.692 342.973 401.034 343.237 401.811 343.583C402.04 343.523 402.231 343.35 402.979 343.393C403.628 343.521 402.977 343.6 403.012 343.741C403.462 343.626 404.588 343.43 403.174 343.222ZM413.182 341.414C413.967 341.568 414.98 341.664 413.579 341.914C416.252 341.81 415.855 341.309 413.182 341.414ZM411.697 340.545C410.264 340.683 410.56 340.846 411.377 341.114L412.773 340.864C412.48 340.7 411.236 340.665 411.697 340.545ZM410.055 341.637L410.779 341.531C410.651 341.462 410.459 341.439 410.055 341.637ZM412.313 341.306L410.779 341.531C410.982 341.646 411.005 341.877 411.484 341.449C411.359 341.661 411.661 341.457 412.313 341.306ZM42.024 307.747C55.345 307.784 68.683 308.47 81.95 306.932C85.211 306.554 83.807 303.228 81.093 303.542C67.825 305.08 54.488 304.394 41.167 304.357C37.849 304.348 39.355 307.74 42.024 307.747ZM175.649 98.545C174.834 99.788 176.916 101.135 177.684 99.963C179.714 96.866 183.187 96.517 186.592 97.026C188.199 97.267 188.248 95.04 186.74 94.814C182.6 94.195 178.112 94.787 175.649 98.545ZM173.021 91.243C175.333 88.358 179.84 87.855 183.235 88.871C184.242 89.173 186.769 86.838 186.098 86.638C180.483 84.957 173.899 87.456 170.312 91.932C169.162 93.368 172.514 91.875 173.021 91.243ZM374.997 341.858C372.972 341.668 370.96 342.322 369.332 342.633L370.936 343.055C369.895 343.86 367.34 342.763 366.389 343.035C367.031 342.847 368.475 343.031 368.525 343.21L368.093 342.598C365.807 342.357 363.99 342.839 362.368 343.147C363.9 343.347 360.512 343.519 361.626 343.95L362.835 343.873C363.391 344.088 362.219 344.277 361.54 344.458C357.715 344.019 350.712 344.421 349.342 343.94C350.124 344.094 351.558 343.956 352.241 343.776L350.447 343.525C351.904 343.501 353.056 344.044 355.204 343.837C354.841 343.45 356.398 342.915 354.764 342.38C350.646 341.778 351.386 343.399 346.43 343.259C345.972 343.38 347.464 342.623 344.826 342.837C341.508 343.233 339.078 344.121 339.087 344.964C340.484 344.714 343.277 344.215 343.708 344.826C342.313 345.076 339.904 345.231 339.781 345.627C338.334 344.921 342.416 345.412 340.518 344.826C339.538 344.844 339.119 345.076 338.663 345.198C339.315 344.903 337.782 344.706 337.488 344.542C334.312 344.542 332.482 344.235 329.076 344.179C328.895 344.076 328.52 343.851 328.618 343.678C326.954 343.876 324.583 344.938 325.205 345.378C323.254 345.411 323.149 345.076 321.488 345.274C324.141 345.903 320.967 345.17 320.686 345.851C318.987 345.937 320.092 345.523 319.31 345.368C319.028 345.441 318.351 345.669 318.307 345.852C317.262 345.337 320.327 344.5 319.099 343.9C318.248 343.523 314.599 342.847 314.338 342.796C313.53 343.374 313.772 345.746 314.988 346.511C314.86 346.909 313.38 346.089 312.635 346.047C310.477 345.409 309.344 346.555 307.55 346.305L308.917 345.943C308.621 345.779 305.979 345.994 305.562 346.227C305.494 346.003 306.926 345.071 306.106 344.805C302.882 344.692 299.826 345.934 300.027 346.605L304.968 345.9C305.143 346.46 301.461 346.467 301.664 347.14L297.113 346.949C297.688 346.929 299.444 346.767 298.753 346.46C296.798 346.493 297.74 346.364 296.435 346.106C298.675 345.393 302.776 343.562 304.237 342.693L301.889 343.072L301.302 342.744C298.242 343.193 295.481 345.391 294.676 345.969C292.916 345.83 293.53 344.632 293.948 344.399C290.489 344.346 290.533 346.097 287.046 345.933L288.356 346.191C287.533 346.304 284.542 346.068 284.862 346.288C284.17 345.972 283.535 345.222 284.306 345.018L281.218 346.148C281.672 346.028 281.374 345.069 281.568 344.897C280.327 344.863 279.455 346.009 280.24 346.165C277.818 345.476 278.419 345.853 276.453 345.043C275.738 345.111 276.52 346.062 277.044 346.165C275.425 346.426 274.475 346.306 273.707 346.203C276.382 345.786 274.435 344.049 274.941 343.318L269.188 346.19C269.383 346.018 269.837 345.101 269.806 344.992C269.325 345.843 262.731 345.966 259.506 345.853L259.99 345.845C260.643 345.551 257.868 345.319 256.734 345.619C256.926 345.448 257.188 345.499 257.673 345.49C255.519 344.853 254.877 346.784 252.682 346.034C254.671 346.111 255.062 345.767 254.961 345.431C253.33 345.741 249.551 345.413 250.342 346.413C249.295 346.205 248.353 346.334 248.444 345.827L244.436 346.431C244.734 346.327 244.992 346.032 243.819 345.965C246.067 346.094 248.242 345.156 249.425 345.81C249.484 345.19 248.64 344.861 249.716 344.336C245.38 344.638 243.003 345.699 240.27 346.421L236.452 345.981L236.291 346.265L235.628 345.553C235.151 345.717 234.846 345.859 234.747 345.792C234.66 345.728 234.78 345.634 234.969 345.528C234.568 345.565 234.202 345.629 234.012 345.703C233.862 345.328 234.537 344.897 235.259 344.507C235.604 344.636 235.957 344.768 236.31 344.9C237.058 344.541 237.6 344.171 236.556 343.937C236.407 343.98 236.219 344.034 236.021 344.091C236.5 343.822 236.794 343.603 236.441 343.498L233.523 343.846C233.855 343.942 234.35 344.145 234.929 344.376C233.1 344.846 231.012 345.417 232.645 345.895L230.421 345.479C227.81 346.19 228.263 346.046 225.083 346.576C224.909 346.329 225.756 346.117 225.185 345.936C222.866 346.743 219.53 344.995 219.024 345.701C217.151 345.872 218.244 346.315 217.053 346.511C217.109 346.432 217.221 346.276 216.875 346.263L215.461 346.77C214.889 346.586 216.763 346.418 215.169 346.196C212.443 346.574 210.843 346.833 208.565 346.584C205.323 346.699 209.952 347.603 207.213 347.497C206.811 347.079 206.457 346.583 204.747 346.517C203.843 346.804 203.964 347.129 202.429 347.311L202.527 346.671C201.107 346.696 199.973 346.813 199.963 346.33C198.801 346.601 198.001 346.551 197.394 346.447C195.24 346.782 198.977 347.748 199.479 347.999C197.361 347.516 195.899 347.792 194.692 347.02L196.566 346.851C192.568 346.053 192.772 347.751 190.921 346.392C192.292 346.445 193.937 346.106 193.129 345.753L191.144 346.079C190.911 345.909 192.279 345.962 191.368 345.766C190.803 345.905 189.643 346.231 189.132 346.444L189.159 346.405L185.865 346.5C186.282 346.46 186.308 346.295 185.739 346.272L183.389 346.604C184.108 346.444 183.372 346.246 182.318 346.14C179.293 345.942 179.894 347.575 177.547 346.921C177.889 346.935 177.944 346.855 178.29 346.869L177.083 346.581C176.827 347.937 169.967 346.707 169.707 348.065C167.988 347.513 169.587 347.737 171.799 347.1L169.968 346.707C170.711 346.656 171.335 346.761 172.131 346.63C169.728 346.054 167.465 346.771 166.163 347.123C165.246 346.926 166.887 346.104 164.269 346.325C160.573 346.584 164.969 347.317 162.749 347.473L161.142 346.767C158.307 347.3 156.189 346.815 153.798 346.723C153.257 346.778 152.992 346.85 152.86 346.927C150.316 346.618 147.527 347.605 145.608 347.371C146.057 347.227 144.512 346.927 144.281 346.756L140.819 347.185C142.351 347.003 142.284 346.598 142.565 346.206C141.483 346.246 140.974 346.467 140.238 346.518C140.687 346.376 141.141 346.232 140.57 346.05L136.937 346.712C137.151 346.781 137.568 346.808 137.917 346.826C137.01 346.829 135.044 347.08 133.747 346.748C133.862 346.593 134.309 346.448 134.42 346.291C135.51 346.737 136.13 346.359 136.696 346.059C134.19 346.124 136.071 345.955 134.865 345.666C133.097 345.678 132.371 346.213 132.835 346.553C130.838 346.396 130.204 346.289 128.165 346.693L128.552 346.145L126.678 346.315L128.198 345.648C124.605 345.268 127.537 346.588 123.545 346.272L123.535 345.79C121.999 345.972 121.471 346.785 120.279 346.205C118.788 346.494 122.828 346.891 119.325 346.983C118.707 346.733 117.378 346.548 116.372 346.449C115.391 346.64 116.782 346.936 117.623 346.962C112.754 347.089 114.558 345.316 109.937 345.929C111.556 346.278 108.586 346.86 112.415 346.851C110.586 347.133 108.818 346.147 106.911 346.668L108.154 346.055C107.468 346.042 106.696 346.264 106.323 346.339L106.479 345.865C104.124 346.694 102.098 345.462 100.697 346.551C101.671 345.695 98.941 346.598 98.006 346.262C99.944 345.661 103.562 346.288 103.82 345.495C102.917 345.254 102.111 345.64 101.239 345.405C101.848 345.289 102.735 345.081 102.967 344.922C99.988 344.468 98.292 345.391 96.484 345.595L99.674 345.417C99.416 346.208 98.238 345.55 97.343 346.169C95.747 345.741 94.498 346.356 93.197 346.091C93.542 346.096 93.566 346.018 93.911 346.024C90.434 346.038 89.467 344.746 88.084 344.721C86.727 344.616 84.154 345.043 85.086 345.38C83.973 345.598 89.705 345.151 87.717 346.174C85.733 344.985 83.634 346.611 79.307 345.793C81.202 345.376 78.194 345.124 79.886 344.808C77.824 344.901 77.747 345.078 76.829 345.412L76.208 345.04C73.514 345.866 75.575 345.774 71.497 346.211C72.865 345.924 69.86 345.672 70.903 345.412C69.773 345.385 68.67 345.495 67.843 345.717L67.993 345.664C63.864 345.849 64.613 345.19 60.852 345.598L61.226 345.822C56.301 346.416 50.077 346.017 44.979 346.285L46.774 346.471C46.229 346.356 43.339 346.82 41.751 346.468C42.069 346.447 42.617 346.348 42.914 346.378C42.869 346.127 42.251 345.755 41.026 345.69L40.554 346.071L40.059 345.774C38.192 345.764 40.607 346.322 38.739 346.314C37.651 345.217 30.699 346.154 29.089 345.188C27.819 345.978 32.623 345.308 31.23 346.024C30.662 345.904 30.406 345.755 29.192 345.69L29.61 346.165C23.96 345.886 21.803 345.477 16.774 345.569L16.976 345.467C15.186 345.28 14.22 345.364 13.42 345.773C13.047 345.55 14.338 345.439 13.642 345.243C10.486 346.452 7.338 344.342 5.414 345.187C5.665 344.229 1.543 343.31 3.262 342.566L1.97 342.678C2.396 342.046 6.026 342.669 6.769 342.009L10.848 342.678C10.719 342.44 11.389 342.088 10.734 342.005C11.741 341.994 12.621 341.962 11.301 341.619C21.044 343.245 31.055 341.703 40.649 342.577C41.297 342.521 40.925 342.298 40.676 342.15C42.443 342.763 42.366 341.834 43.333 341.75L45.919 342.634C46.046 342.603 46.143 342.571 46.22 342.539C28.387 333.501 23.328 305.052 25.174 285.919C25.476 282.789 29.739 284.572 29.497 287.079C27.409 308.709 33.673 344.597 62.664 340.409C62.869 340.38 63.064 340.396 63.253 340.43C84.016 336.76 89.808 308.43 88.693 288.77C69.756 288.77 50.819 288.77 31.882 288.77C30.132 288.77 28.218 284.228 30.121 284.228C34.615 284.228 39.109 284.228 43.603 284.228C39.946 282.669 36.536 280.588 33.905 277.516C29.751 272.666 27.661 266.911 25.246 261.099C22.313 254.037 17.125 248.786 12.574 242.789C8.887 237.932 4.987 231.947 6.42 225.514C8.608 215.694 19.898 213.701 27.813 218.576C30.058 219.959 32.016 221.752 33.751 223.804C33.956 149.356 34.179 74.907 34.383 0.459C34.383 0.544 35.061 0.710994 35.895 0.941994C36.462 0.400994 37.232 0 38.041 0C67.475 0 96.909 0 126.343 0C234.575 0 342.808 0 451.041 0C452.53 0 452.879 0.801997 452.589 1.672C452.901 2.005 453.101 2.403 453.1 2.854C452.885 81.176 452.666 159.499 452.452 237.821C452.78 238.215 452.735 238.79 452.438 239.36C452.398 240.191 451.831 240.622 451.092 240.744C450.646 241.006 450.144 241.177 449.624 241.177C334.48 241.177 219.336 241.177 104.192 241.177C102.885 245.52 101.338 249.705 99.835 253.548C97.059 260.643 93.846 267.644 89.815 274.123C87.648 277.607 85.222 281.414 82.074 284.227C85.126 284.227 88.178 284.227 91.231 284.227C92.981 284.227 94.895 288.769 92.992 288.769C92.871 288.769 92.751 288.769 92.63 288.769C94.048 307.606 89.135 334.425 71.904 342.751C73.791 342.781 75.416 342.742 77.041 342.383C78.309 342.698 87.611 342.068 89.675 343.08C88.269 342.423 89.783 342.741 91.134 342.458L89.916 341.878L92.963 341.945C93.584 341.891 93.758 341.916 93.755 341.967C94.271 341.996 93.632 342.3 94.944 342.448C97.018 342.488 97.119 342.171 98.26 341.874L97.943 341.788L99.35 341.736C100.386 341.756 95.688 342.304 99.066 342.606C99.115 342.447 101.102 341.689 102.009 342.105C100.284 342.072 100.501 342.474 101.135 342.646L103.553 342.692L102.755 341.96C109.689 342.012 116.903 342.544 124.305 342.51C124.203 343.151 129.546 342.552 128.878 343.492L128.594 343.401C126.776 343.49 129.12 344.145 130.6 344.041C129.053 343.739 133.375 343.103 129.614 342.957L132.522 342.517C134.138 340.715 140.279 342.682 144.686 342.107C144.375 342.176 144.294 342.272 144.255 342.328C148.172 341.757 153.036 342.83 153.944 342.544L154.292 343.04C157.64 342.284 158.038 342.22 162.03 342.535C161.978 342.615 161.516 342.757 162.148 342.862C163.109 342.497 164.076 342.132 166.809 342.238L166.697 342.394L170.972 342.319C170.939 343.847 178.299 341.397 179.581 343.056C180.418 342.611 183.546 342.475 184.936 342.265C184.946 342.33 185.033 342.398 185.264 342.47C186.907 341.65 190.003 342.735 191.821 342.645C193.008 342.451 192.495 342.189 191.979 341.927C194.323 342.581 198.455 341.213 199.311 341.489C201.03 341.555 199.951 342.076 200.422 342.416C202.976 342.274 199.995 341.032 203.421 341.646C203.023 341.712 202.287 341.765 202.572 341.855C203.881 341.986 206.218 343.746 207.522 343.396L206.661 343.121C209.049 342.73 212.306 344.376 212.691 343.345L212.468 342.865C216.579 343.507 214.212 342.679 218.38 343.242L218.327 343.322C220.145 343.232 221.129 343.833 222.02 343.063L221.395 342.958C223.65 342.902 223.852 342.959 226.148 342.993C226.418 342.919 227.527 342.802 227.848 342.964C227.953 342.325 233.181 342.66 234.204 342.696C232.385 342.793 233.246 343.064 233.762 343.324C234.834 342.799 235.575 342.744 237.057 343.119C237.271 342.321 237.568 341.471 240.495 341.419C240.041 341.54 239.33 341.609 239.621 341.772C239.919 341.937 240.6 341.755 240.83 341.695C241.122 341.858 240.18 341.987 240.508 342.264C242.487 341.499 243.926 342.204 246.793 341.928C245.883 342.17 246.666 342.324 246.993 342.599C247.216 341.695 250.915 343.377 249.826 342.213C255.441 342.902 264.078 342.239 266.266 342.988C266.856 343.314 268.42 342.781 269.397 342.764L269.264 343.16C272 342.437 271.393 342.889 274.61 342.16C273.278 342.634 273.834 342.849 275.176 343.22L277.384 342.393L277.813 343.005C278.713 342.765 279.714 342.857 280.718 342.951C281.607 342.285 285.03 342.336 285.595 341.961C286.583 342.789 288.239 341.746 288.963 342.523C289.288 342.406 289.706 342.311 290.163 342.231C289.688 341.87 289.513 341.464 290.403 341.64C290.48 341.635 290.539 341.631 290.613 341.626L291 342.107C291.907 341.993 292.833 341.936 293.443 341.926C293.167 341.885 292.85 341.796 292.519 341.687C292.909 341.758 293.269 341.848 293.618 341.924C293.742 341.926 293.862 341.927 293.943 341.929C293.887 341.943 293.821 341.951 293.747 341.952C294.302 342.064 294.875 342.119 295.666 341.954C298.843 342.686 302.727 340.93 306.229 341.937C305.703 341.834 304.959 341.791 304.761 341.962C307.692 341.911 310.603 342.593 312.456 342.222L312.323 341.774C314.472 341.567 316.132 341.42 317.864 341.446L317.958 340.938C320.474 341.12 325.87 340.292 327.416 341.335C328.029 340.929 330.895 341.449 332.325 341.311L332.689 341.699C334.553 341.823 335.704 341.682 336.817 341.567C340.602 342.371 344.103 341.565 347.411 341.616L347.442 341.728L350.795 341.444C349.918 341.797 351.454 341.2 352.463 341.295C353.53 341.105 355.262 341.202 356.522 341.452L358.661 341.468C356.286 341.736 358.831 342.028 358.968 342.477L360.332 342.115C360.883 342.33 359.454 342.468 360.462 342.563C361.375 342.321 364.078 342.331 364.92 341.865C364.786 341.752 364.458 341.646 364.053 341.559C363.938 341.588 363.945 341.581 364.018 341.551C363.984 341.543 363.958 341.536 363.924 341.528C363.969 341.534 363.987 341.536 364.039 341.543C364.154 341.499 364.334 341.423 364.411 341.364C366.111 341.461 365.487 341.277 365.426 341.075C367.359 341.773 368.435 341.298 369.915 342.117C367.908 341.194 374.338 342.101 373.087 341.222C374.531 341.928 374.074 341.254 374.997 341.858ZM232.049 188.163C233.505 182.187 234.917 175.792 233.683 169.642C232.415 163.326 229.278 157.916 225.62 152.687C225.126 151.981 229.52 149.926 230.379 151.153C233.779 156.015 237.117 161.367 238.303 167.275C263.802 170.862 288.518 161.999 304.941 143.28C304.772 143.14 304.594 143.011 304.422 142.875C302.932 141.695 301.341 140.643 299.713 139.645C297.411 138.234 295.044 136.914 292.805 135.448C292.476 135.233 292.177 134.772 291.962 134.263C288.129 137.493 283.851 140.246 279.555 142.61C271.473 147.056 261.332 151.667 251.845 150.476C242.399 149.29 235.173 143.882 227.882 138.219C219.946 132.054 212.347 129.221 202.729 131.242C202.613 131.338 202.497 131.429 202.381 131.532C202.18 131.711 201.885 131.84 201.542 131.935C213.162 142.882 218.736 159.283 221.384 174.649C224.164 190.782 224.554 208.112 220.121 223.998C222.922 223.998 225.723 223.998 228.523 223.998C226.195 211.896 229.183 199.926 232.049 188.163ZM173.238 223.998C181.414 223.998 189.591 223.998 197.766 223.998C198.739 194.725 190.505 166.745 178.647 140.164C173.37 143.056 166.857 145.908 160.488 147.053C156.641 152.424 153.897 158.646 150.481 164.277C147.384 169.381 143.367 176.911 137.344 179.112C133.336 180.577 129.425 180.183 126.314 177.997C118.714 180.604 111.99 184.724 105.294 189.177C105.176 189.255 105.03 189.316 104.868 189.365C106.81 193.565 109.248 197.538 112.655 200.503C118.821 205.868 127.484 206.635 134.784 203.015C146.535 197.187 152.672 185.019 160.443 175.035C160.036 172.661 163.749 172.573 164.699 174.811C168.221 183.108 172.288 191.547 173.95 200.475C175.432 208.438 175.011 216.18 173.238 223.998ZM104.246 187.978C104.249 187.984 104.251 187.991 104.254 187.998C106.769 186.376 109.297 184.834 111.879 183.412C115.363 181.493 118.946 179.79 122.729 178.405C123.666 178.062 124.616 177.738 125.579 177.434C125.494 177.364 125.418 177.275 125.335 177.202C124.588 176.546 123.887 175.797 123.267 174.908C122.584 173.929 121.895 172.842 121.047 171.959C120.84 171.744 120.632 171.53 120.402 171.345C119.506 170.624 118.596 170.281 117.686 170.197C115.726 170.016 113.763 171.046 111.936 172.151C108.477 174.244 105.284 176.679 102.174 179.255C101.968 179.425 101.563 179.535 101.084 179.596C101.001 179.607 100.92 179.618 100.833 179.626C101.013 179.856 101.15 180.078 101.257 180.287C101.299 180.37 101.352 180.457 101.379 180.533C102.241 182.96 103.169 185.493 104.246 187.978ZM88.844 163.929C87.649 162.344 82.896 159.763 84.884 163.606C86.011 165.785 87.725 167.54 89.716 168.958C93.434 171.605 97.529 173.509 101.609 175.505C105.605 172.359 110.069 169.393 114.96 168.489C115.016 163.381 115.76 158.316 115.537 153.198C115.462 151.474 115.453 149.695 115.214 147.985C115.234 148.126 114.734 145.446 114.688 145.515C113.072 147.965 112.24 150.665 112.29 153.607C112.311 154.848 109.725 155.599 108.845 154.929C103.833 151.115 103.464 142.847 98.816 139.002C97.899 145.003 101.45 151.468 103.471 156.881C103.877 157.968 100.4 159.127 99.895 158.009C97.623 152.978 94.567 145.449 89.836 141.639C89.535 144.128 90.044 146.676 90.962 149.156C93.262 152.383 94.977 156.448 96.042 158.862C96.507 159.916 93.089 161.034 92.466 159.99C90.684 157.007 88.548 153.525 87.262 149.904C85.908 148.034 84.377 146.577 82.704 146.179C82.511 146.133 83.467 150.404 83.696 150.857C84.523 152.49 85.457 154.035 86.552 155.507C88.324 157.891 90.244 160.144 92.158 162.413C92.972 163.493 89.561 164.78 88.844 163.929ZM168.446 106.882C164.334 103.776 162.857 110.746 163.1 113.589C163.268 115.551 163.663 117.897 165.068 119.398C166.295 120.709 169.65 118.02 170.637 117.253C171.834 116.325 174.24 118.101 174.848 119.047C178.394 124.56 181.056 130.521 183.891 136.409C187.803 137.452 191.591 138.899 195.064 140.937C196.057 135.065 198.347 129.11 202.187 124.537C204.989 121.2 209.56 118.826 212.52 115.455C213.071 114.789 213.58 114.094 214.04 113.367C214.201 113.088 214.353 112.804 214.488 112.509C219.163 102.317 211.165 91.383 207.215 81.676C201.45 81.744 195.323 79.712 191.2 75.768C190.217 78.503 188.037 80.606 184.478 82.009C177.723 84.672 170.374 85.827 164.989 91.066L168.042 100.78C169.178 102.791 170.498 104.733 171.931 106.673C173.614 108.952 169.196 107.449 168.446 106.882ZM203.029 128.921C203.012 128.951 202.995 128.981 202.979 129.01C203.059 128.98 203.138 128.95 203.218 128.921H203.029ZM215.9 222.425C220.005 207.779 220.007 191.803 217.6 176.862C216.245 168.449 214.115 159.717 210.513 151.772C210.121 151.832 209.762 151.831 209.518 151.731C205.64 150.145 201.577 148.351 197.88 146.164C197.78 146.289 197.677 146.418 197.574 146.555C196.403 148.103 195.155 149.599 193.862 151.047C192.683 152.367 191.472 153.754 190.091 154.882C198.388 177.024 203.523 200.082 202.468 223.999C207.001 223.999 211.535 223.999 216.069 223.999C215.835 223.524 215.744 222.984 215.9 222.425ZM198.539 142.501C198.52 142.648 198.396 142.765 198.212 142.858C201.513 145.125 205.256 147 208.99 148.634C206.593 144.022 203.62 139.758 199.948 136.054C199.303 138.143 198.817 140.292 198.539 142.501ZM194.235 143.215C190.937 141.42 187.373 140.166 183.689 139.27C185.501 143.354 187.226 147.471 188.844 151.62C189.57 150.86 190.282 150.088 190.969 149.294C191.989 148.115 192.999 146.92 193.929 145.669C194.139 145.386 194.862 144.651 194.867 144.22C194.752 144.139 194.631 144.064 194.517 143.982C194.17 143.731 194.113 143.465 194.235 143.215ZM293.512 132.909C297.78 135.61 302.399 137.933 306.191 141.293C306.276 141.369 306.367 141.438 306.452 141.515C306.866 141.012 307.265 140.491 307.666 139.973C309.768 137.273 311.716 134.403 313.476 131.35C312.991 131.17 312.504 131.002 312.017 130.836C308.355 129.593 304.609 128.756 300.757 128.209C300.136 128.121 299.513 128.04 298.887 127.966C298.697 127.944 298.512 127.899 298.33 127.846C296.864 129.648 295.245 131.333 293.512 132.909ZM307.906 117.435C309.538 116.893 312.526 115.386 311.469 113.126C310.495 111.043 307.41 112.186 306.032 113.11C301.911 115.874 302.937 121.7 303.099 126.095C307.656 126.885 312.109 128.061 316.429 129.793C321.627 126.444 326.203 121.633 324.136 114.869C323.59 113.083 322.652 110.68 320.864 109.763C319.105 108.861 317.692 110.919 317.835 112.492C318.1 115.408 320.046 117.499 322.79 118.394C322.486 118.295 320.223 119.277 319.212 118.947C318.698 118.78 318.116 118.483 317.531 118.093C316.148 120.386 314.649 122.621 313.744 125.155C313.369 126.207 309.98 126.965 310.258 126.188C311.413 122.955 313.458 120.185 315.118 117.209C315.223 117.021 315.483 116.828 315.81 116.656C315.532 116.367 315.278 116.059 315.044 115.742C314.19 117.891 311.764 119.188 309.596 119.907C307.826 120.493 305.57 118.21 307.906 117.435ZM318.01 108.818C319.723 108.297 321.614 108.278 323.336 108.688C324.759 109.026 325.868 110.045 326.684 111.379C326.94 109.126 325.222 107.073 322.579 106.201C321.536 105.857 319.418 105.327 318.617 105.785C317.717 106.299 317.787 107.72 318.01 108.818ZM233.609 223.998C300.541 223.998 367.472 223.998 434.404 223.998C434.594 155.057 434.846 86.116 435.038 17.176C422.924 17.176 410.809 17.176 398.695 17.176C283.274 17.176 167.852 17.176 52.43 17.176C52.264 76.365 51.961 135.554 51.793 194.743C54.035 194.237 56.327 194.163 58.482 194.661C63.423 195.804 66.716 199.458 69.285 203.637C72.988 209.658 74.567 216.888 75.24 224.277C75.813 217.37 76.586 208.998 81.202 203.842C85.066 199.527 92.13 199.045 97.315 201.124C102.055 203.024 105.004 207.313 106.309 212.117C107.341 215.915 107.629 219.925 107.428 223.998C127.771 223.998 148.114 223.998 168.457 223.998C168.444 223.804 168.45 223.609 168.499 223.415C170.672 214.8 171.157 206.024 168.846 197.375C167.256 191.421 164.914 185.737 162.504 180.081C153.42 192.124 144.173 210.205 127.019 209.588C115.152 209.161 107.749 199.733 102.836 189.569C102.286 189.576 101.835 189.579 101.707 189.664C102.005 189.466 102.304 189.275 102.602 189.079C101.078 185.868 99.797 182.599 98.7 179.527C97.829 179.36 97.284 179.037 97.826 178.587C98.264 178.224 98.711 177.854 99.162 177.482C92.431 174.196 80.231 169.879 80.707 160.752C80.729 160.329 81.457 159.92 81.779 159.796C82.721 159.432 83.771 159.249 84.843 159.23C80.608 153.951 75.749 146.365 82.305 144.495C83.668 144.106 84.946 144.255 86.138 144.772C86.033 142.996 86.258 141.226 86.956 139.502C87.349 138.533 89.211 137.849 90.164 138.278C91.985 139.099 93.599 140.433 95.049 142.049C95.028 140.338 95.282 138.645 95.956 137.002C96.373 135.985 98.173 135.415 99.164 135.778C105.273 138.02 106.079 145.03 109.236 150.09C109.743 148.045 110.646 146.092 112.131 144.746C113.201 143.777 115.92 142.045 117.384 143.329C120.216 145.813 119.25 152.879 119.143 156.401C119.027 160.221 118.581 164.019 118.54 167.841C118.539 167.968 118.485 168.093 118.398 168.213C120.534 168.282 122.84 168.808 124.481 170.129C126.881 172.061 127.981 175.14 130.357 177.029C137.703 182.869 150.153 156.165 155.236 147.573C151.084 147.615 147.171 146.68 143.923 144.243C139.342 140.806 137.168 135.444 138.469 129.721C139.905 123.407 144.181 118.436 143.042 111.569C142.201 106.494 139.662 102.028 138.463 97.06C137.418 92.727 136.793 88.233 137.076 83.766C137.568 75.979 139.982 67.453 146.077 62.169C147.512 60.745 149.22 59.526 151.23 58.557C166.112 49.531 185.74 47.791 200.566 57.592C201.03 57.899 201.478 58.352 201.817 58.797C205.17 60.749 208.294 63.133 211.093 65.989C215.239 70.219 218.767 75.04 221.427 80.343C223.951 85.376 225.239 90.994 227.966 95.894C231.94 103.036 240.669 111.958 234.945 120.489C232.446 124.213 228.195 128.69 223.67 130.078C224.295 130.373 224.916 130.69 225.528 131.052C231.604 134.641 236.557 139.843 242.713 143.305C251.095 148.02 259.801 149.136 269.01 146.198C277.223 143.577 285.429 139.093 291.596 132.815C291.609 132.802 291.623 132.791 291.635 132.778C291.656 132.36 291.828 132.095 292.212 132.178C293.127 131.208 293.974 130.182 294.786 129.131C295.149 128.661 295.521 128.198 295.86 127.712C296.053 127.435 296.385 127.184 296.779 126.956C295.941 126.122 295.981 125.125 298.109 125.376C298.524 125.425 298.936 125.484 299.349 125.538C299.189 121.802 298.493 117.261 300.55 114.039C302.413 111.119 306.078 109.02 309.625 109.282C311.303 109.406 313.186 110.075 314.322 111.347C314.423 111.173 314.545 111.002 314.689 110.834C313.561 106.641 316.832 104.24 320.527 103.785C320.495 103.698 320.48 103.613 320.504 103.537C321.367 100.814 323.597 98.064 325.024 95.619C328.112 90.326 331.216 85.042 334.317 79.756C337.391 74.516 340.468 69.279 343.521 64.027C344.002 63.199 348.124 57.398 347.753 56.651C347.863 56.872 350.271 57.75 350.741 58.696C351.211 59.641 347.345 64.855 346.876 65.661C343.7 71.125 340.5 76.576 337.302 82.028C334.074 87.53 330.84 93.029 327.63 98.542C326.638 100.245 325.229 102.105 324.258 103.995C326.365 104.516 328.742 105.614 329.817 107.62C331.1 110.014 329.833 112.355 328.177 114.179C328.115 114.246 328.023 114.314 327.916 114.38C328.496 116.602 328.518 118.984 327.993 120.589C326.429 125.373 322.508 128.256 318.301 130.649C319.272 131.299 319.045 131.949 318.314 132.29C318.36 132.421 318.372 132.54 318.322 132.633C302.762 161.716 271.228 175.934 239.017 170.317C238.913 170.299 238.805 170.257 238.696 170.206C239.13 175.386 238.383 180.51 237.154 185.557C234.08 198.185 230.609 210.961 233.609 223.998ZM38.383 205.667C38.784 204.605 39.292 203.583 39.937 202.625C41.579 200.189 44.072 198.05 46.923 196.553C47.091 136.086 47.407 75.62 47.574 15.153C47.577 13.965 48.622 13.553 49.742 13.668C50.145 13.461 50.587 13.332 51.043 13.332C70.857 13.332 90.671 13.332 110.485 13.332C218.673 13.332 326.862 13.332 435.05 13.332C435.05 13.192 435.051 13.052 435.051 12.912C435.051 12.989 435.61 13.134 436.332 13.332C436.678 13.332 437.025 13.332 437.371 13.332C438.415 13.332 438.898 13.728 438.996 14.263C439.373 14.47 439.624 14.694 439.624 14.932C439.429 85.821 439.166 156.71 438.972 227.599C438.972 227.507 438.179 227.319 437.255 227.058C436.709 227.516 436.015 227.844 435.288 227.844C325.896 227.844 216.505 227.844 107.114 227.844C106.728 231.016 106.071 234.199 105.261 237.332C219.371 237.332 333.481 237.332 447.592 237.332C447.806 159.503 448.023 81.673 448.236 3.84399C419.498 3.84399 390.759 3.84399 362.021 3.84399C254.333 3.84399 146.644 3.84399 38.955 3.84399C38.77 71.118 38.571 138.392 38.383 205.667ZM38.312 230.63C39.41 232.672 40.384 234.802 41.253 236.955C41.01 234.313 40.716 231.679 40.212 229.087C39.737 226.65 38.964 224.282 38.337 221.883C38.329 224.799 38.321 227.715 38.312 230.63ZM59.6 284.225C49.64 274.63 44.346 261.443 42.356 247.702C41.196 247.748 40.05 247.689 39.914 247.244C37.131 238.145 33.222 226.637 25.638 220.369C24.325 219.284 20.96 216.54 19.223 216.931C16.596 217.523 14.201 219.127 12.937 221.561C10.631 226 10.609 231.322 12.904 235.803C15.595 241.06 19.514 245.33 23.157 249.921C27.017 254.785 29.43 259.681 31.795 265.375C35.395 274.041 40.139 280.461 48.287 284.225C49.385 284.225 50.482 284.225 51.579 284.225C38.183 271.364 33.846 252.167 24.513 236.558C23.875 235.491 28.542 235.688 29.344 237.029C38.492 252.331 42.661 271.81 56.095 284.226C57.264 284.225 58.432 284.225 59.6 284.225ZM72.908 284.225C69.702 274.19 66.413 264.388 69.302 253.834C70.399 249.828 72.168 245.961 73.223 241.943C72.891 241.471 72.659 241.005 72.658 240.625C72.648 229.313 73.152 216.463 68.743 205.81C64.029 194.414 47.291 197.786 42.341 207.538C40.176 211.803 39.735 216.786 40.574 221.465C41.724 227.882 43.621 233.898 44.219 240.461C45.687 256.589 48.441 273.829 62.169 284.225C63.023 284.225 63.878 284.225 64.732 284.225C59.37 266.333 56.777 247.748 51.434 229.845C51.099 228.722 55.813 229.407 56.201 230.704C61.458 248.321 64.052 266.598 69.241 284.225C70.463 284.225 71.686 284.225 72.908 284.225ZM86.822 269.678C90.568 263.282 93.738 256.53 96.345 249.591C99.073 242.331 101.397 234.824 102.508 227.129C103.336 221.395 104.079 214.578 101.511 209.148C99.162 204.183 91.735 202.814 87.093 205.407C80.187 209.264 79.839 220.856 79.231 227.712C78.869 231.786 78.668 235.892 78.114 239.947C77.519 244.304 75.861 248.053 74.522 252.23C72.885 257.339 71.605 262.685 72.373 268.081C72.806 271.121 73.555 274.093 74.422 277.036C78.716 257.424 84.77 238.224 91.316 219.256C92.117 216.936 97.055 217.546 96.17 220.11C89.331 239.928 83.033 259.999 78.714 280.529C82.077 277.553 84.619 273.44 86.822 269.678ZM71.385 342.993C71.057 343.142 70.725 343.286 70.389 343.422C71.27 343.396 71.483 343.182 71.385 342.993ZM93.962 342.272L93.484 342.145C93.185 342.284 92.882 342.409 93.962 342.272ZM197.342 346.44C196.438 346.279 195.971 346.014 195.366 346.566C195.754 346.851 196.812 346.54 197.342 346.44ZM238.958 345.296C238.331 345.173 237.765 345.156 237.266 345.197C237.954 345.379 238.564 345.456 238.958 345.296ZM280.717 342.955C280.275 342.964 280.525 343.018 280.555 343.125C280.59 343.063 280.648 343.008 280.717 342.955ZM354.875 341.738C354.055 341.649 353.635 341.576 354.818 341.762C354.837 341.752 354.853 341.746 354.875 341.738ZM61.902 300.145C63.672 299.243 65.21 297.985 65.25 295.846C65.273 294.646 64.097 293.995 63.036 293.829C62.234 293.703 60.333 293.884 60.311 295.073C60.305 295.406 60.27 295.724 60.19 296.048C60.187 296.06 60.187 296.063 60.185 296.073C60.172 296.093 60.156 296.123 60.132 296.171C60.068 296.299 59.984 296.416 59.901 296.532L59.899 296.535C59.879 296.551 59.851 296.575 59.809 296.615C59.693 296.724 59.564 296.819 59.437 296.914C59.413 296.932 59.263 297.024 59.19 297.07C59.052 297.147 58.912 297.221 58.772 297.293C57.79 297.793 57.559 298.822 58.411 299.599C59.268 300.381 60.843 300.685 61.902 300.145ZM44.595 299.621C45.317 299.969 46.06 300.074 46.85 300.075C47.146 300.075 46.838 299.779 46.777 299.717C46.426 299.363 46.004 299.069 45.594 298.791C45.063 298.43 44.512 298.094 43.942 297.798C43.66 297.652 43.201 297.363 42.859 297.363C42.632 297.363 42.406 297.36 42.18 297.345C42.171 297.345 42.163 297.342 42.154 297.342C41.936 297.218 41.716 297.097 41.497 296.983C41.182 296.819 40.781 296.583 40.414 296.548C40.099 296.518 40.456 296.877 40.487 296.906C41.685 298.037 43.117 298.908 44.595 299.621ZM196.169 86.637C197.195 85.48 198.398 84.72 199.839 84.184C200.49 83.942 201.18 83.831 201.866 83.74C202.176 83.702 202.487 83.685 202.799 83.688C202.858 83.687 202.896 83.688 202.94 83.688C203.601 84.001 204.417 84.135 205.108 84.193C205.311 84.21 206.544 84.231 205.875 83.809C201.914 81.313 195.479 82.512 192.498 85.872C192.508 85.861 195.495 87.397 196.169 86.637ZM198.578 91.681C197.668 92.861 199.755 94.211 200.613 93.099C202.477 90.682 205.071 90.483 207.801 91.471C209.289 92.009 210.093 89.968 208.597 89.427C204.914 88.095 201.095 88.418 198.578 91.681ZM166.671 110.597C165.993 110.644 165.426 111.104 165.38 111.79C165.334 112.485 167.57 113.475 167.62 112.718C167.635 112.495 167.781 112.322 167.96 112.204C168.053 112.143 168.154 112.118 168.259 112.096C168.629 112.341 169.087 112.53 169.494 112.492C170.06 112.44 169.638 111.879 169.425 111.684C168.689 111.012 167.685 110.527 166.671 110.597ZM198.567 102.966C197.519 103.528 199.196 105.359 200.099 104.875C201.373 104.192 202.503 103.198 202.968 101.792C203.495 100.194 201.503 98.964 200.526 97.987C200.203 97.665 199.434 97.336 199.06 97.762C198.659 98.22 199.151 98.864 199.473 99.186C199.933 99.645 200.392 100.105 200.852 100.565C200.573 101.652 199.499 102.467 198.567 102.966ZM378.807 342.298C379.376 342.513 382.406 342.798 381.04 343.158C378.894 343.366 379.28 343.021 378.235 342.813C379.124 343.305 375.506 343.536 375.977 344.261L377.859 344.002C377.895 344.115 377.213 344.296 377.736 344.398C377.859 344.002 379.712 343.632 381.314 344.055C382.888 343.755 381.852 342.454 380.474 341.728C380.427 341.902 380.428 342.061 378.807 342.298ZM205.189 109.611C205.844 108.269 203.432 107.626 202.811 108.897C200.226 114.192 194.843 113.249 191.589 109.178C190.686 108.049 188.751 109.421 189.743 110.662C194.215 116.256 201.887 116.372 205.189 109.611ZM76.83 297.831C76.221 298.157 78.132 298.959 78.279 299.017C78.876 299.253 79.497 299.443 80.128 299.562C80.42 299.618 81.024 299.766 81.322 299.606C83.007 298.705 83.872 297.077 83.043 295.253C82.905 294.95 82.314 294.708 82.053 294.583C81.473 294.308 80.86 294.094 80.239 293.932C80.076 293.89 78.083 293.405 78.369 294.034C79.076 295.589 78.249 297.072 76.83 297.831ZM393.137 343.341L393.068 343.117C394.567 343.202 394.242 342.927 394.427 342.754L391.793 342.97L393.137 343.341ZM384.022 344.063C384.252 344.003 384.51 344.056 384.736 343.995L384.672 343.771C383.693 343.788 383.009 343.97 384.022 344.063ZM360.448 341.669C360.971 341.773 360.774 341.15 361.071 341.314C361.652 340.797 357.587 341.946 360.448 341.669ZM374.283 342.877C374.622 342.857 374.97 342.846 375.302 342.865C375.43 342.637 374.889 342.818 374.283 342.877ZM394.8 341.516C394.751 341.524 394.689 341.534 394.643 341.541C394.74 341.577 394.817 341.589 394.8 341.516ZM391.943 341.842C392.648 341.924 393.069 341.818 393.47 341.686C392.943 341.73 392.384 341.759 391.784 341.763C391.727 341.824 391.716 341.864 391.943 341.842ZM376.735 341.102L375.832 341.342L376.61 341.498L376.735 341.102ZM380.381 340.982L378.862 341.627L380.033 341.438L380.381 340.982ZM389.871 340.679C389.411 340.747 388.957 340.845 388.501 341.009C388.934 340.938 389.383 340.812 389.871 340.679ZM392.655 340.147C391.592 340.201 390.687 340.453 389.871 340.678C390.739 340.551 391.664 340.582 392.862 340.818C393.508 340.526 391.972 340.327 392.655 340.147ZM368.775 341.23C369.536 341.205 369.808 341.31 370.193 341.385C370.162 341.288 369.941 341.156 370.187 341.114L368.775 341.23Z" fill="#0F4848"/>
</svg>
