<svg width="1152" height="720" viewBox="0 0 1152 720" fill="none" xmlns="http://www.w3.org/2000/svg">
<path d="M374.4 551.5L757.4 329L690.8 310L307.9 532.6L374.4 551.5Z" fill="#A5A5A5"/>
<path d="M440.9 609.4L823.9 386.9L757.4 329L374.4 551.5L440.9 609.4Z" fill="#BCB9B7"/>
<path d="M307.9 532.6L690.8 310L758.2 62.1L375.2 284.6L307.9 532.6Z" fill="#BCB9B7"/>
<path d="M829.3 396.2L446.3 618.7L428.8 532.1L375.2 267.4L663.8 99.8L758.2 44.9L829.3 396.2Z" fill="#F8F5F4"/>
<path d="M446.3 618.7L374.4 556.1L302.4 535.6L375.2 267.4L446.3 618.7ZM440.9 609.4L375.2 284.6L307.9 532.6L374.5 551.5L440.9 609.4Z" fill="#D6D4D2"/>
<path d="M504.4 556.3L499.3 525.2C499 523.3 497.4 522.5 495.7 523.5L463.7 542.8C462 543.8 460.9 546.2 461.2 548.1L466.3 579.2C466.6 581.1 468.2 581.9 469.9 580.9L501.9 561.6C503.6 560.6 504.7 558.2 504.4 556.3Z" fill="#E6E6E6"/>
<path d="M553.9 526.5L548.8 495.4C548.5 493.5 546.9 492.7 545.2 493.7L513.2 513C511.5 514 510.4 516.4 510.7 518.3L515.8 549.4C516.1 551.3 517.7 552.1 519.4 551.1L551.4 531.8C553.1 530.8 554.2 528.4 553.9 526.5Z" fill="#EBEBEB"/>
<path d="M603.4 496.6L598.3 465.5C598 463.6 596.4 462.8 594.7 463.8L562.7 483.1C561 484.1 559.9 486.5 560.2 488.4L565.3 519.5C565.6 521.4 567.2 522.2 568.9 521.2L600.9 501.9C602.7 500.9 603.8 498.5 603.4 496.6Z" fill="#EBEBEB"/>
<path d="M653 466.8L647.9 435.7C647.6 433.8 646 433 644.3 434L612.3 453.3C610.6 454.3 609.5 456.7 609.8 458.6L614.9 489.7C615.2 491.6 616.8 492.4 618.5 491.4L650.5 472.1C652.2 471.1 653.3 468.7 653 466.8Z" fill="#EBEBEB"/>
<path d="M702.5 436.9L697.4 405.8C697.1 403.9 695.5 403.1 693.8 404.1L661.8 423.4C660.1 424.4 659 426.8 659.3 428.7L664.4 459.8C664.7 461.7 666.3 462.5 668 461.5L700 442.2C701.7 441.2 702.8 438.8 702.5 436.9Z" fill="#EBEBEB"/>
<path d="M752 407.1L747 376C746.7 374.1 745.1 373.3 743.4 374.3L711.4 393.6C709.7 394.6 708.6 397 708.9 398.9L714 430C714.3 431.9 715.9 432.7 717.6 431.7L749.6 412.4C751.3 411.4 752.4 409 752 407.1Z" fill="#EBEBEB"/>
<path d="M801.6 377.2L796.5 346.1C796.2 344.2 794.6 343.4 792.9 344.4L760.9 363.7C759.2 364.7 758.1 367.1 758.4 369L763.5 400.1C763.8 402 765.4 402.8 767.1 401.8L799.1 382.5C800.8 381.5 801.9 379.1 801.6 377.2Z" fill="#E6E6E6"/>
<path d="M494.5 495.4L489.4 464.3C489.1 462.4 487.5 461.6 485.8 462.6L453.8 481.9C452.1 482.9 451 485.3 451.3 487.2L456.4 518.3C456.7 520.2 458.3 521 460 520L492 500.7C493.7 499.7 494.8 497.4 494.5 495.4Z" fill="#E6E6E6"/>
<path d="M544 465.6L538.9 434.5C538.6 432.6 537 431.8 535.3 432.8L503.3 452.1C501.6 453.1 500.5 455.5 500.8 457.4L505.9 488.5C506.2 490.4 507.8 491.2 509.5 490.2L541.5 470.9C543.2 469.9 544.3 467.5 544 465.6Z" fill="#EBEBEB"/>
<path d="M593.6 435.7L588.5 404.6C588.2 402.7 586.6 401.9 584.9 402.9L552.9 422.2C551.2 423.2 550.1 425.6 550.4 427.5L555.5 458.6C555.8 460.5 557.4 461.3 559.1 460.3L591.1 441C592.8 440 593.9 437.7 593.6 435.7Z" fill="#EBEBEB"/>
<path d="M643.1 405.9L638 374.8C637.7 372.9 636.1 372.1 634.4 373.1L602.4 392.4C600.7 393.4 599.6 395.8 599.9 397.7L605 428.8C605.3 430.7 606.9 431.5 608.6 430.5L640.6 411.2C642.3 410.2 643.4 407.8 643.1 405.9Z" fill="#EBEBEB"/>
<path d="M692.6 376.1L687.5 345C687.2 343.1 685.6 342.3 683.9 343.3L651.9 362.6C650.2 363.6 649.1 366 649.4 367.9L654.5 399C654.8 400.9 656.4 401.7 658.1 400.7L690.1 381.4C691.8 380.3 692.9 378 692.6 376.1Z" fill="#EBEBEB"/>
<path d="M742.2 346.2L737.1 315.1C736.8 313.2 735.2 312.4 733.5 313.4L701.5 332.7C699.8 333.7 698.7 336.1 699 338L704.1 369.1C704.4 371 706 371.8 707.7 370.8L739.7 351.5C741.4 350.5 742.5 348.1 742.2 346.2Z" fill="#EBEBEB"/>
<path d="M791.7 316.4L786.6 285.3C786.3 283.4 784.7 282.6 783 283.6L751 302.9C749.3 303.9 748.2 306.3 748.5 308.2L753.6 339.3C753.9 341.2 755.5 342 757.2 341L789.2 321.7C790.9 320.6 792 318.3 791.7 316.4Z" fill="#E6E6E6"/>
<path d="M484.6 434.6L479.5 403.5C479.2 401.6 477.6 400.8 475.9 401.8L443.9 421.1C442.2 422.1 441.1 424.5 441.4 426.4L446.5 457.5C446.8 459.4 448.4 460.2 450.1 459.2L482.1 439.9C483.8 438.9 484.9 436.5 484.6 434.6Z" fill="#E6E6E6"/>
<path d="M534.1 404.7L529 373.6C528.7 371.7 527.1 370.9 525.4 371.9L493.4 391.2C491.7 392.2 490.6 394.6 490.9 396.5L496 427.6C496.3 429.5 497.9 430.3 499.6 429.3L531.6 410C533.4 409 534.5 406.7 534.1 404.7Z" fill="#EBEBEB"/>
<path d="M583.7 374.9L578.6 343.8C578.3 341.9 576.7 341.1 575 342.1L543 361.4C541.3 362.4 540.2 364.8 540.5 366.7L545.6 397.8C545.9 399.7 547.5 400.5 549.2 399.5L581.2 380.2C582.9 379.2 584 376.8 583.7 374.9Z" fill="#EBEBEB"/>
<path d="M633.2 345L628.1 313.9C627.8 312 626.2 311.2 624.5 312.2L592.5 331.5C590.8 332.5 589.7 334.9 590 336.8L595.1 367.9C595.4 369.8 597 370.6 598.7 369.6L630.7 350.3C632.4 349.3 633.5 347 633.2 345Z" fill="#EBEBEB"/>
<path d="M682.7 315.2L677.6 284.1C677.3 282.2 675.7 281.4 674 282.4L642 301.7C640.3 302.7 639.2 305.1 639.5 307L644.6 338.1C644.9 340 646.5 340.8 648.2 339.8L680.2 320.5C682 319.5 683.1 317.1 682.7 315.2Z" fill="#EBEBEB"/>
<path d="M732.3 285.3L727.2 254.2C726.9 252.3 725.3 251.5 723.6 252.5L691.6 271.8C689.9 272.8 688.8 275.2 689.1 277.1L694.2 308.2C694.5 310.1 696.1 310.9 697.8 309.9L729.8 290.6C731.5 289.6 732.6 287.3 732.3 285.3Z" fill="#EBEBEB"/>
<path d="M781.8 255.5L776.7 224.4C776.4 222.5 774.8 221.7 773.1 222.7L741.1 242C739.4 243 738.3 245.4 738.6 247.3L743.7 278.4C744 280.3 745.6 281.1 747.3 280.1L779.3 260.8C781 259.8 782.1 257.4 781.8 255.5Z" fill="#E6E6E6"/>
<path d="M474.7 373.7L469.6 342.6C469.3 340.7 467.7 339.9 466 340.9L434 360.2C432.3 361.2 431.2 363.6 431.5 365.5L436.6 396.6C436.9 398.5 438.5 399.3 440.2 398.3L472.2 379C473.9 378 475 375.6 474.7 373.7Z" fill="#E6E6E6"/>
<path d="M524.3 343.9L519.2 312.8C518.9 310.9 517.3 310.1 515.6 311.1L483.6 330.4C481.9 331.4 480.8 333.8 481.1 335.7L486.2 366.8C486.5 368.7 488.1 369.5 489.8 368.5L521.8 349.2C523.5 348.2 524.6 345.8 524.3 343.9Z" fill="#EBEBEB"/>
<path d="M573.8 314L568.7 282.9C568.4 281 566.8 280.2 565.1 281.2L533.1 300.5C531.4 301.5 530.3 303.9 530.6 305.8L535.7 336.9C536 338.8 537.6 339.6 539.3 338.6L571.3 319.3C573 318.3 574.1 315.9 573.8 314Z" fill="#EBEBEB"/>
<path d="M563.6 312.1L560.9 295.7C560.7 294.7 559.9 294.3 559 294.8L542.1 305C541.2 305.5 540.6 306.8 540.8 307.8L543.5 324.2C543.7 325.2 544.5 325.6 545.4 325.1L562.3 314.9C563.2 314.4 563.8 313.1 563.6 312.1Z" fill="#31437A"/>
<path d="M575 373L572.3 356.6C572.1 355.6 571.3 355.2 570.4 355.7L553.5 365.9C552.6 366.4 552 367.7 552.2 368.7L554.9 385.1C555.1 386.1 555.9 386.5 556.8 386L573.7 375.8C574.6 375.2 575.2 374 575 373Z" fill="#31437A"/>
<path d="M583.4 433.8L580.7 417.4C580.5 416.4 579.7 416 578.8 416.5L561.9 426.7C561 427.2 560.4 428.5 560.6 429.5L563.3 445.9C563.5 446.9 564.3 447.3 565.2 446.8L582.1 436.6C583 436.1 583.6 434.8 583.4 433.8Z" fill="#31437A"/>
<path d="M594.8 494.7L592.1 478.3C591.9 477.3 591.1 476.9 590.2 477.4L573.3 487.6C572.4 488.1 571.8 489.4 572 490.4L574.7 506.8C574.9 507.8 575.7 508.2 576.6 507.7L593.5 497.5C594.4 497 595 495.7 594.8 494.7Z" fill="#31437A"/>
<path d="M644.7 464.8L642 448.4C641.8 447.4 641 447 640.1 447.5L623.2 457.7C622.3 458.2 621.7 459.5 621.9 460.5L624.6 476.9C624.8 477.9 625.6 478.3 626.5 477.8L643.4 467.6C644.2 467.1 644.8 465.9 644.7 464.8Z" fill="#31437A"/>
<path d="M622.9 344.3L620.2 327.9C620 326.9 619.2 326.5 618.3 327L601.4 337.2C600.5 337.7 599.9 339 600.1 340L602.8 356.4C603 357.4 603.8 357.8 604.7 357.3L621.6 347.1C622.5 346.6 623.1 345.3 622.9 344.3Z" fill="#31437A"/>
<path d="M672.6 312.5L669.9 296.1C669.7 295.1 668.9 294.7 668 295.2L651.1 305.4C650.2 305.9 649.6 307.2 649.8 308.2L652.5 324.6C652.7 325.6 653.5 326 654.4 325.5L671.3 315.3C672.2 314.8 672.7 313.5 672.6 312.5Z" fill="#31437A"/>
<path d="M684.3 374.1L681.6 357.7C681.4 356.7 680.6 356.3 679.7 356.8L662.8 367C661.9 367.5 661.3 368.8 661.5 369.8L664.2 386.2C664.4 387.2 665.2 387.6 666.1 387.1L683 376.9C683.9 376.4 684.5 375.1 684.3 374.1Z" fill="#31437A"/>
<path d="M694.2 433.8L691.5 417.4C691.3 416.4 690.5 416 689.6 416.5L672.7 426.7C671.8 427.2 671.2 428.5 671.4 429.5L674.1 445.9C674.3 446.9 675.1 447.3 676 446.8L692.9 436.6C693.8 436.1 694.4 434.8 694.2 433.8Z" fill="#31437A"/>
<path d="M634.8 403.3L632.1 386.9C631.9 385.9 631.1 385.5 630.2 386L613.3 396.2C612.4 396.7 611.8 398 612 399L614.7 415.4C614.9 416.4 615.7 416.8 616.6 416.3L633.5 406.1C634.4 405.5 634.9 404.3 634.8 403.3Z" fill="#31437A"/>
<path d="M514.4 341.2L511.7 324.8C511.5 323.8 510.7 323.4 509.8 323.9L492.9 334.1C492 334.6 491.4 335.9 491.6 336.9L494.3 353.3C494.5 354.3 495.3 354.7 496.2 354.2L513.1 344C514 343.5 514.5 342.3 514.4 341.2Z" fill="#31437A"/>
<path d="M464.3 371.1L461.6 354.7C461.4 353.7 460.6 353.3 459.7 353.8L442.8 364C441.9 364.5 441.3 365.8 441.5 366.8L444.2 383.2C444.4 384.2 445.2 384.6 446.1 384.1L463 373.9C463.8 373.4 464.4 372.1 464.3 371.1Z" fill="#6EC1EC"/>
<path d="M474.4 432.7L471.7 416.3C471.5 415.3 470.7 414.9 469.8 415.4L453 425.6C452.1 426.1 451.5 427.4 451.7 428.4L454.4 444.8C454.6 445.8 455.4 446.2 456.3 445.7L473.2 435.5C474 434.9 474.6 433.7 474.4 432.7Z" fill="#6EC1EC"/>
<path d="M485.9 494L483.2 477.6C483 476.6 482.2 476.2 481.3 476.7L464.4 486.9C463.5 487.4 462.9 488.7 463.1 489.7L465.8 506.1C466 507.1 466.8 507.5 467.7 507L484.6 496.8C485.4 496.3 486 495 485.9 494Z" fill="#6EC1EC"/>
<path d="M496.1 553.7L493.4 537.3C493.2 536.3 492.4 535.9 491.5 536.4L474.6 546.6C473.7 547.1 473.1 548.4 473.3 549.4L476 565.8C476.2 566.8 477 567.2 477.9 566.7L494.8 556.5C495.6 555.9 496.2 554.7 496.1 553.7Z" fill="#6EC1EC"/>
<path d="M524.5 403.5L521.8 387.1C521.6 386.1 520.8 385.7 519.9 386.2L503 396.4C502.1 396.9 501.5 398.2 501.7 399.2L504.4 415.6C504.6 416.6 505.4 417 506.3 416.5L523.2 406.3C524.1 405.8 524.7 404.5 524.5 403.5Z" fill="#31437A"/>
<path d="M534.5 463L531.8 446.6C531.6 445.6 530.8 445.2 529.9 445.7L513 455.9C512.1 456.4 511.5 457.7 511.7 458.7L514.4 475.1C514.6 476.1 515.4 476.5 516.3 476L533.2 465.8C534.1 465.2 534.7 464 534.5 463Z" fill="#31437A"/>
<path d="M545 522.7L542.3 506.3C542.1 505.3 541.3 504.9 540.4 505.4L523.5 515.6C522.6 516.1 522 517.4 522.2 518.4L524.9 534.8C525.1 535.8 525.9 536.2 526.8 535.7L543.7 525.5C544.6 524.9 545.2 523.7 545 522.7Z" fill="#31437A"/>
<path d="M623.3 284.2L618.2 253.1C617.9 251.2 616.3 250.4 614.6 251.4L582.6 270.7C580.9 271.7 579.8 274.1 580.1 276L585.2 307.1C585.5 309 587.1 309.8 588.8 308.8L620.8 289.5C622.5 288.5 623.6 286.1 623.3 284.2Z" fill="#EBEBEB"/>
<path d="M672.9 254.3L667.8 223.2C667.5 221.3 665.9 220.5 664.2 221.5L632.2 240.8C630.5 241.8 629.4 244.2 629.7 246.1L634.8 277.2C635.1 279.1 636.7 279.9 638.4 278.9L670.4 259.6C672.1 258.6 673.2 256.2 672.9 254.3Z" fill="#EBEBEB"/>
<path d="M722.4 224.5L717.3 193.4C717 191.5 715.4 190.7 713.7 191.7L681.7 211C680 212 678.9 214.4 679.2 216.3L684.3 247.4C684.6 249.3 686.2 250.1 687.9 249.1L719.9 229.8C721.6 228.8 722.7 226.4 722.4 224.5Z" fill="#EBEBEB"/>
<path d="M771.9 194.6L766.8 163.5C766.5 161.6 764.9 160.8 763.2 161.8L731.2 181.1C729.5 182.1 728.4 184.5 728.7 186.4L733.8 217.5C734.1 219.4 735.7 220.2 737.4 219.2L769.4 199.9C771.1 198.9 772.2 196.5 771.9 194.6Z" fill="#E6E6E6"/>
<path d="M459.4 316.4L458.1 308.1C457.8 306.1 456.1 305.3 454.4 306.4L421 326.6C419.3 327.6 418.1 330.1 418.4 332.1L419.7 340.4C420 342.4 421.7 343.2 423.4 342.1L456.8 321.9C458.6 320.9 459.7 318.4 459.4 316.4Z" fill="#6EC1EC"/>
<path d="M511.1 285.3L509.8 277C509.5 275 507.8 274.2 506.1 275.3L472.7 295.5C471 296.5 469.8 299 470.1 301L471.4 309.3C471.7 311.3 473.4 312.1 475.1 311L508.5 290.8C510.3 289.8 511.4 287.3 511.1 285.3Z" fill="#E6E6E6"/>
<path d="M562.8 254.1L561.5 245.8C561.2 243.8 559.5 243 557.8 244.1L524.4 264.3C522.7 265.3 521.5 267.8 521.8 269.8L523.1 278.1C523.4 280.1 525.1 280.9 526.8 279.8L560.2 259.6C562 258.6 563.1 256.1 562.8 254.1Z" fill="#E6E6E6"/>
<path d="M614.5 223L613.2 214.7C612.9 212.7 611.2 211.9 609.5 213L576 233.1C574.3 234.1 573.1 236.6 573.4 238.6L574.7 246.9C575 248.9 576.7 249.7 578.4 248.6L611.8 228.4C613.7 227.5 614.8 225 614.5 223Z" fill="#E6E6E6"/>
<path d="M666.2 191.8L664.9 183.5C664.6 181.5 662.9 180.7 661.2 181.8L627.7 202C626 203 624.8 205.5 625.1 207.5L626.4 215.8C626.7 217.8 628.4 218.6 630.1 217.5L663.5 197.3C665.3 196.3 666.5 193.8 666.2 191.8Z" fill="#E6E6E6"/>
<path d="M717.9 160.7L716.6 152.4C716.3 150.4 714.6 149.6 712.9 150.7L679.5 170.9C677.8 171.9 676.6 174.4 676.9 176.4L678.2 184.7C678.5 186.7 680.2 187.5 681.9 186.4L715.3 166.2C717 165.1 718.2 162.7 717.9 160.7Z" fill="#E6E6E6"/>
<path d="M769.6 129.5L768.3 121.2C768 119.2 766.3 118.4 764.6 119.5L731.2 139.7C729.5 140.7 728.3 143.2 728.6 145.2L729.9 153.5C730.2 155.5 731.9 156.3 733.6 155.2L767 135C768.7 134 769.9 131.5 769.6 129.5Z" fill="#6EC1EC"/>
<path d="M613.7 282.3L611 265.9C610.8 264.9 610 264.5 609.1 265L592.2 275.2C591.3 275.7 590.7 277 590.9 278L593.6 294.4C593.8 295.4 594.6 295.8 595.5 295.3L612.4 285.1C613.2 284.5 613.8 283.3 613.7 282.3Z" fill="#31437A"/>
<path d="M662.7 252.4L660 236C659.8 235 659 234.6 658.1 235.1L641.2 245.3C640.3 245.8 639.7 247.1 639.9 248.1L642.6 264.5C642.8 265.5 643.6 265.9 644.5 265.4L661.4 255.2C662.3 254.7 662.9 253.4 662.7 252.4Z" fill="#31437A"/>
<path d="M714 222.6L711.3 206.2C711.1 205.2 710.3 204.8 709.4 205.3L692.5 215.5C691.6 216 691 217.3 691.2 218.3L693.9 234.7C694.1 235.7 694.9 236.1 695.8 235.6L712.7 225.4C713.5 224.8 714.1 223.6 714 222.6Z" fill="#31437A"/>
<path d="M723.7 282.9L721 266.5C720.8 265.5 720 265.1 719.1 265.6L702.2 275.8C701.3 276.3 700.7 277.6 700.9 278.6L703.6 295C703.8 296 704.6 296.4 705.5 295.9L722.4 285.7C723.3 285.1 723.8 283.9 723.7 282.9Z" fill="#31437A"/>
<path d="M733.8 344.3L731.1 327.9C730.9 326.9 730.1 326.5 729.2 327L712.3 337.2C711.4 337.7 710.8 339 711 340L713.7 356.4C713.9 357.4 714.7 357.8 715.6 357.3L732.5 347.1C733.4 346.6 734 345.3 733.8 344.3Z" fill="#31437A"/>
<path d="M742.2 405.9L739.5 389.5C739.3 388.5 738.5 388.1 737.6 388.6L720.7 398.8C719.8 399.3 719.2 400.6 719.4 401.6L722.1 418C722.3 419 723.1 419.4 724 418.9L740.9 408.7C741.8 408.1 742.4 406.9 742.2 405.9Z" fill="#31437A"/>
<path d="M762.7 192.7L760 176.3C759.8 175.3 759 174.9 758.1 175.4L741.2 185.6C740.3 186.1 739.7 187.4 739.9 188.4L742.6 204.8C742.8 205.8 743.6 206.2 744.5 205.7L761.4 195.5C762.3 195 762.8 193.7 762.7 192.7Z" fill="#6EC1EC"/>
<path d="M771.6 254.3L768.9 237.9C768.7 236.9 767.9 236.5 767 237L750.1 247.2C749.2 247.7 748.6 249 748.8 250L751.5 266.4C751.7 267.4 752.5 267.8 753.4 267.3L770.3 257.1C771.2 256.5 771.8 255.3 771.6 254.3Z" fill="#6EC1EC"/>
<path d="M781.5 313.3L778.8 296.9C778.6 295.9 777.8 295.5 776.9 296L760 306.2C759.1 306.7 758.5 308 758.7 309L761.4 325.4C761.6 326.4 762.4 326.8 763.3 326.3L780.2 316.1C781.1 315.5 781.7 314.3 781.5 313.3Z" fill="#6EC1EC"/>
<path d="M791.4 376L788.7 359.6C788.5 358.6 787.7 358.2 786.8 358.7L769.9 368.9C769 369.4 768.4 370.7 768.6 371.7L771.3 388.1C771.5 389.1 772.3 389.5 773.2 389L790.1 378.8C791 378.3 791.6 377 791.4 376Z" fill="#6EC1EC"/>
<path d="M549.8 440.8C551.1 432.5 553 423.5 559.1 417.2C566.7 409.5 578.4 409 585 418.3C595.4 433.2 582.9 454.4 564.7 450.6C560.2 449.7 558.3 456.4 562.8 457.5C587.2 463.6 604 434.8 589.5 415.2C582.9 406.3 571.6 403.6 562 409.5C551.4 416.1 548.5 428.8 547.3 440.4C547.2 441.8 549.6 442.2 549.8 440.8Z" fill="#6EC1EC"/>
<path d="M668.5 440.8C664.5 424.4 680.5 406.4 697 416.7C712.2 426.2 703.4 450.7 685.2 445.8C682.9 445.2 681.9 448.7 684.2 449.4C705.3 455.2 718.5 427 701.4 413.8C693.7 407.8 682.1 408.6 674.5 414.4C666.3 420.7 663.9 431.7 666.9 441.2C667.2 442.3 668.7 441.8 668.5 440.8Z" fill="#6EC1EC"/>
<path d="M760.8 371.6C765.3 362.7 770.8 352.6 781.1 349.7C793.4 346.2 801.8 357.3 801.4 368.7C800.5 391.4 774.2 400.2 758 386C755.5 383.8 751.8 387.3 754.2 389.8C773.7 408.9 807.7 393.3 805.6 366C804.7 354.6 796.5 344.2 784.2 345.7C770.8 347.3 763.9 359.9 760 371.4C760.1 371.7 760.6 372 760.8 371.6Z" fill="#6EC1EC"/>
<path d="M636.2 286.3C626.4 283.3 616.6 280.6 606.9 277.4C609.9 269 612.4 260.4 614.3 251.8C614.6 250.3 612.5 249.7 612 251.2C609.4 259.7 606.4 268 603.1 276.2C592.3 272.6 581.6 267.9 570.3 265.9C568.6 265.6 567.7 267.6 569.1 268.6C578.3 275.1 589.4 278.9 599.9 282.7C600 282.7 600.1 282.8 600.2 282.8C597 290.4 593.5 298 589.7 305.5C588.4 308.1 592.2 310.3 593.6 307.8C597.5 300.2 601.1 292.3 604.2 284.3C614 287.8 623.9 291.2 633.9 293.9C639 295.3 641.1 287.8 636.2 286.3Z" fill="#6EC1EC"/>
<path d="M740.3 346.6C733.9 343.3 727.3 340.4 720.7 337.6C723.1 330.9 725.7 324.2 727.9 317.5C728.3 316.2 726.3 315.3 725.6 316.5C722.1 322.5 718.8 328.9 715.7 335.5C709.5 332.9 703.4 330.4 697.3 327.7C695.4 326.9 693.8 329.5 695.7 330.5C701.7 333.6 707.6 336.9 713.6 340.1C709.8 348.6 706.5 357.3 703.9 365.8C702.5 370.4 709.4 372.1 710.9 367.7C713.8 359.6 716 351.1 718.7 342.9C724.7 346.1 730.8 349.3 737 352C740.8 353.6 744 348.5 740.3 346.6Z" fill="#6EC1EC"/>
<path d="M531.4 405.5C526.6 402.6 521.6 400.1 516.5 397.9C518.8 391.4 521.5 385 524.5 378.7C525.2 377.2 523.1 376 522.3 377.4C519.1 383.7 516.3 390.2 513.7 396.8C507.9 394.6 501.9 392.7 495.8 391.3C493.7 390.8 492.9 393.9 494.9 394.5C500.9 396.1 506.7 398.1 512.2 400.5C508.9 409.4 506.3 418.5 504.4 427.8C504 429.8 507.1 430.7 507.5 428.7C509.6 419.6 512 410.6 515 401.8C519.8 404 524.5 406.4 529.2 409C531.6 410.4 533.7 406.9 531.4 405.5Z" fill="#6EC1EC"/>
<path opacity="0.5" d="M446.3 618.7L758.2 44.9L375.2 267.4L446.3 618.7Z" fill="#FDFCFC"/>
<path opacity="0.5" d="M663.8 99.8L428.8 532.1L375.2 267.4L663.8 99.8Z" fill="#FDFCFC"/>
<path opacity="0.5" d="M446.3 618.7L758.2 44.9L829.3 396.2L446.3 618.7Z" fill="#D3D3D3"/>
<path d="M760.9 86.5L747.3 94.3L744.1 86C744 85.8 743.8 85.2 743.5 84.5L741.6 79.7L741.8 79.6L754 72.5L755.1 71.8L758.3 80L760.9 86.5Z" fill="#CECECE"/>
<path d="M759.8 73C759.8 75.6 759.3 78 758.4 80C757.4 82.2 755.8 83.9 753.8 85.1C752 86.2 749.9 86.6 747.6 86.6C746.5 86.6 745.3 86 744.2 86C744.2 85.9 744.1 85.8 744.1 85.8C744.1 85.7 744 85.6 744 85.5C743.9 85.2 743.8 84.9 743.6 84.5C743.6 84.4 743.1 84.3 743 84.2C742.4 82.5 741.1 80.2 741.1 79.7V79.6V79H742C745.6 80 748.8 81.2 751.1 79.9C753.7 78.4 754.3 75.3 754.3 72.9C754.3 72.7 754.3 72.6 754.3 72.4C754.1 66.1 750.4 58.5 745.1 52.6C742.6 49.9 739.9 47.5 737 45.8C734.1 44.1 731.3 43.3 729 43.3C727.7 43.3 726.5 43.6 725.6 44.1C723 45.6 722.1 48.8 722.1 51.3C722.1 52.5 722.2 53.7 722.2 55V56H722.8C722.9 56 723.2 56.5 723.2 57.3C723.2 58.1 723.8 58.9 724.1 59.7C724.6 61 725.3 62.4 726 63.7C726.8 65.2 727.7 66.6 728.7 68L727.8 68.5C726.8 67.1 725.8 65.8 724.7 64.5L721.1 66.3C719.7 63.7 718.7 60 718 58V58.2C717.6 56.7 717.3 55.4 717.2 53.9C717.2 53.8 717.3 53.7 717.3 53.5C717.2 52.8 717.3 52.2 717.3 51.5V51.2C717.3 45.6 719.2 41.3 723.1 39.1C727.6 36.5 733.7 37.1 740 40.8C743.8 43 747.2 46 750.2 49.5C750.2 49.5 750.2 49.5 750.2 49.6C754.4 54.5 757.6 60.4 759.1 66.1C759.2 66.4 759.3 66.7 759.3 67.1C759.6 69.1 759.8 71.1 759.8 73Z" fill="#848484"/>
<path d="M740.5 98.3L726.9 106.2L723.7 98C723.7 98 723.7 98 723.7 97.9L723.5 97.4L721.2 91.5L721.4 91.4L733.6 84.3L734.7 83.6L737.9 91.8L740.5 98.3Z" fill="#CECECE"/>
<path d="M739.4 84.8C739.4 87.5 738.9 89.8 738 91.8C737 94 735.4 95.7 733.4 96.9C731.6 98 729.5 98.5 727.2 98.5C726.1 98.5 725 98.2 723.8 98C723.8 98 723.8 98 723.7 98C723.7 98 723.7 98 723.7 97.9C723.7 97.9 723.7 97.8 723.6 97.7L723.5 97.5V97.4C723.4 97.2 723.3 97 723.2 96.7C723.2 96.6 723.1 96.5 723.1 96.4C722.4 94.6 721.3 91.7 721.4 91.4C725 93 728.2 93.3 730.5 92C733.1 90.5 733.7 87.3 733.7 84.8C733.7 84.7 733.7 84.6 733.7 84.5C733.7 84.4 733.7 84.4 733.7 84.3C733.7 83.5 733.6 82.7 733.5 81.9C733.5 81.7 733.4 81.4 733.4 81.2C733.4 81.1 733.4 81 733.3 81C733.3 80.8 733.2 80.5 733.2 80.3C733.1 79.8 733 79.4 732.8 78.9C732.7 78.6 732.6 78.2 732.5 77.9C732.5 77.8 732.4 77.6 732.4 77.5C732.3 77.2 732.2 76.8 732 76.5C731.9 76.2 731.8 75.9 731.6 75.6C731.6 75.6 731.6 75.6 731.6 75.5C731.4 75.1 731.3 74.8 731.1 74.4C731 74.1 730.8 73.8 730.7 73.5C730.5 73.2 730.4 72.8 730.2 72.5C730 72.2 729.8 71.8 729.6 71.5C729 70.5 728.4 69.5 727.7 68.6C726.7 67.2 725.7 65.6 724.6 64.3C722.6 62 720.3 60.1 717.9 58.1C717.8 58.1 717.8 58.3 717.7 58.3C717.3 58 716.9 57.9 716.4 57.6C713.5 55.9 710.8 55.1 708.4 55.1C707.1 55.1 705.9 55.4 705 56C702.4 57.5 701.8 60.8 701.8 63.2C701.8 64.4 701.9 65.6 702.1 66.8V66.9C702.2 67.3 702.1 67.7 702.2 68.1L702 68.2C702 68.9 702 69.6 703 70.3C703 70.5 703.3 70.6 703.4 70.8C703.6 72.3 704.7 73.9 705.5 75.4L705.6 75.5C706.4 76.9 707.2 78.4 708.1 79.7L707.2 80.2L703.2 82.5C703 82.2 702.7 81.8 702.5 81.5C702.5 81.4 702.4 81.4 702.4 81.3C701.8 80.3 701.2 79.3 700.6 78.3C700.9 78.9 701.3 79.6 701.7 80.2C701.7 80.2 701.7 80.3 701.8 80.3C702.2 81 702.7 81.7 703.2 82.4L707.2 80.1C706.3 78.7 705.2 77.4 704.1 76.2L700.6 78.2L700.5 78.3C699 75.6 697.7 72.9 696.9 70.1L696.5 70C695.8 67.6 694.9 65.3 694.9 63.1V63C694.9 57.5 697.6 53.2 701.5 51C705.4 48.8 710.8 48.9 716.2 51.4C716.3 51.5 716.5 51.5 716.7 51.6C717.4 51.9 718.3 52.3 719 52.7C720.2 53.4 721.4 54.6 722.5 55.5V56C725 57 727.3 59.6 729.4 62V61.8C729.6 62 729.7 62.1 729.9 62.3C730.1 62.5 730.2 62.6 730.4 62.8C732 64.8 733.5 67 734.7 69.2C734.9 69.6 735.1 69.9 735.3 70.3C735.5 70.7 735.7 71 735.9 71.4C736.1 71.8 736.2 72.1 736.4 72.5C736.5 72.6 736.5 72.7 736.6 72.9C736.8 73.4 737 73.9 737.2 74.4C737.3 74.7 737.4 75 737.5 75.3V75.4C737.6 75.6 737.7 75.9 737.8 76.1C737.9 76.3 738 76.6 738 76.8C738 76.9 738 76.9 738 76.9C738.1 77.1 738.1 77.4 738.2 77.6C738.2 77.7 738.2 77.7 738.2 77.8C738.4 78.6 738.6 79.5 738.8 80.3C738.9 80.8 738.8 81.3 738.9 81.8C738.9 82.1 738.9 82.4 738.9 82.7V82.8L739 82.9C739 83.1 739.1 83.3 739.1 83.5C739.3 84 739.4 84.4 739.4 84.8Z" fill="#848484"/>
<path d="M720 110.1L706.4 118L703.2 109.8C703.2 109.8 703.1 109.4 702.8 108.9L700.7 103.4L700.9 103.3L713.1 96.2L714.2 95.5L717.4 103.6L720 110.1Z" fill="#CECECE"/>
<path d="M718.9 96.6C718.9 99.2 718.4 101.6 717.5 103.6C716.5 105.8 714.9 107.6 712.9 108.7C711.1 109.7 709 110.3 706.7 110.3C705.6 110.3 704.4 110 703.2 109.8C703.2 109.8 703.1 109.4 702.8 108.9L702.5 108.2L702.4 107.9L702.3 107.5C701.6 105.7 700.9 103.5 700.9 103.3C704.5 104.9 707.7 105.2 710 103.9C712.6 102.4 713.2 99.2 713.2 96.7C713.2 96.5 713.2 96.4 713.2 96.2C713.2 95.9 713.2 95.6 713.1 95.3C713.1 95 713 94.8 713 94.5C713 94.3 712.9 94.1 712.9 93.9C712.8 93.5 712.8 93 712.7 92.6C712.6 92.2 712.5 91.8 712.4 91.3C712.3 90.9 712.2 90.5 712.1 90.2C712 90 712 89.8 711.9 89.5C711.8 89.2 711.7 88.8 711.5 88.5C711.3 87.9 711.1 87.4 710.8 86.8C710.6 86.4 710.4 86 710.2 85.6C710 85.2 709.8 84.8 709.6 84.4C709.2 83.6 708.7 82.8 708.2 82C707.9 81.5 707.6 81.1 707.3 80.6L707.2 80.5C706.3 79.1 705.2 77.8 704.1 76.6C702 74.2 699.6 72.1 697.1 70.5C697 70.5 697 70.4 696.9 70.4C696.5 70.2 696.2 70 695.8 69.7C692.9 68 690.2 67.2 687.8 67.2C686.5 67.2 685.3 67.5 684.4 68C681.8 69.5 680.9 72.7 680.9 75.2C680.9 76.4 680.9 77.6 680.9 78.8V78.9V79.3H681.6C681.6 79.3 681.9 79.4 681.9 79.5C682.1 79.7 682.9 80.5 682.9 81.2V83.6C683.9 85 684.2 86.4 684.9 87.8C684.9 87.8 684.8 87.9 684.9 87.9C685.7 89.3 686.6 90.6 687.5 91.9L686.7 92.4H686.6C685.7 91 684.7 89.7 683.6 88.5V87.8L680 89.3C678.5 87.3 676.9 85.2 676.9 82.5L676.8 82.4C676.4 80.9 676.1 79.4 676 78C676 77.9 676 77.7 676 77.6C675.9 76.9 675.9 76.2 675.9 75.5V75.2C675.9 69.6 677.8 65.3 681.7 63.1C685.4 60.9 690.3 61 695.6 63.3C695.7 63.4 695.9 63.4 696 63.5C696.9 63.9 697.7 64.3 698.6 64.8C699.7 65.5 700.9 66.2 701.9 67L702 67.1C704.5 69 706.9 71.2 708.9 73.7C708.9 73.7 709 73.8 709 73.9C709.1 74.1 709.2 74.3 709.3 74.3C710 75.3 710.7 76.1 711.3 76.9C711.5 77.2 711.7 77.5 711.9 77.8C712.2 78.3 712.5 78.7 712.8 79.2C713.1 79.6 713.4 80.1 713.6 80.6V80.7C713.7 80.9 713.9 81.2 714 81.4C714.1 81.7 714.3 81.9 714.4 82.1C714.5 82.2 714.5 82.4 714.6 82.5C715 83.2 715.3 84 715.7 84.7C715.8 84.9 715.8 85 715.9 85.2C716 85.4 716.1 85.6 716.2 85.9C716.3 86 716.3 86.2 716.4 86.3C716.4 86.4 716.5 86.5 716.5 86.6C716.6 86.7 716.6 86.9 716.7 87.1C716.8 87.5 717 87.8 717.1 88.2C717.4 89.2 717.7 90.2 717.9 91.2C718.7 92.8 718.9 94.7 718.9 96.6Z" fill="#848484"/>
<path d="M699.6 121.9L686 129.5L682.8 121V121.2C682.7 121 682.5 120.5 682.2 119.8L680.3 115.1L680.5 115L692.7 107.9L693.8 107.2L697 115.4L699.6 121.9Z" fill="#CECECE"/>
<path d="M698.4 108.4C698.4 111 698 113.4 697 115.4V115H697.1C696.1 117 694.5 119.2 692.5 120.3C690.7 121.4 688.6 121.7 686.3 121.7C685.2 121.7 684 121 682.9 121V121.2C682.8 121 682.6 120.5 682.3 119.8C682.3 119.7 682.2 119.6 682.2 119.5C682.2 119.4 682.1 119.3 682.1 119.2C681.4 117.4 680.6 115.2 680.7 115C684.3 116.6 687.5 116.9 689.8 115.6C692.4 114.1 693 110.9 693 108.4C693 108.3 693 108.2 693 108.1C693 108 693 108 693 107.9C693 107.5 693 107 692.9 106.6C692.9 106.2 692.8 105.8 692.7 105.4C692.7 105.3 692.7 105.3 692.7 105.2C692.6 104.8 692.5 104.3 692.4 103.9C692.3 103.5 692.2 103 692 102.5C691.9 102 691.7 101.6 691.6 101.1C691.4 100.6 691.3 100.2 691.1 99.7C690.9 99.3 690.8 98.9 690.6 98.5C690.4 98 690.1 97.5 689.9 97C689.8 96.7 689.6 96.4 689.4 96.1C689.3 95.8 689.1 95.5 689 95.3C688.7 94.8 688.5 94.4 688.2 93.9C688 93.6 687.8 93.3 687.6 93C687.4 92.7 687.2 92.4 687 92C686.1 90.6 685 89.3 684 88.1C681.9 85.8 679.6 83.7 677.2 82.1C677.1 82.1 677.1 82 677 82C676.6 81.7 676.2 81.5 675.7 81.2C672.8 79.5 670 78.7 667.7 78.7C666.4 78.7 665.2 79 664.3 79.5C661.7 81 661.5 84.2 661.5 86.7C661.5 87.9 662.2 89.1 662.2 90.4V92.9C663.2 93.6 663.2 94.3 663.2 95C663.2 95.1 663 95.2 663 95.3C663.5 96.6 664.1 97.9 664.8 99.2C664.8 99.2 664.7 99.2 664.8 99.3C665.6 100.7 666.4 102 667.4 103.3L666.5 103.8C665.6 102.5 664.6 101.1 663.5 99.9L659.9 101.9C658.4 99.9 657.1 96.5 656.3 93.7C656.3 93.6 656.3 93.6 656.3 93.6C655.6 91.3 655.2 89 655.2 86.7V86.5C655.2 81 657.5 76.7 661.3 74.5C665.2 72.3 670.4 72.4 675.8 74.9C675.9 75 676 75 676.2 75.1C676.9 75.4 677.7 75.8 678.4 76.2C679.6 76.9 680.7 77.8 681.9 78.7V78.9C684.4 79.9 686.8 82.9 688.9 85.3C689.6 86.2 690.3 87 691 87.9C691.3 88.3 691.6 88.7 691.9 89.1C691.9 89.1 691.9 89.1 692 89.2C692 89.2 692.1 89.2 692.1 89.3C692.1 89.3 692.1 89.4 692.2 89.4C692.3 89.5 692.3 89.6 692.4 89.7C692.4 89.8 692.5 89.8 692.5 89.9C692.5 90 692.6 90 692.6 90.1C692.6 90.1 692.7 90.2 692.7 90.3C692.8 90.4 692.9 90.6 693 90.7C693.1 90.9 693.2 91.1 693.4 91.3L693.5 91.4C694 92.2 694.5 93.1 694.9 93.9C695.1 94.2 695.2 94.6 695.4 94.9C695.6 95.3 695.7 95.6 695.9 96C696 96.1 696 96.3 696.1 96.4C696.3 96.8 696.5 97.2 696.6 97.7C696.6 97.8 696.7 97.9 696.7 98C696.7 98 696.7 98 696.7 98.1C696.7 98.2 696.8 98.2 696.8 98.3C696.8 98.3 696.8 98.4 696.9 98.4C697 98.6 697.1 98.9 697.2 99.1C697.2 99.2 697.3 99.3 697.3 99.4V99.5C697.3 99.5 697.3 99.5 697.3 99.6C697.3 99.6 697.3 99.6 697.3 99.7C697.4 100 697.5 100.2 697.5 100.5C697.5 100.6 697.5 100.6 697.6 100.7C697.7 100.9 697.7 101.1 697.8 101.4C697.9 101.8 698 102.2 698.1 102.6C698.2 103.1 698.3 103.6 698.4 104.1C698.5 104.5 698.5 104.9 698.6 105.3C698.7 105.8 698.7 106.2 698.7 106.7C698.7 106.9 698.7 107.1 698.7 107.2C698.4 107.6 698.4 108 698.4 108.4Z" fill="#848484"/>
<path d="M679.1 133.7L665.5 141.6L662.3 133.4V133.3C662.2 133.1 662 132.6 661.8 132L659.8 127L660 126.9L672.2 119.8L673.3 119.1L676.5 127.3L679.1 133.7Z" fill="#CECECE"/>
<path d="M678 120.2C678 122.9 677.5 125.2 676.6 127.2C675.6 129.4 674 131.1 672 132.3C670.2 133.4 668.1 133.9 665.8 133.9C664.7 133.9 663.5 133.6 662.3 133.4C662.3 133.4 662.3 133.4 662.3 133.3C662.2 133.1 662 132.6 661.8 132L661.7 131.7L661.4 131C660.8 129.2 660 127.1 660.1 126.9C663.7 128.5 667 128.8 669.2 127.5C671.8 126 672.4 122.8 672.4 120.3C672.4 120.1 672.4 120 672.4 119.8C672.3 114.9 669.9 109.1 666.4 104C665.5 102.7 664.5 101.4 663.4 100.2C661.3 97.8 658.9 95.7 656.3 94C656.2 93.9 656.2 93.9 656.1 93.9C655.7 93.7 655.4 93.5 655 93.2C652.1 91.5 649.3 90.7 647 90.7C645.7 90.7 644.5 91 643.6 91.5C641 93 640.2 96.2 640.2 98.7C640.2 99.8 640.1 100.9 640.2 102.1C640.2 102.2 640 102.3 640 102.4C640 102.8 640 103.2 640 103.5C640 103.6 640.5 103.8 640.5 103.9C640.7 104.6 641.6 105.2 641.6 105.9C641.6 106 642 106 642 106.1C643 107.8 643.3 109.6 644.3 111.3H644.2C645 112.7 645.8 114 646.7 115.3L645.8 115.8C644.9 114.5 643.9 113.2 642.8 112L639.2 114.1C637.7 111.4 636.7 108.6 635.9 105.9C635.9 105.8 635.8 105.8 635.8 105.8C635.1 103.5 634.9 101.2 634.9 99V98.7C634.9 93.1 636.9 88.8 640.8 86.6C644.5 84.4 649.5 84.5 654.8 86.8C654.9 86.8 655.1 86.9 655.2 87C656.1 87.4 656.9 87.8 657.8 88.3C659 89 660.1 89.8 661.2 90.6C663.8 92.5 666.1 94.8 668.2 97.3C668.3 97.4 668.4 97.5 668.5 97.7C668.7 97.9 668.8 98.1 669 98.3C669.4 98.8 669.9 99.4 670.3 100C670.6 100.4 670.9 100.9 671.2 101.3C671.2 101.3 671.2 101.3 671.2 101.4C671.5 101.9 671.8 102.3 672.1 102.8C672.4 103.3 672.7 103.7 672.9 104.2C673.2 104.7 673.4 105.1 673.7 105.6C674.2 106.6 674.7 107.6 675.2 108.6C675.4 109.1 675.6 109.6 675.8 110.1C676.2 111.1 676.5 112.1 676.8 113.1C676.9 113.4 677 113.7 677 114C677 114.2 677.1 114.3 677.1 114.5C677.1 114.6 677.1 114.6 677.1 114.7C677.2 115 677.2 115.2 677.3 115.5C677.4 115.7 677.4 115.9 677.4 116.1C677.5 116.5 677.5 116.9 677.6 117.3C677.6 117.5 677.7 117.7 677.7 117.9C677.7 118.2 677.8 118.5 677.8 118.8C677.8 119 677.8 119.2 677.8 119.3C678 119.4 678 119.8 678 120.2Z" fill="#848484"/>
<path d="M658.7 145.5L645.1 153.4L641.9 145.2C641.9 145.2 641.9 145.2 641.9 145.1L641.7 144.6L641.6 144.2L639.5 138.7L639.7 138.6L651.9 131.5L653 130.9L656.2 139.1L658.7 145.5Z" fill="#CECECE"/>
<path d="M621.4 130L622.9 129.2L621.3 130.1C620.9 130.1 620.4 128.7 620 128.1C619.9 127.9 619.8 127.7 619.7 127.6C619.8 127.7 619.8 127.8 619.9 127.9C620 128 620 128 620.1 128.1C620.2 128.3 620.3 128.6 620.4 128.8C620.7 129 621.1 130 621.4 130Z" fill="#848484"/>
<path d="M657.6 132C657.6 134.6 657.1 137 656.2 139C655.2 141.2 653.6 143 651.6 144.1C649.8 145.1 647.7 145.7 645.4 145.7C644.3 145.7 643.1 145.4 642 145.2C642 145.2 642 145.2 642 145.1L641.8 144.6L641.7 144.2L641.5 143.8L641.4 143.7C641.3 143.5 641.3 143.3 641.2 143.1C641.1 142.9 641 142.6 640.9 142.3C640.3 140.6 639.6 138.8 639.7 138.5C643.3 140.1 646.6 140.4 648.8 139.1C651.4 137.6 652 134.4 652 131.9C652 131.8 652 131.7 652 131.6C652 131.5 652 131.4 652 131.4C652 130.9 651.9 130.4 651.9 129.9C651.9 129.7 651.9 129.5 651.8 129.3C651.6 128.1 651.4 126.8 651 125.6C650.9 125.2 650.7 124.7 650.6 124.3C650.4 123.9 650.3 123.4 650.1 122.9C649.9 122.3 649.6 121.8 649.4 121.2C649.2 120.8 649 120.4 648.8 120C648.8 119.9 648.7 119.9 648.7 119.8C648.5 119.5 648.3 119.1 648.1 118.8C647.8 118.3 647.5 117.7 647.1 117.2C646.8 116.7 646.4 116.1 646.1 115.6C645.2 114.3 644.2 113 643.1 111.8C641 109.4 638.7 107.3 636.2 105.7C636.1 105.6 636.1 105.6 636 105.6C635.6 105.3 635.2 105.1 634.7 104.8C631.8 103.1 629.1 102.3 626.7 102.3C625.4 102.3 624.2 102.6 623.3 103.1C620.7 104.6 620.1 107.8 620.1 110.3C620.1 111.4 620 112.6 620.3 113.8C620.3 113.9 620 113.9 620 114C620.1 114.7 620.1 115.4 620.1 116.1C620.1 116.2 620.1 116.3 620.1 116.4C620.1 117.1 620.9 117.8 621.3 118.5C621.4 118.6 621.6 118.7 621.6 118.9C622.1 120.3 623 121.6 623.7 123C623.7 123 623.8 123 623.8 123.1C623.8 123.1 623.8 123.1 623.8 123.2C624.5 124.5 625.4 125.8 626.3 127.1L625.8 127.5L625.6 127.7H625.5C625.5 127.7 625.5 127.6 625.4 127.6C624.6 126.5 623.8 125.6 622.9 124.6C622.8 124.5 622.6 124.1 622.5 124.1L618.9 126.1C617.4 123.4 616 120.3 615.2 117.5V117.2C614.6 115.2 614 112.8 614 110.6V110.4C614 104.9 616.3 100.6 620.2 98.4C624.1 96.2 629.3 96.3 634.7 98.8C634.8 98.9 635 98.9 635.1 99C635.8 99.3 636.6 99.7 637.3 100.1C638.5 100.8 639.7 101.6 640.8 102.4C643.4 104.3 645.8 106.6 647.9 109.1C650.8 112.6 653.2 116.4 654.9 120.4C656.6 124.4 657.6 128.3 657.6 132Z" fill="#848484"/>
<path d="M638.2 157.3L624.6 165.2L621.4 157C621.4 157 621.3 156.6 621 156.1L618.9 150.6L619.1 150.5L631.3 143.4L632.4 142.7L635.6 150.9L638.2 157.3Z" fill="#CECECE"/>
<path d="M598.7 138C599.4 139.3 600 140.4 600.9 141.6C600.1 140.5 599.3 139.3 598.7 138Z" fill="#848484"/>
<path d="M637.1 143.8C637.1 146.4 636.6 148.8 635.7 150.8C634.7 153 633.1 154.8 631.1 155.9C629.3 157 627.2 157.5 624.9 157.5C623.8 157.5 622.6 157.2 621.4 157C621.4 157 621.3 156.6 621 156.1L620.7 155.4L620.6 155.1L620.5 154.7C619.8 152.9 619.1 150.7 619.1 150.5C622.7 152.1 625.9 152.4 628.2 151.1C630.8 149.6 631.1 146.4 631.1 143.9C631.1 143.7 630.9 143.6 630.9 143.4V143.3C630.9 139.1 629.1 134.4 626.9 130C626.9 129.9 626.8 129.9 626.7 129.8C626 129.3 626 128.8 625.8 128.3C625.7 128.1 625.7 127.9 625.5 127.8C625.5 127.7 625.7 127.7 625.7 127.7H626C625 126.4 623.8 125.2 622.8 124C620.6 121.5 618.1 119.2 615.5 117.5C615.4 117.5 615.2 117.2 615.2 117.2C614.8 117.2 614.5 116.9 614.1 116.7C611.2 115 608.5 114.2 606.1 114.2C604.8 114.2 603.6 114.5 602.7 115.1C600.1 116.6 599.5 119.9 599.5 122.3C599.5 123.3 599.6 124.4 599.8 125.5C599.8 125.7 599.9 125.8 599.9 126C599.9 126.1 600 126.3 600 126.4C600.2 127.2 600.6 127.9 600.9 128.7C600.9 128.8 601 128.9 601 129C601 129.7 601 130.5 602 131.2C602 131.4 602.1 131.6 602.1 131.9C602.3 132.9 603 133.9 603.5 134.9L603.6 135C604.3 136.3 605 137.7 605.9 138.9L604.9 139.4C604 138.1 603 136.9 602 135.7L598.9 137.8C597.4 135 595.9 132.2 595.9 129.3C593.9 127.9 594.6 126.4 594.5 125C594.5 124.9 594.4 124.7 594.4 124.6C594.4 124.5 594.1 124.5 594.1 124.4C594 123.7 593.9 123.1 593.9 122.4V122.1C593.9 116.5 596 112.2 599.8 110C603.6 107.8 608.5 107.9 613.8 110.2C613.9 110.3 614.1 110.3 614.2 110.4C615.1 110.8 615.9 111.2 616.8 111.7C617.9 112.3 619 113 620 113.8C620.1 113.9 620.2 113.9 620.3 114C622.9 115.9 625.3 118.2 627.4 120.8C627.5 120.9 627.6 121.1 627.7 121.2C628 121.5 628.2 121.8 628.4 122.1C628.8 122.5 629.1 123 629.4 123.4C629.7 123.9 630 124.3 630.4 124.8C630.7 125.3 631 125.7 631.3 126.2C631.6 126.7 631.9 127.1 632.1 127.6C632.4 128.1 632.7 128.6 632.9 129.1C633.1 129.6 633.4 130 633.6 130.5L633.7 130.6C633.9 131 634.1 131.4 634.3 131.9C634.7 132.9 635.1 134 635.5 135C635.7 135.5 635.8 136.1 636 136.6C636.2 137.2 636.3 137.9 636.4 138.5C636.5 138.9 636.6 139.3 636.6 139.7C636.6 139.8 636.6 139.8 636.6 139.9C636.7 140.4 636.7 140.8 636.8 141.3V141.4C636.8 141.6 636.8 141.8 636.8 141.9C636.8 142.1 636.8 142.3 636.8 142.5V142.6C637.1 143.1 637.1 143.5 637.1 143.8Z" fill="#848484"/>
<path d="M617.8 169.1L604.2 177L601 168.8V168.7C600.9 168.5 600.7 168 600.5 167.4L598.5 162.4L598.7 162.3L610.9 155.2L612 154.5L615.2 162.7L617.8 169.1Z" fill="#CECECE"/>
<path d="M616.7 155.6C616.7 158.3 616.2 160.6 615.3 162.6C614.3 164.8 612.7 166.6 610.7 167.7C608.9 168.8 606.8 169.3 604.5 169.3C603.4 169.3 602.2 169 601 168.8C601 168.8 601 168.8 601 168.7V168.6C600.9 168.4 600.7 167.9 600.5 167.4C600.5 167.3 600.4 167.2 600.4 167.1C600.3 166.9 600.2 166.6 600.1 166.4C599.5 164.6 598.7 162.5 598.8 162.3V162.2L598.9 162.1C602.5 163.1 605.7 164.1 607.9 162.8C610.5 161.3 611.1 158.1 611.1 155.7C611.1 155.6 611.1 155.6 611.1 155.5C611.1 155.4 611.1 155.3 611.1 155.2C611.1 154.9 611.1 154.5 611 154.2C611 153.7 610.9 153.2 610.8 152.7C610.7 152.3 610.6 151.9 610.5 151.4C610.4 151.1 610.4 150.9 610.3 150.6C610.3 150.5 610.3 150.4 610.2 150.3C609.9 149.3 609.6 148.3 609.2 147.3C608.2 144.6 606.7 141.9 605 139.4C605 139.4 605 139.3 604.9 139.3C604 138 603.1 136.8 602 135.6C599.9 133.1 597.4 130.9 594.8 129.3C594.4 129 593.9 128.7 593.5 128.5C590.6 126.8 587.8 126 585.5 126C584.2 126 583 126.3 582.1 126.8C579.5 128.3 579.2 131.5 579.2 134C579.2 135.2 579.8 136.4 579.8 137.7C579.8 137.8 579.7 137.8 579.7 137.8C579.8 138.3 580 138.9 580.1 139.4C580.1 139.5 580.1 139.6 580.1 139.7C580.1 140.3 579.8 141 580.8 141.6C580.8 141.7 580.8 141.9 580.8 142C581 143.5 582 145.1 582.9 146.6C582.9 146.6 582.9 146.7 583 146.7C583.7 148 584.4 149.3 585.3 150.6L584.4 151.1C583.5 149.8 582.6 148.6 581.5 147.5H581.4L577.8 149.6C576.2 146.8 574.7 143.9 573.9 141.1L573.7 141C572.7 138.6 572.7 136.3 572.7 134.1V133.9C572.7 128.4 575.1 124.1 578.9 121.9C582.8 119.7 588 119.8 593.4 122.3C593.5 122.4 593.7 122.4 593.8 122.5C594.5 122.8 595.3 122.8 596 123.2C597.2 123.9 598.3 125.1 599.4 125.1H599V126C600 126.1 599.6 126.3 599.8 126.4C602.3 128.2 604.8 130.4 606.8 132.8C606.8 132.8 606.9 132.9 607 132.9C607.1 133 607.3 133.2 607.4 133.3H607.5C607.9 133.8 608.3 134.2 608.6 134.7C609.5 135.8 610.3 137 611.1 138.2C611.7 139.1 612.2 140 612.7 141C612.7 141.1 612.8 141.1 612.8 141.2C613.2 141.9 613.5 142.6 613.8 143.3C613.8 143.3 613.8 143.3 613.8 143.4C613.8 143.5 613.9 143.5 613.9 143.6L614 143.7C614 143.8 614.1 143.9 614.1 144C614.3 144.5 614.5 145 614.7 145.5C614.9 146 615.1 146.5 615.2 147.1C615.4 147.7 615.5 148.2 615.7 148.8C615.8 149.2 615.9 149.5 616 149.9C616.1 150.1 616.4 150.4 616.4 150.6C616.5 151.3 617 151.9 617 152.6V152.7C617 153 617 153.4 617 153.7V153.8C617 154.1 616.8 154.5 616.9 154.8C616.9 154.9 616.7 155.3 616.7 155.6Z" fill="#848484"/>
<path d="M597.3 180.9L583.7 188.5L580.5 180V180.2C580.4 180 580.2 179.5 579.9 178.8L578 174.1L578.2 174L590.4 166.9L591.5 166.2L594.7 174.4L597.3 180.9Z" fill="#CECECE"/>
<path d="M596.2 167.4C596.2 170 595.7 172.4 594.8 174.4C594.7 174.6 594.6 174.8 594.5 175C593.5 176.9 592.1 178.4 590.2 179.5C588.4 180.6 586.3 180.8 584 180.8C582.9 180.8 581.7 180 580.6 180C580.6 180 580.6 180.3 580.6 180.2C580.6 180.2 580.6 180.3 580.5 180.3C580.5 180.3 580.5 180.3 580.5 180.2C580.5 180.1 580.4 179.9 580.3 179.7V179.6C580.3 179.5 580.2 179.4 580.2 179.3C580.1 179.2 580.1 179 580 178.9C580 178.8 579.9 178.7 579.9 178.6C579.9 178.5 579.8 178.4 579.8 178.3C579.1 176.5 578.3 174.8 578.4 174.5V175C578.4 175 578.5 174.5 578.5 174.6C582.1 176.2 585.3 176.2 587.5 174.9C590.1 173.4 590.4 170 590.4 167.6C590.4 167.4 590.1 167.2 590.1 167C590.1 162.1 587.9 156.3 584.4 151.2C583.5 149.9 582.7 148.7 581.7 147.6C579.5 145.1 577.1 142.9 574.5 141.2C574.4 141.2 574.4 141.1 574.4 141.1C574 140.9 573.7 140.6 573.3 140.4C570.4 138.7 567.7 137.9 565.4 137.9C564.1 137.9 563 138.2 562 138.7C559.4 140.2 558.9 143.4 558.9 145.9C558.9 147 559 148.1 559.2 149.2C559.2 149.3 559.2 149.5 559.3 149.6C559.3 149.7 559.5 149.9 559.5 150C559.6 150.7 560.2 151.5 560.2 152.2C560.2 153 560.6 153.9 561 154.7C561.5 156 562.1 157.4 562.9 158.7C563.6 160 564.4 161.3 565.3 162.5L564.4 163C563.5 161.8 562.6 160.6 561.6 159.4L557.9 161.5C556.3 158.7 555.2 155.8 554.4 153L554.2 152.9C553.8 151.5 553.3 150.1 553.3 148.8V148.6C553.3 148.5 553.5 148.4 553.5 148.3C553.5 148.2 553.4 148.1 553.4 148C553.3 147.3 553.3 146.7 553.3 146V145.7C553.3 140.1 555.4 135.8 559.3 133.6C563.1 131.4 568.1 131.5 573.3 133.8C573.4 133.9 573.6 133.9 573.7 134C574.6 134.4 575.4 134.8 576.3 135.3C577.5 136 578.6 136.8 579.8 137.6C582.4 139.6 584.9 141.9 587 144.5C587.2 144.7 587.3 144.9 587.5 145.1C587.6 145.3 587.8 145.5 587.9 145.6C588.3 146.1 588.7 146.6 589.1 147.1C589.8 148 590.4 148.9 591 149.9C591.3 150.4 591.6 150.8 591.8 151.3C592 151.7 592.3 152.1 592.5 152.6C592.5 152.7 592.6 152.7 592.6 152.8C593 153.6 593.4 154.5 593.8 155.4C593.9 155.5 593.9 155.7 594 155.8C594.2 156.3 594.4 156.8 594.6 157.3C594.8 157.8 595 158.3 595.1 158.8C595.5 159.9 595.7 160.9 596 162C596.1 162.4 596.2 162.8 596.2 163.1C596.2 163.2 596.2 163.2 596.2 163.3C596.3 163.7 596.3 164 596.4 164.4C596.5 164.7 596.5 165.1 596.5 165.4C596.5 165.7 596.6 166 596.6 166.3C596.2 166.6 596.2 167 596.2 167.4Z" fill="#848484"/>
<path d="M576.9 192.7L563.3 200.6L560.1 192.4C560.1 192.4 560.1 192.4 560.1 192.3L559.9 191.8L559.8 191.4L557.7 185.9L557.9 185.8L570.1 178.7L571.2 178L574.4 186.2L576.9 192.7Z" fill="#CECECE"/>
<path d="M575.8 179.3C575.8 179.7 575.8 180.1 575.8 180.6C575.8 180.7 575.8 180.7 575.8 180.8C575.8 180.9 575.8 180.9 575.8 181C575.8 181.4 575.7 181.8 575.7 182.2C575.6 182.6 575.6 183 575.5 183.3C575.5 183.4 575.5 183.4 575.5 183.5C575.5 183.6 575.5 183.6 575.5 183.6C575.4 184 575.3 184.4 575.2 184.7C575 185.2 574.8 185.8 574.6 186.3C573.6 188.5 572 190.2 570 191.4C568.2 192.4 566.1 193 563.8 193C562.7 193 561.5 192.7 560.4 192.5C560.4 192.5 560.4 192.5 560.4 192.4L560.2 191.9L560.1 191.5L559.9 191.1L559.8 191L559.7 190.7C559.7 190.6 559.6 190.5 559.6 190.4C559 188.8 558.2 187.1 558.1 186.1C558.1 186.1 558 186.1 557.9 186.1H557.2V186H557.6H557.8H557.9C558 186 558 186 558.1 186C561.7 187.5 564.8 187.8 567 186.5C569.6 185 570.6 181.8 570.6 179.3C570.6 179.2 571.1 179.1 571.1 179C571.1 178.9 570.6 178.8 570.6 178.7C570.6 178.3 570.3 178 570.3 177.6C570.3 177.3 570.1 177.1 570.1 176.8C569.9 175.5 569.6 174.2 569.2 172.9C569.1 172.5 568.9 172.2 568.8 171.8C568.7 171.4 568.5 170.9 568.3 170.5C568.2 170.3 568.1 170 568 169.8C568 169.7 567.9 169.6 567.9 169.5C567.8 169.1 567.6 168.8 567.4 168.4C567.2 168 567 167.5 566.7 167C566.7 167 566.7 166.9 566.6 166.9C566.6 166.8 566.5 166.8 566.5 166.8C566.3 166.5 566.1 166.1 565.9 165.8C565.5 165.1 565.1 164.5 564.7 163.8C564.5 163.5 564.3 163.2 564.1 162.8C563.2 161.6 562.3 160.4 561.3 159.2C559.2 156.7 556.7 154.5 554.1 152.8L554 152.7C553.6 152.4 553.2 152.2 552.7 151.9C549.8 150.2 547.1 149.4 544.7 149.4C543.4 149.4 542.2 149.7 541.3 150.2C538.7 151.7 537.8 154.9 537.8 157.4C537.8 158.6 537.9 159.8 537.9 161.1V161.3C537.9 162.2 538.7 163.1 539 164C539 164.1 539.2 164.1 539.2 164.1C539.5 164.9 539.8 165.7 540.2 166.6L540.7 166.7C541.2 167.9 541.9 169.1 542.9 170.3C542.9 171.6 544 172.8 544.8 174L543.7 174.5C542.9 173.3 541.8 172.1 540.9 171L537.2 173.1C535.6 170.3 534.1 167.4 533.3 164.4C533.3 164.3 533.6 164.3 533.6 164.2C533.2 162.9 533 161.6 533 160.3C533 160.1 532.7 160 532.7 159.8C532.7 159.7 533 159.7 533 159.7C532.9 158.9 533 158.1 533 157.4V157.2C533 151.7 534.9 147.4 538.8 145.2C542.7 143 547.7 143.1 553.1 145.6C553.2 145.7 553.3 145.7 553.4 145.8C554.1 146.1 554.8 146.3 555.5 146.7C556.7 147.4 557.8 148.8 558.9 148.8V149.3C558.9 149.4 559.1 149.6 559.2 149.7C561.7 151.6 564 153.8 566.1 156.2V156.3C566.4 156.7 566.8 157.1 567.2 157.5C567.5 157.9 567.9 158.4 568.2 158.8C568.5 159.2 568.9 159.7 569.2 160.2C569.8 161.1 570.4 162.1 570.9 163C571.3 163.7 571.7 164.4 572 165.1C572.1 165.4 572.3 165.6 572.4 165.9C572.5 166.2 572.7 166.4 572.8 166.7C572.9 167 573.1 167.3 573.2 167.5C573.3 167.8 573.5 168.2 573.6 168.5C573.7 168.7 573.7 168.8 573.8 169C573.8 169.1 573.9 169.1 573.9 169.2C574 169.5 574.2 169.9 574.2 170.2V170.3C574.3 170.7 574.5 171.2 574.6 171.7C574.7 172.2 574.9 172.7 575 173.2C575.1 173.6 575.2 174.1 575.3 174.5C575.3 174.6 575.3 174.6 575.3 174.7C575.4 175.1 575.4 175.6 575.5 176V176.1C575.7 177.4 575.8 178.3 575.8 179.3Z" fill="#848484"/>
<path d="M556.4 204.5L542.8 212.4L539.6 204.2C539.6 204.2 539.6 204.2 539.6 204.1L539.4 203.6L537.1 197.7L537.3 197.6L549.5 190.5L550.6 189.8L553.8 198L556.4 204.5Z" fill="#CECECE"/>
<path d="M523.1 186.5L519.1 188.9C519.1 188.9 519.1 188.9 519.1 188.8L523.1 186.5Z" fill="#848484"/>
<path d="M537.5 197.7C537.4 197.6 537.5 197.6 537.5 197.7V197.7Z" fill="#848484"/>
<path d="M555.3 191.1C555.3 193.8 554.8 196.1 553.9 198.1C552.9 200.3 551.3 202.1 549.3 203.2C547.5 204.3 545.4 204.8 543.1 204.8C542 204.8 540.8 204.5 539.6 204.3C539.6 204.3 539.6 204.3 539.6 204.2L539.4 203.7L538.6 203.1L537.9 202.7C537.9 202.5 538.3 202.3 538.3 202.1C538.3 202.1 538.5 202.1 538.5 202C538.2 200.5 537.1 198.6 536.9 198C536.9 198 536.9 198 536.9 197.9C536.9 197.9 537.3 198.1 537.4 198.1L536.9 197.9C540.9 199.5 543.9 199.7 546.1 198.5C548.7 197 549.4 193.8 549.4 191.3C549.4 191.1 549.5 191 549.5 190.8C549.4 185.9 547.1 180.1 543.5 175C542.7 173.8 541.8 172.6 540.8 171.5C538.6 169 536.1 166.7 533.5 165C533.1 164.7 532.7 164.4 532.2 164.2C529.3 162.5 526.6 161.7 524.3 161.7C523 161.7 521.8 162 520.9 162.5C518.3 164 517.7 167.2 517.7 169.7C517.7 170.8 517.8 172 518 173.2C518 173.3 518 173.3 518 173.4C518 173.5 518.3 173.7 518.3 173.8C518.3 173.9 518.3 174 518.4 174C518.6 174.4 518.9 174.9 518.9 175.3C518.9 175.4 518.9 175.6 519 175.7C519.1 176.3 519.3 176.9 519.5 177.5C519.5 177.6 519.6 177.7 519.6 177.9C520.2 179.5 520.8 181 521.7 182.6V182.7C522.4 184 523.1 184.9 524 186.1L523.1 186.4C522.3 185.4 521.9 184.6 519.9 183.5V184.4H520.4L516.7 186.1C515.1 183.4 514.1 180.3 513.3 177.5V177.3C513.3 177.2 513.5 177.1 513.5 177.1C512.9 174.8 512.9 172.4 512.9 170.2V169.9C512.9 164.3 514.6 160 518.4 157.8C522.2 155.6 527 155.7 532.2 158C532.3 158.1 532.4 158.1 532.5 158.2C533.4 158.6 534.2 159 535 159.5C536.2 160.2 537.3 160.9 538.4 161.8C541 163.8 543.5 166.2 545.6 168.8C545.6 168.8 545.6 168.9 545.7 168.9C545.8 169 545.9 169.5 546 169.5C547.2 170.5 548.3 172.2 549.2 173.8C550.2 175.4 551.1 177 551.8 178.6C552.3 179.6 552.7 180.6 553.1 181.6C553.2 181.8 553.3 182 553.3 182.2C553.4 182.3 553.4 182.4 553.4 182.5C553.4 182.6 553.5 182.7 553.5 182.8C553.8 183.8 554.1 184.8 554.3 185.7C555.1 187.3 555.3 189.2 555.3 191.1Z" fill="#848484"/>
<path d="M536 216.3L522.4 224.2L519.2 216V215.9C519.1 215.7 518.9 215.1 518.6 214.3L516.7 209.5L516.9 209.4L529.1 202.3L530.2 201.6L533.4 209.7L536 216.3Z" fill="#CECECE"/>
<path d="M502.9 198.3C502.9 198.3 503 198.3 502.9 198.3L502.8 198.4L502.9 198.3Z" fill="#848484"/>
<path d="M534.9 202.9C534.9 204.2 534.8 205.4 534.5 206.6C534.4 207.2 534.2 207.8 534.1 208.3C533.9 208.8 533.7 209.4 533.5 209.8C532.5 212 530.9 213.8 528.9 214.9C527.1 216 525 216.5 522.7 216.5C521.6 216.5 520.4 216 519.3 216C519.3 216 519.3 216 519.3 215.9C519.3 215.8 519.2 215.9 519.2 215.7C519.2 215.6 519.2 215.6 519.1 215.6C519.1 215.5 519 215.4 519 215.3C519 215.2 519 215.2 518.9 215.2C518.9 215.1 518.8 215 518.8 215C518.7 214.8 518.7 214.6 518.6 214.4C518.6 214.3 518.5 214.3 518.5 214.2C518.5 214.1 518.4 214 518.4 214L517.9 213.8C517.2 212 516.1 209.8 516.1 209.5C516.1 209.5 516.4 209.5 516.5 209.6C516.5 209.6 516.6 209.6 516.7 209.6L516.8 209.2C516.9 209.3 517.1 208.9 517.1 208.9C520.7 210.9 523.9 211 526.2 209.7C528.8 208.2 529.3 205.1 529.3 202.6C529.3 202.4 529.2 202.4 529.2 202.2C529.2 201.6 529.2 201 529.1 200.4C529.1 200.1 529.1 199.8 529 199.4C528.8 198.1 528.4 196.8 528 195.4C527.6 194.4 527.2 193.4 526.7 192.4C525.8 190.4 524.2 188.4 523.2 186.5V186H523.4C522.6 185 522.2 184.2 520.2 183.1V184H520.7C518.6 180 516.2 178.8 513.6 177.2C513.5 177.1 513.4 176.8 513.3 176.8C512.9 176.5 512.4 176.1 512 175.9C509.1 174.2 506.4 173.3 504.1 173.3C502.8 173.3 501.6 173.5 500.7 174.1C498.1 175.6 497.7 178.8 497.7 181.3C497.7 182.5 498.3 183.7 498.3 185V187C498.3 187.8 499.3 188.5 499.3 189.3C499.3 189.4 499.4 189.5 499.4 189.6C499.5 191.2 500.8 192.7 501.7 194.3C501.7 194.3 501.7 194.3 501.8 194.4C502.5 195.6 503.2 196.8 504 198L503.2 198.4C502.9 198 502.4 197.6 502 197.2C501.8 197 501.3 196.8 501.3 196.6C500.3 196.5 501.3 196.5 501.3 196.4C501.1 196.2 500.8 196 500.7 195.8C500.6 195.6 500.3 195.4 500.3 195.2V195.3H500.4L496.8 197.4L496.7 197.5C496.7 197.4 496.6 197.4 496.6 197.4C495 194.6 493.7 191.6 492.9 188.7C492.9 188.7 492.9 188.7 492.9 188.6C492.9 188.5 492.7 188.6 492.7 188.5C492 186.1 491.4 183.8 491.4 181.5V181.3C491.4 175.8 493.8 171.5 497.7 169.3C501.6 167.1 506.9 167.2 512.3 169.7C512.4 169.8 512.6 169.8 512.8 169.9C513.5 170.2 514.3 170.1 515 170.5C516.2 171.2 517.4 172.3 518.5 172.3H518V173.4C518 173.5 518.2 173.6 518.3 173.8C520.8 175.7 523.3 178 525.3 180.5V180.6C525.4 180.7 525.6 180.8 525.7 180.9C525.7 181 525.8 181 525.8 181.1C526.1 181.5 526.6 181.9 526.9 182.4C526.9 182.5 526.9 182.6 526.9 182.7H527C527.3 183.1 527.7 183.6 528 184C528 184.1 528.1 184.1 528.1 184.2C528.3 184.6 528.6 184.9 528.8 185.3C529 185.6 529.2 186 529.4 186.3C529.5 186.4 529.5 186.5 529.5 186.5C529.7 186.8 529.9 187.1 530 187.4C530.6 188.5 531.2 189.6 531.7 190.8C531.9 191.2 532 191.5 532.2 191.9C532.4 192.3 532.5 192.7 532.7 193.1C532.8 193.4 532.9 193.7 533 194C533.1 194.2 533.1 194.4 533.2 194.6C533.3 195 533.4 195.3 533.5 195.7C533.6 196 533.6 196.2 533.7 196.5C533.7 196.5 533.7 196.5 533.7 196.6C533.8 196.8 533.8 197 533.8 197.1C533.9 197.4 533.9 197.6 534 197.8V197.9C534.2 198.7 534.3 199.5 534.4 200.3C534.4 200.4 534.4 200.5 534.4 200.5C534.4 200.8 534.5 201.1 534.5 201.4C534.5 201.6 534.5 201.8 534.5 202.1C534.9 202.1 534.9 202.5 534.9 202.9Z" fill="#848484"/>
<path d="M515.5 228.1L501.9 236.6L498.7 229V228.3C498.6 228.1 498.4 227.2 498.1 226.4L496.2 221.5L496.4 221.3V221.2L508.6 214.1L509.7 213.4L512.9 221.6L515.5 228.1Z" fill="#CECECE"/>
<path d="M496.6 221.3C496.6 221.4 496.6 221.5 496.7 221.7C496.6 221.7 496.6 221.7 496.5 221.6H496.6V221.3V221.3Z" fill="#848484"/>
<path d="M514.4 214.7C514.4 216 514.3 217.2 514 218.4C513.8 219.6 513.4 220.7 513 221.7C512 223.9 510.4 225.6 508.4 226.8C506.6 227.8 504.5 229 502.2 229C501.1 229 499.9 229 498.8 229C498.8 229 498.8 228.4 498.8 228.3C498.8 228.2 498.7 228 498.7 227.9C498.7 227.8 498.6 227.6 498.6 227.5V227.4C498.5 227.2 498.4 226.9 498.3 226.6C498.3 226.5 498.2 226.4 498.2 226.3C498.2 226.2 498.1 226.1 498.1 226C498 225.6 497.8 225.3 497.7 224.9L497.6 224.4C497.2 223.3 496.9 222.3 496.8 221.8C500.3 223.1 503.5 223.4 505.7 222.2C508.3 220.7 508.5 217.4 508.5 214.9C508.5 214.7 508.1 214.5 508.1 214.3V214.2C508.1 213.6 508.4 213 508.3 212.4C507.7 207.9 505.7 202.9 502.6 198.4C502.6 198.4 502.7 198.4 502.6 198.4C501.8 197.2 500 196.1 500 195V195.1H500.1C497.9 193.1 495.4 190.2 492.7 188.4C492.6 188.4 492.6 188.3 492.5 188.3C492.1 188 491.8 187.8 491.4 187.6C488.5 185.9 485.7 185 483.4 185C482.1 185 480.9 185.3 480 185.8C477.4 187.3 476.7 190.5 476.7 193C476.7 194 476.9 195.1 476.9 196.2C476.9 196.3 477 196.5 477 196.6L477.1 196.7C477.1 196.8 477.4 197 477.4 197.1L477.3 197.2C477.4 197.8 477.9 198.4 477.9 199C477.9 199.1 477.9 199.2 477.9 199.3C477.9 200 478.4 200.7 478.6 201.4C478.6 201.5 478.7 201.6 478.8 201.7C479.4 203.2 480 204.6 480.8 206C481.5 207.2 482.2 208.4 483 209.6L482.2 210.2C481.4 209.1 480.5 208 479.6 207L479.9 206.7H479.7L475.9 208.9C474.3 206.1 473.2 203.1 472.4 200.2C472.4 200.1 472.4 200.1 472.3 200.1C471.9 198.7 471.7 197.2 471.6 195.8C471.6 195.6 471.3 195.4 471.3 195.1C471.2 194.5 470.9 193.8 470.9 193.2V193C470.9 187.4 473.1 183.1 477 180.9C480.8 178.7 485.8 178.8 491.1 181.1C491.2 181.2 491.4 181.2 491.5 181.3C492.4 181.7 493.2 182.1 494.1 182.6C495.3 183.3 496.4 184.1 497.5 184.9C500.1 186.9 502.6 189.2 504.7 191.8C504.8 191.9 504.8 191.9 504.9 192C505.3 192.4 505.6 192.9 505.9 193.3C506.2 193.6 506.4 194 506.7 194.3C507.3 195.1 507.8 195.9 508.3 196.7C508.6 197.1 508.9 197.6 509.1 198.1C509.2 198.3 509.4 198.6 509.5 198.8C509.8 199.3 510 199.8 510.3 200.2C510.4 200.3 510.4 200.4 510.5 200.6C510.7 201 510.9 201.3 511 201.7C511.1 201.9 511.2 202.1 511.3 202.4C511.4 202.5 511.4 202.7 511.5 202.8C511.6 203 511.7 203.2 511.7 203.3V203.4C511.8 203.6 511.8 203.7 511.9 203.9C512 204.3 512.2 204.6 512.3 205C512.4 205.3 512.5 205.5 512.6 205.7C512.7 205.8 512.7 205.9 512.7 206.1C512.8 206.3 512.8 206.5 512.9 206.8C513 207.1 513.1 207.3 513.1 207.6C513.2 208.1 513.4 208.6 513.5 209.1C513.5 209.3 513.6 209.4 513.6 209.6C513.8 210.4 513.9 211.2 514 212C514.4 212.8 514.4 213.8 514.4 214.7Z" fill="#848484"/>
<path d="M495.1 239.9L481.5 247.8L478.3 239.6C478.3 239.6 478.3 239.6 478.3 239.5L478.1 239L475.8 233.1L476 233L488.2 225.9L489.3 225.2L492.5 233.4L495.1 239.9Z" fill="#CECECE"/>
<path d="M494 226.5C494 229.2 493.5 231.5 492.6 233.5C491.6 235.7 490 237.4 488 238.6C486.2 239.7 484.1 240.2 481.8 240.2C480.7 240.2 479.5 239.9 478.4 239.7C478.4 239.7 478.4 239.7 478.4 239.6L478.2 239.1L477.9 238.4C477.8 238.1 477.7 237.9 477.6 237.6C477.5 237.3 477.3 236.9 477.2 236.6L477.1 236.2L477 235.8C476.4 234.5 476.1 233.2 476.2 233C479.8 234.6 483 234.9 485.2 233.6C487.8 232.1 488.7 228.9 488.7 226.4C488.7 226.2 489.1 226.1 489.1 225.9C489.1 225.8 489 225.7 488.9 225.7C488.9 225.2 488.6 224.6 488.5 224.1C487.9 219.6 485.6 214.6 482.5 210.1C481.7 209 480.8 207.8 479.9 206.8C477.7 204.3 475.3 202.1 472.7 200.4C472.6 200.4 472.5 200.3 472.5 200.3C472.1 200 471.7 199.7 471.2 199.5C468.3 197.8 465.5 197 463.2 197C461.9 197 460.7 197.3 459.8 197.8C457.2 199.3 457.2 202.5 457.2 205C457.2 206.2 458.2 207.4 458.2 208.7C458.2 208.8 457.7 208.8 457.7 208.9C457.6 209.2 457.9 209.5 457.9 209.8L458.2 209.9C458.2 210 458.1 210 458.1 210.1C458.2 210.6 456.2 211.1 458.2 211.6C458.2 211.8 458.2 212 458.2 212.2C459.2 214.2 459.7 216.2 460.8 218.2C460.8 218.3 460.6 218.3 460.6 218.3C461.3 219.4 462 220.6 462.8 221.7L462 222.2C461.2 221.1 460.3 220 459.4 218.9L455.6 221.1C456.3 222.3 457 223.4 457.8 224.6C457 223.5 456.3 222.3 455.6 221.1C454 218.2 452.6 215.2 451.7 212.2L451.9 212.1C451.2 209.7 451 207.4 451 205.1V205C451 199.5 453 195.2 456.9 193C460.8 190.8 465.9 190.9 471.3 193.4C471.5 193.5 471.6 193.5 471.7 193.6C472.4 193.9 473.5 194.2 474.2 194.6C475.4 195.3 477 195.2 478 196.6V196H477V196.7C477 196.8 477.3 197 477.4 197.1C479.9 199 482.4 201.3 484.5 203.9V204C484.8 204.4 485.2 204.8 485.5 205.2C486.2 206.1 486.9 207 487.5 207.9C487.8 208.4 488.1 208.8 488.4 209.3C488.6 209.7 488.9 210.1 489.1 210.5C489.1 210.5 489.1 210.6 489.2 210.6C489.2 210.6 489.2 210.7 489.3 210.7C489.6 211.2 489.8 211.6 490.1 212.1C490.2 212.2 490.2 212.4 490.3 212.5C490.5 212.9 490.7 213.2 490.8 213.6C490.8 213.7 490.9 213.7 490.9 213.8C491 214.1 491.2 214.4 491.3 214.7C491.4 214.8 491.4 214.9 491.4 215C491.5 215.2 491.6 215.4 491.6 215.6C491.7 215.7 491.7 215.9 491.8 216.1C491.9 216.2 491.9 216.4 492 216.5C492.2 217 492.3 217.5 492.5 218C492.7 218.5 492.8 218.9 492.9 219.4C492.9 219.4 492.9 219.4 492.9 219.5C492.9 219.6 492.9 219.7 493 219.7C493 219.8 493 219.9 493.1 219.9C493.2 220.1 493.2 220.3 493.2 220.5L493.5 220.6C493.6 220.8 494 221.1 494 221.3C494 221.5 493.8 221.7 493.8 221.9C493.8 222.1 493.7 222.3 493.7 222.4C493.7 222.6 493.7 222.8 493.7 223C493.7 223.1 493.8 223.3 493.8 223.4C493.8 223.5 493.9 223.6 493.9 223.7C493.9 223.8 493.8 223.8 493.8 223.9C493.8 224 493.8 224 493.8 224.1C493.8 224.2 493.8 224.3 493.8 224.4C493.8 224.5 493.8 224.7 493.8 224.9C493.8 225 493.8 225.2 493.8 225.3C494 225.7 494 226.1 494 226.5Z" fill="#848484"/>
<path d="M474.6 251.7L461 259.6L457.8 251.4C457.8 251.4 457.8 251.4 457.8 251.3L457.6 250.8L457.5 250.4L455.4 244.9L455.6 244.8L467.8 237.7L468.9 237.1L472.1 245.2L474.6 251.7Z" fill="#CECECE"/>
<path d="M473.5 238.3C473.5 240.9 473 243.3 472.1 245.3C471.1 247.5 469.5 249.3 467.5 250.4C465.7 251.5 463.6 252 461.3 252C460.2 252 459 251.7 457.8 251.5C457.8 251.5 457.8 251.5 457.8 251.4L457.6 250.9L457.5 250.5L457.2 249.8L457.1 249.5L457 249.1C456.3 247.3 455.6 245.1 455.6 244.9C459.2 246.5 462.4 246.8 464.7 245.5C467.3 244 467.9 240.8 467.9 238.3C467.9 238.2 468 238 468 237.9V237.8C468 235.6 467.4 233.3 466.6 231C466.3 230 465.8 229 465.3 228C465.1 227.5 464.8 227 464.5 226.5C464.4 226.2 464.2 226 464.1 225.7C464 225.5 463.8 225.2 463.7 225C463.6 224.8 463.4 224.6 463.3 224.4C463.2 224.3 463.2 224.1 463.1 224C462.7 223.3 462.3 222.7 461.8 222C461 220.9 460.2 219.8 459.3 218.7C457.1 216.1 454.5 213.8 451.8 212C451.7 212 451.7 211.9 451.6 211.9C451.2 211.6 450.9 211.4 450.5 211.2C447.6 209.5 444.9 208.7 442.5 208.7C441.2 208.7 440 209 439.1 209.5C436.5 211 435.9 214.2 435.9 216.7C435.9 217.9 436 219.1 436.3 220.4C436.3 220.5 436.3 220.7 436.4 220.8C436.5 221.4 436.5 221.9 436.6 222.5C436.6 222.6 436.6 222.6 436.6 222.7C436.8 223.3 436.9 224 437 224.6C437 224.7 436.9 224.9 436.9 225C438.9 226.6 438.7 228.3 439.6 229.9L439.7 230C440.4 231.1 441.2 232.3 442 233.4L441.4 233.8C440.6 232.7 439.7 231.6 438.9 230.6H438.8L435.1 232.8C433.5 229.9 432.4 227 431.6 224V223.9C431.2 222.4 431 221 430.9 219.6C430.9 219.4 431 219.2 431 219C431 218.4 431.1 217.7 431.1 217.1V216.8C431.1 211.2 432.9 206.9 436.7 204.7C440.5 202.5 445.3 202.6 450.6 204.9C450.7 204.9 450.8 205 450.9 205C451.8 205.4 452.6 205.8 453.4 206.3C454.6 207 455.7 207.7 456.8 208.6C459.5 210.6 462.1 213.1 464.3 215.8C464.4 215.9 464.5 216.1 464.6 216.2C464.8 216.5 465 216.7 465.2 216.9C465.2 216.9 465.2 217 465.3 217C465.4 217.1 465.5 217.2 465.5 217.3C465.6 217.4 465.6 217.5 465.7 217.6C465.7 217.6 465.7 217.7 465.8 217.7C466 217.9 466.1 218.1 466.3 218.4C466.6 218.8 466.9 219.3 467.2 219.8C467.5 220.2 467.8 220.7 468 221.1C468.4 221.8 468.9 222.6 469.2 223.3C469.3 223.5 469.5 223.7 469.6 224C469.8 224.4 470 224.8 470.2 225.2C470.3 225.4 470.4 225.6 470.5 225.8C470.7 226.2 470.9 226.7 471.1 227.2C471.2 227.5 471.3 227.7 471.4 228C471.8 229.2 472.2 230.3 472.5 231.5C472.6 231.9 472.7 232.2 472.8 232.6C472.9 232.8 472.9 233 472.9 233.1C472.9 233.2 472.9 233.2 473 233.3C473 233.4 473.1 233.6 473.1 233.7C473.1 233.8 473.1 233.8 473.1 233.9C473.1 234.1 473.2 234.3 473.2 234.6C473.2 234.7 473.2 234.7 473.2 234.8C473.2 234.8 473.2 234.8 473.2 234.9C473.2 235.1 473.3 235.3 473.3 235.5V235.6C473.3 236 473.4 236.3 473.4 236.7C473.4 236.8 473.4 236.8 473.4 236.9C473.4 237 473.4 237.1 473.4 237.2C473.5 237.5 473.5 237.9 473.5 238.3Z" fill="#848484"/>
<path d="M454.2 263.6L440.6 271.4L437.4 263.1C437.3 262.9 437.1 262.4 436.8 261.6L434.9 256.8L435.1 256.7L447.3 249.6L448.4 248.9L451.6 257.1L454.2 263.6Z" fill="#CECECE"/>
<path d="M453 250.1V250.2C453 250.6 453 250.9 453 251.3C453 251.5 453 251.6 453 251.8C453 252.2 452.9 252.6 452.9 252.9C452.8 253.2 452.8 253.5 452.7 253.8C452.7 253.9 452.7 253.9 452.7 254C452.7 254.1 452.6 254.2 452.6 254.3C452.6 254.5 452.5 254.7 452.4 254.9C452.3 255.1 452.3 255.3 452.2 255.5C452.1 255.8 452 256 451.9 256.3C451.8 256.6 451.7 256.8 451.6 257.1C450.6 259.3 449 261.1 447 262.2C445.2 263.2 443.1 263.6 440.8 263.6C439.7 263.6 438.5 263 437.4 263C437.4 263 437.4 263.1 437.4 263C437.4 263 437.4 263.1 437.3 263C437.3 262.9 437.2 262.9 437.2 262.8C437.2 262.7 437.2 262.7 437.1 262.6C437 262.4 437 262.2 436.9 261.9C436.9 261.8 436.8 261.7 436.8 261.6C436.7 261.4 436.6 261.1 436.5 260.9C436.3 260.4 436.1 259.9 436 259.4C435.5 258.1 435.1 256.8 435.1 256.7C435.1 256.7 435 256.7 435 256.6L435.2 257.9C438.8 258.9 442 259.1 444.3 257.9C446.9 256.4 447.8 252.8 447.8 250.4C447.8 250.2 448.1 249.7 448.1 249.6C448.1 249.5 448 249.4 448 249.3C447.9 244.4 445.2 238.8 441.7 233.7L441.6 233.6C440.8 232.5 439.9 231.4 439 230.4C436.8 227.9 434.3 225.6 431.7 223.9C431.7 223.9 431.7 223.9 431.6 223.9C431.5 223.9 431.4 223.8 431.4 223.8C431 223.5 430.5 223.2 430.1 223C427.2 221.3 424.5 220.5 422.2 220.5C420.9 220.5 419.7 220.8 418.8 221.3C416.2 222.8 415.7 226 415.7 228.5C415.7 229.7 416.1 230.9 416.1 232.2C416.1 232.3 416.2 232.3 416.2 232.4C416.2 233.2 416.5 233.9 416.7 234.7C416.7 234.8 416.8 234.8 416.8 234.9C417 235.7 417.2 236.4 417.6 237.2C417.6 237.2 417.6 237.3 417.7 237.3C418.3 238.8 419 240.3 419.8 241.7C420.5 242.9 421.2 244 421.9 245.1L421 245.6C420.6 245 420.2 244.5 419.8 244C419.4 243.5 419 242.9 418.5 242.4L414.7 244.6C413 241.7 411.6 238.6 410.8 235.6L410.5 235.5C409.8 233.1 409.1 230.8 409.1 228.6V228.5C409.1 222.9 411.7 218.7 415.5 216.4C419.4 214.2 424.7 214.3 430.2 216.8C430.4 216.9 430.6 216.9 430.8 217C431.5 217.3 432.3 218 433 218.5C434.2 219.2 435.4 218.1 436.5 221.1H436C436.1 221.1 436.3 221 436.4 221.1C438.9 223.1 441.5 225.2 443.7 227.8L443.8 227.7C443.9 227.8 444 227.8 444 227.9C444.1 228 444.1 228 444.2 228.1C445.1 229.3 446 230.5 446.9 231.7C446.9 231.8 447 231.8 447 231.9C447.2 232.3 447.5 232.6 447.7 233C447.8 233.2 448 233.5 448.1 233.7C448.2 233.9 448.4 234.2 448.5 234.4C448.8 234.9 449 235.3 449.3 235.8C450.3 237.7 451.1 239.7 451.7 241.6C451.9 242.1 452 242.7 452.2 243.2C452.3 243.5 452.4 243.9 452.5 244.2C452.8 245.3 452.9 246.4 453.1 247.5C453.1 247.8 453.2 248.1 453.2 248.3C453.2 248.5 453.2 248.7 453.2 249C453 249.4 453 249.8 453 250.1Z" fill="#848484"/>
<path d="M433.7 275.4L420.1 283.3L417 275V274.9C416.9 274.7 416.7 274.2 416.5 273.6L414.5 268.6L414.7 268.5L426.9 261.4L428 260.7L431.2 268.9L433.7 275.4Z" fill="#CECECE"/>
<path d="M432.6 261.9C432.6 264.6 432.1 266.9 431.2 268.9C430.2 271.1 428.6 272.8 426.6 274C424.8 275.1 422.7 275.6 420.4 275.6C419.3 275.6 418.1 275.3 416.9 275.1C416.9 275.1 416.9 275.1 416.9 275C416.8 274.8 416.6 274.3 416.4 273.7L416.3 273.4C415.6 271.6 414.6 268.9 414.7 268.6C418.3 270.2 421.6 270.5 423.8 269.2C426.4 267.7 427 264.5 427 262C427 261.8 427 261.7 427 261.5C426.9 256.6 424.5 250.8 421 245.7C420.2 244.6 419.4 243.5 418.5 242.5C416.2 239.8 413.6 237.5 410.9 235.7L410.8 235.6C410.4 235.3 410 235.1 409.7 234.9C406.8 233.2 404 232.4 401.7 232.4C400.4 232.4 399.2 232.7 398.3 233.2C395.7 234.7 395.1 237.9 395.1 240.4C395.1 241.6 395.2 242.8 395.5 244.1C395.6 244.6 395.7 245.1 395.9 245.6C396.1 246.3 396.3 247 396.6 247.8C397.3 249.8 398.2 251.7 399.3 253.7C400 254.8 400.7 256 401.4 257L400.5 257.5C399.7 256.4 398.9 255.4 398.1 254.3L394.3 256.5C392.6 253.6 391.5 250.6 390.7 247.6C390.7 247.5 390.7 247.5 390.7 247.4C390.1 245.1 390 242.8 390 240.6V240.3C390 234.7 391.8 230.4 395.7 228.2C399.5 226 404.4 226.1 409.7 228.5C409.8 228.5 409.9 228.6 410 228.6C410.9 229 411.7 229.4 412.5 229.9C413.7 230.6 414.8 231.4 415.9 232.2C418.7 234.3 421.2 236.7 423.4 239.5C424.8 241.2 426.1 243 427.2 244.9C427.8 245.8 428.3 246.8 428.8 247.7C431.2 252.3 432.6 257.3 432.6 261.9Z" fill="#848484"/>
<path d="M413.3 287.2L399.7 295.1L396.5 286.9C396.5 286.9 396.5 286.9 396.5 286.8L396.3 286.3L396.2 285.9L394.1 280.4L394.3 280.3L406.5 273.2L407.6 272.6L410.8 280.8L413.3 287.2Z" fill="#CECECE"/>
<path d="M412.2 273.7C412.2 276.3 411.7 278.7 410.8 280.7C409.8 282.9 408.2 284.6 406.2 285.8C404.4 286.9 402.3 287.4 400 287.4C398.9 287.4 397.7 287.1 396.6 286.9C396.6 286.9 396.6 286.9 396.6 286.8C396.6 286.7 396.5 286.5 396.4 286.3C396.4 286.2 396.3 286 396.3 285.9C395.6 284.2 394.3 280.6 394.4 280.3C398 281.9 401.3 282.2 403.5 280.9C406.1 279.4 406.7 276.2 406.7 273.7C406.7 273.5 406.7 273.4 406.7 273.2C406.6 268.3 404.2 262.5 400.7 257.4C399.9 256.3 399.1 255.3 398.3 254.2C396 251.5 393.4 249.1 390.7 247.3C390.3 247 389.9 246.8 389.4 246.5C386.5 244.8 383.8 244 381.4 244C380.1 244 378.9 244.3 378 244.8C375.4 246.3 374.8 249.5 374.8 252C374.8 256.1 376.4 260.9 379 265.4L375.4 267.5L376.2 271.5L376.1 271.6C371.8 265.4 369.1 258.4 369.1 252.1C369.1 246.5 371.2 242.2 375.1 240C379 237.8 384.1 237.9 389.6 240.4C390.5 240.8 391.3 241.2 392.2 241.7C393.4 242.4 394.6 243.2 395.7 244C398.5 246.1 401.1 248.6 403.3 251.4C408.6 258.1 412.2 266.4 412.2 273.7Z" fill="#848484"/>
<path d="M405.1 255.7C402.3 251.5 398.8 247.9 395.9 245.5C393 243.2 390.7 242.1 390.7 242.1C390.5 242 390.3 242.1 390.2 242.2C390.1 242.4 390.2 242.6 390.3 242.8C390.3 242.8 392.4 244 395.2 246.4C398 248.7 401.3 252.4 403.9 256.5C406.6 260.5 408.5 265 409.4 268.6C410.3 272.1 410.3 274.6 410.3 274.6C410.3 274.8 410.5 275 410.7 275C410.9 275 411.1 274.9 411.1 274.6C411.1 274.5 411.3 272 410.5 268.3C409.7 264.6 407.9 259.9 405.1 255.7Z" fill="url(#paint0_radial_2_2)"/>
<path d="M425 244.2C422.2 240 418.7 236.4 415.8 234C412.9 231.7 410.6 230.6 410.6 230.6C410.4 230.5 410.2 230.6 410.1 230.7C410 230.9 410.1 231.1 410.2 231.2C410.2 231.2 412.3 232.4 415.1 234.8C417.9 237.1 421.2 240.8 423.8 244.9C426.5 248.9 428.4 253.4 429.3 257C430.2 260.5 430.2 263 430.2 263C430.2 263.2 430.4 263.4 430.6 263.4C430.8 263.4 431 263.3 431 263C431 262.9 431.2 260.4 430.4 256.7C429.6 253.1 427.8 248.4 425 244.2Z" fill="url(#paint1_radial_2_2)"/>
<path d="M445.6 232.3C442.8 228.1 439.3 224.5 436.4 222.1C433.5 219.8 431.2 218.7 431.2 218.7C431 218.6 430.8 218.7 430.7 218.8C430.6 219 430.7 219.2 430.8 219.3C430.8 219.3 432.9 220.5 435.7 222.9C438.5 225.2 441.8 228.9 444.4 233C447.1 237 449 241.5 449.9 245.1C450.8 248.6 450.8 251.1 450.8 251.1C450.8 251.3 451 251.5 451.2 251.5C451.4 251.5 451.6 251.4 451.6 251.1C451.6 251 451.8 248.5 451 244.8C450.2 241.2 448.4 236.5 445.6 232.3Z" fill="url(#paint2_radial_2_2)"/>
<path d="M466.6 220.2C463.8 216 460.3 212.4 457.4 210C454.5 207.7 452.2 206.6 452.2 206.6C452 206.5 451.8 206.6 451.7 206.7C451.6 206.9 451.7 207.1 451.8 207.3C451.8 207.3 453.9 208.5 456.7 210.9C459.5 213.2 462.8 216.9 465.4 221C468.1 225 470 229.5 470.9 233.1C471.8 236.6 471.8 239.1 471.8 239.1C471.8 239.3 472 239.5 472.2 239.5C472.4 239.5 472.6 239.4 472.6 239.1C472.6 239 472.8 236.5 472 232.8C471.2 229.2 469.3 224.4 466.6 220.2Z" fill="url(#paint3_radial_2_2)"/>
<path d="M486.5 208.7C483.7 204.5 480.2 200.9 477.3 198.5C474.4 196.2 472.1 195.1 472.1 195.1C471.9 195 471.7 195.1 471.6 195.2C471.5 195.4 471.6 195.6 471.7 195.7C471.7 195.7 473.8 196.9 476.6 199.3C479.4 201.6 482.7 205.3 485.3 209.4C488 213.4 489.9 217.9 490.8 221.5C491.7 225 491.7 227.5 491.7 227.5C491.7 227.7 491.9 227.9 492.1 227.9C492.3 227.9 492.5 227.8 492.5 227.5C492.5 227.4 492.7 224.9 491.9 221.2C491.1 217.7 489.2 212.9 486.5 208.7Z" fill="url(#paint4_radial_2_2)"/>
<path d="M507.1 196.8C504.3 192.6 500.8 189 497.9 186.6C495 184.3 492.7 183.2 492.7 183.2C492.5 183.1 492.3 183.2 492.2 183.3C492.1 183.5 492.2 183.7 492.3 183.9C492.3 183.9 494.4 185.1 497.2 187.5C500 189.8 503.3 193.5 505.9 197.6C508.6 201.6 510.5 206.1 511.4 209.7C512.3 213.2 512.3 215.7 512.3 215.7C512.3 215.9 512.5 216.1 512.7 216.1C512.9 216.1 513.1 216 513.1 215.7C513.1 215.6 513.3 213.1 512.5 209.4C511.7 205.8 509.8 201 507.1 196.8Z" fill="url(#paint5_radial_2_2)"/>
<path d="M527.6 185C524.8 180.8 521.3 177.2 518.4 174.8C515.5 172.5 513.2 171.4 513.2 171.4C513 171.3 512.8 171.4 512.7 171.5C512.6 171.7 512.7 171.9 512.8 172C512.8 172 514.9 173.2 517.7 175.6C520.5 177.9 523.8 181.6 526.4 185.7C529.1 189.7 531 194.2 531.9 197.8C532.8 201.3 532.8 203.8 532.8 203.8C532.8 204 533 204.2 533.2 204.2C533.4 204.2 533.6 204.1 533.6 203.8C533.6 203.7 533.8 201.2 533 197.5C532.2 193.9 530.3 189.2 527.6 185Z" fill="url(#paint6_radial_2_2)"/>
<path d="M547.5 173.5C544.7 169.3 541.2 165.7 538.3 163.3C535.4 161 533.1 159.9 533.1 159.9C532.9 159.8 532.7 159.9 532.6 160C532.5 160.2 532.6 160.4 532.7 160.5C532.7 160.5 534.8 161.7 537.6 164.1C540.4 166.4 543.7 170.1 546.3 174.2C549 178.2 550.9 182.7 551.8 186.3C552.7 189.8 552.7 192.3 552.7 192.3C552.7 192.5 552.9 192.7 553.1 192.7C553.3 192.7 553.5 192.6 553.5 192.3C553.5 192.2 553.7 189.7 552.9 186C552.1 182.4 550.3 177.7 547.5 173.5Z" fill="url(#paint7_radial_2_2)"/>
<path d="M568.1 161.6C565.3 157.4 561.8 153.8 558.9 151.4C556 149.1 553.7 148 553.7 148C553.5 147.9 553.3 148 553.2 148.1C553.1 148.3 553.2 148.5 553.3 148.6C553.3 148.6 555.4 149.8 558.2 152.2C561 154.5 564.3 158.2 566.9 162.3C569.6 166.3 571.5 170.8 572.4 174.4C573.3 177.9 573.3 180.4 573.3 180.4C573.3 180.6 573.5 180.8 573.7 180.8C573.9 180.8 574.1 180.7 574.1 180.4C574.1 180.3 574.3 177.8 573.5 174.1C572.7 170.5 570.9 165.8 568.1 161.6Z" fill="url(#paint8_radial_2_2)"/>
<path d="M589 149.5C586.2 145.3 582.7 141.7 579.8 139.3C576.9 137 574.6 135.9 574.6 135.9C574.4 135.8 574.2 135.9 574.1 136C574 136.2 574.1 136.4 574.2 136.5C574.2 136.5 576.3 137.7 579.1 140.1C581.9 142.4 585.2 146.1 587.8 150.2C590.5 154.2 592.4 158.7 593.3 162.3C594.2 165.8 594.2 168.3 594.2 168.3C594.2 168.5 594.4 168.7 594.6 168.7C594.8 168.7 595 168.6 595 168.3C595 168.2 595.2 165.7 594.4 162C593.6 158.4 591.8 153.7 589 149.5Z" fill="url(#paint9_radial_2_2)"/>
<path d="M609 138C606.2 133.8 602.7 130.2 599.8 127.8C596.9 125.5 594.6 124.4 594.6 124.4C594.4 124.3 594.2 124.4 594.1 124.5C594 124.7 594.1 124.9 594.2 125C594.2 125 596.3 126.2 599.1 128.6C601.9 130.9 605.2 134.6 607.8 138.7C610.5 142.7 612.4 147.2 613.3 150.8C614.2 154.3 614.2 156.8 614.2 156.8C614.2 157 614.4 157.2 614.6 157.2C614.8 157.2 615 157.1 615 156.8C615 156.7 615.2 154.2 614.4 150.5C613.6 146.9 611.7 142.2 609 138Z" fill="url(#paint10_radial_2_2)"/>
<path d="M629.6 126.1C626.8 121.9 623.3 118.3 620.4 115.9C617.5 113.6 615.2 112.5 615.2 112.5C615 112.4 614.8 112.5 614.7 112.6C614.6 112.8 614.7 113 614.8 113.1C614.8 113.1 616.9 114.3 619.7 116.7C622.5 119 625.8 122.7 628.4 126.8C631.1 130.8 633 135.3 633.9 138.9C634.8 142.4 634.8 144.9 634.8 144.9C634.8 145.1 635 145.3 635.2 145.3C635.4 145.3 635.6 145.2 635.6 144.9C635.6 144.8 635.8 142.3 635 138.6C634.2 135 632.3 130.3 629.6 126.1Z" fill="url(#paint11_radial_2_2)"/>
<path d="M650.5 114C647.7 109.8 644.2 106.2 641.3 103.8C638.4 101.5 636.1 100.4 636.1 100.4C635.9 100.3 635.7 100.4 635.6 100.5C635.5 100.7 635.6 100.9 635.7 101C635.7 101 637.8 102.2 640.6 104.6C643.4 106.9 646.7 110.6 649.3 114.7C652 118.7 653.9 123.2 654.8 126.8C655.7 130.3 655.7 132.8 655.7 132.8C655.7 133 655.9 133.2 656.1 133.2C656.3 133.2 656.5 133.1 656.5 132.8C656.5 132.7 656.7 130.2 655.9 126.5C655.1 123 653.2 118.2 650.5 114Z" fill="url(#paint12_radial_2_2)"/>
<path d="M670.4 102.5C667.6 98.3 664.1 94.7 661.2 92.3C658.3 90 656 88.9 656 88.9C655.8 88.8 655.6 88.9 655.5 89C655.4 89.2 655.5 89.4 655.6 89.6C655.6 89.6 657.7 90.8 660.5 93.2C663.3 95.5 666.6 99.2 669.2 103.3C671.9 107.3 673.8 111.8 674.7 115.4C675.6 118.9 675.6 121.4 675.6 121.4C675.6 121.6 675.8 121.8 676 121.8C676.2 121.8 676.4 121.7 676.4 121.4C676.4 121.3 676.6 118.8 675.8 115.1C675 111.5 673.2 106.7 670.4 102.5Z" fill="url(#paint13_radial_2_2)"/>
<path d="M691 90.6C688.2 86.4 684.7 82.8 681.8 80.4C678.9 78.1 676.6 77 676.6 77C676.4 76.9 676.2 77 676.1 77.1C676 77.3 676.1 77.5 676.2 77.6C676.2 77.6 678.3 78.8 681.1 81.2C683.9 83.5 687.2 87.2 689.8 91.3C692.5 95.3 694.4 99.8 695.3 103.4C696.2 106.9 696.2 109.4 696.2 109.4C696.2 109.6 696.4 109.8 696.6 109.8C696.8 109.8 697 109.7 697 109.4C697 109.3 697.2 106.8 696.4 103.1C695.6 99.6 693.8 94.8 691 90.6Z" fill="url(#paint14_radial_2_2)"/>
<path d="M711.9 78.6C709.1 74.4 705.6 70.8 702.7 68.4C699.8 66.1 697.5 65 697.5 65C697.3 64.9 697.1 65 697 65.1C696.9 65.3 697 65.5 697.1 65.7C697.1 65.7 699.2 66.9 702 69.3C704.8 71.6 708.1 75.3 710.7 79.4C713.4 83.4 715.3 87.9 716.2 91.5C717.1 95 717.1 97.5 717.1 97.5C717.1 97.7 717.3 97.9 717.5 97.9C717.7 97.9 717.9 97.8 717.9 97.5C717.9 97.4 718.1 94.9 717.3 91.2C716.5 87.5 714.7 82.8 711.9 78.6Z" fill="url(#paint15_radial_2_2)"/>
<path d="M731.9 67C729.1 62.8 725.6 59.2 722.7 56.8C719.8 54.5 717.5 53.4 717.5 53.4C717.3 53.3 717.1 53.4 717 53.5C716.9 53.7 717 53.9 717.1 54C717.1 54 719.2 55.2 722 57.6C724.8 59.9 728.1 63.6 730.7 67.7C733.4 71.7 735.3 76.2 736.2 79.8C737.1 83.3 737.1 85.8 737.1 85.8C737.1 86 737.3 86.2 737.5 86.2C737.7 86.2 737.9 86.1 737.9 85.8C737.9 85.7 738.1 83.2 737.3 79.5C736.5 76 734.6 71.2 731.9 67Z" fill="url(#paint16_radial_2_2)"/>
<path d="M757.9 67.8C757.1 64.1 755.2 59.4 752.5 55.2C749.7 51 746.2 47.4 743.3 45C740.4 42.7 738.1 41.6 738.1 41.6C737.9 41.5 737.7 41.6 737.6 41.7C737.5 41.9 737.6 42.1 737.7 42.2C737.7 42.2 739.8 43.4 742.6 45.8C745.4 48.1 748.7 51.8 751.3 55.9C754 59.9 755.9 64.4 756.8 68C757.7 71.5 757.7 74 757.7 74C757.7 74.2 757.9 74.4 758.1 74.4C758.3 74.4 758.5 74.3 758.5 74C758.5 74 758.7 71.5 757.9 67.8Z" fill="url(#paint17_radial_2_2)"/>
<path d="M790.6 685.5C822.798 685.5 848.9 670.502 848.9 652C848.9 633.498 822.798 618.5 790.6 618.5C758.402 618.5 732.3 633.498 732.3 652C732.3 670.502 758.402 685.5 790.6 685.5Z" fill="#EDEDED"/>
<path d="M765.5 394.6C768.9 390.6 770.8 385.8 771.3 380.8C771.3 380.8 771.3 380.8 771.4 380.8C772.1 381 774.1 381.5 776.9 382.2C781.9 383.2 788.4 384.1 794.6 384.5C795.3 384.6 796.1 384.6 796.8 384.6C808.1 384.3 814.8 384.1 823.6 381.8C832.4 379.4 837.3 394.4 816.6 400.7C816.6 400.7 792.5 403.6 768.5 395.2C767.7 395.4 766.3 395.8 764.3 395.9C764.7 395.5 765.1 395.1 765.5 394.6Z" fill="#FF3833"/>
<path d="M814.4 385.6C814.4 385.6 812.8 370.3 809.2 354.2C805.7 338.1 810.8 324.5 817.8 322.5C824.8 320.5 826.7 335.9 830.1 352.8C833.5 369.7 832.2 386.3 831.1 387.6C830.1 388.9 816.6 384.1 814.4 385.6Z" fill="#FF3833"/>
<path d="M769.3 395.1C769.5 395.2 769.8 395.2 770 395.3C769.9 394.6 769.9 393.9 769.9 393.2C769.8 388.9 771.1 384.9 773.4 381.5C772.9 381.4 772.5 381.2 772 381.1C771.3 380.8 770.7 380.4 770.5 380C769.4 377.5 767.8 375.8 766.5 373.2C766 372.2 765.4 369.7 764.2 369.4C762.8 369.1 762.1 370.2 762.2 374.1C762.2 375.1 762.9 376.9 761.6 377.8C759.6 379.2 755.7 378.4 753.3 377.7C750.9 377 742.4 374.4 740.6 374.1C739.7 373.9 738.8 373.7 737.9 374C737 374.2 736.2 375 736.5 375.8C736.7 376.5 737.6 376.9 738.4 377.2C738.9 377.4 751.6 381.2 751.7 381.7C751.8 382 751.5 382.3 751.1 382.4C750.2 382.8 736 379.7 734.8 379.6C732.3 379.4 731.9 382.2 733.9 382.8C737 383.8 750.1 385.8 750.3 386.9C749.9 387.6 738.2 386.3 737 386.4C736.2 386.4 735.7 386.5 735.5 387.2C735 389 737.6 389.5 739.6 389.9C741.2 390.2 742.8 390.5 744.5 390.7C745 390.8 750.5 391.3 750.6 391.8C750.1 392.1 745.9 391.7 743.1 392.6C741.1 393.2 741.5 394.9 743.5 395.4C747.4 396.3 752.3 394.3 757 395.4C763 396.5 767.7 395.6 769.3 395.1Z" fill="#F5B68F"/>
<path d="M790.6 316.6L791.4 323.9C791.4 323.9 800.9 331.8 804.9 329.5C808.9 327.2 813.7 323.4 808.7 313.4C803.8 303.4 790.6 316.6 790.6 316.6Z" fill="#E89B70"/>
<path d="M807.8 614.9L810.6 604.7L820.6 614.1L819.1 631.7L808.3 632.5V632.1H808.2L807.8 614.9Z" fill="#FAC49C"/>
<path d="M808.2 632.1C808.5 634.8 807.9 636.6 807.5 637.8C806 641.4 802.2 645.1 802 645.3C800.8 646.4 799.9 647 799.8 648.2C799.7 649.6 800.7 651.3 802 651.8C806 653.5 815 645.2 817.3 637.9C818.8 633.4 819.1 631.7 819.1 631.7C815.5 631.8 811.8 631.9 808.2 632.1Z" fill="#FAC49C"/>
<path d="M633 311.6C636.369 311.6 639.1 308.869 639.1 305.5C639.1 302.131 636.369 299.4 633 299.4C629.631 299.4 626.9 302.131 626.9 305.5C626.9 308.869 629.631 311.6 633 311.6Z" fill="#36393D"/>
<path d="M673.5 323.4L675 309.2C675 309.2 692.5 319.6 695.2 321.2C695.4 321.4 695.9 321.6 696.4 321.9C716.5 334.2 738.5 349 738.5 349C747.1 354.8 753.7 359.3 762.9 365.8C767.2 368.9 776.5 375.6 788.8 385.3C803.7 397 825.7 413.7 851.1 438.4C867.2 453.9 879 465.6 883.3 470.9C883.3 470.9 884.1 471.7 884.1 472.7C884.2 473.8 882.6 486.9 882.6 486.9L674.6 329.7L673.5 323.4Z" fill="#3D72A7"/>
<path d="M646.6 323.7L648.2 309.5L650.3 308.6L648.8 322.8L646.6 323.7Z" fill="#FF1717"/>
<path d="M648 286.6C648 286.6 649.5 297.5 658.4 305L656.9 319.2C656.9 319.2 649.7 315.2 646.9 306.4C644 297.7 648 286.6 648 286.6Z" fill="#828793"/>
<path d="M607.6 285.7C607.6 285.7 629.2 303.6 646.5 300.9L648 286.7C648 286.7 634.6 283.2 627.8 280.5C621 277.8 615 275.4 609.1 271.6L607.6 285.7Z" fill="#969BA8"/>
<path d="M673.5 323.4C698.8 338.1 725.2 354.7 751.8 373.4C805.3 411 845.8 447.3 876.4 479.1C877.4 480.1 878.5 481.4 879.8 482.8C882.4 485.7 882.9 486.4 882.6 487.3C882.3 488.3 881.1 489 880.2 489.4C879.9 489.6 879.6 489.7 879.4 489.7C878.4 490.1 876.6 490.5 874.5 490.3C872.9 490.1 871.6 489.4 869 488C866.3 486.6 864.2 485.5 863.1 484.9C816.2 458.8 764.8 426.4 714.5 387.1C690.7 368.5 669.7 350.3 651.3 333.1L662.3 328.3L673.5 323.4Z" fill="url(#paint18_linear_2_2)"/>
<path d="M659 318.3L673.5 323.4L662.5 328.2L651.5 333L646.6 323.7L648.8 322.8L652.6 321.1L652.8 321L653 320.9L656.9 319.2L659 318.3Z" fill="#6EBEDD"/>
<path d="M659 318.3L660.5 304.1L675.1 309.2L673.5 323.4L659 318.3Z" fill="#56BFC7"/>
<path d="M656.9 319.2L658.4 305L660.5 304.1L659 318.3L656.9 319.2Z" fill="#56BFC7"/>
<path d="M636.5 308.7L653 320.9L652.8 321L652.6 321.1L636 308.9L636.2 308.8L636.5 308.7Z" fill="black"/>
<path d="M607.5 272.2L605.8 272.9L604.2 287.2L605.9 286.4L607.6 285.7L609.2 271.4L607.5 272.2Z" fill="#A5AAB8"/>
<path d="M646.5 300.9C648.7 312.5 656.5 318.9 656.9 319.3L653.1 321L636.5 308.8L636.3 308.9C638.4 308 638.6 306.1 636.8 304.8C635 303.4 631.8 303.1 629.7 304C627.6 304.9 627.4 306.8 629.2 308.1C631 309.4 634 309.8 636.1 309L652.7 321.2L648.9 322.9C648.5 322.7 642.7 318.8 630.5 315.1C630.2 315 629.8 314.9 629.5 314.8C629.3 314.7 629.2 314.7 629 314.7C627.8 314.3 626.4 314 625.1 313.6C623.6 313.2 622 312.8 620.4 312.5C616.2 297 605.1 287.7 604.5 287.2L606.2 286.5L607.9 285.7C609.1 286.5 610.1 287 610.8 287.4C611.4 287.7 612.2 288.1 613.6 288.8C614.5 289.3 615.3 289.7 615.9 289.9C616 290 616.2 290 616.2 290.1C616.2 290.1 616.4 290.2 616.7 290.4C617.1 290.6 617.3 290.7 617.4 290.7C617.9 291 620 291.9 620.3 292C626.4 294.8 635.2 298.1 646.5 300.9Z" fill="#666A73"/>
<path d="M610.5 287.3C615.3 296 620.1 304.7 624.9 313.5C626.3 313.8 627.6 314.2 628.9 314.5C624.4 306.3 620 298 615.5 289.8C614.2 289.2 612.9 288.5 611.6 287.9C611.2 287.7 610.9 287.5 610.5 287.3Z" fill="#A8B1C1"/>
<path d="M616.9 290.6C621.1 298.7 625.2 306.7 629.4 314.8C629.8 314.9 630.1 315 630.4 315.1C626.9 307.4 623.4 299.7 619.9 292C619.3 291.7 618.7 291.4 618.1 291.2C617.6 290.9 617.2 290.8 616.9 290.6Z" fill="#A8B1C1"/>
<path d="M819.1 631.7C819.1 631.7 821.4 631 823.2 634.2C825 637.4 823 660 823 660H818.4L817.4 645.8C817.4 645.8 813.1 654.3 810.2 656.3C807.3 658.2 801.7 655.7 798.1 653.3C794.5 650.9 792.1 645.7 793.6 645.1C795.1 644.5 802.1 645.2 802.1 645.2C802.1 645.2 799.7 649.5 802.3 650.8C804.9 652.1 814.5 640.2 816.1 637.2C817.5 634.1 817.9 631.5 819.1 631.7Z" fill="#2D2979"/>
<path d="M778.8 548C778.8 548 787.4 563.4 783.2 581.8C779.9 596.4 773 628.7 770.2 641.5C769.5 644.6 766.6 646.6 763.6 646.1C760.6 645.7 760 642 760.2 638.9C760.8 609.2 761.4 579.5 762 549.8C767.6 549.3 773.2 548.6 778.8 548Z" fill="#FAC49C"/>
<path d="M754.6 651.4C757.5 649.7 760.3 641.5 760.3 641.5L771.1 638.3C771.1 638.3 770.8 640 769.4 644.3C768 648.6 757 657.8 754.6 657.7C752.2 657.6 751.7 653.1 754.6 651.4Z" fill="#FAC49C"/>
<path d="M771.1 638.3C771.1 638.3 773.3 638.4 775 641.4C776.7 644.4 774.8 667 774.8 667H770.3L769.3 652.6C769.3 652.6 765.2 660.5 762.4 662.3C759.6 664.1 754.3 661.5 750.8 659.2C747.3 656.9 745 651.7 746.5 651.2C747.9 650.7 754.6 651.3 754.6 651.3C754.6 651.3 752.3 655.4 754.8 656.7C757.3 658 766.5 646.5 768 643.6C769.6 640.7 769.9 638.2 771.1 638.3Z" fill="#2D2979"/>
<path d="M825.5 535.6C825.5 535.6 816.9 543.4 803.9 537.5C803.9 537.5 799.1 493.1 795.5 451C791.9 408.9 787.6 418.3 806.5 410.9C825.4 403.5 822.1 412.7 822.1 412.7C822.1 412.7 833.8 443.1 833.1 457.4C832.4 471.7 827 515 825.5 535.6Z" fill="#7FA8E6"/>
<path d="M825.5 535.6C825.5 535.6 831.5 551.8 826.9 581.4C822.3 611 820.5 614.1 820.5 614.1L807.7 614.9C807.7 614.9 801.8 552.4 803.9 537.6C806 522.8 825.5 535.6 825.5 535.6Z" fill="#7FA8E6"/>
<path d="M784.2 546.2C784.2 546.2 790.7 551.9 782.8 586.8C774.9 621.8 773.2 630 773.2 630C773.2 630 767.9 634 760.2 630.6C760.2 630.6 757 565.9 760.6 541.4C764.2 516.9 784.2 546.2 784.2 546.2Z" fill="#7FA8E6"/>
<path d="M784.2 546.2C784.2 546.2 804.8 487.8 801.9 451.3C799 414.8 778 409.1 773.5 416.9C769 424.7 758.4 532.9 760.4 544C762.4 555.2 779.2 553.5 784.2 546.2Z" fill="#7FA8E6"/>
<path d="M813 321.6C816.2 322 822.3 323.2 826.5 328C827.7 329.4 831.6 334.4 830.1 350.9C829.1 361.5 826.7 367.9 825.1 373.9C822.8 382.6 820.9 395.3 823.2 412.2C823.2 412.2 817.9 419.9 799.9 422.2C781.8 424.5 773.5 416.9 773.5 416.9C773.5 416.9 779.3 393.8 776.3 373.7C773.2 353.6 771.5 341.4 787.8 330.3C787.8 330.4 808.5 328.8 813 321.6Z" fill="#F4FBFB"/>
<path d="M787.8 330.4C787.8 330.4 789.5 325.3 789.9 324.1C790.3 322.9 791.5 322.7 791.5 322.7C791.5 322.7 793.4 325.3 799.4 324.6C805.4 323.9 810.3 320.8 810.1 318.4L810 316.9C810 316.9 811.7 316.6 812.9 318C814.1 319.5 815.9 322.1 815.9 322.1C815.9 322.1 816.9 327.7 808.8 331.1C800.6 334.5 793.2 333.1 787.8 330.4Z" fill="#F2F0EB"/>
<path d="M803 315.4C803 315.4 797.3 317.6 789.2 318.1C781.1 318.6 775.1 307.5 774 293.6C772.9 279.7 777.5 272.3 782.5 269.5C787.5 266.7 819.3 280.8 803 315.4Z" fill="#F5B68F"/>
<path d="M755.9 388.7C755.9 388.7 763.6 374.3 770.1 358C776.7 341.8 788.9 332.7 795.8 335.1C802.7 337.5 795.2 352.2 788 369C780.8 385.9 770 399.7 768.4 400.2C766.8 400.7 758.6 388.7 755.9 388.7Z" fill="#F2F0EB"/>
<path d="M711.6 376.3C711.8 376.5 712 376.6 712.1 376.8C712.3 376.1 712.6 375.5 712.9 374.8C714.8 371 717.8 368 721.4 366C721 365.7 720.7 365.3 720.4 365C719.9 364.4 719.6 363.8 719.6 363.3C719.7 360.6 719.1 358.3 719.2 355.5C719.2 354.4 719.8 351.9 718.9 351.1C717.8 350.2 716.6 350.9 715 354.4C714.5 355.3 714.3 357.2 712.8 357.4C710.3 357.7 707.3 355.2 705.4 353.5C703.5 351.8 697.3 345.6 695.8 344.4C695.1 343.8 694.3 343.2 693.5 343C692.6 342.8 691.6 343.1 691.4 343.9C691.2 344.7 691.9 345.4 692.5 346C692.9 346.4 702.3 355.6 702.2 356.1C702.1 356.4 701.7 356.5 701.4 356.5C700.4 356.4 689.2 347.2 688.2 346.5C686.1 345.1 684.4 347.5 685.9 348.9C688.2 351.2 698.9 359 698.6 360C697.9 360.4 688.1 353.9 687.1 353.4C686.4 353.1 685.9 352.8 685.4 353.4C684.2 354.8 686.3 356.4 687.8 357.7C689.1 358.7 690.4 359.7 691.8 360.6C692.2 360.9 696.9 363.9 696.8 364.4C696.2 364.5 692.7 362.2 689.8 361.6C687.8 361.2 687.3 362.9 688.9 364.3C691.9 366.9 697.2 367.4 700.9 370.5C705.3 374.6 710 375.9 711.6 376.3Z" fill="#F5B68F"/>
<path d="M708.5 374.1C713.3 372.1 717.2 368.7 720 364.5C720.5 365 722.1 366.4 724.3 368.3C728.3 371.5 733.6 375.2 739 378.5C739.6 378.9 740.3 379.3 740.9 379.6C753.1 386.5 760.6 383.7 766 389.4C768.5 392 770.5 396.4 769.2 399.4C767.3 403.7 759 404.5 753.5 403.6C752.5 403.4 751.7 403.2 751.1 403C744.4 400.9 737.5 396.5 737.5 396.5C732.9 393.5 723.1 386.5 710.8 376.4C710.3 376.1 709.8 375.9 709.2 375.6C708.3 375.2 707.5 374.9 706.8 374.7C707.3 374.5 707.9 374.3 708.5 374.1Z" fill="#F2F0EB"/>
<path d="M933.2 350.7C933.2 343.6 930 336.8 925.2 331.6C923.2 329.5 920.4 327.5 917.6 328.3C918.7 321.4 915.4 313.9 909.5 310.1C903.6 306.3 895.4 306.3 889.5 310.2C885.4 312.9 882.4 317.8 883.4 322.5C885.9 321.8 888.7 323.8 889.5 326.3C890.4 328.8 889.8 331.6 888.7 334C884.4 343.7 872.7 348.8 862.2 347.1C851.7 345.3 842.9 337.7 837.8 328.4C833.8 321.1 832.7 313.3 830.8 297.7C829.5 287 829.6 281.1 829 277C829.1 274.5 828.8 272.1 828 269.7C826.5 265.4 823.6 261.2 818.6 257.5C818.2 257.2 817.8 257 817.4 256.7C815.2 253.5 812.4 250.8 809.2 248.7C807.3 247.5 805.2 246.5 803.1 245.6C796.8 243.1 789.5 241.9 783.4 244.8C780.5 246.2 778.2 248.4 776 250.7C774.4 252.4 772.9 254.3 772 256.4C771 258.5 770.7 261 771.4 263.2C769.9 262.6 768.2 263.2 767 264.2C765.9 265.3 765.3 266.8 764.9 268.4C764.5 270.4 764.4 272.5 764.8 274.6C765.2 276.8 766.1 279 767.8 280.5C770.1 282.4 773.4 282.6 776.4 282.3C779.4 281.9 782.4 281.1 785.4 281.3C787.1 281.4 788.9 282 790.3 283.1C791.7 286.1 790.6 289.5 790.6 289.5C790.6 289.5 794.5 285.9 797.5 289.5C800.3 292.9 796.2 305.8 791.3 304.5C791.1 304.3 790.8 304.1 790.6 304.2C787.9 304.9 791.2 334.2 801.4 360.7C807.4 376.3 813.5 391.8 829.3 403.9C841.8 413.4 854.8 416.5 857.8 417.2C862.8 418.3 869.9 419.7 878.9 418.7C895 416.9 908.4 405.1 917.9 391.9C922.7 385.2 926.8 376.8 923.9 369.1C929.9 364.9 933.2 357.8 933.2 350.7Z" fill="url(#paint19_linear_2_2)"/>
<defs>
<radialGradient id="paint0_radial_2_2" cx="0" cy="0" r="1" gradientUnits="userSpaceOnUse" gradientTransform="translate(400.612 258.521) scale(13.8009)">
<stop stop-color="white"/>
<stop offset="0.3561" stop-color="#FBFAFA"/>
<stop offset="0.7743" stop-color="#EEECEC"/>
<stop offset="1" stop-color="#E5E2E1"/>
</radialGradient>
<radialGradient id="paint1_radial_2_2" cx="0" cy="0" r="1" gradientUnits="userSpaceOnUse" gradientTransform="translate(420.545 247.013) scale(13.8008)">
<stop stop-color="white"/>
<stop offset="0.3561" stop-color="#FBFAFA"/>
<stop offset="0.7743" stop-color="#EEECEC"/>
<stop offset="1" stop-color="#E5E2E1"/>
</radialGradient>
<radialGradient id="paint2_radial_2_2" cx="0" cy="0" r="1" gradientUnits="userSpaceOnUse" gradientTransform="translate(441.134 235.126) scale(13.801)">
<stop stop-color="white"/>
<stop offset="0.3561" stop-color="#FBFAFA"/>
<stop offset="0.7743" stop-color="#EEECEC"/>
<stop offset="1" stop-color="#E5E2E1"/>
</radialGradient>
<radialGradient id="paint3_radial_2_2" cx="0" cy="0" r="1" gradientUnits="userSpaceOnUse" gradientTransform="translate(462.066 223.041) scale(13.8008)">
<stop stop-color="white"/>
<stop offset="0.3561" stop-color="#FBFAFA"/>
<stop offset="0.7743" stop-color="#EEECEC"/>
<stop offset="1" stop-color="#E5E2E1"/>
</radialGradient>
<radialGradient id="paint4_radial_2_2" cx="0" cy="0" r="1" gradientUnits="userSpaceOnUse" gradientTransform="translate(481.999 211.532) scale(13.8008)">
<stop stop-color="white"/>
<stop offset="0.3561" stop-color="#FBFAFA"/>
<stop offset="0.7743" stop-color="#EEECEC"/>
<stop offset="1" stop-color="#E5E2E1"/>
</radialGradient>
<radialGradient id="paint5_radial_2_2" cx="0" cy="0" r="1" gradientUnits="userSpaceOnUse" gradientTransform="translate(502.588 199.645) scale(13.8006)">
<stop stop-color="white"/>
<stop offset="0.3561" stop-color="#FBFAFA"/>
<stop offset="0.7743" stop-color="#EEECEC"/>
<stop offset="1" stop-color="#E5E2E1"/>
</radialGradient>
<radialGradient id="paint6_radial_2_2" cx="0" cy="0" r="1" gradientUnits="userSpaceOnUse" gradientTransform="translate(523.097 187.804) scale(13.8008)">
<stop stop-color="white"/>
<stop offset="0.3561" stop-color="#FBFAFA"/>
<stop offset="0.7743" stop-color="#EEECEC"/>
<stop offset="1" stop-color="#E5E2E1"/>
</radialGradient>
<radialGradient id="paint7_radial_2_2" cx="0" cy="0" r="1" gradientUnits="userSpaceOnUse" gradientTransform="translate(543.03 176.296) scale(13.801)">
<stop stop-color="white"/>
<stop offset="0.3561" stop-color="#FBFAFA"/>
<stop offset="0.7743" stop-color="#EEECEC"/>
<stop offset="1" stop-color="#E5E2E1"/>
</radialGradient>
<radialGradient id="paint8_radial_2_2" cx="0" cy="0" r="1" gradientUnits="userSpaceOnUse" gradientTransform="translate(563.619 164.409) scale(13.8009)">
<stop stop-color="white"/>
<stop offset="0.3561" stop-color="#FBFAFA"/>
<stop offset="0.7743" stop-color="#EEECEC"/>
<stop offset="1" stop-color="#E5E2E1"/>
</radialGradient>
<radialGradient id="paint9_radial_2_2" cx="0" cy="0" r="1" gradientUnits="userSpaceOnUse" gradientTransform="translate(584.551 152.324) scale(13.8008)">
<stop stop-color="white"/>
<stop offset="0.3561" stop-color="#FBFAFA"/>
<stop offset="0.7743" stop-color="#EEECEC"/>
<stop offset="1" stop-color="#E5E2E1"/>
</radialGradient>
<radialGradient id="paint10_radial_2_2" cx="0" cy="0" r="1" gradientUnits="userSpaceOnUse" gradientTransform="translate(604.484 140.815) scale(13.8007)">
<stop stop-color="white"/>
<stop offset="0.3561" stop-color="#FBFAFA"/>
<stop offset="0.7743" stop-color="#EEECEC"/>
<stop offset="1" stop-color="#E5E2E1"/>
</radialGradient>
<radialGradient id="paint11_radial_2_2" cx="0" cy="0" r="1" gradientUnits="userSpaceOnUse" gradientTransform="translate(625.074 128.928) scale(13.8008)">
<stop stop-color="white"/>
<stop offset="0.3561" stop-color="#FBFAFA"/>
<stop offset="0.7743" stop-color="#EEECEC"/>
<stop offset="1" stop-color="#E5E2E1"/>
</radialGradient>
<radialGradient id="paint12_radial_2_2" cx="0" cy="0" r="1" gradientUnits="userSpaceOnUse" gradientTransform="translate(645.995 116.849) scale(13.8006)">
<stop stop-color="white"/>
<stop offset="0.3561" stop-color="#FBFAFA"/>
<stop offset="0.7743" stop-color="#EEECEC"/>
<stop offset="1" stop-color="#E5E2E1"/>
</radialGradient>
<radialGradient id="paint13_radial_2_2" cx="0" cy="0" r="1" gradientUnits="userSpaceOnUse" gradientTransform="translate(665.928 105.341) scale(13.801)">
<stop stop-color="white"/>
<stop offset="0.3561" stop-color="#FBFAFA"/>
<stop offset="0.7743" stop-color="#EEECEC"/>
<stop offset="1" stop-color="#E5E2E1"/>
</radialGradient>
<radialGradient id="paint14_radial_2_2" cx="0" cy="0" r="1" gradientUnits="userSpaceOnUse" gradientTransform="translate(686.516 93.4542) scale(13.801)">
<stop stop-color="white"/>
<stop offset="0.3561" stop-color="#FBFAFA"/>
<stop offset="0.7743" stop-color="#EEECEC"/>
<stop offset="1" stop-color="#E5E2E1"/>
</radialGradient>
<radialGradient id="paint15_radial_2_2" cx="0" cy="0" r="1" gradientUnits="userSpaceOnUse" gradientTransform="translate(707.449 81.3689) scale(13.801)">
<stop stop-color="white"/>
<stop offset="0.3561" stop-color="#FBFAFA"/>
<stop offset="0.7743" stop-color="#EEECEC"/>
<stop offset="1" stop-color="#E5E2E1"/>
</radialGradient>
<radialGradient id="paint16_radial_2_2" cx="0" cy="0" r="1" gradientUnits="userSpaceOnUse" gradientTransform="translate(727.382 69.8607) scale(13.8009)">
<stop stop-color="white"/>
<stop offset="0.3561" stop-color="#FBFAFA"/>
<stop offset="0.7743" stop-color="#EEECEC"/>
<stop offset="1" stop-color="#E5E2E1"/>
</radialGradient>
<radialGradient id="paint17_radial_2_2" cx="0" cy="0" r="1" gradientUnits="userSpaceOnUse" gradientTransform="translate(747.971 57.9734) scale(13.8007)">
<stop stop-color="white"/>
<stop offset="0.3561" stop-color="#FBFAFA"/>
<stop offset="0.7743" stop-color="#EEECEC"/>
<stop offset="1" stop-color="#E5E2E1"/>
</radialGradient>
<linearGradient id="paint18_linear_2_2" x1="759.51" y1="420.596" x2="779.44" y2="393.444" gradientUnits="userSpaceOnUse">
<stop offset="0.3068" stop-color="#428FB3"/>
<stop offset="1" stop-color="#3F8CAF"/>
</linearGradient>
<linearGradient id="paint19_linear_2_2" x1="826.725" y1="299.534" x2="922.72" y2="431.527" gradientUnits="userSpaceOnUse">
<stop stop-color="#FFC548"/>
<stop offset="1" stop-color="#FFA148"/>
</linearGradient>
</defs>
</svg>
