<svg width="1152" height="720" viewBox="0 0 1152 720" fill="none" xmlns="http://www.w3.org/2000/svg">
<path d="M886.3 535.8C886.3 608.8 686.1 679.7 518 683.6C332.6 687.8 116.8 612 116.7 536.6C116.5 461.1 332 384.1 518 388C686.4 391.6 886.3 462.9 886.3 535.8Z" fill="#E5E5E5"/>
<path d="M613.2 106.4L809.5 219.8C827.8 209.3 846 198.8 864.3 188.3C799.2 150.9 734.1 113.6 669 76.2C650.4 86.3 631.8 96.4 613.2 106.4Z" fill="#F4F0ED"/>
<path d="M864.2 188.3L613.2 106.4L811.7 232L864.2 188.3Z" fill="#E5E1DF"/>
<path d="M675.1 89.1C675.1 89.1 677.7 90.5 682.3 93.1C684.6 94.4 687.4 95.9 690.5 97.7C692.1 98.6 693.8 99.5 695.6 100.5C697.4 101.5 699.2 102.6 701.2 103.7C716.7 112.6 737.4 124.6 758.1 136.5C778.8 148.4 799.5 160.3 815 169.3C816.9 170.4 818.8 171.5 820.6 172.5C822.3 173.6 824 174.5 825.6 175.5C828.7 177.4 831.4 179 833.7 180.3C838.2 183 840.7 184.5 840.7 184.5C840.7 184.5 838.1 183.1 833.5 180.5C831.2 179.2 828.4 177.7 825.3 175.9C823.7 175 822 174.1 820.2 173.1C818.4 172.1 816.6 171 814.6 169.9C799.1 161 778.4 149 757.7 137.1C737 125.2 716.3 113.3 700.8 104.3C698.9 103.2 697 102.1 695.2 101.1C693.5 100 691.8 99.1 690.2 98.1C687.1 96.2 684.4 94.6 682.1 93.2C677.7 90.6 675.1 89.1 675.1 89.1Z" fill="#A5A5A5"/>
<path d="M646.4 93.8C646.4 93.8 649.4 95.4 654.6 98.3C657.2 99.7 660.4 101.5 664 103.5C665.8 104.5 667.7 105.6 669.8 106.7C671.8 107.9 673.9 109.1 676.1 110.3C693.8 120.5 717.3 134 740.8 147.6C764.3 161.2 787.9 174.7 805.5 184.9C807.7 186.2 809.8 187.4 811.8 188.6C813.8 189.8 815.7 190.9 817.5 192C821.1 194.1 824.2 196 826.7 197.5C831.8 200.5 834.7 202.3 834.7 202.3C834.7 202.3 831.7 200.7 826.5 197.8C823.9 196.4 820.7 194.6 817.1 192.6C815.3 191.6 813.4 190.5 811.3 189.4C809.3 188.3 807.2 187 805 185.8C787.3 175.6 763.8 162.1 740.3 148.5C716.8 134.9 693.2 121.4 675.6 111.2C673.4 109.9 671.3 108.7 669.3 107.6C667.3 106.4 665.4 105.3 663.6 104.2C660 102.1 657 100.2 654.4 98.7C649.3 95.5 646.4 93.8 646.4 93.8Z" fill="#A5A5A5"/>
<path d="M659.5 117.5C659.5 117.5 661.8 118.8 665.9 121C667.9 122.1 670.4 123.5 673.3 125.1C674.7 125.9 676.2 126.7 677.8 127.6C679.4 128.5 681 129.5 682.8 130.5C696.7 138.5 715.2 149.2 733.7 159.8C752.2 170.5 770.7 181.1 784.6 189.1C786.3 190.1 788 191 789.6 192C791.2 192.9 792.6 193.8 794 194.7C796.8 196.4 799.2 197.8 801.2 199.1C805.2 201.5 807.5 202.9 807.5 202.9C807.5 202.9 805.2 201.6 801.1 199.4C799.1 198.3 796.6 196.9 793.7 195.3C792.3 194.5 790.8 193.7 789.2 192.8C787.6 191.9 786 190.9 784.2 189.9C770.3 181.9 751.8 171.2 733.3 160.6C714.8 150 696.3 139.3 682.4 131.3C680.7 130.3 679 129.3 677.4 128.4C675.8 127.5 674.4 126.6 673 125.7C670.2 124 667.8 122.5 665.8 121.3C661.8 118.9 659.5 117.5 659.5 117.5Z" fill="#A5A5A5"/>
<path d="M814.2 372.2C812.7 432.9 811.2 493.7 809.7 554.4C740.7 514.3 671.8 474.3 602.8 434.2C602.7 409.3 602.6 384.5 602.5 359.6C602.1 274.4 601.8 189.3 601.4 104.1C700.3 160 738.6 180.6 753.6 189.3C754.6 189.9 758.3 194 763.6 194C769 198 776.2 202.3 784.5 207.1C793.6 212.3 802.8 218.1 812 223.4C812.9 272.8 813.3 322.7 814.2 372.2Z" fill="url(#paint0_linear_1_2)"/>
<path d="M602.8 434.2L809.4 224.4L601.2 104.2L602.8 434.2Z" fill="#A6E9FF"/>
<path d="M763.6 196.1L602.5 359.6C602.1 274.4 601.8 189.3 601.4 104.1C700.3 160 738.6 181.7 753.6 190.3C754.6 190.9 758.2 193 763.6 196.1Z" fill="#BDEFFF"/>
<path d="M873.3 183.6C870.1 185.3 866.9 187.1 863.6 188.8L668.9 76.2C668.7 72.7 668.4 69.1 668.2 65.6C736.5 104.9 804.9 144.2 873.3 183.6Z" fill="#80CDF2"/>
<path d="M605.7 101.8L809.5 219.8L872.2 183.5L668.1 65.6L672.1 63.3L880.3 183.5L809.5 224.4L601.2 104.2L605.7 101.8Z" fill="#94D7F7"/>
<path d="M809.4 554.4L880.3 513.5V183.5L809.4 224.4V554.4Z" fill="#84CDF0"/>
<path d="M824.2 438C838.9 429.4 853.7 420.8 868.4 412.3C868.4 345.7 868.5 279.2 868.5 212.6C853.7 221.1 838.8 229.6 824 238.2C824.1 304.7 824.2 371.3 824.2 438Z" fill="#D8D5D4"/>
<path d="M809.1 553.8L880 183.5C880 293.5 880 403.4 880 513.4C857 526.8 832.8 540.3 809.1 553.8Z" fill="#80CDF2"/>
<path d="M825.8 437L868.6 412.3V213.4L825.8 238.1V437Z" fill="#F4F0ED"/>
<path d="M864.1 462.8C864.1 467.1 862.9 471.8 861 476.2C857.9 483.3 852.6 489.7 846.6 493.2C836.9 498.8 829 494.3 829 483.1C829 476.2 832 468.4 836.6 462.1C839.4 458.2 842.9 454.9 846.6 452.7C856.2 447.2 864.1 451.7 864.1 462.8Z" fill="#F4F0ED"/>
<path d="M861 476.2C857.9 483.3 852.6 489.7 846.6 493.2C836.9 498.8 829 494.3 829 483.1C829 476.2 832 468.4 836.6 462.1C837.3 473.2 841.7 488.3 861 476.2Z" fill="#C4C4C4"/>
<path d="M846.5 456.6C854.4 452 860.8 455.7 860.8 464.8C860.8 473.9 854.5 484.9 846.6 489.5C838.7 494 832.3 490.4 832.3 481.3C832.2 472.2 838.6 461.1 846.5 456.6Z" fill="#191818"/>
<path d="M860.8 464.8C860.8 473.8 854.4 484.9 846.5 489.5C838.6 494 832.2 490.4 832.2 481.3C832.2 480.6 832.2 479.9 832.3 479.2C833.2 486.8 839.2 489.6 846.5 485.4C853.8 481.2 859.8 471.5 860.6 462.9C860.8 463.4 860.8 464.1 860.8 464.8Z" fill="black"/>
<path d="M860.7 462.8C859.8 471.4 853.8 481.1 846.6 485.3C839.3 489.5 833.3 486.7 832.4 479.1C833.3 470.5 839.3 460.8 846.5 456.6C853.7 452.4 859.8 455.2 860.7 462.8Z" fill="#111010"/>
<path d="M825.3 437.3L868 213.4V413.1L825.3 437.3Z" fill="#E5E1DF"/>
<path d="M393.9 61.2L590.2 174.6C608.5 164.1 626.7 153.6 645 143.1C579.9 105.7 514.8 68.4 449.7 31C431.1 41.1 412.5 51.2 393.9 61.2Z" fill="#F4F0ED"/>
<path d="M645 143.1L393.9 61.2L592.5 186.8L645 143.1Z" fill="#E5E1DF"/>
<path d="M458.4 44.9C458.4 44.9 461 46.3 465.6 48.9C467.9 50.2 470.7 51.7 473.8 53.5C475.4 54.4 477.1 55.3 478.9 56.3C480.7 57.3 482.5 58.4 484.5 59.5C500 68.4 520.7 80.4 541.4 92.3C562.1 104.2 582.8 116.1 598.3 125.1C600.2 126.2 602.1 127.3 603.9 128.3C605.6 129.4 607.3 130.3 608.9 131.3C612 133.2 614.7 134.8 617 136.1C621.5 138.8 624 140.3 624 140.3C624 140.3 621.4 138.9 616.8 136.3C614.5 135 611.7 133.5 608.6 131.7C607 130.8 605.3 129.9 603.5 128.9C601.7 127.9 599.9 126.8 597.9 125.7C582.4 116.8 561.7 104.8 541 92.9C520.3 81 499.5 69.1 484 60.1C482.1 59 480.2 57.9 478.4 56.9C476.7 55.8 475 54.9 473.4 53.9C470.3 52 467.6 50.4 465.3 49C460.9 46.4 458.4 44.9 458.4 44.9Z" fill="#A5A5A5"/>
<path d="M469.3 69.5C469.3 69.5 471.3 70.6 474.9 72.5C476.7 73.5 478.8 74.6 481.3 76C482.5 76.7 483.9 77.4 485.2 78.1C486.6 78.9 488 79.7 489.5 80.6C501.5 87.5 517.5 96.7 533.5 106C549.5 115.2 565.5 124.4 577.5 131.4C579 132.3 580.5 133.1 581.8 133.9C583.1 134.7 584.4 135.5 585.6 136.2C588 137.7 590.1 138.9 591.8 140C595.3 142.1 597.2 143.3 597.2 143.3C597.2 143.3 595.2 142.2 591.6 140.3C589.8 139.3 587.7 138.2 585.2 136.8C584 136.1 582.6 135.4 581.3 134.7C579.9 133.9 578.5 133.1 577 132.2C565 125.3 549 116.1 533 106.8C517 97.6 501 88.4 489 81.4C487.5 80.5 486.1 79.7 484.7 78.9C483.4 78.1 482.1 77.3 480.9 76.6C478.5 75.1 476.4 73.9 474.7 72.8C471.2 70.7 469.3 69.5 469.3 69.5Z" fill="#A5A5A5"/>
<path d="M465.1 90.7C465.1 90.7 466.8 91.6 469.9 93.2C471.4 94 473.2 95 475.3 96.1C476.4 96.7 477.5 97.3 478.6 97.9C479.8 98.6 481 99.3 482.3 100C492.5 105.9 506.1 113.7 519.6 121.5C533.2 129.3 546.8 137.1 556.9 143C558.2 143.7 559.4 144.4 560.5 145.1C561.6 145.8 562.7 146.5 563.7 147.1C565.7 148.3 567.5 149.4 569 150.3C571.9 152.1 573.6 153.1 573.6 153.1C573.6 153.1 571.9 152.2 568.9 150.6C567.4 149.8 565.6 148.8 563.5 147.7C562.4 147.1 561.3 146.5 560.2 145.9C559 145.3 557.8 144.5 556.5 143.8C546.3 137.9 532.7 130.1 519.2 122.3C505.6 114.5 492 106.7 481.9 100.8C480.6 100.1 479.4 99.4 478.2 98.7C477.1 98 476 97.3 475 96.7C473 95.5 471.2 94.4 469.7 93.5C466.8 91.7 465.1 90.7 465.1 90.7Z" fill="#A5A5A5"/>
<path d="M594.9 327C593.4 387.7 591.8 448.4 590.3 509.1C521.4 469.1 452.5 429.1 383.5 389C383.4 364.1 383.3 339.3 383.2 314.4C382.8 229.2 382.5 144.1 382.1 58.9C481 114.8 519.3 135.5 534.3 144.2C535.3 144.8 539 149 544.3 149C549.7 152 556.9 157.2 565.2 162C574.3 167.2 583.5 173 592.7 178.2C593.6 227.6 594.1 277.5 594.9 327Z" fill="url(#paint1_linear_1_2)"/>
<path d="M383.5 389L590.2 179.2L382 59L383.5 389Z" fill="#353433"/>
<path d="M544.3 150.9L383.2 314.4C382.8 229.2 382.5 144.1 382.1 58.9C481 114.8 519.3 136.5 534.3 145.1C535.3 145.7 538.9 147.8 544.3 150.9Z" fill="#414141"/>
<path d="M654.1 138.4C650.9 140.1 647.7 141.9 644.4 143.6L449.6 31C449.4 27.5 449.1 23.9 448.9 20.4C517.3 59.7 585.7 99.1 654.1 138.4Z" fill="#282321"/>
<path d="M386.4 56.6L590.2 174.6L652.9 138.3L448.8 20.4L452.8 18.1L661 138.3L590.2 179.2L382 59L386.4 56.6Z" fill="#3B3E3E"/>
<path d="M590.2 509.2L661 468.3V138.3L590.2 179.2V509.2Z" fill="#383534"/>
<path d="M604.9 392.8C619.6 384.2 634.4 375.6 649.1 367.1C649.1 300.5 649.2 234 649.2 167.4C634.4 175.9 619.5 184.4 604.7 193C604.8 259.5 604.9 326.1 604.9 392.8Z" fill="#D8D5D4"/>
<path d="M590.1 509.1C613.7 385.5 637.3 261.9 660.9 138.3C660.9 248.3 661 358.3 661 468.3C637.4 481.9 613.8 495.5 590.1 509.1Z" fill="#302E2D"/>
<path d="M606.6 391.8L649.3 367.1V168.2L606.6 192.9V391.8Z" fill="#F4F0ED"/>
<path d="M644.8 417.6C644.8 421.9 643.6 426.6 641.7 431C638.6 438.1 633.3 444.5 627.3 448C617.6 453.6 609.7 449.1 609.7 437.9C609.7 431 612.7 423.2 617.3 416.9C620.1 413 623.6 409.7 627.3 407.5C636.9 402 644.8 406.5 644.8 417.6Z" fill="#F4F0ED"/>
<path d="M641.7 431C638.6 438.1 633.3 444.5 627.3 448C617.6 453.6 609.7 449.1 609.7 437.9C609.7 431 612.7 423.2 617.3 416.9C618 428 622.4 443.1 641.7 431Z" fill="#C4C4C4"/>
<path d="M627.2 411.4C635.1 406.8 641.5 410.5 641.5 419.6C641.5 428.7 635.2 439.7 627.3 444.3C619.4 448.8 613 445.2 613 436.1C612.9 427 619.3 415.9 627.2 411.4Z" fill="#191818"/>
<path d="M641.5 419.6C641.5 428.6 635.1 439.7 627.2 444.3C619.3 448.8 612.9 445.2 612.9 436.1C612.9 435.4 612.9 434.7 613 434C613.9 441.6 619.9 444.4 627.2 440.2C634.5 436 640.5 426.3 641.3 417.7C641.5 418.2 641.5 418.9 641.5 419.6Z" fill="black"/>
<path d="M641.4 417.6C640.5 426.2 634.5 435.9 627.3 440.1C620 444.3 614 441.5 613.1 433.9C614 425.3 620 415.6 627.2 411.4C634.5 407.2 640.5 410 641.4 417.6Z" fill="#111010"/>
<path d="M605.3 392.1L648 168.2V367.9L605.3 392.1Z" fill="#E5E1DF"/>
<path d="M394 61.1L590.3 174.5C608.6 164 626.8 153.5 645.1 143C580 105.6 514.9 68.3 449.8 30.9C431.1 41 412.5 51.1 394 61.1Z" fill="#F4F0ED"/>
<path d="M645 143L394 61.1L592.5 186.7L645 143Z" fill="#E5E1DF"/>
<path d="M451.7 39.6C451.7 39.6 454.3 41 458.9 43.6C461.2 44.9 464 46.4 467.1 48.2C468.7 49.1 470.4 50 472.2 51C474 52 475.8 53.1 477.8 54.2C493.3 63.1 514 75.1 534.7 87C555.4 98.9 576.1 110.8 591.6 119.8C593.5 120.9 595.4 122 597.2 123C598.9 124.1 600.6 125 602.2 126C605.3 127.9 608 129.5 610.3 130.8C614.8 133.5 617.3 135 617.3 135C617.3 135 614.7 133.6 610.1 131C607.8 129.7 605 128.2 601.9 126.4C600.3 125.5 598.6 124.6 596.8 123.6C595 122.6 593.2 121.5 591.2 120.4C575.7 111.5 555 99.5 534.3 87.6C513.6 75.7 492.9 63.8 477.4 54.8C475.5 53.7 473.6 52.6 471.8 51.6C470.1 50.5 468.4 49.6 466.8 48.6C463.7 46.7 461 45.1 458.7 43.7C454.3 41.1 451.7 39.6 451.7 39.6Z" fill="#A5A5A5"/>
<path d="M439.3 40.5C439.3 40.5 442.2 42.1 447.3 44.9C449.8 46.3 452.9 48 456.4 50C458.2 51 460 52 462 53.1C464 54.2 466 55.4 468.2 56.6C485.4 66.5 508.3 79.7 531.2 92.9C554.1 106.1 577 119.3 594.2 129.2C596.3 130.4 598.4 131.6 600.4 132.8C602.3 134 604.2 135.1 605.9 136.1C609.4 138.2 612.4 140 614.9 141.5C619.9 144.5 622.7 146.2 622.7 146.2C622.7 146.2 619.8 144.6 614.7 141.8C612.2 140.4 609.1 138.7 605.6 136.7C603.8 135.7 602 134.7 600 133.6C598 132.5 596 131.3 593.8 130.1C576.6 120.2 553.7 107 530.8 93.8C507.9 80.6 485 67.4 467.8 57.5C465.7 56.3 463.6 55.1 461.6 53.9C459.7 52.7 457.8 51.6 456.1 50.6C452.6 48.5 449.6 46.7 447.1 45.2C442.2 42.2 439.3 40.5 439.3 40.5Z" fill="#A5A5A5"/>
<path d="M465 65.4C465 65.4 466.9 66.4 470.1 68.2C471.7 69.1 473.7 70.2 476 71.4C477.1 72 478.4 72.7 479.6 73.4C480.9 74.1 482.2 74.9 483.6 75.7C494.7 82.1 509.4 90.6 524.2 99.1C539 107.6 553.7 116.1 564.8 122.5C566.2 123.3 567.5 124 568.8 124.8C570 125.6 571.2 126.3 572.3 127C574.5 128.4 576.4 129.5 578 130.5C581.2 132.4 583 133.6 583 133.6C583 133.6 581.1 132.6 577.9 130.8C576.3 129.9 574.3 128.8 572 127.6C570.9 127 569.6 126.3 568.4 125.6C567.1 124.9 565.8 124.1 564.4 123.3C553.3 116.9 538.6 108.4 523.8 99.9C509 91.4 494.3 82.9 483.2 76.5C481.8 75.7 480.5 74.9 479.2 74.2C478 73.4 476.8 72.7 475.7 72C473.5 70.6 471.6 69.5 470 68.5C466.8 66.5 465 65.4 465 65.4Z" fill="#A5A5A5"/>
<path d="M438.4 61.2C438.4 61.2 440.6 62.4 444.6 64.6C446.6 65.7 448.9 67 451.7 68.5C453.1 69.2 454.5 70 456.1 70.9C457.6 71.8 459.2 72.7 460.9 73.6C474.2 81.3 491.9 91.5 509.6 101.7C527.3 111.9 545.1 122.1 558.3 129.8C560 130.8 561.6 131.7 563.1 132.6C564.6 133.5 566 134.4 567.3 135.2C570 136.8 572.3 138.2 574.2 139.4C578 141.7 580.2 143 580.2 143C580.2 143 578 141.8 574 139.6C572 138.5 569.7 137.2 566.9 135.7C565.5 135 564.1 134.2 562.5 133.3C561 132.5 559.4 131.5 557.7 130.6C544.4 122.9 526.7 112.7 509 102.5C491.3 92.3 473.5 82.1 460.3 74.4C458.6 73.4 457 72.5 455.5 71.7C454 70.8 452.6 69.9 451.3 69.1C448.6 67.5 446.3 66.1 444.4 64.9C440.6 62.5 438.4 61.2 438.4 61.2Z" fill="#A5A5A5"/>
<path d="M422.5 65.4C422.5 65.4 425.1 66.8 429.6 69.3C431.9 70.5 434.6 72.1 437.7 73.8C439.3 74.7 440.9 75.6 442.7 76.6C444.4 77.6 446.3 78.7 448.2 79.8C463.5 88.6 483.9 100.4 504.3 112.1C524.7 123.9 545.1 135.6 560.4 144.4C562.3 145.5 564.2 146.5 565.9 147.6C567.6 148.6 569.3 149.6 570.8 150.5C573.9 152.3 576.6 154 578.8 155.3C583.2 158 585.7 159.5 585.7 159.5C585.7 159.5 583.1 158.1 578.6 155.6C576.3 154.4 573.6 152.8 570.5 151.1C568.9 150.2 567.3 149.3 565.5 148.3C563.7 147.3 561.9 146.2 560 145.1C544.7 136.3 524.3 124.5 503.9 112.8C483.5 101 463.1 89.3 447.8 80.5C445.9 79.4 444.1 78.3 442.3 77.3C440.6 76.3 438.9 75.3 437.4 74.4C434.3 72.6 431.6 70.9 429.4 69.6C425 66.9 422.5 65.4 422.5 65.4Z" fill="#A5A5A5"/>
<path d="M594.9 326.9C593.3 387.6 591.8 448.4 590.2 509.1C521.3 469 452.4 429 383.5 388.9C383.4 364 383.3 339.2 383.2 314.3C382.8 229.1 382.5 144 382.1 58.8C481 114.7 519.3 135.3 534.3 144C535.3 144.6 539 148.7 544.3 148.7C549.7 152.7 556.9 157 565.2 161.8C574.3 167 583.5 172.8 592.7 178.1C593.6 227.5 594.1 277.4 594.9 326.9Z" fill="url(#paint2_linear_1_2)"/>
<path d="M383.5 388.9L590.2 179.1L382 58.9L383.5 388.9Z" fill="#394A96"/>
<path d="M544.3 150.8L383.2 314.3C382.8 229.1 382.5 144 382.1 58.8C481 114.7 519.3 136.4 534.3 145C535.3 145.6 538.9 147.7 544.3 150.8Z" fill="#3F519E"/>
<path d="M654.1 138.3C650.9 140 647.7 141.8 644.4 143.5L449.6 30.9C449.4 27.4 449.1 23.8 448.9 20.3C517.3 59.6 585.7 98.9 654.1 138.3Z" fill="#344593"/>
<path d="M386.5 56.5L590.2 174.5L653 138.2L448.9 20.3L452.9 18L661.1 138.2L590.2 179.1L382 58.9L386.5 56.5Z" fill="#4757A1"/>
<path d="M590.2 509.1L661.1 468.2V138.2L590.2 179.1V509.1Z" fill="#405099"/>
<path d="M605 392.7C619.7 384.1 634.5 375.5 649.2 367C649.2 300.4 649.3 233.9 649.3 167.3C634.5 175.8 619.6 184.3 604.8 192.9C604.9 259.4 604.9 326 605 392.7Z" fill="#D8D5D4"/>
<path d="M590.2 509.1C613.8 385.5 637.4 261.8 660.9 138.2C660.9 248.2 661 358.2 661 468.2C637.5 481.8 613.8 495.5 590.2 509.1Z" fill="#344593"/>
<path d="M606.6 391.7L649.3 367V168.1L606.6 192.8V391.7Z" fill="#F4F0ED"/>
<path d="M644.9 417.5C644.9 421.8 643.7 426.5 641.8 430.9C638.7 438 633.4 444.4 627.4 447.9C617.7 453.5 609.8 449 609.8 437.8C609.8 430.9 612.8 423.1 617.4 416.8C620.2 412.9 623.7 409.6 627.4 407.4C636.9 401.9 644.8 406.4 644.9 417.5Z" fill="#F4F0ED"/>
<path d="M641.7 430.9C638.6 438 633.3 444.4 627.3 447.9C617.6 453.5 609.7 449 609.7 437.8C609.7 430.9 612.7 423.1 617.3 416.8C618.1 427.9 622.4 443 641.7 430.9Z" fill="#C4C4C4"/>
<path d="M627.2 411.3C635.1 406.7 641.5 410.4 641.5 419.5C641.5 428.6 635.2 439.6 627.3 444.2C619.4 448.7 613 445.1 613 436C613 426.9 619.3 415.8 627.2 411.3Z" fill="#1E3779"/>
<path d="M641.6 419.5C641.6 428.5 635.2 439.6 627.3 444.2C619.4 448.7 613 445.1 613 436C613 435.3 613 434.6 613.1 433.9C614 441.5 620 444.3 627.3 440.1C634.6 435.9 640.6 426.2 641.4 417.6C641.5 418.1 641.6 418.8 641.6 419.5Z" fill="#031F60"/>
<path d="M641.4 417.5C640.5 426.1 634.5 435.8 627.3 440C620 444.2 614 441.4 613.1 433.8C614 425.2 620 415.5 627.2 411.3C634.5 407.1 640.5 409.9 641.4 417.5Z" fill="#031F60"/>
<path d="M605.8 392L648.5 168.1V367.8L605.8 392Z" fill="#E5E1DF"/>
<path d="M393.9 169.2L590.2 282.6C608.5 272.1 626.7 261.6 645 251.1C579.9 213.7 514.8 176.4 449.7 139C431.1 149.1 412.5 159.1 393.9 169.2Z" fill="#F4F0ED"/>
<path d="M645 251.1L393.9 169.2L592.5 294.8L645 251.1Z" fill="#E5E1DF"/>
<path d="M456.6 153.2C456.6 153.2 459.2 154.6 463.8 157.2C466.1 158.5 468.9 160 472 161.8C473.6 162.7 475.3 163.6 477.1 164.6C478.9 165.6 480.7 166.7 482.7 167.8C498.2 176.7 518.9 188.7 539.6 200.6C560.3 212.5 581 224.4 596.5 233.4C598.4 234.5 600.3 235.6 602.1 236.6C603.8 237.7 605.5 238.6 607.1 239.6C610.2 241.5 612.9 243.1 615.2 244.4C619.7 247.1 622.2 248.6 622.2 248.6C622.2 248.6 619.6 247.2 615 244.6C612.7 243.3 609.9 241.8 606.8 240C605.2 239.1 603.5 238.2 601.7 237.2C599.9 236.2 598.1 235.1 596.1 234C580.6 225.1 559.9 213.1 539.2 201.2C518.5 189.3 497.8 177.4 482.3 168.4C480.4 167.3 478.5 166.2 476.7 165.2C475 164.1 473.3 163.2 471.7 162.2C468.6 160.3 465.9 158.7 463.6 157.3C459.2 154.8 456.6 153.2 456.6 153.2Z" fill="#A5A5A5"/>
<path d="M470 179C470 179 471.9 180 475.1 181.8C476.7 182.7 478.7 183.8 481 185C482.1 185.6 483.4 186.3 484.6 187C485.9 187.7 487.2 188.5 488.6 189.3C499.7 195.7 514.4 204.2 529.2 212.7C544 221.2 558.7 229.7 569.8 236.1C571.2 236.9 572.5 237.6 573.8 238.4C575 239.2 576.2 239.9 577.3 240.6C579.5 242 581.4 243.1 583 244.1C586.2 246 588 247.2 588 247.2C588 247.2 586.1 246.2 582.9 244.4C581.3 243.5 579.3 242.4 577 241.2C575.9 240.6 574.6 239.9 573.4 239.2C572.1 238.5 570.8 237.7 569.4 236.9C558.3 230.5 543.6 222 528.8 213.5C514 205 499.3 196.5 488.2 190.1C486.8 189.3 485.5 188.5 484.2 187.8C483 187 481.8 186.3 480.7 185.6C478.5 184.2 476.6 183.1 475 182.1C471.8 180.1 470 179 470 179Z" fill="#A5A5A5"/>
<path d="M439.9 184.3C439.9 184.3 442.1 185.5 446.1 187.7C448.1 188.8 450.4 190.1 453.2 191.6C454.6 192.3 456 193.1 457.6 194C459.1 194.9 460.7 195.8 462.4 196.7C475.7 204.4 493.4 214.6 511.1 224.8C528.8 235 546.6 245.2 559.8 252.9C561.5 253.9 563.1 254.8 564.6 255.7C566.1 256.6 567.5 257.5 568.8 258.3C571.5 259.9 573.8 261.3 575.7 262.5C579.5 264.8 581.7 266.1 581.7 266.1C581.7 266.1 579.5 264.9 575.5 262.7C573.5 261.6 571.2 260.3 568.4 258.8C567 258.1 565.6 257.3 564 256.4C562.5 255.6 560.9 254.6 559.2 253.7C545.9 246 528.2 235.8 510.5 225.6C492.8 215.4 475 205.2 461.8 197.5C460.1 196.5 458.5 195.6 457 194.8C455.5 193.9 454.1 193 452.8 192.2C450.1 190.6 447.8 189.2 445.9 188C442.1 185.7 439.9 184.3 439.9 184.3Z" fill="#A5A5A5"/>
<path d="M594.9 435C593.3 495.7 591.8 556.5 590.2 617.2C521.3 577.1 452.4 537.1 383.5 497C383.4 472.1 383.3 447.3 383.2 422.4C382.8 337.2 382.5 252.1 382.1 166.9C481 222.8 519.3 243.6 534.3 252.2C535.3 252.8 539 257 544.3 257C549.7 261 556.9 265.2 565.2 269.9C574.3 275.1 583.5 280.9 592.7 286.1C593.6 335.6 594.1 385.5 594.9 435Z" fill="url(#paint3_linear_1_2)"/>
<path d="M383.5 497L590.2 287.2L382 167L383.5 497Z" fill="#CAE0FA"/>
<path d="M544.3 258.9L383.2 422.4C382.8 337.2 382.5 252.1 382.1 166.9C481 222.8 519.3 244.5 534.3 253.1C535.3 253.7 538.9 255.8 544.3 258.9Z" fill="#E3F0FC"/>
<path d="M654.1 246.3C650.9 248 647.7 249.8 644.4 251.5L449.6 139C449.4 135.5 449.1 131.9 448.9 128.4C517.3 167.7 585.7 207 654.1 246.3Z" fill="#C7E1FF"/>
<path d="M386.4 164.6L590.2 282.5L652.9 246.3L448.8 128.4L452.8 126.1L661 246.3L590.2 287.2L382 167L386.4 164.6Z" fill="#CDE1F7"/>
<path d="M590.2 617.2L661 576.3V246.3L590.2 287.2V617.2Z" fill="#C7E1FF"/>
<path d="M661.1 576.3C661.1 503 661 429.8 661 356.5V357V246H660.9C660.9 246 660.8 246.8 660.6 247.7C637.1 370.8 613.6 494 590.2 617.1C613.8 603.5 637.4 589.9 661.1 576.3Z" fill="#ADD4FF"/>
<path d="M604.9 500.7C619.6 492.1 634.4 483.5 649.1 475C649.1 408.4 649.2 341.9 649.2 275.3C634.4 283.8 619.5 292.3 604.7 300.9C604.8 367.5 604.9 434.1 604.9 500.7Z" fill="#D8D5D4"/>
<path d="M606.6 499.7L649.3 475.1V276.2L606.6 300.8V499.7Z" fill="#F4F0ED"/>
<path d="M644.8 525.6C644.8 529.9 643.6 534.6 641.7 539C638.6 546.1 633.3 552.5 627.3 556C617.6 561.6 609.7 557.1 609.7 545.9C609.7 539 612.7 531.2 617.3 524.9C620.1 521 623.6 517.7 627.3 515.5C636.9 509.9 644.8 514.4 644.8 525.6Z" fill="#F4F0ED"/>
<path d="M641.7 539C638.6 546.1 633.3 552.5 627.3 556C617.6 561.6 609.7 557.1 609.7 545.9C609.7 539 612.7 531.2 617.3 524.9C618 536 622.4 551.1 641.7 539Z" fill="#C4C4C4"/>
<path d="M627.2 519.4C635.1 514.8 641.5 518.5 641.5 527.6C641.5 536.7 635.2 547.7 627.3 552.3C619.4 556.8 613 553.2 613 544.1C612.9 535 619.3 523.9 627.2 519.4Z" fill="#191818"/>
<path d="M641.5 527.5C641.5 536.5 635.1 547.6 627.2 552.2C619.3 556.7 612.9 553.1 612.9 544C612.9 543.3 612.9 542.6 613 541.9C613.9 549.5 619.9 552.3 627.2 548.1C634.5 543.9 640.5 534.2 641.3 525.6C641.5 526.2 641.5 526.8 641.5 527.5Z" fill="black"/>
<path d="M641.4 525.5C640.5 534.1 634.5 543.8 627.3 548C620 552.2 614 549.4 613.1 541.8C614 533.2 620 523.5 627.2 519.3C634.5 515.1 640.5 517.9 641.4 525.5Z" fill="#111010"/>
<path d="M605.3 500.1L648 276.2V475.9L605.3 500.1Z" fill="#E5E1DF"/>
<path d="M205.6 141.6L401.9 255C420.2 244.5 438.4 234 456.7 223.5C391.6 186.1 326.5 148.8 261.4 111.4C242.8 121.4 224.2 131.5 205.6 141.6Z" fill="#F4F0ED"/>
<path d="M456.6 223.4L205.6 141.6L404.1 267.2L456.6 223.4Z" fill="#E5E1DF"/>
<path d="M271.1 126.4C271.1 126.4 273.7 127.8 278.3 130.4C280.6 131.7 283.4 133.2 286.5 135C288.1 135.9 289.8 136.8 291.6 137.8C293.4 138.8 295.2 139.9 297.2 141C312.7 149.9 333.4 161.9 354.1 173.8C374.8 185.7 395.5 197.6 411 206.6C412.9 207.7 414.8 208.8 416.6 209.8C418.3 210.9 420 211.8 421.6 212.8C424.7 214.7 427.4 216.3 429.7 217.6C434.2 220.3 436.7 221.8 436.7 221.8C436.7 221.8 434.1 220.4 429.5 217.8C427.2 216.5 424.4 215 421.3 213.2C419.7 212.3 418 211.4 416.2 210.4C414.4 209.4 412.6 208.3 410.6 207.2C395.1 198.3 374.4 186.3 353.7 174.4C333 162.5 312.3 150.6 296.8 141.6C294.9 140.5 293 139.4 291.2 138.4C289.5 137.3 287.8 136.4 286.2 135.4C283.1 133.5 280.4 131.9 278.1 130.5C273.7 127.9 271.1 126.4 271.1 126.4Z" fill="#A5A5A5"/>
<path d="M284.4 152.2C284.4 152.2 286.3 153.2 289.5 155C291.1 155.9 293.1 157 295.4 158.2C296.5 158.8 297.8 159.5 299 160.2C300.3 160.9 301.6 161.7 303 162.5C314.1 168.9 328.8 177.4 343.6 185.9C358.4 194.4 373.1 202.9 384.2 209.3C385.6 210.1 386.9 210.8 388.2 211.6C389.4 212.4 390.6 213.1 391.7 213.8C393.9 215.2 395.8 216.3 397.4 217.3C400.6 219.2 402.4 220.4 402.4 220.4C402.4 220.4 400.5 219.4 397.3 217.6C395.7 216.7 393.7 215.6 391.4 214.4C390.3 213.8 389 213.1 387.8 212.4C386.5 211.7 385.2 210.9 383.8 210.1C372.7 203.7 358 195.2 343.2 186.7C328.4 178.2 313.7 169.7 302.6 163.3C301.2 162.5 299.9 161.7 298.6 161C297.4 160.2 296.2 159.5 295.1 158.8C292.9 157.4 291 156.3 289.4 155.3C286.2 153.3 284.4 152.2 284.4 152.2Z" fill="#A5A5A5"/>
<path d="M257.8 147.9C257.8 147.9 260 149.1 264 151.3C266 152.4 268.3 153.7 271.1 155.2C272.5 155.9 273.9 156.7 275.5 157.6C277 158.5 278.6 159.4 280.3 160.3C293.6 168 311.3 178.2 329 188.4C346.7 198.6 364.5 208.8 377.7 216.5C379.4 217.5 381 218.4 382.5 219.3C384 220.2 385.4 221.1 386.7 221.9C389.4 223.5 391.7 224.9 393.6 226.1C397.4 228.4 399.6 229.7 399.6 229.7C399.6 229.7 397.4 228.5 393.4 226.3C391.4 225.2 389.1 223.9 386.3 222.4C384.9 221.7 383.5 220.9 381.9 220C380.4 219.2 378.8 218.2 377.1 217.3C363.8 209.6 346.1 199.4 328.4 189.2C310.7 179 292.9 168.8 279.7 161.1C278 160.1 276.4 159.2 274.9 158.4C273.4 157.5 272 156.6 270.7 155.8C268 154.2 265.7 152.8 263.8 151.6C260 149.2 257.8 147.9 257.8 147.9Z" fill="#A5A5A5"/>
<path d="M241.9 152.2C241.9 152.2 244.5 153.6 249 156.1C251.3 157.3 254 158.9 257.1 160.6C258.7 161.5 260.3 162.4 262.1 163.4C263.8 164.4 265.7 165.5 267.6 166.6C282.9 175.4 303.3 187.2 323.7 198.9C344.1 210.7 364.5 222.4 379.8 231.2C381.7 232.3 383.6 233.3 385.3 234.4C387 235.4 388.7 236.4 390.2 237.3C393.3 239.1 396 240.8 398.2 242.1C402.6 244.8 405.1 246.3 405.1 246.3C405.1 246.3 402.5 244.9 398 242.4C395.7 241.2 393 239.6 389.9 237.9C388.3 237 386.7 236.1 384.9 235.1C383.1 234.1 381.3 233 379.4 231.9C364.1 223.1 343.7 211.3 323.3 199.6C302.9 187.9 282.5 176.1 267.2 167.3C265.3 166.2 263.5 165.1 261.7 164.1C260 163.1 258.3 162.1 256.8 161.2C253.7 159.4 251 157.7 248.8 156.4C244.4 153.7 241.9 152.2 241.9 152.2Z" fill="#A5A5A5"/>
<path d="M406.6 407.3C405.1 468 403.5 528.7 402 589.4C333.1 549.4 264.1 509.4 195.2 469.3C195.1 444.4 195 419.6 194.9 394.7C194.5 309.5 194.2 224.4 193.8 139.2C292.7 195.1 331 216.2 346 224.8C347 225.4 350.7 229.9 356 229.9C361.4 232.9 368.6 237.7 376.9 242.5C386 247.7 395.2 253.3 404.4 258.5C405.3 308.1 405.7 357.9 406.6 407.3Z" fill="url(#paint4_linear_1_2)"/>
<path d="M195.2 469.4L401.8 259.6L193.6 139.4L195.2 469.4Z" fill="#353433"/>
<path d="M356 231.2L194.9 394.8C194.5 309.6 194.2 224.5 193.8 139.3C292.7 195.2 331 216.9 346 225.5C347 226.1 350.6 228.1 356 231.2Z" fill="#414141"/>
<path d="M465.7 218.7C462.5 220.4 459.3 222.2 456 223.9L261.3 111.4C261.1 107.9 260.8 104.3 260.6 100.8C328.9 140.1 397.3 179.4 465.7 218.7Z" fill="#282321"/>
<path d="M198.1 137L401.9 254.9L464.6 218.7L260.5 100.8L264.5 98.5L472.7 218.7L401.9 259.6L193.6 139.4L198.1 137Z" fill="#3B3E3E"/>
<path d="M401.8 589.6L472.7 548.6V218.7L401.8 259.6V589.6Z" fill="#383534"/>
<path d="M416.6 473.1C431.3 464.5 446.1 455.9 460.8 447.4C460.8 380.8 460.9 314.3 460.9 247.7C446.1 256.2 431.2 264.7 416.4 273.3C416.5 339.9 416.6 406.5 416.6 473.1Z" fill="#D8D5D4"/>
<path d="M401.9 589.4C425.5 465.8 449 342.2 472.6 218.6C472.6 328.6 472.7 438.5 472.7 548.5C449.1 562.2 425.5 575.8 401.9 589.4Z" fill="#302E2D"/>
<path d="M418.2 472.1L460.9 447.5V248.6L418.2 273.2V472.1Z" fill="#F4F0ED"/>
<path d="M456.5 498C456.5 502.3 455.3 507 453.4 511.4C450.3 518.5 445 524.9 439 528.4C429.3 534 421.4 529.5 421.4 518.3C421.4 511.4 424.4 503.6 429 497.3C431.8 493.4 435.3 490.1 439 487.9C448.6 482.3 456.5 486.8 456.5 498Z" fill="#F4F0ED"/>
<path d="M453.4 511.4C450.3 518.5 445 524.9 439 528.4C429.3 534 421.4 529.5 421.4 518.3C421.4 511.4 424.4 503.6 429 497.3C429.7 508.3 434.1 523.5 453.4 511.4Z" fill="#C4C4C4"/>
<path d="M438.9 491.7C446.8 487.1 453.2 490.8 453.2 499.9C453.2 509 446.9 520 439 524.6C431.1 529.1 424.7 525.5 424.7 516.4C424.6 507.3 431 496.3 438.9 491.7Z" fill="#191818"/>
<path d="M453.2 499.9C453.2 508.9 446.8 520 438.9 524.6C431 529.1 424.6 525.5 424.6 516.4C424.6 515.7 424.6 515 424.7 514.3C425.6 521.9 431.6 524.7 438.9 520.5C446.2 516.3 452.2 506.6 453 498C453.2 498.5 453.2 499.2 453.2 499.9Z" fill="black"/>
<path d="M453.1 497.9C452.2 506.5 446.2 516.2 439 520.4C431.7 524.6 425.7 521.8 424.8 514.2C425.7 505.6 431.7 495.9 438.9 491.7C446.1 487.5 452.2 490.3 453.1 497.9Z" fill="#111010"/>
<path d="M417.3 472.5L460 248.6V448.2L417.3 472.5Z" fill="#E5E1DF"/>
<path d="M205 141.1L401.3 254.5C419.6 244 437.8 233.5 456.1 223C391 185.6 325.9 148.3 260.8 110.9C242.1 121 223.5 131.1 205 141.1Z" fill="#F4F0ED"/>
<path d="M456 223L205 141.1L403.5 266.7L456 223Z" fill="#E5E1DF"/>
<path d="M262.7 119.6C262.7 119.6 265.3 121 269.9 123.6C272.2 124.9 275 126.4 278.1 128.2C279.7 129.1 281.4 130 283.2 131C285 132 286.8 133.1 288.8 134.2C304.3 143.1 325 155.1 345.7 167C366.4 178.9 387.1 190.8 402.6 199.8C404.5 200.9 406.4 202 408.2 203C409.9 204.1 411.6 205 413.2 206C416.3 207.9 419 209.5 421.3 210.8C425.8 213.5 428.3 215 428.3 215C428.3 215 425.7 213.6 421.1 211C418.8 209.7 416 208.2 412.9 206.4C411.3 205.5 409.6 204.6 407.8 203.6C406 202.6 404.2 201.5 402.2 200.4C386.7 191.5 366 179.5 345.3 167.6C324.6 155.7 303.9 143.8 288.4 134.8C286.5 133.7 284.6 132.6 282.8 131.6C281.1 130.5 279.4 129.6 277.8 128.6C274.7 126.7 272 125.1 269.7 123.7C265.3 121.1 262.7 119.6 262.7 119.6Z" fill="#A5A5A5"/>
<path d="M250.3 120.5C250.3 120.5 253.2 122.1 258.3 124.9C260.8 126.3 263.9 128 267.4 130C269.2 131 271 132 273 133.1C275 134.2 277 135.4 279.2 136.6C296.4 146.5 319.3 159.7 342.2 172.9C365.1 186.1 388 199.3 405.2 209.2C407.3 210.4 409.4 211.6 411.4 212.8C413.3 214 415.2 215.1 416.9 216.1C420.4 218.2 423.4 220 425.9 221.5C430.9 224.5 433.7 226.2 433.7 226.2C433.7 226.2 430.8 224.6 425.7 221.8C423.2 220.4 420.1 218.7 416.6 216.7C414.8 215.7 413 214.7 411 213.6C409 212.5 407 211.3 404.8 210.1C387.6 200.2 364.7 187 341.8 173.8C318.9 160.6 296 147.4 278.8 137.5C276.7 136.3 274.6 135.1 272.6 133.9C270.7 132.7 268.8 131.6 267.1 130.6C263.6 128.5 260.6 126.7 258.1 125.2C253.2 122.2 250.3 120.5 250.3 120.5Z" fill="#A5A5A5"/>
<path d="M276 145.4C276 145.4 277.9 146.4 281.1 148.2C282.7 149.1 284.7 150.2 287 151.4C288.1 152 289.4 152.7 290.6 153.4C291.9 154.1 293.2 154.9 294.6 155.7C305.7 162.1 320.4 170.6 335.2 179.1C350 187.6 364.7 196.1 375.8 202.5C377.2 203.3 378.5 204 379.8 204.8C381 205.6 382.2 206.3 383.3 207C385.5 208.4 387.4 209.5 389 210.5C392.2 212.4 394 213.6 394 213.6C394 213.6 392.1 212.6 388.9 210.8C387.3 209.9 385.3 208.8 383 207.6C381.9 207 380.6 206.3 379.4 205.6C378.1 204.9 376.8 204.1 375.4 203.3C364.3 196.9 349.6 188.4 334.8 179.9C320 171.4 305.3 162.9 294.2 156.5C292.8 155.7 291.5 154.9 290.2 154.2C289 153.4 287.8 152.7 286.7 152C284.5 150.6 282.6 149.5 281 148.5C277.8 146.5 276 145.4 276 145.4Z" fill="#A5A5A5"/>
<path d="M249.4 141.2C249.4 141.2 251.6 142.4 255.6 144.6C257.6 145.7 259.9 147 262.7 148.5C264.1 149.2 265.5 150 267.1 150.9C268.6 151.8 270.2 152.7 271.9 153.6C285.2 161.3 302.9 171.5 320.6 181.7C338.3 191.9 356.1 202.1 369.3 209.8C371 210.8 372.6 211.7 374.1 212.6C375.6 213.5 377 214.4 378.3 215.2C381 216.8 383.3 218.2 385.2 219.4C389 221.7 391.2 223 391.2 223C391.2 223 389 221.8 385 219.6C383 218.5 380.7 217.2 377.9 215.7C376.5 215 375.1 214.2 373.5 213.3C372 212.5 370.4 211.5 368.7 210.6C355.4 202.9 337.7 192.7 320 182.5C302.3 172.3 284.5 162.1 271.3 154.4C269.6 153.4 268 152.5 266.5 151.7C265 150.8 263.6 149.9 262.3 149.1C259.6 147.5 257.3 146.1 255.4 144.9C251.6 142.5 249.4 141.2 249.4 141.2Z" fill="#A5A5A5"/>
<path d="M233.5 145.4C233.5 145.4 236.1 146.8 240.6 149.3C242.9 150.5 245.6 152.1 248.7 153.8C250.3 154.7 251.9 155.6 253.7 156.6C255.4 157.6 257.3 158.7 259.2 159.8C274.5 168.6 294.9 180.4 315.3 192.1C335.7 203.9 356.1 215.6 371.4 224.4C373.3 225.5 375.2 226.5 376.9 227.6C378.6 228.6 380.3 229.6 381.8 230.5C384.9 232.3 387.6 234 389.8 235.3C394.2 238 396.7 239.5 396.7 239.5C396.7 239.5 394.1 238.1 389.6 235.6C387.3 234.4 384.6 232.8 381.5 231.1C379.9 230.2 378.3 229.3 376.5 228.3C374.7 227.3 372.9 226.2 371 225.1C355.7 216.3 335.3 204.5 314.9 192.8C294.5 181 274.1 169.3 258.8 160.5C256.9 159.4 255.1 158.3 253.3 157.3C251.6 156.3 249.9 155.3 248.4 154.4C245.3 152.6 242.6 150.9 240.4 149.6C236 146.9 233.5 145.4 233.5 145.4Z" fill="#A5A5A5"/>
<path d="M405.9 406.9C404.3 467.6 402.8 528.4 401.2 589.1C332.3 549 263.4 509 194.5 468.9C194.4 444 194.3 419.2 194.2 394.3C193.8 309.1 193.5 224 193.1 138.8C292 194.7 330.3 215.3 345.3 224C346.3 224.6 350 228.7 355.3 228.7C360.7 232.7 367.9 237 376.2 241.8C385.3 247 394.5 252.8 403.7 258.1C404.6 307.5 405.1 357.4 405.9 406.9Z" fill="url(#paint5_linear_1_2)"/>
<path d="M194.5 468.9L401.2 259.1L193 138.9L194.5 468.9Z" fill="#394A96"/>
<path d="M355.3 230.8L194.2 394.3C193.8 309.1 193.5 224 193.1 138.8C292 194.7 330.3 216.4 345.3 225C346.3 225.6 349.9 227.7 355.3 230.8Z" fill="#3F519E"/>
<path d="M465.1 218.3C461.9 220 458.7 221.8 455.4 223.5L260.6 110.9C260.4 107.4 260.1 103.8 259.9 100.3C328.3 139.6 396.7 178.9 465.1 218.3Z" fill="#344593"/>
<path d="M197.5 136.5L401.2 254.5L464 218.2L259.9 100.3L263.9 98L472.1 218.2L401.2 259.1L193 138.9L197.5 136.5Z" fill="#4757A1"/>
<path d="M401.2 589.1L472.1 548.2V218.2L401.2 259.1V589.1Z" fill="#405099"/>
<path d="M416 472.7C430.7 464.1 445.5 455.5 460.2 447C460.2 380.4 460.3 313.9 460.3 247.3C445.5 255.8 430.6 264.3 415.8 272.9C415.9 339.4 415.9 406 416 472.7Z" fill="#D8D5D4"/>
<path d="M401.2 589.1C424.8 465.5 448.4 341.8 471.9 218.2C471.9 328.2 472 438.2 472 548.2C448.5 561.8 424.8 575.5 401.2 589.1Z" fill="#344593"/>
<path d="M417.6 471.7L460.3 447V248.1L417.6 272.8V471.7Z" fill="#F4F0ED"/>
<path d="M455.9 497.5C455.9 501.8 454.7 506.5 452.8 510.9C449.7 518 444.4 524.4 438.4 527.9C428.7 533.5 420.8 529 420.8 517.8C420.8 510.9 423.8 503.1 428.4 496.8C431.2 492.9 434.7 489.6 438.4 487.4C447.9 481.9 455.8 486.4 455.9 497.5Z" fill="#F4F0ED"/>
<path d="M452.7 510.9C449.6 518 444.3 524.4 438.3 527.9C428.6 533.5 420.7 529 420.7 517.8C420.7 510.9 423.7 503.1 428.3 496.8C429.1 507.9 433.4 523 452.7 510.9Z" fill="#C4C4C4"/>
<path d="M438.2 491.3C446.1 486.7 452.5 490.4 452.5 499.5C452.5 508.6 446.2 519.6 438.3 524.2C430.4 528.7 424 525.1 424 516C424 506.9 430.3 495.8 438.2 491.3Z" fill="#1E3779"/>
<path d="M452.6 499.5C452.6 508.5 446.2 519.6 438.3 524.2C430.4 528.7 424 525.1 424 516C424 515.3 424 514.6 424.1 513.9C425 521.5 431 524.3 438.3 520.1C445.6 515.9 451.6 506.2 452.4 497.6C452.5 498.1 452.6 498.8 452.6 499.5Z" fill="black"/>
<path d="M452.4 497.5C451.5 506.1 445.5 515.8 438.3 520C431 524.2 425 521.4 424.1 513.8C425 505.2 431 495.5 438.2 491.3C445.5 487.1 451.5 489.9 452.4 497.5Z" fill="black"/>
<path d="M416.8 472L459.5 248.1V447.8L416.8 472Z" fill="#E5E1DF"/>
<path d="M134.5 183.4L330.8 296.8C349.1 286.3 367.3 275.8 385.6 265.3C320.5 227.9 255.4 190.6 190.3 153.2C171.6 163.3 153 173.4 134.5 183.4Z" fill="#F4F0ED"/>
<path d="M385.5 265.3L134.5 183.4L333 309L385.5 265.3Z" fill="#E5E1DF"/>
<path d="M192.2 161.9C192.2 161.9 194.8 163.3 199.4 165.9C201.7 167.2 204.5 168.7 207.6 170.5C209.2 171.4 210.9 172.3 212.7 173.3C214.5 174.3 216.3 175.4 218.3 176.5C233.8 185.4 254.5 197.4 275.2 209.3C295.9 221.2 316.6 233.1 332.1 242.1C334 243.2 335.9 244.3 337.7 245.3C339.4 246.4 341.1 247.3 342.7 248.3C345.8 250.2 348.5 251.8 350.8 253.1C355.3 255.8 357.8 257.3 357.8 257.3C357.8 257.3 355.2 255.9 350.6 253.3C348.3 252 345.5 250.5 342.4 248.7C340.8 247.8 339.1 246.9 337.3 245.9C335.5 244.9 333.7 243.8 331.7 242.7C316.2 233.8 295.5 221.8 274.8 209.9C254.1 198 233.4 186.1 217.9 177.1C216 176 214.1 174.9 212.3 173.9C210.6 172.8 208.9 171.9 207.3 170.9C204.2 169 201.5 167.4 199.2 166C194.8 163.4 192.2 161.9 192.2 161.9Z" fill="#A5A5A5"/>
<path d="M179.8 162.8C179.8 162.8 182.7 164.4 187.8 167.2C190.3 168.6 193.4 170.3 196.9 172.3C198.7 173.3 200.5 174.3 202.5 175.4C204.5 176.5 206.5 177.7 208.7 178.9C225.9 188.8 248.8 202 271.7 215.2C294.6 228.4 317.5 241.6 334.7 251.5C336.8 252.7 338.9 253.9 340.9 255.1C342.8 256.3 344.7 257.4 346.4 258.4C349.9 260.5 352.9 262.3 355.4 263.8C360.4 266.8 363.2 268.5 363.2 268.5C363.2 268.5 360.3 266.9 355.2 264.1C352.7 262.7 349.6 261 346.1 259C344.3 258 342.5 257 340.5 255.9C338.5 254.8 336.5 253.6 334.3 252.4C317.1 242.5 294.2 229.3 271.3 216.1C248.4 202.9 225.5 189.7 208.3 179.8C206.2 178.6 204.1 177.4 202.1 176.2C200.2 175 198.3 173.9 196.6 172.9C193.1 170.8 190.1 169 187.6 167.5C182.7 164.5 179.8 162.8 179.8 162.8Z" fill="#A5A5A5"/>
<path d="M205.5 187.7C205.5 187.7 207.4 188.7 210.6 190.5C212.2 191.4 214.2 192.5 216.5 193.7C217.6 194.3 218.9 195 220.1 195.7C221.4 196.4 222.7 197.2 224.1 198C235.2 204.4 249.9 212.9 264.7 221.4C279.5 229.9 294.2 238.4 305.3 244.8C306.7 245.6 308 246.3 309.3 247.1C310.5 247.9 311.7 248.6 312.8 249.3C315 250.7 316.9 251.8 318.5 252.8C321.7 254.7 323.5 255.9 323.5 255.9C323.5 255.9 321.6 254.9 318.4 253.1C316.8 252.2 314.8 251.1 312.5 249.9C311.4 249.3 310.1 248.6 308.9 247.9C307.6 247.2 306.3 246.4 304.9 245.6C293.8 239.2 279.1 230.7 264.3 222.2C249.5 213.7 234.8 205.2 223.7 198.8C222.3 198 221 197.2 219.7 196.5C218.5 195.7 217.3 195 216.2 194.3C214 192.9 212.1 191.8 210.5 190.8C207.3 188.8 205.5 187.7 205.5 187.7Z" fill="#A5A5A5"/>
<path d="M178.9 183.5C178.9 183.5 181.1 184.7 185.1 186.9C187.1 188 189.4 189.3 192.2 190.8C193.6 191.5 195 192.3 196.6 193.2C198.1 194.1 199.7 195 201.4 195.9C214.7 203.6 232.4 213.8 250.1 224C267.8 234.2 285.6 244.4 298.8 252.1C300.5 253.1 302.1 254 303.6 254.9C305.1 255.8 306.5 256.7 307.8 257.5C310.5 259.1 312.8 260.5 314.7 261.7C318.5 264 320.7 265.3 320.7 265.3C320.7 265.3 318.5 264.1 314.5 261.9C312.5 260.8 310.2 259.5 307.4 258C306 257.3 304.6 256.5 303 255.6C301.5 254.8 299.9 253.8 298.2 252.9C284.9 245.2 267.2 235 249.5 224.8C231.8 214.6 214 204.4 200.8 196.7C199.1 195.7 197.5 194.8 196 194C194.5 193.1 193.1 192.2 191.8 191.4C189.1 189.8 186.8 188.4 184.9 187.2C181.1 184.8 178.9 183.5 178.9 183.5Z" fill="#A5A5A5"/>
<path d="M163 187.7C163 187.7 165.6 189.1 170.1 191.6C172.4 192.8 175.1 194.4 178.2 196.1C179.8 197 181.4 197.9 183.2 198.9C184.9 199.9 186.8 201 188.7 202.1C204 210.9 224.4 222.7 244.8 234.4C265.2 246.2 285.6 257.9 300.9 266.7C302.8 267.8 304.7 268.8 306.4 269.9C308.1 270.9 309.8 271.9 311.3 272.8C314.4 274.6 317.1 276.3 319.3 277.6C323.7 280.3 326.2 281.8 326.2 281.8C326.2 281.8 323.6 280.4 319.1 277.9C316.8 276.7 314.1 275.1 311 273.4C309.4 272.5 307.8 271.6 306 270.6C304.2 269.6 302.4 268.5 300.5 267.4C285.2 258.6 264.8 246.8 244.4 235.1C224 223.3 203.6 211.6 188.3 202.8C186.4 201.7 184.6 200.6 182.8 199.6C181.1 198.6 179.4 197.6 177.9 196.7C174.8 194.9 172.1 193.2 169.9 191.9C165.5 189.2 163 187.7 163 187.7Z" fill="#A5A5A5"/>
<path d="M335.4 449.2C333.8 509.9 332.3 570.7 330.7 631.4C261.8 591.3 192.9 551.3 124 511.2C123.9 486.3 123.8 461.5 123.7 436.6C123.3 351.4 123 266.3 122.6 181.1C221.5 237 259.8 257.6 274.8 266.3C275.8 266.9 279.5 271 284.8 271C290.2 275 297.4 279.3 305.7 284.1C314.8 289.3 324 295.1 333.2 300.4C334.1 349.8 334.6 399.7 335.4 449.2Z" fill="url(#paint6_linear_1_2)"/>
<path d="M124 511.2L330.7 301.4L122.5 181.2L124 511.2Z" fill="#394A96"/>
<path d="M284.8 273.1L123.7 436.6C123.3 351.4 123 266.3 122.6 181.1C221.5 237 259.8 258.7 274.8 267.3C275.8 267.9 279.4 270 284.8 273.1Z" fill="#3F519E"/>
<path d="M394.6 260.6C391.4 262.3 388.2 264.1 384.9 265.8L190.1 153.2C189.9 149.7 189.6 146.1 189.4 142.6C257.8 181.9 326.2 221.2 394.6 260.6Z" fill="#344593"/>
<path d="M127 178.8L330.7 296.8L393.5 260.5L189.4 142.6L193.4 140.3L401.6 260.5L330.7 301.4L122.5 181.2L127 178.8Z" fill="#4757A1"/>
<path d="M330.7 631.4L401.6 590.5V260.5L330.7 301.4V631.4Z" fill="#405099"/>
<path d="M345.5 515C360.2 506.4 375 497.8 389.7 489.3C389.7 422.7 389.8 356.2 389.8 289.6C375 298.1 360.1 306.6 345.3 315.2C345.4 381.7 345.4 448.3 345.5 515Z" fill="#D8D5D4"/>
<path d="M330.7 631.4C354.3 507.8 377.9 384.1 401.4 260.5C401.4 370.5 401.5 480.5 401.5 590.5C378 604.1 354.3 617.8 330.7 631.4Z" fill="#344593"/>
<path d="M347.1 514L389.8 489.3V290.4L347.1 315.1V514Z" fill="#F4F0ED"/>
<path d="M385.4 539.8C385.4 544.1 384.2 548.8 382.3 553.2C379.2 560.3 373.9 566.7 367.9 570.2C358.2 575.8 350.3 571.3 350.3 560.1C350.3 553.2 353.3 545.4 357.9 539.1C360.7 535.2 364.2 531.9 367.9 529.7C377.4 524.2 385.3 528.7 385.4 539.8Z" fill="#F4F0ED"/>
<path d="M382.2 553.2C379.1 560.3 373.8 566.7 367.8 570.2C358.1 575.8 350.2 571.3 350.2 560.1C350.2 553.2 353.2 545.4 357.8 539.1C358.6 550.2 362.9 565.3 382.2 553.2Z" fill="#C4C4C4"/>
<path d="M367.7 533.6C375.6 529 382 532.7 382 541.8C382 550.9 375.7 561.9 367.8 566.5C359.9 571 353.5 567.4 353.5 558.3C353.5 549.2 359.8 538.1 367.7 533.6Z" fill="#1E3779"/>
<path d="M382.1 541.8C382.1 550.8 375.7 561.9 367.8 566.5C359.9 571 353.5 567.4 353.5 558.3C353.5 557.6 353.5 556.9 353.6 556.2C354.5 563.8 360.5 566.6 367.8 562.4C375.1 558.2 381.1 548.5 381.9 539.9C382 540.4 382.1 541.1 382.1 541.8Z" fill="#031F60"/>
<path d="M381.9 539.8C381 548.4 375 558.1 367.8 562.3C360.5 566.5 354.5 563.7 353.6 556.1C354.5 547.5 360.5 537.8 367.7 533.6C375 529.4 381 532.2 381.9 539.8Z" fill="#031F60"/>
<path d="M346.3 514.3L389 290.4V490.1L346.3 514.3Z" fill="#E5E1DF"/>
<path d="M134.5 183.4L330.8 296.8C349.1 286.3 367.3 275.8 385.6 265.3C320.5 227.9 255.4 190.6 190.3 153.2C171.6 163.3 153 173.4 134.5 183.4Z" fill="#F4F0ED"/>
<path d="M385.5 265.3L134.5 183.4L333 309L385.5 265.3Z" fill="#E5E1DF"/>
<path d="M192.2 161.9C192.2 161.9 194.8 163.3 199.4 165.9C201.7 167.2 204.5 168.7 207.6 170.5C209.2 171.4 210.9 172.3 212.7 173.3C214.5 174.3 216.3 175.4 218.3 176.5C233.8 185.4 254.5 197.4 275.2 209.3C295.9 221.2 316.6 233.1 332.1 242.1C334 243.2 335.9 244.3 337.7 245.3C339.4 246.4 341.1 247.3 342.7 248.3C345.8 250.2 348.5 251.8 350.8 253.1C355.3 255.8 357.8 257.3 357.8 257.3C357.8 257.3 355.2 255.9 350.6 253.3C348.3 252 345.5 250.5 342.4 248.7C340.8 247.8 339.1 246.9 337.3 245.9C335.5 244.9 333.7 243.8 331.7 242.7C316.2 233.8 295.5 221.8 274.8 209.9C254.1 198 233.4 186.1 217.9 177.1C216 176 214.1 174.9 212.3 173.9C210.6 172.8 208.9 171.9 207.3 170.9C204.2 169 201.5 167.4 199.2 166C194.8 163.4 192.2 161.9 192.2 161.9Z" fill="#A5A5A5"/>
<path d="M179.8 162.8C179.8 162.8 182.7 164.4 187.8 167.2C190.3 168.6 193.4 170.3 196.9 172.3C198.7 173.3 200.5 174.3 202.5 175.4C204.5 176.5 206.5 177.7 208.7 178.9C225.9 188.8 248.8 202 271.7 215.2C294.6 228.4 317.5 241.6 334.7 251.5C336.8 252.7 338.9 253.9 340.9 255.1C342.8 256.3 344.7 257.4 346.4 258.4C349.9 260.5 352.9 262.3 355.4 263.8C360.4 266.8 363.2 268.5 363.2 268.5C363.2 268.5 360.3 266.9 355.2 264.1C352.7 262.7 349.6 261 346.1 259C344.3 258 342.5 257 340.5 255.9C338.5 254.8 336.5 253.6 334.3 252.4C317.1 242.5 294.2 229.3 271.3 216.1C248.4 202.9 225.5 189.7 208.3 179.8C206.2 178.6 204.1 177.4 202.1 176.2C200.2 175 198.3 173.9 196.6 172.9C193.1 170.8 190.1 169 187.6 167.5C182.7 164.5 179.8 162.8 179.8 162.8Z" fill="#A5A5A5"/>
<path d="M205.5 187.7C205.5 187.7 207.4 188.7 210.6 190.5C212.2 191.4 214.2 192.5 216.5 193.7C217.6 194.3 218.9 195 220.1 195.7C221.4 196.4 222.7 197.2 224.1 198C235.2 204.4 249.9 212.9 264.7 221.4C279.5 229.9 294.2 238.4 305.3 244.8C306.7 245.6 308 246.3 309.3 247.1C310.5 247.9 311.7 248.6 312.8 249.3C315 250.7 316.9 251.8 318.5 252.8C321.7 254.7 323.5 255.9 323.5 255.9C323.5 255.9 321.6 254.9 318.4 253.1C316.8 252.2 314.8 251.1 312.5 249.9C311.4 249.3 310.1 248.6 308.9 247.9C307.6 247.2 306.3 246.4 304.9 245.6C293.8 239.2 279.1 230.7 264.3 222.2C249.5 213.7 234.8 205.2 223.7 198.8C222.3 198 221 197.2 219.7 196.5C218.5 195.7 217.3 195 216.2 194.3C214 192.9 212.1 191.8 210.5 190.8C207.3 188.8 205.5 187.7 205.5 187.7Z" fill="#A5A5A5"/>
<path d="M178.9 183.5C178.9 183.5 181.1 184.7 185.1 186.9C187.1 188 189.4 189.3 192.2 190.8C193.6 191.5 195 192.3 196.6 193.2C198.1 194.1 199.7 195 201.4 195.9C214.7 203.6 232.4 213.8 250.1 224C267.8 234.2 285.6 244.4 298.8 252.1C300.5 253.1 302.1 254 303.6 254.9C305.1 255.8 306.5 256.7 307.8 257.5C310.5 259.1 312.8 260.5 314.7 261.7C318.5 264 320.7 265.3 320.7 265.3C320.7 265.3 318.5 264.1 314.5 261.9C312.5 260.8 310.2 259.5 307.4 258C306 257.3 304.6 256.5 303 255.6C301.5 254.8 299.9 253.8 298.2 252.9C284.9 245.2 267.2 235 249.5 224.8C231.8 214.6 214 204.4 200.8 196.7C199.1 195.7 197.5 194.8 196 194C194.5 193.1 193.1 192.2 191.8 191.4C189.1 189.8 186.8 188.4 184.9 187.2C181.1 184.8 178.9 183.5 178.9 183.5Z" fill="#A5A5A5"/>
<path d="M163 187.7C163 187.7 165.6 189.1 170.1 191.6C172.4 192.8 175.1 194.4 178.2 196.1C179.8 197 181.4 197.9 183.2 198.9C184.9 199.9 186.8 201 188.7 202.1C204 210.9 224.4 222.7 244.8 234.4C265.2 246.2 285.6 257.9 300.9 266.7C302.8 267.8 304.7 268.8 306.4 269.9C308.1 270.9 309.8 271.9 311.3 272.8C314.4 274.6 317.1 276.3 319.3 277.6C323.7 280.3 326.2 281.8 326.2 281.8C326.2 281.8 323.6 280.4 319.1 277.9C316.8 276.7 314.1 275.1 311 273.4C309.4 272.5 307.8 271.6 306 270.6C304.2 269.6 302.4 268.5 300.5 267.4C285.2 258.6 264.8 246.8 244.4 235.1C224 223.3 203.6 211.6 188.3 202.8C186.4 201.7 184.6 200.6 182.8 199.6C181.1 198.6 179.4 197.6 177.9 196.7C174.8 194.9 172.1 193.2 169.9 191.9C165.5 189.2 163 187.7 163 187.7Z" fill="#A5A5A5"/>
<path d="M335.4 449.2C333.8 509.9 332.3 570.7 330.7 631.4C261.8 591.3 192.9 551.3 124 511.2C123.9 486.3 123.8 461.5 123.7 436.6C123.3 351.4 123 266.3 122.6 181.1C221.5 237 259.8 257.6 274.8 266.3C275.8 266.9 279.5 271 284.8 271C290.2 275 297.4 279.3 305.7 284.1C314.8 289.3 324 295.1 333.2 300.4C334.1 349.8 334.6 399.7 335.4 449.2Z" fill="url(#paint7_linear_1_2)"/>
<path d="M124 511.2L330.7 301.4L122.5 181.2L124 511.2Z" fill="#394A96"/>
<path d="M284.8 273.1L123.7 436.6C123.3 351.4 123 266.3 122.6 181.1C221.5 237 259.8 258.7 274.8 267.3C275.8 267.9 279.4 270 284.8 273.1Z" fill="#3F519E"/>
<path d="M394.6 260.6C391.4 262.3 388.2 264.1 384.9 265.8L190.1 153.2C189.9 149.7 189.6 146.1 189.4 142.6C257.8 181.9 326.2 221.2 394.6 260.6Z" fill="#344593"/>
<path d="M127 178.8L330.7 296.8L393.5 260.5L189.4 142.6L193.4 140.3L401.6 260.5L330.7 301.4L122.5 181.2L127 178.8Z" fill="#4757A1"/>
<path d="M330.7 631.4L401.6 590.5V260.5L330.7 301.4V631.4Z" fill="#405099"/>
<path d="M345.5 515C360.2 506.4 375 497.8 389.7 489.3C389.7 422.7 389.8 356.2 389.8 289.6C375 298.1 360.1 306.6 345.3 315.2C345.4 381.7 345.4 448.3 345.5 515Z" fill="#D8D5D4"/>
<path d="M330.7 631.4C354.3 507.8 377.9 384.1 401.4 260.5C401.4 370.5 401.5 480.5 401.5 590.5C378 604.1 354.3 617.8 330.7 631.4Z" fill="#344593"/>
<path d="M347.1 514L389.8 489.3V290.4L347.1 315.1V514Z" fill="#F4F0ED"/>
<path d="M385.4 539.8C385.4 544.1 384.2 548.8 382.3 553.2C379.2 560.3 373.9 566.7 367.9 570.2C358.2 575.8 350.3 571.3 350.3 560.1C350.3 553.2 353.3 545.4 357.9 539.1C360.7 535.2 364.2 531.9 367.9 529.7C377.4 524.2 385.3 528.7 385.4 539.8Z" fill="#F4F0ED"/>
<path d="M382.2 553.2C379.1 560.3 373.8 566.7 367.8 570.2C358.1 575.8 350.2 571.3 350.2 560.1C350.2 553.2 353.2 545.4 357.8 539.1C358.6 550.2 362.9 565.3 382.2 553.2Z" fill="#C4C4C4"/>
<path d="M367.7 533.6C375.6 529 382 532.7 382 541.8C382 550.9 375.7 561.9 367.8 566.5C359.9 571 353.5 567.4 353.5 558.3C353.5 549.2 359.8 538.1 367.7 533.6Z" fill="#1E3779"/>
<path d="M382.1 541.8C382.1 550.8 375.7 561.9 367.8 566.5C359.9 571 353.5 567.4 353.5 558.3C353.5 557.6 353.5 556.9 353.6 556.2C354.5 563.8 360.5 566.6 367.8 562.4C375.1 558.2 381.1 548.5 381.9 539.9C382 540.4 382.1 541.1 382.1 541.8Z" fill="black"/>
<path d="M381.9 539.8C381 548.4 375 558.1 367.8 562.3C360.5 566.5 354.5 563.7 353.6 556.1C354.5 547.5 360.5 537.8 367.7 533.6C375 529.4 381 532.2 381.9 539.8Z" fill="black"/>
<path d="M346.3 514.3L389 290.4V490.1L346.3 514.3Z" fill="#E5E1DF"/>
<path d="M986.341 612.5C1024.34 612.5 1055.14 594.636 1055.14 572.6C1055.14 550.564 1024.34 532.7 986.341 532.7C948.344 532.7 917.541 550.564 917.541 572.6C917.541 594.636 948.344 612.5 986.341 612.5Z" fill="#E5E5E5"/>
<path d="M924.541 312.3C924.841 312.3 925.141 312.3 925.441 312.3C925.141 311.5 924.841 310.7 924.641 309.9C923.341 305 923.641 300.1 925.341 295.5C924.741 295.5 924.141 295.5 923.641 295.4C922.741 295.2 921.941 294.9 921.641 294.5C919.641 292 917.341 290.5 915.141 287.9C914.341 286.9 912.841 284.2 911.441 284.2C909.741 284.2 909.241 285.8 910.541 290.1C910.841 291.3 912.141 293.1 910.941 294.4C909.041 296.6 904.341 296.7 901.341 296.7C898.341 296.6 888.041 296.1 885.841 296.2C884.741 296.3 883.641 296.3 882.741 296.8C881.841 297.3 881.141 298.4 881.641 299.3C882.041 300.1 883.241 300.2 884.241 300.3C884.941 300.3 900.441 301.1 900.741 301.7C900.941 302 900.641 302.5 900.341 302.7C899.341 303.4 882.341 304 880.941 304.2C878.041 304.6 878.341 308 880.841 308.1C884.641 308.3 900.141 306.9 900.741 308C900.441 308.9 886.741 310.8 885.441 311.2C884.541 311.5 883.941 311.7 883.941 312.5C883.941 314.7 887.041 314.5 889.341 314.4C891.241 314.3 893.241 314.1 895.141 313.9C895.741 313.8 902.241 312.9 902.441 313.4C902.041 313.9 897.141 314.7 894.041 316.4C891.941 317.6 892.841 319.5 895.341 319.5C900.041 319.4 905.041 315.8 910.741 315.7C917.741 315.7 922.841 313.3 924.541 312.3Z" fill="#F5B68F"/>
<path d="M1038.64 223C1028.74 218.6 1012.34 227.6 1008.64 234.4C1001.54 247.4 985.141 282.2 985.141 282.2C981.541 287.7 980.541 301.9 986.041 305.2C991.041 308.2 997.241 305.6 1000.74 300.8L1032.14 250.5C1037.94 242.8 1050.94 228.5 1038.64 223Z" fill="#F5B68F"/>
<path d="M923.341 312.5C923.641 306.9 923.041 301.1 921.541 295.7C938.841 292.3 965.941 287.3 983.841 286.1C989.241 285.7 1001.14 289.7 1002.04 295.1C1003.04 301.3 991.941 308.5 985.941 309.3C970.541 311.2 942.641 314.1 924.241 312.6C923.941 312.6 923.641 312.5 923.341 312.5Z" fill="#F5B68F"/>
<path d="M1011.74 282.6C1011.74 282.6 998.541 283.4 991.141 269.7C991.141 269.7 996.641 238.5 1011.54 224.6C1026.44 210.7 1045.44 208.6 1044.14 231C1042.84 253.4 1018.74 282.6 1011.74 282.6Z" fill="#FC0600"/>
<path d="M939.141 567.3C938.341 568.4 938.141 569.8 938.741 571.5C940.541 576.4 951.941 586.1 960.841 584.7C969.641 583.3 973.141 581.8 978.841 587.2C984.541 592.6 990.741 587.1 990.741 587.1C990.741 587.1 990.141 592.1 986.041 592.6C985.041 592.7 984.241 592.8 983.941 592.8C978.741 592.3 976.141 592.1 971.741 590.5C964.341 587.7 962.941 591.2 954.541 589C947.141 587.1 936.941 581.4 936.641 574.1C936.541 571.3 937.841 568.9 939.141 567.3Z" fill="#302E2D"/>
<path d="M969.141 562.3C969.141 562.3 985.941 560.8 989.241 566.2C991.941 570.6 993.441 581.9 990.641 587C989.341 589.3 984.641 592.2 979.141 588C972.941 583.2 969.541 583.3 960.741 584.7C951.941 586.1 940.541 576.4 938.641 571.5C938.241 570.4 938.241 569.5 938.441 568.6C938.441 568.6 938.641 567.9 939.041 567.3C940.941 564.6 956.441 563.5 960.941 563.1C963.041 563 965.841 562.7 969.141 562.3Z" fill="#2D2979"/>
<path d="M986.941 551.6C986.241 552.6 986.041 553.9 986.541 555.4C988.241 559.9 998.641 568.7 1006.74 567.4C1014.84 566.1 1017.94 564.7 1023.24 569.6C1028.44 574.5 1034.04 569.5 1034.04 569.5C1034.04 569.5 1033.54 574 1029.74 574.5C1028.84 574.6 1028.14 574.7 1027.74 574.7C1022.84 574.3 1020.34 574.1 1016.84 572.8C1009.84 570.3 1008.54 573.3 1000.94 571.3C994.341 569.5 984.841 564.5 984.641 557.8C984.541 555.2 985.841 553.1 986.941 551.6Z" fill="#302E2D"/>
<path d="M1014.34 546.9C1014.34 546.9 1029.64 545.5 1032.64 550.4C1035.14 554.4 1036.54 564.8 1034.04 569.4C1032.84 571.5 1028.64 574.2 1023.54 570.3C1017.84 565.9 1014.74 566 1006.74 567.3C998.641 568.6 988.241 559.8 986.541 555.3C986.141 554.3 986.141 553.5 986.341 552.7C986.341 552.7 986.541 552.1 986.941 551.5C988.641 549 1002.74 548 1006.44 547.7C1008.14 547.7 1010.84 547.4 1014.34 546.9Z" fill="#2D2979"/>
<path d="M985.141 207.2L987.641 220.7C987.641 220.7 1009.04 225.7 1011.74 212L1010.14 187.6L985.141 207.2Z" fill="#E89B70"/>
<path d="M1009.94 203.7C1009.94 203.7 1000.34 215 982.141 215.6C963.941 216.1 963.041 192.2 965.641 172.6C968.241 153 979.441 149.1 987.941 148.2C996.441 147.3 1009.74 158.6 1013.44 166.1C1017.24 173.4 1020.74 188.1 1009.94 203.7Z" fill="#F5B68F"/>
<path d="M892.841 354.4C893.141 354.3 893.441 354.3 893.741 354.2C893.241 353.5 892.841 352.8 892.341 352.1C889.841 347.7 888.941 342.8 889.341 338C888.741 338.1 888.241 338.3 887.741 338.4C886.841 338.5 886.041 338.4 885.641 338.1C883.041 336.2 880.441 335.4 877.741 333.4C876.641 332.6 874.541 330.4 873.241 330.8C871.641 331.2 871.541 332.9 873.841 336.7C874.441 337.8 876.141 339.2 875.341 340.8C874.041 343.4 869.641 344.7 866.641 345.4C863.741 346.1 853.641 348.2 851.441 348.9C850.441 349.2 849.341 349.6 848.541 350.3C847.741 351 847.441 352.3 848.041 353C848.641 353.6 849.841 353.5 850.841 353.3C851.541 353.2 866.641 350 867.141 350.4C867.441 350.7 867.241 351.2 866.941 351.5C866.241 352.4 849.841 357.3 848.541 357.9C845.841 359.1 847.041 362.2 849.441 361.7C853.241 360.9 867.841 355.6 868.641 356.6C868.541 357.5 855.841 362.9 854.641 363.6C853.841 364.1 853.241 364.4 853.541 365.3C854.041 367.4 857.041 366.5 859.241 365.8C861.041 365.2 862.941 364.6 864.741 363.9C865.241 363.7 871.341 361.1 871.641 361.5C871.341 362.1 866.841 364.1 864.341 366.6C862.641 368.3 864.041 369.9 866.341 369.2C870.841 367.9 874.841 363.1 880.241 361.6C887.141 359.4 891.441 355.7 892.841 354.4Z" fill="#F5B68F"/>
<path d="M953.341 358.5C953.341 358.5 952.241 384.2 953.341 410.7C954.441 437.3 955.841 478.1 958.141 497.3C960.441 516.4 972.141 573.8 972.141 573.8C972.141 573.8 980.841 580.2 991.441 573.6C991.441 573.6 994.941 512.7 993.241 484C991.441 455.3 994.341 387.7 1001.04 375.7C1007.64 363.7 962.341 350.9 953.341 358.5Z" fill="#7FA8E6"/>
<path d="M993.641 406.9C993.641 406.9 997.341 425.5 1004.84 488.2C1012.24 550.9 1015.44 558.8 1015.44 558.8C1015.44 558.8 1024.24 565.4 1035.04 559.1C1035.04 559.1 1042.24 497.8 1037.44 470.7C1032.64 443.6 1035.54 422.9 1038.54 404.6C1041.44 386.3 1043.54 353.1 1036.44 346.7C1029.34 340.3 987.841 349.9 987.841 350.7C987.841 351.4 993.641 406.9 993.641 406.9Z" fill="#7FA8E6"/>
<path d="M954.641 294.6C961.241 251.1 967.141 232.7 980.141 229.8C981.541 229.5 982.941 229.2 984.341 229C984.941 225.2 987.741 220.7 987.741 220.7C1008.54 222.7 1011.84 212 1011.84 212C1015.54 210.7 1018.94 211.5 1021.34 212.5C1029.64 210 1037.94 213.2 1041.54 217.8C1046.54 224.2 1053.24 247.8 1045.74 272.2C1038.34 296.6 1046.24 335.9 1039.94 344.2C1039.94 344.2 1029.84 366.5 995.341 368.4C960.841 370.3 948.841 358.6 948.841 358.6C948.841 358.6 948.041 338.1 954.641 294.6Z" fill="#F4FBFB"/>
<path d="M980.341 239C969.641 237.3 956.141 250.1 954.241 257.6C950.741 272 943.741 309.8 943.741 309.8C941.641 316.1 944.341 330 950.541 331.8C956.141 333.5 961.441 329.3 963.641 323.8L981.241 267.1C984.741 258.2 993.741 241.2 980.341 239Z" fill="#F5B68F"/>
<path d="M891.741 354.9C890.641 349.4 888.541 343.9 885.641 339.1C901.441 331.4 926.441 319.7 943.441 313.9C948.541 312.2 961.041 313 963.341 318C965.941 323.7 957.041 333.6 951.341 335.8C936.941 341.6 910.641 351.5 892.541 354.7C892.341 354.8 892.041 354.8 891.741 354.9Z" fill="#F5B68F"/>
<path d="M969.641 303.4C969.641 303.4 957.041 307.6 946.441 296.1C946.441 296.1 943.741 264.5 954.641 247.2C965.541 229.9 983.341 223 987.841 245.1C992.341 267.2 976.341 301.6 969.641 303.4Z" fill="#F2F0EB"/>
<path d="M957.441 137.6C957.941 139.3 959.141 140.8 960.741 141.5C959.441 139.8 959.341 137.4 960.141 135.4C960.841 133.4 962.241 131.6 963.541 130C964.441 133.1 968.241 134.5 971.541 134.3C975.641 134.1 979.441 132.3 983.441 131.4C985.041 131 986.341 130.9 987.641 130.7C991.341 130.2 993.341 129.9 995.841 130.1C996.841 130.2 997.641 130.3 999.441 130.5C999.441 130.5 1001.84 130.8 1003.84 131.2C1023.54 135.1 1031.84 151.6 1031.84 151.6C1036.64 159.8 1037.04 170.1 1033.94 179C1030.84 187.9 1024.54 195.6 1017.04 201.3C1016.34 201.8 1013.24 203 1012.24 205.9C1011.64 207.4 1011.84 208.9 1012.04 209.9C1010.74 211 1008.04 213 1004.24 214C1000.34 215 997.041 214.6 995.341 214.3C994.441 213.4 992.741 211.3 991.941 208.1C991.741 207.4 991.741 206.8 991.641 206.1C991.341 204.4 991.641 202.2 991.841 200.3C992.241 196.9 1002.84 193.4 996.741 184.7C990.641 176 983.541 192.4 983.541 192.4C983.541 192.4 983.541 192.4 980.941 191.3C979.741 190.8 980.841 187 981.741 182.3C981.541 178.4 980.241 174.5 977.941 171.2C972.941 163.9 965.341 160.6 959.941 153.2C958.141 150.7 957.441 148.9 956.641 146.9C955.441 143.9 955.441 142.5 955.541 141.7C955.641 140 956.741 138.4 957.441 137.6Z" fill="url(#paint8_linear_1_2)"/>
<path d="M473.3 706.6C511.297 706.6 542.1 688.736 542.1 666.7C542.1 644.664 511.297 626.8 473.3 626.8C435.303 626.8 404.5 644.664 404.5 666.7C404.5 688.736 435.303 706.6 473.3 706.6Z" fill="#E5E5E5"/>
<path d="M504.4 387.4C504.3 381.3 506.1 375.5 509.3 370.6C509.3 370.6 509.3 370.6 509.2 370.6C508.4 370.3 506.2 369.3 503.2 367.8C497.9 365 491.4 361 485.4 356.8C484.7 356.3 484 355.8 483.3 355.3C473.3 346.7 467.3 341.6 461 332.9C454.8 324.3 439.3 334.2 453.4 355.3C453.4 355.3 473.1 375.7 501.2 385.9C501.7 386.7 502.8 388.1 504.5 389.7C504.4 388.8 504.4 388.1 504.4 387.4Z" fill="#6A89CE"/>
<path d="M467.3 340.5C467.3 340.5 455.4 327 444.2 311.3C433.1 295.6 417.2 289.2 409.9 293.7C402.6 298.2 414.4 312 426.4 328.3C438.4 344.6 453.7 356.6 455.7 356.7C457.7 356.8 464.3 341.3 467.3 340.5Z" fill="#FC0600"/>
<path d="M500.5 385.1C500.2 385 500 384.9 499.7 384.7C500.3 384.1 500.9 383.5 501.4 382.9C504.6 379.1 506.4 374.4 506.9 369.7C507.4 369.9 508 370.2 508.4 370.3C509.3 370.5 510.1 370.6 510.5 370.4C513.4 369 516.1 368.6 519.1 367.2C520.3 366.6 522.7 364.9 524 365.5C525.5 366.2 525.3 367.8 522.3 371.2C521.5 372.1 519.6 373.2 520.1 375C520.9 377.8 525 379.9 527.8 381.1C530.5 382.3 540.1 386.1 542 387.2C542.9 387.7 543.9 388.2 544.6 389.1C545.2 389.9 545.4 391.2 544.6 391.8C543.9 392.3 542.8 392 541.8 391.6C541.2 391.4 526.9 385.5 526.4 385.9C526.1 386.1 526.2 386.6 526.4 387C527 388 542.1 395.7 543.3 396.5C545.8 398.1 544 401 541.8 400.1C538.2 398.7 524.8 390.9 523.9 391.7C523.8 392.6 535.3 400.1 536.3 401C537 401.6 537.5 402 537.1 402.8C536.2 404.8 533.5 403.3 531.4 402.3C529.7 401.4 528 400.4 526.4 399.4C525.9 399.1 520.4 395.5 520 395.8C520.2 396.4 524.3 399.2 526.3 402.1C527.7 404.1 526 405.4 523.8 404.3C519.6 402.2 516.6 396.8 511.5 394.3C505.2 391.1 501.7 386.7 500.5 385.1Z" fill="#F5B68F"/>
<path d="M458.5 282.8L457.5 291.4C457.5 291.4 446.4 300.7 441.7 298C437 295.3 431.4 290.9 437.2 279.2C443 267.3 458.5 282.8 458.5 282.8Z" fill="#E89B70"/>
<path d="M438.4 632.2L435 620.3L423.4 631.3L425.1 651.8L437.7 652.9V652.3H437.9L438.4 632.2Z" fill="#FAC49C"/>
<path d="M437.9 652.3C437.6 655.4 438.2 657.6 438.7 659C440.4 663.2 444.9 667.5 445.1 667.8C446.5 669.1 447.5 669.8 447.7 671.2C447.9 672.8 446.7 674.8 445.1 675.4C440.4 677.4 429.9 667.7 427.1 659.1C425.4 653.9 425 651.8 425 651.8C429.3 652 433.6 652.1 437.9 652.3Z" fill="#FAC49C"/>
<path d="M425.1 651.8C425.1 651.8 422.5 651 420.3 654.7C418.1 658.4 420.6 685 420.6 685H426L427.2 668.4C427.2 668.4 432.2 678.4 435.7 680.7C439.1 682.9 445.6 680 449.8 677.2C454 674.4 456.8 668.2 455.1 667.6C453.4 666.9 445.2 667.7 445.2 667.7C445.2 667.7 448 672.7 444.9 674.3C441.9 675.9 430.6 661.9 428.8 658.3C427 654.7 426.5 651.7 425.1 651.8Z" fill="#292766"/>
<path d="M472.3 553.8C472.3 553.8 462.3 571.9 467.1 593.4C471 610.5 479.1 648.3 482.3 663.3C483.1 666.9 486.5 669.2 490.1 668.7C493.6 668.2 494.3 663.9 494.1 660.3C493.4 625.5 492.7 590.8 492 556C485.5 555.3 478.9 554.6 472.3 553.8Z" fill="#FAC49C"/>
<path d="M500.7 674.9C497.3 672.9 494.1 663.3 494.1 663.3L481.4 659.6C481.4 659.6 481.8 661.6 483.4 666.6C485 671.6 497.9 682.4 500.7 682.3C503.5 682.2 504.1 676.9 500.7 674.9Z" fill="#FAC49C"/>
<path d="M481.4 659.6C481.4 659.6 478.9 660.1 476.8 663.6C474.8 667.2 477.1 694 477.1 694H482.3L483.4 676.8C483.4 676.8 488.2 685.8 491.5 688C494.8 690.2 501 687 505.1 684.3C509.2 681.6 511.8 675.5 510.2 674.9C508.6 674.3 500.7 675 500.7 675C500.7 675 503.4 679.8 500.4 681.3C497.5 682.8 486.7 669.3 484.9 665.9C483.1 662.4 482.8 659.5 481.4 659.6Z" fill="#292766"/>
<path d="M417.6 539.3C417.6 539.3 427.6 548.4 442.9 541.6C442.9 541.6 448.6 489.6 452.8 440.3C457 391 462.1 402 439.9 393.4C417.8 384.7 421.7 395.5 421.7 395.5C421.7 395.5 408 431.1 408.8 447.8C409.7 464.5 415.9 515.2 417.6 539.3Z" fill="#31437A"/>
<path d="M417.6 539.3C417.6 539.3 410.6 558.3 416 593C421.4 627.7 423.5 631.3 423.5 631.3L438.4 632.2C438.4 632.2 445.3 559 442.9 541.6C440.5 524.2 417.6 539.3 417.6 539.3Z" fill="#31437A"/>
<path d="M466 551.7C466 551.7 458.4 558.3 467.6 599.3C476.9 640.2 478.8 650 478.8 650C478.8 650 485 654.7 494.1 650.6C494.1 650.6 497.8 574.8 493.6 546.1C489.5 517.4 466 551.7 466 551.7Z" fill="#31437A"/>
<path d="M466 551.7C466 551.7 441.9 483.3 445.2 440.6C448.5 397.9 473.2 391.2 478.5 400.4C483.8 409.6 496.2 536.3 493.9 549.3C491.6 562.3 471.9 560.3 466 551.7Z" fill="#31437A"/>
<path d="M432.2 288.7C432.2 288.7 419.2 286.7 411.7 290.8C404.2 294.9 404.8 309.6 408.2 317.7C411.6 325.8 417.4 338.2 418 350C418.6 361.8 420.2 394.8 420.2 394.8C420.2 394.8 426.4 403.8 447.5 406.5C468.7 409.2 478.4 400.3 478.4 400.3C478.4 400.3 471.6 373.3 475.1 349.7C478.6 326.1 480.7 311.9 461.6 298.9C461.8 298.9 437.6 297.1 432.2 288.7Z" fill="#7FA8E6"/>
<path d="M461.8 298.9C461.8 298.9 459.8 292.9 459.4 291.5C459 290.1 457.5 289.9 457.5 289.9C457.5 289.9 455.3 292.9 448.2 292.1C441.1 291.3 435.5 287.7 435.7 284.8L435.9 283C435.9 283 433.9 282.6 432.5 284.3C431.1 286 429 289.1 429 289.1C429 289.1 427.8 295.7 437.3 299.6C446.8 303.7 455.4 302.1 461.8 298.9Z" fill="#FC0600"/>
<path d="M444 281.4C444 281.4 450.6 283.9 460.1 284.5C469.6 285.1 476.6 272.1 477.9 255.8C479.2 239.5 473.8 230.8 468 227.6C462.2 224.4 424.9 240.9 444 281.4Z" fill="#F5B68F"/>
<path d="M494.2 377.9C494.2 377.9 488.5 359.6 484.4 339.5C480.3 319.4 468.2 306.4 459.7 307.7C455.3 308.4 457.6 323.1 461.4 348.5C461.4 348.5 463.5 362.6 475.9 386.1C476.5 387.2 477.8 389.6 480.1 390.1C485.9 391.4 492.9 380 494.2 377.9Z" fill="#6A89CE"/>
<path d="M548.4 383.9C548.1 384 547.9 384.1 547.6 384.2C547.6 383.4 547.6 382.5 547.5 381.7C547 376.7 544.9 372.2 541.8 368.6C542.3 368.4 542.9 368.2 543.3 367.9C544.1 367.4 544.7 366.9 544.8 366.4C545.8 363.3 547.4 361.2 548.5 358C548.9 356.8 549.3 353.8 550.7 353.3C552.3 352.7 553.3 354 553.6 358.5C553.7 359.7 553.2 361.8 554.8 362.7C557.4 364.1 561.7 362.6 564.5 361.4C567.3 360.3 576.7 356.1 578.8 355.4C579.8 355.1 580.9 354.7 581.9 354.9C583 355 584 355.8 583.8 356.8C583.7 357.7 582.6 358.2 581.7 358.6C581.1 358.9 567 365.1 566.9 365.7C566.8 366.1 567.3 366.4 567.7 366.5C568.8 366.8 584.9 361.3 586.3 361C589.2 360.4 590.1 363.6 587.8 364.6C584.3 366.2 569.4 370.3 569.3 371.6C569.9 372.3 583.3 369.3 584.7 369.2C585.6 369.1 586.3 369.1 586.6 369.9C587.4 371.9 584.4 372.9 582.2 373.6C580.4 374.2 578.5 374.7 576.7 375.2C576.2 375.3 569.8 376.8 569.7 377.3C570.3 377.6 575.1 376.6 578.6 377.2C581 377.6 580.8 379.7 578.5 380.5C574.1 382.1 568.1 380.5 562.8 382.4C555.9 384.7 550.3 384.2 548.4 383.9Z" fill="#F5B68F"/>
<path d="M552.7 382.7C549.7 380.3 548.3 377.6 547.2 375.6C546.3 374 545.3 371.7 544.5 368.7C544.4 368.4 544.4 367.9 544.5 367.3C544.5 367 544.6 366.9 544.6 366.9C544.3 366.5 540.1 368.7 537.8 369.8C532.9 372.1 527.8 372.9 517.5 374.9C516.7 375.1 515.8 375.2 514.9 375.4C501.7 376.6 493.9 377.3 483.3 375.8C472.8 374.3 469.1 392.3 494.1 396.8C499.5 396.6 505.4 396.1 511.7 395.2C526.7 393 539.4 388.9 549.4 384.7C550 384.5 550.6 384.4 551.3 384.2C552.5 384 553.6 383.9 554.5 383.9C554 383.7 553.4 383.3 552.7 382.7Z" fill="#6A89CE"/>
<path d="M394.6 311.8C393.8 309.9 393.9 307.8 394.1 305.7C394.5 299.8 395.4 293 400.4 290C396.9 287.7 394.9 283.3 395.5 279.1C396.2 274.9 399.4 271.3 403.5 270.3C401.8 266.8 401.9 262.5 403.8 259.1C405.2 256.6 407.5 254.7 410.2 253.8C406 252.5 403.3 247.7 403.4 243.1C403.4 238.2 405.8 233.7 408 229.3C404.2 225.3 406.2 218.6 409.7 214.4C414 209.3 420.4 205.9 427.1 205.2C428.1 200.3 431.8 196 436.5 194.2C441.2 192.4 446.8 193.2 450.8 196.3C452.2 192.8 455.9 190.7 459.6 190.3C463.3 190 467 191.2 470.4 192.8C475.7 195.4 480.8 199.7 481.2 205.6C481.2 206.2 481.2 206.8 481.5 207.3C481.9 208 482.7 208.4 483.4 208.8C487.7 211.2 489.9 216.8 488.3 221.5C493.5 223.8 495.5 231 492.7 235.9C490.7 239.4 486.8 241.4 482.8 241.7C480.4 242.7 477.5 242.8 474.8 242.5C471.3 242.1 467.8 241.1 464.3 241.3C462.3 241.4 460.2 242.2 458.6 243.4C456.9 246.9 458.3 251 458.3 251C458.3 251 453.7 246.8 450.2 251C446.7 255.2 452.3 271.7 458.4 268.2C458 271.1 457.6 274 457.1 277C458 277.5 458.9 278.2 459.5 279C460.8 280.8 461.4 283.1 461.9 285.3C462.3 287.2 462.8 289.2 462.6 291.1C462.4 293 461.4 295 459.7 295.9C465 297.9 468.1 303.3 469.6 308.7C470.6 312.3 471.2 316.2 470.1 319.7C469 323.3 466 326.4 462.2 326.7C467.2 331.6 467.6 340.4 463.1 345.8C458.6 351.2 449.8 352.3 444.1 348.2C441.6 351.5 436.8 351.5 432.7 351.3C430.5 351.2 428.3 351 426.5 349.9C424 348.3 422.9 345.3 422 342.5C417.5 342.9 412.9 340.8 410 337.4C408.7 337.4 407.5 337.3 406.3 337C401.8 335.9 397.9 332.3 396.6 327.9C395.2 323.5 396.4 318.3 399.6 314.9C397.4 315.3 395.4 313.7 394.6 311.8Z" fill="url(#paint9_linear_1_2)"/>
<defs>
<linearGradient id="paint0_linear_1_2" x1="620.454" y1="170.688" x2="786.075" y2="471.817" gradientUnits="userSpaceOnUse">
<stop stop-color="#B0EBFE"/>
<stop offset="0.9944" stop-color="#6EC3EC"/>
</linearGradient>
<linearGradient id="paint1_linear_1_2" x1="542.738" y1="440.044" x2="436.436" y2="135.585" gradientUnits="userSpaceOnUse">
<stop stop-color="#1E1B1A"/>
<stop offset="0.9925" stop-color="#3D3D3D"/>
</linearGradient>
<linearGradient id="paint2_linear_1_2" x1="542.807" y1="439.998" x2="436.488" y2="135.493" gradientUnits="userSpaceOnUse">
<stop stop-color="#344593"/>
<stop offset="0.9925" stop-color="#344593"/>
</linearGradient>
<linearGradient id="paint3_linear_1_2" x1="542.767" y1="548.099" x2="436.441" y2="243.573" gradientUnits="userSpaceOnUse">
<stop stop-color="#C8E2FF"/>
<stop offset="0.9944" stop-color="#DCEEFF"/>
</linearGradient>
<linearGradient id="paint4_linear_1_2" x1="354.399" y1="520.411" x2="248.094" y2="215.945" gradientUnits="userSpaceOnUse">
<stop stop-color="#1E1B1A"/>
<stop offset="0.9925" stop-color="#3D3D3D"/>
</linearGradient>
<linearGradient id="paint5_linear_1_2" x1="353.807" y1="519.998" x2="247.488" y2="215.493" gradientUnits="userSpaceOnUse">
<stop stop-color="#344593"/>
<stop offset="0.9925" stop-color="#344593"/>
</linearGradient>
<linearGradient id="paint6_linear_1_2" x1="283.307" y1="562.298" x2="176.988" y2="257.793" gradientUnits="userSpaceOnUse">
<stop stop-color="#344593"/>
<stop offset="0.9925" stop-color="#344593"/>
</linearGradient>
<linearGradient id="paint7_linear_1_2" x1="283.307" y1="562.298" x2="176.988" y2="257.793" gradientUnits="userSpaceOnUse">
<stop stop-color="#344593"/>
<stop offset="0.9925" stop-color="#344593"/>
</linearGradient>
<linearGradient id="paint8_linear_1_2" x1="1033.7" y1="103.71" x2="988.699" y2="169.707" gradientUnits="userSpaceOnUse">
<stop offset="0.000615763" stop-color="#FFC548"/>
<stop offset="0.9907" stop-color="#F7941E"/>
</linearGradient>
<linearGradient id="paint9_linear_1_2" x1="394.021" y1="270.9" x2="493.969" y2="270.9" gradientUnits="userSpaceOnUse">
<stop offset="0.000615763" stop-color="#FFC548"/>
<stop offset="0.9907" stop-color="#F7941E"/>
</linearGradient>
</defs>
</svg>
