<svg width="2066" height="937" viewBox="0 0 2066 937" fill="none" xmlns="http://www.w3.org/2000/svg">
<path d="M393.63 429.993C492.63 506.993 707.88 634.243 886.63 640.993C1065.38 647.743 1132.63 580.993 1108.63 456.993C1084.63 332.993 1069.63 239.993 1123.63 194.993C1177.63 149.993 1246.63 128.993 1378.63 156.993C1510.63 184.993 1568.63 157.993 1604.63 126.993C1640.63 95.993 1738.63 -39.007 1902.63 10.993C2066.63 60.993 2100.08 326.508 2033.42 547.72C1966.75 768.932 1980.63 910.993 1476.63 928.993C972.63 946.993 278.63 928.993 278.63 928.993C278.63 928.993 -15.3702 932.993 0.629782 668.993C16.6298 404.993 294.63 352.993 393.63 429.993Z" fill="url(#paint0_linear_2_3)"/>
<defs>
<linearGradient id="paint0_linear_2_3" x1="1020.44" y1="889.206" x2="1022.99" y2="-119.023" gradientUnits="userSpaceOnUse">
<stop stop-color="#F0F8F7" stop-opacity="0.3"/>
<stop offset="0.585017" stop-color="#E9F4F3" stop-opacity="0.3"/>
<stop offset="1" stop-color="#E4F1F0" stop-opacity="0.3"/>
</linearGradient>
</defs>
</svg>
