<svg width="514" height="397" viewBox="0 0 514 397" fill="none" xmlns="http://www.w3.org/2000/svg">
<path d="M280.297 273.074L237.797 274.074L240.297 284.574C240.297 284.574 237.797 290.574 233.797 291.074C229.797 291.574 223.297 289.074 221.297 286.074C219.297 283.074 222.797 272.574 222.797 272.574H185.297V248.074L187.297 247.074C187.297 247.074 194.797 250.574 199.797 249.074C204.797 247.574 205.797 241.574 205.797 241.574C205.797 241.574 206.297 236.574 201.797 232.574C197.297 228.574 186.297 233.574 186.297 233.574V200.074L223.797 199.574C223.797 199.574 220.797 198.074 220.297 192.074C219.797 186.074 222.297 183.574 231.297 181.574C240.297 179.574 239.297 190.074 239.297 190.074L238.297 199.074H246.297L246.797 204.574L248.297 207.074L251.297 209.074L254.297 211.574H257.797L258.797 213.574L262.297 210.574L264.797 211.074L270.797 205.574L273.797 199.574H277.797L278.797 232.574L276.797 231.574C276.797 231.574 266.297 229.074 263.797 229.074C261.297 229.074 258.297 235.574 258.297 235.574C258.297 235.574 260.297 244.574 265.297 248.074C270.297 251.574 278.797 245.574 278.797 245.574L280.297 273.074ZM473.297 342.074C473.297 342.074 472.797 344.074 470.297 345.574C467.797 347.074 465.797 346.074 461.797 343.574C457.797 341.074 464.797 332.574 464.797 332.574L449.454 319.487L447.797 318.074L444.797 326.574L437.797 334.074L437.297 330.074C437.297 330.074 433.297 327.574 430.797 327.574C428.297 327.574 419.797 329.574 418.797 338.074C417.797 346.574 427.297 350.574 427.297 350.574L416.797 365.074L432.797 374.074C432.797 374.074 432.797 374.074 434.297 371.574C435.797 369.074 441.797 369.574 445.297 371.074C448.797 372.574 443.297 383.574 443.297 383.574L459.297 391.574L467.797 380.074C467.797 380.074 461.297 380.074 458.797 378.574C456.297 377.074 450.297 371.574 450.297 371.574L452.297 368.074L450.797 365.074L452.797 363.574L454.797 362.074L457.297 360.574L459.297 359.574L464.297 358.074L472.797 364.574L478.797 366.574L491.297 353.574L473.297 342.074ZM99.2967 288.074C95.7967 285.074 85.2968 288.574 85.2968 288.574L74.7968 268.074L57.2968 281.074L62.7968 285.574L60.7968 294.074C60.7968 294.074 55.7968 300.074 50.2968 302.074C44.7968 304.074 39.2968 291.074 39.2968 291.074L17.2968 304.574L35.2968 334.074L45.7968 324.074L44.2968 321.074C44.2968 321.074 43.7968 313.074 46.2968 310.574C48.7968 308.074 50.2968 319.074 50.2968 319.074L52.7968 312.574L56.7968 304.574L61.7968 307.574L63.7968 309.074L66.2968 311.574L68.2968 313.574L69.2968 317.574L70.7968 319.574L71.7968 325.074L60.2968 333.574L57.2968 339.074L44.7968 355.074L45.2968 357.074L47.2968 359.074L64.7968 348.074L68.2968 354.074C68.2968 354.074 75.2968 354.574 78.7968 351.074C82.2968 347.574 78.2968 339.574 78.2968 339.574L103.297 324.074L92.2967 307.574L96.2967 306.574C96.2967 306.574 102.297 304.074 103.297 299.074C104.297 294.074 102.797 291.074 99.2967 288.074ZM389.797 55.0738C390.797 51.5738 389.797 48.5738 384.297 45.0738C378.797 41.5738 376.297 48.0738 376.297 48.0738L366.797 24.5738L304.797 48.5738L313.797 71.5738C313.797 71.5738 306.797 75.5738 306.797 77.5738C306.797 79.5738 312.797 86.5738 312.797 86.5738L320.297 85.5738L330.797 109.574L349.797 102.074L352.297 102.574C352.297 102.574 354.797 109.074 356.797 110.574C358.797 112.074 364.797 111.574 364.797 111.574C364.797 111.574 364.797 106.574 364.797 104.574C364.797 102.574 362.297 95.0738 362.297 95.0738L368.297 96.5738L369.297 94.0738L371.797 93.5738L374.797 92.5738L378.297 91.5738L391.297 85.5738L382.797 61.5738C382.797 61.5738 388.797 58.5738 389.797 55.0738ZM178.796 16.5748L170.129 47.2418L178.796 48.5748L184.796 55.2418C184.796 55.2418 183.463 62.5748 178.129 67.9088C172.795 73.2428 166.129 67.2418 166.129 67.2418L158.796 81.2418L162.796 81.9088H166.796L166.129 91.2418L164.129 98.5748L183.462 106.575C183.462 106.575 188.129 99.9078 190.129 98.5748C192.129 97.2418 199.462 96.5748 203.462 97.9078C207.462 99.2408 204.795 111.241 204.795 111.241L247.462 124.574L256.129 95.9068L249.462 92.5738L246.795 83.2408C246.795 83.2408 250.795 75.2408 256.128 73.9078C261.461 72.5748 268.795 79.2408 268.795 79.2408L281.462 49.9078L183.462 15.2408L178.796 16.5748Z" fill="#F1A351"/>
<path d="M452.937 273.749C452.078 275.009 450.998 276.166 450.314 277.538C449.49 279.19 450.094 280.078 451.914 280.278C452.576 280.351 451.699 280.866 451.534 280.938C450.923 281.208 450.188 281.407 449.515 281.333C448.031 281.17 446.49 280.531 447.16 278.776C447.8 277.102 449.092 275.758 450.089 274.296C450.411 273.824 451.289 273.65 451.8 273.552C451.874 273.537 453.203 273.358 452.937 273.749ZM459.009 285.911C462.272 286.357 465.129 284.342 465.755 281.113C466.049 279.591 463.076 279.916 462.809 281.296C462.528 282.749 461.536 283.894 459.979 283.682C459.275 283.586 458.4 283.905 458.099 284.595C457.805 285.267 458.367 285.824 459.009 285.911ZM448.834 272.509C449.28 272.425 450.311 272.236 450.543 271.757C451.039 270.734 451.381 269.641 451.74 268.565C451.891 268.111 450.77 268.32 450.598 268.353C450.214 268.426 449.045 268.638 448.889 269.105C448.53 270.181 448.188 271.274 447.692 272.297C447.482 272.732 448.71 272.533 448.834 272.509ZM460.696 272.077C459.943 272.852 459.402 273.75 458.922 274.711C458.608 275.34 459.192 275.731 459.765 275.777C460.412 275.829 461.347 275.561 461.662 274.929C462.056 274.142 462.462 273.409 463.079 272.774C463.533 272.307 463.364 271.709 462.745 271.527C462.059 271.327 461.192 271.566 460.696 272.077ZM459.704 267.172C461.065 267.192 462.554 267.446 463.726 268.177C464.283 268.524 465.05 268.362 465.624 268.133C465.804 268.061 466.973 267.435 466.432 267.098C464.775 266.065 462.807 265.736 460.878 265.708C460.246 265.699 459.369 265.948 458.956 266.462C458.523 267.002 459.326 267.167 459.704 267.172ZM510.872 359.159C510.835 359.168 510.799 359.179 510.762 359.185C509.486 359.404 508.197 359.534 506.903 359.628C507.774 370.074 513.034 387.428 502.04 393.8C496.993 396.725 490.016 395.955 485.533 392.411C482.299 389.854 479.704 386.672 476.686 383.885C474.356 381.734 472.578 380.769 469.697 380.406C469.679 380.436 469.67 380.463 469.648 380.494C467.2 383.922 464.481 387.153 462.465 390.869C462.378 391.029 462.231 391.163 462.052 391.277C461.415 391.774 460.103 392.058 459.554 391.547C459.029 391.058 456.762 390.184 455.754 389.69C453.529 388.599 451.302 387.511 449.089 386.396C448.071 385.883 441.331 383.339 441.674 381.708C441.722 381.477 441.883 381.277 442.102 381.113C444.461 378.869 446.21 375.133 443.74 372.259C441.94 370.165 439.482 368.631 436.977 370.763C435.658 371.886 434.559 373.191 433.491 374.548C433.284 374.811 432.678 375.019 432.084 375.113C431.476 375.516 430.52 375.717 430.031 375.363C425.106 371.795 419.583 368.986 415.463 364.417C414.898 363.79 415.797 363.116 416.736 362.929C419.314 358.58 422.076 354.343 424.634 349.979C422.658 349.824 420.99 349.023 419.675 347.809C419.552 348.002 419.416 348.234 419.269 348.517C418.731 349.551 418.205 350.59 417.707 351.643C416.276 354.67 414.923 357.736 413.69 360.849C410.18 369.712 407.301 378.784 405.469 388.147C405.322 388.898 403.314 389.366 402.733 388.938C401.873 389.384 400.472 389.352 400.472 388.393C400.472 373.716 400.472 359.039 400.472 344.363C395.224 344.363 389.976 344.363 384.728 344.363C382.913 344.363 383.316 342.661 384.652 342.391C387.341 337.354 388.742 329.102 382.274 326.653C376.696 324.541 370.882 328.019 370.295 333.911C369.954 337.334 370.867 340.415 372.823 343.224C373.74 343.528 372.058 344.757 371.134 344.757C367.516 344.757 363.899 344.757 360.281 344.757C359.882 345.12 359.001 345.516 358.518 345.516C357.41 345.516 356.303 345.516 355.195 345.516C355.195 351.052 355.195 356.588 355.195 362.123C355.195 362.396 354.951 362.627 354.608 362.806C354.657 363.538 352.395 364.312 351.8 363.669C349.498 361.179 346.559 360.92 344.387 363.78C342.997 365.61 341.836 368.195 342.463 370.547C343.265 373.561 348.403 380.286 350.905 375.366C350.996 375.186 351.213 375.03 351.484 374.906C351.945 374.136 354.297 373.808 354.297 374.394C354.297 379.98 354.297 385.567 354.297 391.154C354.297 392.108 351.4 392.58 351.4 391.93C351.4 387.251 351.4 382.571 351.4 377.892C346.886 380.745 339.476 376.051 339.429 370.382C339.375 363.823 346.537 357.745 352.298 360.828C352.298 355.724 352.298 350.62 352.298 345.515C342.11 345.515 331.921 345.515 321.733 345.515C326.458 353.759 322.303 365.321 311.79 365.469C301.025 365.621 298.806 353.523 302.898 345.515C295.203 345.515 287.507 345.515 279.812 345.515C279.119 346.14 277.156 346.367 277.156 345.84C277.156 345.708 277.156 345.576 277.156 345.444C276.874 345.344 276.93 345.148 277.156 344.938C277.156 340.45 277.156 335.961 277.156 331.474C277.156 327.085 277.156 322.695 277.156 318.306C277.156 317.359 280.053 316.89 280.053 317.53C280.053 317.564 280.053 317.597 280.053 317.631C280.693 317.372 281.446 317.205 281.766 317.431C285.19 319.83 290.458 321.465 293.944 318.172C296.563 315.697 297.788 311.928 297.085 308.354C295.54 300.495 287.192 300.288 281.505 304.179C281.056 304.486 278.628 304.857 279.078 304.313C278.237 304.606 277.156 304.631 277.156 304.24C277.156 294.262 277.156 284.285 277.156 274.308C264.699 274.308 252.241 274.308 239.784 274.308C243.522 281.361 242.312 290.592 232.88 291.702C228.502 292.216 223.457 291.153 221.076 287.032C218.541 282.642 219.218 277.589 221.973 273.505C210.859 273.505 199.744 273.505 188.63 273.505C188.443 273.926 187.948 274.301 187.275 274.327C187.275 274.363 187.275 274.399 187.275 274.435C187.275 274.615 187.169 274.778 186.999 274.919C186.999 285.033 186.999 295.148 186.999 305.261C186.999 306.113 184.659 306.575 184.189 306.194C183.533 306.473 182.728 306.668 182.388 306.436C179.649 304.563 176.122 302.96 172.71 303.347C168.43 303.831 166.566 308.281 166.947 312.144C167.729 320.067 175.758 324.519 182.649 319.689C182.986 319.452 184.461 319.176 184.967 319.295C185.821 318.964 186.998 318.92 186.998 319.328C186.998 327.602 186.998 335.875 186.998 344.149C187.162 344.149 187.325 344.149 187.488 344.149C189.459 344.149 188.817 346.161 187.202 346.161C187.134 346.161 187.066 346.161 186.998 346.161C186.998 346.395 186.998 346.629 186.998 346.863C186.998 347.81 184.101 348.279 184.101 347.639C184.101 347.146 184.101 346.654 184.101 346.161C169.771 346.161 155.442 346.161 141.113 346.161C139.298 346.161 139.701 344.459 141.037 344.189C143.726 339.152 145.126 330.9 138.659 328.451C133.082 326.339 127.267 329.817 126.68 335.709C126.339 339.132 127.253 342.213 129.207 345.021C130.124 345.325 128.442 346.554 127.518 346.554C115.865 346.554 104.212 346.554 92.5597 346.554C91.9377 347.347 89.8167 347.572 89.8167 346.391C89.8167 341.834 89.8167 337.278 89.8167 332.721C86.3207 334.555 82.8217 336.388 79.4637 338.48C84.8347 341.959 83.1767 348.652 78.3667 352.103C76.1517 353.692 73.1557 354.917 70.3747 354.53C67.3177 354.104 65.3957 352.092 64.1557 349.456C59.0927 352.507 53.8037 355.164 48.8047 358.322C48.7087 358.383 48.5447 358.439 48.3497 358.488C48.1807 359.262 46.1407 359.9 45.5417 359.209C45.0267 358.615 44.7487 357.689 44.4847 356.965C44.3917 356.71 44.2927 356.444 44.1977 356.173C42.9577 356.995 41.6767 357.714 40.3567 358.3C40.3947 363.496 40.7837 368.654 41.5467 373.796C41.7117 374.908 38.7997 375.591 38.6497 374.572C37.8997 369.517 37.5347 364.45 37.4707 359.346C35.0587 360.025 32.5417 360.249 29.9387 359.867C22.0847 358.716 18.8697 353.088 16.6557 345.979C14.5097 339.087 12.8587 331.554 13.1107 324.292C13.1127 324.238 13.1257 324.186 13.1487 324.136C12.7257 324.21 12.3017 324.283 11.8797 324.379C9.85175 324.836 11.3707 323.673 12.4507 323.43C17.0377 322.397 21.6487 322.504 26.3087 322.55C22.8187 316.903 19.3487 311.246 16.7027 305.14C16.4487 304.555 17.4697 303.989 18.3807 303.903C18.2527 303.774 18.3597 303.571 18.8907 303.281C25.5777 299.628 31.4557 294.725 38.0447 290.912C38.1697 290.84 38.3487 290.781 38.5477 290.735C39.3447 290.297 40.5447 290.327 40.7497 291.194C41.5997 294.798 43.2247 299.576 47.3087 300.605C50.4247 301.39 53.6907 299.729 56.0037 297.743C60.3087 294.047 64.5627 285.989 57.2267 283.011C56.5187 282.724 56.4637 282.247 56.7247 281.82C56.0397 281.844 55.5277 281.67 55.9147 281.202C60.3717 275.824 66.6687 272.924 72.2557 268.966C72.2277 268.92 72.1977 268.875 72.1687 268.829C71.9477 268.473 74.0497 267.558 74.8367 267.877C75.6597 267.863 76.3207 268.084 75.5677 268.645C75.5397 268.666 75.5097 268.687 75.4817 268.708C79.5517 275.187 84.1237 281.397 87.1667 288.44C87.9397 287.775 88.8377 287.228 89.8227 286.807C89.8477 285.172 89.9688 282.901 89.8678 281.456C89.8258 281.382 89.7757 281.315 89.7587 281.211C89.7377 281.091 89.7277 280.968 89.7117 280.847C89.6887 280.849 89.6867 280.812 89.6987 280.752C89.4287 278.631 89.7177 276.264 89.7177 274.17C89.7177 273.301 91.4407 272.783 92.2377 273.219C92.4087 273.164 92.5747 273.13 92.7227 273.127C88.2387 270.286 84.0717 266.942 78.7797 265.667C68.0827 263.087 59.8757 268.164 50.7727 272.827C50.6947 272.867 50.5517 272.91 50.3777 272.951C50.3337 273.494 50.3627 274.078 50.4827 274.716C50.9077 276.97 51.5837 279.149 52.1107 281.379C52.2847 281.466 52.3757 281.605 52.3167 281.811C49.6777 290.902 35.7477 289.444 31.5057 282.408C31.2637 282.533 31.0147 282.641 30.7687 282.757C30.9027 282.965 30.8657 283.245 30.5267 283.596C26.0277 288.244 18.6307 292.121 16.3797 298.461C13.7067 305.989 15.4937 314.396 14.4267 322.187C14.2567 323.431 11.3037 323.855 11.4977 322.435C12.5767 314.554 9.94575 304.123 14.1907 296.988C17.3227 291.724 22.3657 288.308 26.7277 284.172C20.8557 285.63 14.2507 285.089 8.39074 284.657C7.72674 285.279 5.98375 285.575 5.72675 284.79C-0.362254 266.185 -5.12125 238.915 10.7257 223.54C24.7227 209.96 45.3277 215.715 55.8077 230.561C56.1877 231.1 55.4917 231.638 54.6997 231.874C54.6307 232.137 54.3937 232.398 53.9127 232.602C53.0187 232.98 52.1617 233.426 51.3227 233.907C56.1587 240.217 62.4427 250.382 60.4037 258.615C59.4887 262.308 56.9387 264.599 54.2157 267.113C52.6217 268.584 51.1577 269.949 50.5977 271.786C58.5407 267.641 65.9957 263.535 75.3317 263.716C83.3237 263.87 89.2887 268.313 95.7367 272.355C95.8947 272.454 95.2617 272.855 94.5477 273.129C98.5377 273.129 102.527 273.129 106.517 273.129C109.488 266.502 107.673 256.314 104.94 249.931C103.354 246.227 96.4207 237.045 100.797 233.426C103.204 231.436 105.712 233.333 107.686 235.684C107.053 231.082 106.369 225.284 111.554 225.112C112.177 225.091 112.685 225.333 113.103 225.731C113.716 224.527 114.581 223.53 116.044 223.169C117.953 222.698 118.855 223.667 119.485 225.391C119.529 225.512 119.567 225.644 119.61 225.766C119.955 224.865 120.483 224.09 121.401 223.744C123.192 223.068 124.079 223.934 124.611 225.569C124.98 226.699 125.28 227.855 125.538 229.026C132.972 224.39 133.097 237.504 132.964 241.987C132.836 246.289 132.431 249.939 130.517 253.872C130.035 254.863 129.568 255.822 129.12 256.765C131.044 255.653 133.257 255.042 135.602 254.811C146.556 253.73 147.933 264.869 143.631 272.326C157.121 272.326 170.61 272.326 184.099 272.326C184.099 272.292 184.099 272.258 184.099 272.223C184.099 272.043 184.205 271.88 184.375 271.739C184.375 263.719 184.375 255.701 184.375 247.682C184.375 246.735 187.272 246.266 187.272 246.906C187.272 246.94 187.272 246.973 187.272 247.007C187.912 246.748 188.665 246.581 188.986 246.807C192.41 249.207 197.678 250.842 201.164 247.548C203.783 245.073 205.008 241.305 204.305 237.73C202.76 229.872 194.412 229.664 188.725 233.555C188.276 233.862 185.847 234.233 186.298 233.689C185.456 233.982 184.375 234.007 184.375 233.616C184.375 222.343 184.375 211.071 184.375 199.798C184.375 199.676 184.424 199.563 184.507 199.459C184.445 199.468 184.387 199.473 184.334 199.473C172.072 199.473 159.81 199.473 147.548 199.473C152.272 207.717 148.118 219.279 137.605 219.427C126.84 219.579 124.622 207.481 128.714 199.473C118.327 199.473 107.94 199.473 97.5527 199.473C97.5527 199.473 97.5508 199.473 97.5488 199.473C96.8378 200.059 94.9117 200.272 94.9117 199.799C94.9117 193.414 94.9117 187.029 94.9117 180.645C94.9117 179.739 97.8087 179.289 97.8087 179.869C97.8087 186.042 97.8087 192.216 97.8087 198.389C98.1517 198.236 98.5087 198.128 98.7587 198.128C109.003 198.128 119.247 198.128 129.491 198.128C129.545 198.045 129.594 197.959 129.649 197.877C130.118 197.18 132.689 197.08 132.503 197.355C132.34 197.597 132.188 197.864 132.035 198.128C132.112 198.128 132.189 198.128 132.266 198.128C134.016 198.128 132.354 199.22 131.358 199.435C128.71 205.213 128.4 214.34 134.782 217.34C140.242 219.907 145.358 216.193 146.407 210.686C147.188 206.585 146.369 202.63 143.993 199.201C143.874 199.03 144.68 198.575 145.482 198.345C145.794 198.216 146.107 198.128 146.333 198.128C159.212 198.128 172.092 198.128 184.971 198.128C184.971 189.308 184.971 180.487 184.971 171.667C184.971 170.72 187.868 170.251 187.868 170.891C187.868 170.925 187.868 170.958 187.868 170.992C188.508 170.733 189.261 170.566 189.582 170.792C193.006 173.192 198.274 174.827 201.76 171.533C204.379 169.058 205.604 165.29 204.901 161.715C203.356 153.856 195.008 153.649 189.321 157.54C188.872 157.847 186.447 158.217 186.893 157.675C186.051 157.968 184.971 157.993 184.971 157.602C184.971 145.402 184.971 133.202 184.971 121.002C175.669 120.971 166.367 120.828 157.066 120.814C152.159 130.543 144.764 139.174 138.946 148.395C134.353 155.673 129.84 162.969 123.55 168.917C114.693 177.294 98.5538 186.719 89.8568 173.532C83.8978 167.515 81.2457 157.455 78.3677 149.966C74.2097 139.143 68.9027 127.139 68.0277 115.451C67.2587 105.172 72.0777 99.2398 80.2777 93.6988C88.4317 88.1898 97.2607 83.7648 106.298 79.9018C106.498 79.8168 106.87 79.7518 107.254 79.7188C107.359 79.4778 107.64 79.2528 107.997 79.0858C107.67 77.6848 107.456 76.2318 107.297 74.7638C106.695 75.0458 105.934 75.2568 105.567 75.1548C94.9067 72.1948 85.3567 62.5558 81.1567 52.4298C78.3407 45.6408 76.1107 36.2228 84.6447 32.9278C84.6797 32.9148 84.7147 32.9058 84.7497 32.8938C84.4337 32.7908 84.1947 32.5708 84.1367 32.2038C82.9677 24.7258 88.1827 21.2868 94.7077 19.4078C100.089 17.8568 105.338 16.2238 109.9 12.8218C113.442 10.1798 116.562 7.02884 120.13 4.41984C125.588 0.428844 133.43 -3.01216 137.982 4.19184C140.21 7.71784 136.945 11.5268 133.729 14.7228C137.384 12.8718 141.509 11.5908 145.258 12.3428C151.268 13.5488 153.653 18.9258 149.03 23.5328C145.941 26.6118 142.135 28.7498 138.094 30.3748C140.357 35.9648 142.794 41.6708 143.806 47.6338C144.472 51.5568 145.281 56.2358 143.251 59.9328C139.855 66.1188 132.63 69.7028 134.23 77.3688C134.629 77.0578 135.17 76.8118 135.612 76.8168C143.658 76.9198 152.212 78.7038 160.158 76.8708C161.999 72.7338 164.471 68.0198 165.164 67.1348C165.668 66.4908 167.005 66.1488 167.784 66.3208C167.788 66.3208 167.792 66.3218 167.796 66.3228C167.949 66.3558 168.023 66.4268 168.022 66.5538C168.135 66.5948 168.24 66.6468 168.324 66.7208C174.604 72.2628 181.651 67.8858 183.239 60.4208C185.093 51.7018 178.472 47.6048 170.425 48.3308C169.48 48.4158 169.16 48.0198 169.246 47.5668C168.879 47.5368 168.648 47.4208 168.746 47.1998C173.129 37.2788 175.209 26.5688 179.121 16.4728C179.129 16.4508 179.146 16.4308 179.158 16.4098C179.244 15.7648 180.189 15.0508 181.068 15.2268C186.47 16.3078 191.855 18.6468 197.081 20.3448C208.41 24.0248 219.734 27.7168 231.057 31.4148C242.254 35.0718 253.451 38.7308 264.641 42.4068C268.308 43.6108 271.976 44.8148 275.641 46.0308C276.661 46.3688 278.603 46.6088 279.446 47.3558C279.635 47.5238 279.728 47.6978 279.759 47.8698C280.682 47.5148 282.046 47.4888 281.856 48.0198C278.205 58.2128 272.786 67.6778 269.604 78.0468C269.523 78.3108 269.181 78.5318 268.76 78.6858C268.12 79.1988 266.799 79.4678 266.269 78.9178C263.618 76.1658 259.429 72.6518 255.251 73.9608C252.256 74.8988 250.16 77.7318 249.111 80.5788C246.63 87.3128 249.39 94.8888 257.424 94.7958C257.96 94.7898 258.293 94.9278 258.469 95.1298C258.961 95.0808 259.331 95.1508 259.274 95.4198C257.854 102.078 254.831 108.779 252.515 115.163C251.489 117.991 250.094 126.773 245.608 126.145C245.236 126.093 245.628 125.808 246.205 125.538C245.988 125.596 245.771 125.654 245.554 125.712C245.753 125.566 245.931 125.343 246.101 125.093C245.06 125 243.94 124.607 243.152 124.409C239.414 123.469 235.711 122.385 232.023 121.265C227.447 119.875 222.873 118.449 218.326 116.944C218.32 117.02 218.29 117.106 218.213 117.209C211.309 126.444 201.72 143.894 187.87 136.106C187.87 143.012 187.87 149.919 187.87 156.825C187.87 156.897 187.848 156.966 187.817 157.032C194.971 152.689 209.118 151.573 207.921 163.709C206.942 173.635 195.678 176.952 187.869 172.411C187.869 181.291 187.869 190.171 187.869 199.05C188.095 198.964 188.319 198.91 188.51 198.91C199.518 198.91 210.526 198.91 221.534 198.91C219.238 195.081 218.439 189.911 221.093 186.033C223.496 182.521 227.245 180.999 231.37 180.593C242.298 179.515 243.694 190.596 239.431 198.053C241.222 198.053 243.014 198.053 244.805 198.053C244.808 198.038 244.811 198.023 244.814 198.009C245.779 194.087 249.205 191.995 253.166 192.821C254.1 193.016 251.546 194.187 250.809 194.033C248.874 193.629 247.697 195.914 247.454 198.538C247.615 198.81 247.585 199.153 247.41 199.455C247.391 201.465 247.911 203.512 249.052 204.595C249.045 204.222 249.05 203.85 249.078 203.486C249.509 197.972 252.705 192.04 259.062 192.928C260.233 193.091 260.175 193.924 259.624 194.519C262.269 192.842 265.336 193.287 268.077 195.013C268.192 195.085 268.269 195.163 268.331 195.242C270.299 194.305 272.262 194.031 274.133 194.396C276.658 188.697 280.967 185.961 285.908 184.149C279.585 183.067 275.143 178.093 274.254 171.191C273.097 162.213 278.865 155.485 285.535 150.302C287.072 141.825 293.53 134.02 297.452 126.654C295.91 125.096 294.68 123.167 293.908 120.804C292.406 116.203 295.283 112.272 299.961 111.21C304.033 110.285 306.471 111.681 309.064 113.94C309.303 113.786 309.604 113.686 309.963 113.692C321.672 113.873 336.88 118.3 343.076 129.223C347.078 136.279 345.058 142.345 345.103 149.98C345.152 158.23 351.412 163.634 354.663 170.669C354.79 170.717 354.871 170.789 354.871 170.892C354.871 170.926 354.871 170.959 354.871 170.993C355.511 170.734 356.264 170.567 356.585 170.793C360.009 173.193 365.277 174.828 368.763 171.534C371.382 169.059 372.607 165.291 371.904 161.716C370.36 153.857 362.011 153.65 356.324 157.541C355.875 157.848 353.45 158.218 353.896 157.676C353.054 157.969 351.974 157.994 351.974 157.603C351.974 145.133 351.974 132.663 351.974 120.193C351.974 119.685 352.808 119.317 353.581 119.181C354.056 118.598 355.71 118.113 356.287 118.634C355.869 118.256 358.271 118.617 359.006 118.641C359.971 118.672 360.937 118.685 361.902 118.707C362.681 116.564 363.687 114.342 364.339 112.087C358.728 113.399 352.912 108.42 350.816 102.892C350.776 102.908 350.743 102.924 350.699 102.939C344.466 105.148 338.886 108.841 332.363 110.247C330.872 110.568 330.406 109.69 331.445 109.203C330.68 109.598 329.494 109.6 329.152 108.82C325.9 101.394 323.141 93.7618 319.575 86.4738C319.544 86.4108 319.527 86.3488 319.515 86.2868C315.051 89.1768 309.155 88.0318 306.262 83.0158C304.921 80.6888 304.146 77.9078 305.283 75.3348C306.574 72.4168 309.911 71.2858 312.837 70.8988C312.9 70.8908 312.951 70.8898 313.008 70.8848C309.836 63.5918 307.112 56.1118 303.612 48.9618C303.592 48.9208 303.586 48.8828 303.574 48.8428C302.268 48.9058 302.114 47.8838 303.699 47.5548C307.924 46.6778 312.063 44.7888 316.075 43.2518C322.575 40.7618 329.045 38.1908 335.507 35.6038C345.752 31.5018 355.919 26.9038 366.368 23.3398C367.482 22.9598 369.055 23.5378 367.895 24.1408C367.917 24.1748 367.944 24.2048 367.962 24.2428C371.208 30.8748 373.789 37.7918 376.677 44.5798C378.284 43.2038 380.243 42.3608 382.531 42.6488C385.572 43.0308 387.84 45.5358 389.21 48.0968C390.603 50.6988 391.405 54.0598 390.34 56.9188C389.272 59.7868 386.521 61.1328 383.647 61.4198C383.76 61.5088 383.857 61.6168 383.924 61.7538C387.49 69.0418 390.249 76.6728 393.501 84.0998C393.765 84.7018 393.208 85.2078 392.506 85.4168C392.375 85.5318 392.149 85.6508 391.796 85.7668C386.986 87.3568 382.699 90.1168 378.021 92.0088C378.167 92.0938 378.305 92.1968 378.445 92.2948C378.549 92.2738 378.656 92.2498 378.749 92.2498C378.84 92.2498 378.932 92.2498 379.023 92.2498C379.197 92.2498 379.343 92.2708 379.478 92.2998C382.013 91.6918 385.079 92.8248 386.97 94.4168C389.384 96.4478 390.121 100.137 390.061 103.135C390.024 104.981 389.808 106.762 389.314 108.543C389.341 108.445 390.981 109.642 391.398 110.212C393.101 112.537 390.474 116.371 388.929 118.547C394.005 118.339 399.455 118.646 401.958 122.04C405.475 126.81 404.28 135.203 404.267 140.638C404.245 150.056 404.193 159.475 404.128 168.893C404.079 176.089 404.008 183.285 404.009 190.481C404.009 191.693 403.309 198.126 404.138 198.875H404.134C404.321 199.038 404.328 199.293 403.991 199.664C403.98 199.675 403.97 199.686 403.96 199.698C403.477 200.228 402.226 200.521 401.572 200.096C396.923 200.096 392.274 200.096 387.625 200.096C391.362 207.149 390.152 216.38 380.721 217.489C376.344 218.003 371.298 216.941 368.917 212.82C366.382 208.431 367.059 203.378 369.814 199.293C366.303 199.293 362.791 199.293 359.279 199.293C358.997 199.403 358.719 199.477 358.514 199.477C357.406 199.477 356.299 199.477 355.191 199.477C355.191 210.201 355.191 220.924 355.191 231.648C355.191 232.5 352.851 232.962 352.381 232.581C351.725 232.86 350.92 233.055 350.58 232.823C347.841 230.95 344.314 229.347 340.901 229.734C336.621 230.218 334.757 234.668 335.138 238.531C335.92 246.454 343.949 250.906 350.841 246.076C351.178 245.839 352.653 245.563 353.159 245.682C354.013 245.351 355.19 245.307 355.19 245.715C355.19 254.294 355.19 262.873 355.19 271.452C355.19 275.941 355.19 280.431 355.19 284.92C355.19 292.901 355.19 300.881 355.19 308.862C355.19 309.714 352.853 310.175 352.381 309.795C351.725 310.075 350.919 310.27 350.579 310.037C347.84 308.164 344.313 306.561 340.9 306.948C336.62 307.432 334.756 311.882 335.137 315.745C335.919 323.668 343.949 328.12 350.84 323.289C351.177 323.052 352.652 322.776 353.158 322.895C354.012 322.564 355.189 322.52 355.189 322.928C355.189 329.817 355.189 336.706 355.189 343.595C355.579 343.352 356.047 343.167 356.405 343.167C360.729 343.167 365.053 343.167 369.377 343.167C367.081 339.338 366.282 334.167 368.936 330.289C370.143 328.525 371.69 327.265 373.453 326.394C371.004 325.009 368.663 323.427 366.427 321.722C364.642 320.361 362.023 318.718 361.49 316.342C361.111 314.652 362.028 313.772 363.575 313.284C363.679 313.251 363.782 313.244 363.885 313.222C363.024 311.827 362.809 310.385 363.98 309.11C364.943 308.061 366.109 307.613 367.296 307.604C366.922 306.278 367.126 305.009 368.354 303.934C369.719 302.74 371.04 302.564 372.28 302.98C372.327 301.674 372.993 300.604 374.636 299.997C377.699 298.867 380.097 300.9 381.997 303.143C383.399 304.798 385.003 306.742 386.054 308.809C387.162 306.576 388.457 304.52 390.361 303.267C392.267 302.011 396.937 301.636 396.8 304.979C396.559 310.885 392.431 315.113 393.427 321.499C394.172 326.276 396.642 328.809 399.522 332.413C399.882 332.864 400.216 333.305 400.529 333.747C402.087 331.877 403.428 329.841 404.995 327.976C403.764 326.96 402.524 325.955 401.253 324.989C401.105 324.877 401.559 324.565 402.145 324.308C402.099 324.189 402.124 324.039 402.262 323.85C413.686 308.141 433.291 289.574 453.433 300.57C453.748 297.334 452.73 294.94 449.068 293.206C446.352 291.92 443.968 290.624 442.526 287.874C441.083 285.121 440.867 281.837 441.335 278.411C431.796 280.92 437.604 259.335 439.755 255.156C439.802 255.065 439.871 254.985 439.95 254.908C436.351 256.22 429.365 258.11 430.835 253.003C432.504 247.206 440.177 245.902 445.724 244.591C441.389 244.074 434.826 242.295 438.695 238.466C442.663 234.54 449.81 234.726 455.69 234.962C454.066 234.071 452.707 232.798 452.578 230.844C452.422 228.49 454.97 227.03 456.834 226.335C463.288 223.928 470.544 226.801 475.809 231.095C475.767 227.962 477.006 224.93 480.77 225.306C485.579 225.786 487.703 231.352 488.292 235.946C491.849 233.148 497.487 231.664 500.1 236.196C501.233 238.162 501.285 240.908 501.434 243.105C501.58 245.261 501.628 247.419 501.643 249.579C504.112 248.474 506.859 248.739 507.997 252.171C509.664 257.203 506.578 261.864 502.868 265.261C502.864 265.268 502.86 265.274 502.856 265.28C504.723 265.072 506.251 265.654 505.785 268.217C505.116 271.904 502.02 274.737 498.62 276.107C502.877 276.461 508.631 278.159 504.907 282.893C502.339 286.158 498.871 286.834 495.216 287.107C496.205 287.67 496.893 288.56 496.855 289.995C496.798 292.123 494.75 294.256 493.05 295.295C486.791 299.122 480.859 296.758 474.77 294.354C474.292 296.968 473.969 299.624 473.464 302.219C473.667 302.279 473.771 302.386 473.695 302.552C473.679 302.587 473.655 302.623 473.639 302.658C484.666 303.497 497.579 307.67 502.889 318.031C509.134 330.217 512.644 344.582 513.21 358.247C513.238 358.764 511.719 359.144 510.872 359.159ZM217.231 116.572C212.668 115.046 208.137 113.427 203.661 111.676C202.823 111.741 201.995 111.439 202.263 110.806C202.161 110.357 202.654 109.841 203.271 109.569C205.096 107.362 206.687 104.39 205.352 101.575C204.009 98.7438 201.05 97.2598 198.002 97.0388C191.345 96.5568 188.317 100.294 185.531 105.754C185.136 106.528 183.457 106.785 182.872 106.312C182.601 106.354 182.357 106.354 182.193 106.288C176.518 103.993 170.942 101.464 165.279 99.1408C165.258 99.7818 165.236 100.421 165.208 101.057C164.89 108.269 163.689 114.574 157.32 118.786C165.44 118.798 173.56 118.909 181.68 118.958C180.183 115.57 178.551 112.099 175.618 109.754C174.963 109.231 177.603 108.104 178.326 108.682C181.569 111.274 183.285 115.246 184.926 118.972C185.78 118.975 186.635 118.983 187.49 118.984C189.156 118.986 188.954 120.424 187.875 120.869C187.875 125.486 187.875 130.102 187.875 134.719C188.499 134.421 189.336 134.263 189.706 134.485C201.624 141.653 209.639 125.088 215.536 117.2C215.783 116.867 216.558 116.629 217.231 116.572ZM143.3 111.414C143.297 111.47 143.282 111.525 143.258 111.579C147.343 113.881 151.145 116.78 155.488 118.545C165.003 111.867 160.753 99.3608 163.811 89.7028C164.443 87.7058 165.328 85.5118 165.4 83.4028C165.5 80.5098 163.528 82.4319 162.784 84.0639C160.928 88.1379 159.81 92.7739 159.665 97.2579C159.641 98.0279 156.757 98.3628 156.768 98.0338C156.892 94.1698 157.664 86.8918 160.587 83.2418C160.287 83.1988 160 83.1778 159.729 83.1848C159.217 83.3768 158.646 83.5058 158.33 83.4598C155.269 84.7398 154.722 89.9428 154.479 93.0798C154.402 94.0748 151.485 94.6388 151.579 93.4338C151.829 90.1958 152.328 86.6678 154.436 84.0648C154.656 83.7938 154.896 83.5558 155.144 83.3308C153.835 82.4688 152.94 82.0548 151.92 83.4648C151.175 84.4958 150.643 85.6648 150.206 86.8568C149.413 89.0208 148.909 91.2828 148.081 93.4328C147.762 94.2608 144.929 94.5998 145.206 93.8798C145.288 93.6688 145.357 93.4478 145.433 93.2328C145.059 93.2118 144.79 93.0908 144.796 92.8478C144.82 91.7118 144.91 90.4168 144.525 89.3188C144.484 89.1378 144.415 88.9708 144.339 88.8088C143.139 91.0648 142.858 93.9209 142.878 96.3979C142.919 101.409 143.604 106.4 143.3 111.414ZM166.782 68.8208C165.722 70.9038 164.257 74.0258 163.016 76.7488C163.238 77.0808 163.098 77.5648 162.496 77.8958C161.82 79.3958 161.255 80.6818 160.922 81.4758C161.419 81.4978 161.914 81.5498 162.403 81.6378C164.877 80.2208 169.026 78.8488 168.208 83.3538C167.766 85.7898 166.906 88.0838 166.253 90.4628C165.627 92.7458 165.441 95.1168 165.34 97.4868C165.814 97.3378 166.292 97.2728 166.561 97.3818C172.187 99.6578 177.717 102.163 183.331 104.47C186.969 97.9098 192.368 93.5489 200.482 95.2729C208.699 97.0189 210.482 103.985 205.92 109.981C213.888 113.074 222.028 115.748 230.191 118.27C234.049 119.462 237.915 120.641 241.813 121.699C243.025 122.027 244.237 122.361 245.46 122.643C246.548 122.894 247.57 122.576 246.568 123.159C246.737 123.061 246.908 122.997 247.076 122.96C247.399 122.012 247.658 121.058 247.883 120.466C249.165 117.097 250.38 113.702 251.568 110.299C253.114 105.87 255.147 101.282 256.237 96.6838C252.245 96.5588 248.252 95.2178 246.391 91.3558C244.61 87.6608 245.002 83.0978 246.75 79.4548C248.513 75.7768 251.58 72.7978 255.673 71.9828C260.193 71.0838 264.228 73.3248 267.471 76.2658C270.632 66.9658 275.366 58.2998 278.743 49.0768C278.2 49.2878 277.574 49.3108 277.204 48.9838C277.07 48.8648 273.774 47.8648 272.725 47.5178C268.998 46.2858 265.269 45.0598 261.539 43.8358C250.504 40.2138 239.466 36.6048 228.426 33.0008C217.418 29.4068 206.409 25.8168 195.396 22.2398C191.256 20.8958 185.396 18.6178 181.426 17.5878C177.934 27.0808 175.831 37.0398 171.792 46.3348C176.442 46.0578 182.132 46.7048 184.813 50.9638C186.981 54.4068 186.945 58.6718 185.459 62.3858C182.226 70.4728 173.777 73.9028 166.782 68.8208ZM135.31 31.3968C133.266 32.0968 131.19 32.6968 129.141 33.2408C122.425 35.0238 115.535 36.2798 108.584 36.2898C112.666 42.3128 110.973 49.6208 108.131 55.9318C108.115 55.9668 108.091 55.9978 108.071 56.0308C108.341 56.3368 106.357 57.1878 105.808 57.1638C101.76 56.9888 97.8418 59.3948 99.5098 63.7378C100.769 67.0158 103.595 68.7218 106.619 65.8118C106.908 65.5338 109.273 64.5498 109.385 65.3348C110.073 70.1638 109.884 75.7949 111.538 80.5079C115.63 84.5699 119.672 89.0188 125.871 89.2498C132.061 89.4788 131.759 84.4908 132.016 79.8278C132.02 79.7448 132.043 79.6658 132.074 79.5898C131.848 79.5458 131.681 79.4488 131.629 79.2798C129.255 71.5758 134.841 68.2888 138.878 62.7318C145.363 53.8038 139.119 40.6468 135.31 31.3968ZM140.961 140.493C145.334 133.692 150.78 127.544 154.41 120.291C148.08 118.118 143.009 113.31 136.818 110.865C125.046 122.056 109.001 129.184 100.114 143.189C99.5807 144.03 96.6527 144.268 97.4037 143.084C100.585 138.07 104.669 133.936 109.134 130.172C108.806 130.186 108.552 130.129 108.484 129.957C105.608 122.733 100.984 116.431 98.1087 109.207C97.9157 108.722 100.75 107.786 101.006 108.431C103.797 115.44 108.22 121.59 111.108 128.548C118.953 122.259 127.721 116.875 134.885 109.947C135.1 109.486 136.834 108.795 137.44 108.981C138.483 109.301 139.488 109.702 140.47 110.15C140.558 105.443 139.9 100.75 140.008 96.0378C140.071 93.2888 140.466 90.0508 142.294 87.8598C143.12 86.8698 144.633 86.4018 145.871 86.6738C146.464 86.8038 146.865 87.1838 147.141 87.6898C147.654 86.2058 148.288 84.7848 149.266 83.5628C151.351 80.9568 154.583 80.4808 157.367 81.9918C157.666 81.8798 157.968 81.7798 158.28 81.7048C158.51 80.8988 158.891 79.8708 159.362 78.7268C151.242 80.2998 142.719 78.6888 134.532 78.5838C134.535 78.6628 134.513 78.7408 134.462 78.8168C134.759 78.9428 134.958 79.1768 134.937 79.5498C134.652 84.7198 134.16 90.8808 127.612 91.1688C119.933 91.5068 115.301 87.7688 110.359 83.1098C109.855 83.1868 109.41 83.1419 109.282 82.8699C109.084 82.4499 108.91 82.0158 108.748 81.5778C108.361 81.2078 107.969 80.8348 107.572 80.4598C98.4527 84.3718 89.2797 88.7768 81.2557 94.6598C77.2367 97.6068 72.7347 100.963 71.4977 106.085C70.3217 110.953 70.8087 115.892 71.9467 120.722C74.3657 130.987 78.0357 141.077 81.9297 150.866C84.4877 157.293 86.7557 165.572 91.4067 171.21C91.7017 171.259 91.9578 171.39 92.1068 171.634C92.3648 172.058 92.6327 172.45 92.9047 172.827C93.5427 173.452 94.2107 174.043 94.9357 174.566C95.0477 174.647 94.9567 174.786 94.7537 174.938C104.495 184.034 120.504 170.414 127.05 161.693C132.13 154.925 136.391 147.601 140.961 140.493ZM49.3407 282.456C49.2907 282.378 49.2487 282.293 49.2247 282.192C48.4327 278.834 46.0527 273.71 48.1457 270.348C50.1347 267.154 53.5007 265.273 55.7547 262.309C60.9477 255.48 55.4837 244.864 50.6557 237.901C50.3427 238.332 49.4527 238.534 48.9957 238.602C48.2337 238.714 47.6457 239.599 47.3097 240.236C47.0547 240.721 46.0727 240.908 45.6027 240.996C45.4877 241.017 44.2277 241.207 44.4577 240.77C45.4487 238.886 47.5227 237.916 49.5567 237.615C49.6177 237.606 50.0997 237.536 50.4277 237.572C49.8907 236.806 49.3637 236.088 48.8627 235.427C47.5547 236.284 46.2637 237.172 44.9357 237.983C43.8507 238.646 42.7097 237.884 42.9497 237.033C40.7657 234.806 38.6407 232.541 36.2087 230.621C36.7377 233.94 38.0907 237.17 39.1527 240.313C39.4877 241.305 37.8057 242.007 36.8407 241.653C36.6637 241.812 36.4377 241.962 36.1147 242.071C33.1697 243.064 30.3527 244.249 27.8507 246.105C29.7037 256.98 32.0497 267.751 36.1597 278.023C36.2467 278.241 36.2237 278.445 36.1307 278.629C36.1957 278.776 36.1367 278.975 35.8707 279.239C35.2697 279.835 34.6327 280.355 33.9787 280.842C36.5687 286.311 46.9787 289.66 49.3407 282.456ZM352.298 231.207C352.298 224.512 352.298 217.815 352.298 211.12C352.103 211.077 351.975 210.995 351.975 210.863C351.975 207.064 351.975 203.264 351.975 199.465C341.894 199.465 331.813 199.465 321.732 199.465C326.457 207.709 322.302 219.271 311.789 219.419C301.024 219.571 298.806 207.473 302.897 199.465C295.39 199.465 287.882 199.465 280.374 199.465C280.374 210.188 280.374 220.913 280.374 231.636C280.374 232.488 278.034 232.95 277.564 232.569C276.908 232.848 276.103 233.043 275.763 232.811C273.024 230.938 269.497 229.335 266.084 229.722C261.804 230.206 259.94 234.655 260.321 238.519C261.103 246.441 269.132 250.894 276.024 246.064C276.361 245.827 277.836 245.551 278.342 245.67C279.196 245.339 280.373 245.295 280.373 245.703C280.373 254.383 280.373 263.062 280.373 271.742C288.141 271.742 295.908 271.742 303.675 271.742C303.728 271.659 303.778 271.574 303.833 271.492C304.302 270.795 306.873 270.695 306.688 270.97C306.525 271.212 306.374 271.478 306.22 271.742C306.297 271.742 306.374 271.742 306.45 271.742C308.2 271.742 306.538 272.833 305.542 273.049C302.893 278.827 302.584 287.955 308.965 290.954C314.425 293.521 319.542 289.808 320.59 284.301C321.37 280.199 320.552 276.244 318.176 272.815C318.057 272.644 318.863 272.188 319.666 271.958C319.977 271.829 320.291 271.742 320.516 271.742C331.109 271.742 341.701 271.742 352.294 271.742C352.294 263.367 352.294 254.992 352.294 246.616C343.658 251.973 330.937 248.659 332.363 236.525C333.503 226.869 345.822 227.558 352.298 231.207ZM309.297 177.119C309.432 177.158 309.542 177.221 309.609 177.314C314.456 184.125 322.938 185.432 329.801 180.783C328.552 179.929 327.615 178.896 326.95 177.738C323.376 173.672 321.943 168.549 324.83 162.538C325.025 162.133 325.53 161.871 326.063 161.766C329.229 158.84 334.04 154.058 327.073 152.787C324.894 152.389 323.081 151.686 321.882 149.676C318.701 144.346 317.996 137.191 319.964 131.301C319.985 131.237 320.017 131.176 320.054 131.117C313.372 132.746 305.099 132.345 299.47 128.356C295.799 134.669 289.778 142.195 288.287 149.704C288.628 149.933 288.684 150.312 288.106 150.785C287.846 152.665 287.885 154.54 288.344 156.391C288.396 156.599 288.457 156.795 288.517 156.992C289.265 158.636 290.452 160.499 292.294 161.999C296.297 164.509 302.321 164.327 307.217 165.255C307.98 164.591 309.519 164.488 309.704 165.493C310.383 169.186 309.431 172.72 308.955 176.369C309.256 176.548 309.416 176.81 309.297 177.119ZM326.97 164.349C327.014 164.229 327.059 164.111 327.105 163.993C327.059 164.112 327.013 164.231 326.97 164.349ZM364.727 110.534C365.115 108.61 365.145 106.671 364.451 104.748C363.695 102.655 359.03 96.6858 361.413 94.5418C362.918 93.1868 364.564 93.1558 366.166 93.8628C366.295 93.0928 366.7 92.4588 367.695 92.1148C369.278 91.5668 370.573 91.7288 371.924 92.7148C372.046 92.8038 372.165 92.9029 372.285 92.9949C372.276 92.9449 372.258 92.8978 372.251 92.8468C372.152 92.1308 372.87 91.7278 373.455 91.5458C374.456 91.2338 375.358 91.1908 376.187 91.3318C381.121 89.4588 385.575 86.5228 390.596 84.8398C387.348 77.4218 384.592 69.7988 381.03 62.5198C380.768 61.9848 381.208 61.5198 381.824 61.2838C381.084 60.8108 381.803 59.6198 383.039 59.5938C388.542 59.4748 388.618 53.7498 386.765 49.7738C385.855 47.8218 384.413 45.7448 382.38 44.8378C380.331 43.9248 378.778 45.1788 377.587 46.7388C377.703 47.2988 377.128 47.7528 376.442 47.9248C375.394 48.3748 373.666 48.2448 374.327 47.2618C374.383 47.1788 374.442 47.0978 374.5 47.0158C371.331 39.7408 368.612 32.2778 365.131 25.1408C355.151 28.6948 345.399 33.0658 335.573 36.9918C326.223 40.7268 316.425 45.7018 306.526 48.2018C310.086 55.4808 312.842 63.1028 316.09 70.5208C316.522 71.5068 314.757 72.2368 313.753 71.8208C313.485 72.1508 313.004 72.4548 312.455 72.5278C301.796 73.9358 311.639 91.9288 319.063 84.2268C319.743 83.5218 322.583 83.4958 321.394 84.7288C321.273 84.8538 321.144 84.9598 321.019 85.0768C321.621 85.0188 322.227 85.1808 322.475 85.6858C326.041 92.9738 328.801 100.605 332.052 108.032C332.257 108.501 331.965 108.911 331.495 109.169C331.646 109.103 331.823 109.044 332.034 108.999C338.277 107.654 343.641 104.058 349.612 101.942C349.883 101.846 350.181 101.809 350.462 101.815C350.405 101.62 350.352 101.424 350.305 101.228C350.095 100.339 353 99.5938 353.202 100.452C354.111 104.302 359.825 112.853 364.727 110.534ZM368.039 92.9949C367.424 92.7489 367.628 92.9508 368.053 93.0018C368.048 92.9998 368.044 92.9969 368.039 92.9949ZM364.54 118.756C364.665 118.758 364.791 118.762 364.917 118.764C370.398 118.849 375.88 118.89 381.361 118.917C382.64 118.923 384.206 118.814 385.897 118.704C385.936 118.608 385.987 118.508 386.063 118.399C387.437 116.435 391.084 111.634 386.822 110.162C386.29 109.978 386.117 109.587 386.287 109.074C387.115 106.579 387.45 103.564 386.943 100.978C386.636 99.4078 386.22 97.6828 385.098 96.4688C384.304 95.6098 381.94 93.8498 380.332 94.0588C381.886 95.9348 383.082 98.3808 384.209 100.221C384.957 101.442 382.172 102.479 381.545 101.455C380.374 99.5428 378.271 94.3388 375.529 93.4128C375.701 93.8848 375.876 94.3558 375.946 94.8618C375.999 95.2448 375.781 95.5738 375.447 95.8198C376.971 97.3898 378.361 99.1208 379.536 100.848C379.71 101.103 377.09 102.288 376.639 101.624C375.117 99.3868 373.234 97.2868 371.269 95.4338C370.588 94.7908 369.846 94.0688 369.025 93.5278C369.018 94.1078 369.069 94.6808 369.161 95.2608C369.184 95.4088 369.049 95.5538 368.831 95.6858C371.47 98.1028 373.646 101.814 374.348 103.641C374.528 104.11 371.687 105.034 371.451 104.417C370.19 101.135 368.08 97.8958 365.072 95.9538C364.601 95.6498 364.114 95.3228 363.591 95.1008C363.631 95.1848 363.663 95.2778 363.681 95.3868C363.903 96.7858 364.5 98.0128 365.171 99.2518C366.836 102.323 368.533 105.749 367.74 109.344C367.733 109.378 367.722 109.411 367.715 109.445C368.295 109.48 368.632 109.689 368.054 110.172C367.84 110.351 367.623 110.517 367.406 110.672C366.638 113.416 365.447 116.054 364.54 118.756ZM355.169 172.569C355.102 172.701 354.999 172.821 354.873 172.924C354.873 179.939 354.873 186.953 354.873 193.967C355.069 194.01 355.196 194.092 355.196 194.224C355.196 195.518 355.196 196.813 355.196 198.107C355.586 197.864 356.054 197.679 356.412 197.679C361.699 197.679 366.987 197.679 372.274 197.679C373.252 197.679 373.232 198.079 372.835 198.479C372.84 198.491 372.842 198.503 372.832 198.517C368.712 204.396 369.408 214.749 377.955 216.237C388.701 218.107 387.926 206.328 384.265 200.033C382.89 199.732 383.547 198.073 385.016 198.073C390.315 198.073 395.613 198.073 400.912 198.073C400.828 196.404 401.122 194.225 401.12 193.422C401.1 187.363 401.152 181.304 401.193 175.245C401.258 165.729 401.326 156.213 401.357 146.697C401.379 139.978 403.198 130.083 399.665 123.859C397.36 119.798 392.928 120.633 388.983 120.624C384.085 120.613 379.187 120.595 374.289 120.557C369.246 120.518 364.201 120.489 359.159 120.344C358.206 120.317 356.278 120.546 354.875 120.289C354.875 132.465 354.875 144.64 354.875 156.816C354.875 156.888 354.854 156.957 354.822 157.023C361.976 152.681 376.124 151.563 374.927 163.7C373.958 173.499 362.964 176.858 355.169 172.569ZM276.633 195.282C277.648 195.825 278.617 196.575 279.524 197.528C280.001 197.502 280.375 197.587 280.375 197.816C280.375 197.917 280.375 198.017 280.375 198.118C288.142 198.118 295.909 198.118 303.677 198.118C303.731 198.035 303.78 197.949 303.835 197.867C304.304 197.17 306.875 197.07 306.69 197.345C306.527 197.587 306.375 197.854 306.222 198.118C306.299 198.118 306.376 198.118 306.453 198.118C308.203 198.118 306.541 199.21 305.545 199.425C302.897 205.203 302.587 214.33 308.969 217.33C314.429 219.897 319.546 216.183 320.594 210.676C321.374 206.575 320.556 202.62 318.18 199.191C318.061 199.02 318.867 198.565 319.669 198.335C319.981 198.206 320.294 198.118 320.52 198.118C331.005 198.118 341.49 198.118 351.976 198.118C351.976 194.893 351.976 191.667 351.976 188.442C345.979 188.214 337.831 185.902 331.746 181.839C331.594 181.774 331.434 181.714 331.289 181.644C323.503 186.536 313.072 186.583 307.177 178.733C296.933 184.758 281.741 182.768 276.633 195.282ZM269.334 196.063C267.847 197.168 266.654 198.665 265.953 200.389C265.106 202.472 264.463 205.306 264.786 207.827C264.871 207.946 264.905 208.094 264.85 208.279C265.005 209.145 265.283 209.965 265.719 210.693C266.285 211.637 265.961 211.509 266.264 211.183C266.682 210.733 267.08 210.273 267.418 209.756C268.09 208.73 268.701 207.664 269.211 206.548C270.244 204.287 271.107 201.923 271.45 199.452C270.056 199.315 272.108 198.119 272.946 198.119C274.096 198.119 275.246 198.119 276.396 198.119C275.778 197.497 275.041 196.844 274.235 196.325C274.082 196.273 273.953 196.196 273.856 196.095C272.425 195.276 270.823 194.955 269.334 196.063ZM260.179 197.006C258.793 199.15 258.224 201.756 258.102 204.282C258.007 206.241 257.964 208.972 259.173 210.657C259.525 211.147 259.792 211.088 259.582 211.232C260.645 210.503 261.344 209.33 261.986 208.241C261.989 208.236 261.994 208.231 261.998 208.226C261.524 204.076 262.839 199.381 266.009 196.702C265.946 196.679 265.886 196.653 265.831 196.619C263.835 195.361 261.652 194.728 260.179 197.006ZM254.609 208.871C254.816 208.727 255.055 208.644 255.302 208.605C255.107 207.291 255.107 205.937 255.159 204.845C255.314 201.626 256.07 197.538 258.609 195.274C258.733 195.164 258.859 195.066 258.984 194.966C258.706 195.091 258.397 195.155 258.085 195.112C253.951 194.535 252.319 199.5 252.061 202.81C251.965 204.045 252.026 210.674 254.609 208.871ZM124.759 273.122C125.095 273.122 125.432 273.122 125.768 273.122C125.411 272.527 125.094 271.899 124.817 271.249C124.781 271.86 124.758 272.481 124.759 273.122ZM115.546 224.367C115.257 224.284 115.209 224.091 115.546 224.367ZM109.377 273.122C113.534 273.122 117.69 273.122 121.847 273.122C121.862 268.285 122.572 263.704 124.817 259.365C126.65 255.821 129.253 252.062 129.684 248.02C129.896 246.028 130.124 228.187 126.91 230.436C126.632 230.63 126.256 230.721 125.884 230.731C126.464 233.906 126.773 237.16 127.144 240.314C127.26 241.295 124.344 241.921 124.247 241.09C123.792 237.227 123.336 233.34 122.535 229.531C122.383 228.809 122.244 228.01 122.042 227.235C121.945 227.686 121.854 228.138 121.771 228.593C121.708 228.94 121.22 229.227 120.663 229.391C121.519 233.082 121.888 237.15 121.458 240.613C121.349 241.496 118.515 241.759 118.561 241.389C119.039 237.533 118.324 233.172 117.501 229.412C117.222 228.137 116.939 226.169 116.094 224.964C115.581 225.998 115.201 227.077 114.854 228.177C114.814 228.303 114.695 228.417 114.533 228.518C114.766 229.348 114.91 230.158 115.011 230.721C115.488 233.383 115.906 236.325 115.472 239.025C115.313 240.015 112.391 240.525 112.575 239.386C112.899 237.365 112.671 235.179 112.382 233.166C112.132 231.428 111.915 228.665 110.684 227.217C110.62 227.359 110.565 227.506 110.528 227.661C110.406 228.151 110.3 228.639 110.268 229.144C110.182 230.467 110.247 231.786 110.386 233.102C110.604 235.161 111.042 237.248 110.985 239.324C110.98 239.518 110.853 239.697 110.661 239.85C110.703 239.911 110.744 239.972 110.782 240.028C112.47 242.467 115.071 243.224 117.067 245.264C119.172 247.416 119.449 249.934 119.379 252.842C119.35 254.053 116.419 254.542 116.453 253.101C116.545 249.329 115.618 247.095 112.416 245.118C110.585 243.987 109.315 243.068 108.119 241.266C107.303 240.037 106.53 238.747 105.608 237.594C105.777 237.805 101.794 233.798 102.378 236.33C102.986 238.965 104.16 241.389 105.338 243.81C109.325 252.015 113.321 264.075 109.377 273.122ZM37.4787 358.241C37.6497 357.686 38.7257 357.29 39.5127 357.358C40.9917 356.614 42.4427 355.659 43.8457 354.543C43.8787 353.995 44.5227 353.58 45.1997 353.405C51.1677 348.14 56.1427 340.359 58.6207 335.325C58.7997 334.963 59.5287 334.724 60.2087 334.628C60.1037 334.498 60.1617 334.311 60.4907 334.06C63.7497 331.566 74.8527 324.741 69.3597 320.406C68.7017 322.214 67.7967 323.889 66.9657 325.051C66.5097 325.688 63.6527 326.068 64.3107 325.15C66.2457 322.448 68.8397 316.225 66.4997 313.226C66.2297 316.472 64.6217 319.401 63.4377 322.498C62.9557 323.761 60.0437 323.715 60.6547 322.118C61.5667 319.73 63.0207 317.303 63.4487 314.763C63.6687 313.459 63.8207 312.073 63.3287 310.8C63.0047 309.961 61.4667 310.201 62.6197 309.443C62.4697 309.542 62.3017 309.611 62.1257 309.655C61.9227 313.094 60.5697 317.221 59.8947 318.502C59.4617 319.322 56.6767 319.577 57.0157 318.934C58.2357 316.622 61.0747 307.984 58.1777 306.129C57.0797 305.425 55.1257 313.769 54.9697 314.435C54.4747 316.552 54.0227 318.724 53.0467 320.672C53.0727 320.829 53.0967 320.982 53.1207 321.123C53.2287 321.761 51.4587 322.301 50.6337 322.169C50.0667 322.172 49.6697 321.997 49.9417 321.545C49.9997 321.449 50.0527 321.347 50.1067 321.247C49.8007 319.515 49.4377 317.785 48.9197 316.106C48.4847 314.694 47.6657 311.415 46.0377 310.553C46.0857 310.688 45.8367 310.92 45.7487 311.47C45.6487 312.095 45.5897 312.724 45.5957 313.359C45.6067 314.587 45.6837 315.812 45.8427 317.031C46.1257 319.208 46.4737 321.417 47.1347 323.516C47.1757 323.646 47.1107 323.78 46.9767 323.908C47.6077 323.851 48.0877 323.917 47.7947 324.191C41.5857 329.986 35.3497 335.74 28.4387 340.701C27.9397 341.058 25.0437 341.475 26.2227 340.629C28.7667 338.803 31.2167 336.861 33.6057 334.849C33.5497 334.797 33.5007 334.739 33.4637 334.67C31.3977 330.796 29.0927 327.053 26.7817 323.315C26.2957 323.505 25.7867 323.656 25.5797 323.655C22.3737 323.637 19.1807 323.511 16.0067 323.776C15.8607 329 16.7607 334.375 17.9737 339.434C19.2237 344.649 20.7707 351.895 24.9707 355.658C29.0397 359.298 33.3357 359.71 37.4787 358.241ZM76.2487 339.18C75.9537 339.013 76.7487 338.507 77.5867 338.237C81.5527 335.795 85.7197 333.708 89.8327 331.532C89.9287 330.907 90.9127 330.489 91.7117 330.523C95.0767 328.696 98.3728 326.756 101.441 324.426C101.586 324.316 101.885 324.216 102.232 324.136C99.4338 318.114 95.6727 312.693 91.8237 307.301C91.2857 306.548 93.0917 305.767 94.0497 305.938C94.2377 305.866 94.4357 305.809 94.6307 305.782C100.963 304.918 105.114 297.782 101.885 291.985C100.613 289.701 99.0747 287.969 96.4177 287.382C95.1857 287.11 93.9108 287.005 92.7148 287.161C92.5698 287.959 90.9737 288.412 90.2137 287.996C89.4197 288.479 88.7328 289.174 88.2168 290.135C88.0408 290.463 87.4197 290.685 86.7997 290.793C86.0297 291.062 85.0917 291.166 84.9377 290.771C82.0537 283.389 77.3647 276.988 73.1327 270.344C68.1557 273.645 62.7237 276.38 58.8067 280.976C58.8317 280.984 58.8587 280.988 58.8837 280.997C68.0407 284.714 63.4717 294.952 57.5107 299.481C54.3337 301.895 50.1737 303.751 46.1207 302.73C41.3277 301.523 39.1187 296.953 37.9897 292.522C32.1027 296.151 26.6877 300.498 20.6027 303.822C20.3307 303.97 19.8207 304.06 19.3527 304.075C19.4597 304.147 19.5467 304.239 19.5997 304.36C23.9707 314.444 30.5767 323.319 35.8287 332.935C38.9397 330.222 41.9667 327.407 44.9857 324.588C44.6057 324.595 44.3057 324.512 44.2357 324.29C43.2337 321.106 42.6227 317.471 42.6967 314.133C42.7527 311.617 43.2177 309.76 45.9057 309.187C49.2107 308.483 50.9307 311.67 51.9107 315.103C52.9087 310.135 53.9067 304.833 59.1727 304.54C61.0017 304.438 61.8247 305.7 62.0687 307.51C63.9457 307.244 65.9037 308.564 66.3687 310.507C66.3827 310.509 66.3987 310.509 66.4107 310.512C70.2857 311.446 70.7687 314.884 69.9697 318.35C70.2957 318.303 70.5937 318.318 70.7827 318.426C79.4667 323.397 66.8777 331.377 62.8017 334.496C62.5447 334.693 61.9967 334.819 61.4657 334.853C58.3737 341.126 53.2537 349 46.7887 354.261C46.8967 354.918 47.1567 355.581 47.3817 356.184C47.5147 356.542 47.6457 356.959 47.8167 357.345C53.0437 354.154 58.5327 351.416 63.7127 348.144C63.8567 348.053 64.1447 347.971 64.4767 347.91C65.2737 347.543 66.4857 347.358 66.6847 347.854C67.6337 350.222 69.3827 353.011 72.2247 353.241C74.3687 353.414 76.3107 352.048 77.6627 350.485C80.9527 346.685 80.8687 341.783 76.2487 339.18ZM184.102 304.83C184.102 294.664 184.102 284.497 184.102 274.33C169.772 274.33 155.443 274.33 141.114 274.33C139.299 274.33 139.702 272.628 141.038 272.358C143.727 267.321 145.127 259.069 138.66 256.62C133.083 254.508 127.268 257.986 126.681 263.878C126.34 267.301 127.254 270.382 129.209 273.19C130.125 273.494 128.443 274.723 127.519 274.723C115.888 274.723 104.256 274.723 92.6247 274.723C92.5897 276.326 92.4887 278.409 92.5837 279.761C92.6257 279.835 92.6757 279.902 92.6927 280.006C92.7137 280.126 92.7237 280.249 92.7397 280.37C92.7627 280.368 92.7647 280.405 92.7527 280.465C92.9757 282.221 92.8197 284.142 92.7567 285.941C96.7017 285.261 101.058 286.225 103.371 288.971C109.83 296.637 103.019 305.175 94.9317 306.769C98.8317 312.243 102.617 317.766 105.393 323.914C105.707 324.61 103.768 325.361 102.874 325.016C99.6387 327.339 96.2057 329.313 92.7097 331.183C92.7197 331.234 92.7318 331.284 92.7318 331.341C92.7318 335.878 92.7318 340.415 92.7318 344.951C92.7348 344.951 92.7377 344.951 92.7407 344.951C103.749 344.951 114.757 344.951 125.765 344.951C123.469 341.122 122.671 335.951 125.325 332.073C127.727 328.561 131.477 327.039 135.602 326.632C146.557 325.551 147.933 336.69 143.632 344.147C157.121 344.147 170.61 344.147 184.099 344.147C184.099 336.178 184.099 328.209 184.099 320.239C175.462 325.596 162.743 322.282 164.169 310.148C165.306 300.493 177.626 301.182 184.102 304.83ZM236.418 274.255C235.044 273.953 235.701 272.295 237.17 272.295C250.499 272.295 263.827 272.295 277.155 272.295C277.155 271.67 277.155 271.045 277.155 270.42C277.155 270.225 277.282 270.052 277.477 269.903C277.477 262.14 277.477 254.377 277.477 246.614C268.84 251.971 256.12 248.657 257.546 236.523C258.681 226.869 271.001 227.558 277.477 231.206C277.477 220.625 277.477 210.044 277.477 199.463C276.397 199.463 275.317 199.463 274.237 199.463C273.612 203.463 271.785 208.277 268.902 211.019C267.284 212.558 263.898 213.932 262.733 211.283C261.255 212.903 259.321 214.137 257.414 212.799C256.692 212.292 256.207 211.547 255.861 210.704C252.134 212.815 249.92 210.018 249.263 206.576C249.024 206.634 248.812 206.66 248.675 206.638C245.619 206.13 244.488 203.038 244.546 200.162C241.997 200.162 239.448 200.162 236.9 200.162C235.063 200.162 235.438 198.312 236.845 198.068C239.511 193.026 240.87 184.836 234.43 182.397C228.853 180.285 223.038 183.763 222.452 189.655C222.111 193.078 223.025 196.158 224.98 198.966C225.896 199.27 224.214 200.499 223.29 200.499C211.485 200.499 199.68 200.499 187.874 200.499C187.874 203.694 187.874 206.89 187.874 210.085C187.874 210.361 187.624 210.595 187.275 210.774C187.275 218.126 187.275 225.478 187.275 232.83C187.275 232.903 187.253 232.972 187.221 233.038C194.374 228.695 208.525 227.577 207.327 239.714C206.348 249.64 195.084 252.957 187.275 248.416C187.275 256.383 187.275 264.35 187.275 272.316C187.289 272.316 187.303 272.316 187.317 272.316C187.703 272.079 188.163 271.899 188.514 271.899C200.485 271.899 212.456 271.899 224.428 271.899C225.405 271.899 225.386 272.297 224.991 272.697C224.997 272.709 224.998 272.722 224.988 272.737C220.866 278.616 221.563 288.969 230.109 290.457C240.855 292.331 240.079 280.55 236.418 274.255ZM352.298 344.167C352.298 337.387 352.298 330.608 352.298 323.828C343.662 329.185 330.941 325.872 332.367 313.738C333.502 304.084 345.822 304.773 352.298 308.421C352.298 300.841 352.298 293.262 352.298 285.682C352.298 281.483 352.298 277.285 352.298 273.086C342.11 273.086 331.921 273.086 321.733 273.086C326.457 281.331 322.303 292.892 311.79 293.04C301.025 293.192 298.806 281.094 302.899 273.086C296.76 273.086 290.62 273.086 284.481 273.086C284.5 273.649 283.897 274.305 282.974 274.305C282.108 274.305 281.242 274.305 280.376 274.305C280.376 277.838 280.376 281.371 280.376 284.905C280.376 285.1 280.249 285.273 280.054 285.422C280.054 291.435 280.054 297.447 280.054 303.461C280.054 303.534 280.032 303.602 280.001 303.669C287.154 299.326 301.303 298.209 300.105 310.345C299.126 320.27 287.863 323.589 280.054 319.048C280.054 322.93 280.054 326.813 280.054 330.695C280.054 335.185 280.054 339.675 280.054 344.166C287.929 344.166 295.803 344.166 303.678 344.166C303.732 344.083 303.781 343.997 303.836 343.915C304.305 343.218 306.876 343.118 306.691 343.393C306.528 343.635 306.376 343.902 306.223 344.166C306.3 344.166 306.377 344.166 306.454 344.166C308.204 344.166 306.541 345.258 305.546 345.473C302.897 351.251 302.589 360.378 308.97 363.378C314.43 365.945 319.547 362.231 320.595 356.724C321.375 352.623 320.557 348.668 318.181 345.239C318.062 345.068 318.868 344.613 319.67 344.383C319.982 344.254 320.295 344.166 320.521 344.166C331.112 344.167 341.705 344.167 352.298 344.167ZM440.472 246.772C439.07 247.205 437.742 247.756 436.605 248.528C437.815 247.926 439.147 247.329 440.472 246.772ZM454.95 293.982C457.243 296.74 456.624 300.198 455.768 303.421C455.758 303.458 455.738 303.492 455.724 303.527C455.753 303.586 455.767 303.652 455.745 303.733C454.566 308.119 456.037 311.8 461.142 310.241C464.582 309.19 468.572 306.948 470.449 303.688C470.393 303.586 470.376 303.46 470.408 303.309C471.106 300.016 471.443 296.603 472.139 293.29C472.028 293.195 472.074 293.071 472.21 292.94C472.476 291.722 472.793 290.518 473.202 289.341C473.309 289.032 473.639 288.785 474.038 288.613C474.041 288.425 474.102 288.23 474.27 288.06C474.786 287.538 475.618 287.359 476.319 287.511C477.563 287.781 478.723 287.933 479.329 286.823C479.872 285.83 479.9 284.604 479.661 283.517C479.454 282.58 479.034 281.275 478.236 280.729C478.229 280.725 478.223 280.722 478.216 280.717C477.998 280.994 477.78 281.366 477.619 281.693C477.273 282.397 475.685 282.696 475.053 282.31C473.153 282.633 471.677 280.923 471.487 278.234C471.239 274.737 472.029 270.531 474.362 267.713C472.639 267.54 470.933 266.843 470.308 265.139C469.801 263.755 470.215 262.485 471.034 261.451C466.805 262.013 461.698 263.724 458.635 260.41C457.942 259.66 457.698 258.956 457.743 258.305C457.386 258.497 457.007 258.699 456.606 258.908C454.55 260.213 452.33 261.152 449.876 261.595C449.571 262.285 449.236 263.046 448.887 263.857C448.944 263.819 449.001 263.785 449.055 263.756C449.552 263.494 450.534 263.147 451.092 263.426C452.027 263.895 452.913 264.384 453.669 265.118C454.264 265.696 451.572 266.765 450.955 266.166C450.3 265.53 449.554 265.071 448.741 264.665C448.675 264.632 448.625 264.596 448.586 264.56C445.134 272.677 440.641 285.374 448.081 289.9C450.261 291.225 453.269 291.96 454.95 293.982ZM404.429 324.361C407.249 326.534 409.935 328.874 412.686 331.133C413.84 332.081 415.496 333.85 417.137 334.826C417.544 333.834 418.096 332.897 418.804 332.06C421.191 329.237 425.294 327.121 429.298 326.609C429.19 326.203 429.381 325.851 429.719 325.6C429.824 325.481 430.003 325.297 430.073 325.197C430.326 324.84 430.574 324.481 430.822 324.119C431.479 323.16 432.127 322.195 432.798 321.246C433.285 320.557 433.761 319.79 434.408 319.235C434.999 318.727 436.837 318.351 436.999 319.524C437.069 320.025 436.762 320.438 436.327 320.709C436.266 320.782 436.205 320.855 436.147 320.931C435.923 321.223 435.704 321.519 435.491 321.82C434.908 322.639 434.341 323.47 433.775 324.301C433.297 325.001 432.833 325.88 432.212 326.532C435.282 326.801 437.997 328.248 439.444 331.32C442.429 327.522 444.636 323.203 446.938 318.963C447.119 318.631 447.519 318.399 447.965 318.275C448.646 317.951 449.594 317.855 450.05 318.296C455.347 323.417 462.124 326.891 466.611 332.86C467.268 333.734 465.76 334.579 464.701 334.466C462.937 335.682 461.203 337.358 461.1 339.58C461.021 341.276 461.969 342.825 463.288 343.831C464.642 344.863 466.501 345.564 468.219 345.239C470.098 344.884 471.125 342.904 471.614 341.247C471.892 340.306 474.677 339.889 474.515 340.816C474.636 340.838 474.742 340.878 474.818 340.941C476.501 342.33 478.258 343.612 480.051 344.842C480.039 343.478 480.31 341.891 480.358 341.235C480.491 339.408 480.274 336.512 482.415 335.839C484.164 335.289 484.583 336.96 482.86 337.501C484.121 337.105 483.834 336.571 483.646 337.611C483.576 337.998 483.515 338.387 483.469 338.778C483.357 339.743 483.274 340.712 483.223 341.682C483.174 342.604 483.132 343.529 483.139 344.453C483.141 344.769 483.137 345.09 483.171 345.405C483.219 345.851 483.372 345.75 482.978 345.492C483.551 345.867 483.315 346.334 482.807 346.677C486.098 348.803 489.472 350.807 492.775 352.911C493.092 353.113 492.362 353.597 491.552 353.868C491.628 353.92 491.633 353.997 491.528 354.107C490.71 354.964 489.998 355.897 489.329 356.861C496.156 357.757 503.371 358.762 510.252 357.774C509.584 345.378 506.544 332.252 501.15 321.105C498.375 315.369 495.052 311.295 489.169 308.564C484.049 306.187 478.545 304.46 472.914 303.853C467.899 310.756 449.289 317.469 452.866 304.166C452.869 304.154 452.878 304.144 452.882 304.132C452.816 304.012 452.793 303.863 452.842 303.678C452.894 303.481 452.939 303.291 452.986 303.099C452.979 303.095 452.969 303.093 452.962 303.088C433.82 290.944 415.716 309.211 404.986 323.965C404.872 324.123 404.672 324.256 404.429 324.361ZM409.451 364.67C407.57 365.751 405.311 366.432 403.389 366.119C403.389 372.328 403.389 378.537 403.389 384.746C404.923 377.929 406.976 371.216 409.451 364.67ZM418.226 346.106C416.445 343.45 415.817 339.838 416.589 336.554C416.534 336.557 416.485 336.556 416.444 336.55C414.116 336.227 411.653 333.496 409.945 332.084C408.939 331.251 407.938 330.411 406.937 329.571C405.546 331.309 404.297 333.154 402.859 334.856C402.557 335.214 402.051 335.382 401.556 335.398C402.148 336.564 402.507 337.811 402.49 339.307C402.478 340.384 399.563 340.949 399.579 339.62C399.643 334.014 393.224 331.302 391.537 326.364C390.128 322.242 389.766 317.082 391.427 312.955C392.054 311.397 392.831 309.881 393.321 308.272C393.547 307.533 393.839 306.734 393.87 305.952C393.955 303.875 392.009 304.172 391.099 305.556C388.803 309.048 387.375 313.045 385.039 316.498C384.449 317.37 381.507 317.533 382.314 316.34C383.162 315.087 383.87 313.575 384.575 312.011C384.283 311.995 384.07 311.912 384.022 311.738C383.415 309.509 381.794 307.302 380.398 305.513C379.58 304.464 378.729 303.407 377.728 302.523C377.247 302.098 376.753 301.651 376.189 301.336C375.903 301.154 375.598 301.014 375.273 300.916C375.348 300.946 375.422 300.977 375.496 301.007C374.558 302.954 375.966 305.533 377.125 307.377C377.947 308.523 378.658 309.656 379.226 310.474L379.228 310.477C380.061 311.623 380.923 312.746 381.783 313.876C382.261 314.504 379.496 315.459 379.057 314.882C378.039 313.544 375.61 310.744 373.954 307.892C373.77 307.65 373.591 307.406 373.394 307.173C372.927 306.62 369.477 303.302 370.088 306.14C370.355 307.382 370.965 308.489 371.734 309.522C372.184 309.95 372.586 310.425 372.91 310.941C374.183 312.344 375.622 313.647 376.7 315.02C377.577 316.139 374.807 317.245 374.039 316.265C373.442 315.505 372.398 314.486 371.3 313.333C370.971 313.316 370.715 313.218 370.639 313C370.552 312.749 370.436 312.503 370.309 312.261C369.715 311.599 369.143 310.908 368.649 310.209C368.334 309.939 368.001 309.698 367.659 309.497C367.336 309.307 366.992 309.117 366.626 309.02C366.538 309.166 366.45 309.313 366.362 309.459C366.083 310.146 366.102 310.802 366.409 311.483C367.67 314.277 370.675 316.306 373.191 317.896C373.758 318.254 371.24 319.425 370.477 318.943C369.646 318.419 368.218 317.494 366.843 316.364C366.578 316.364 366.345 316.315 366.191 316.193C365.658 315.77 365.003 315.19 364.302 314.885C364.302 315.11 364.325 315.333 364.395 315.55C364.976 317.204 366.235 318.342 367.578 319.399C370.339 321.571 373.197 323.627 376.278 325.323C376.289 325.329 376.294 325.336 376.303 325.342C377.245 325.1 378.221 324.933 379.22 324.834C390.175 323.754 391.551 334.892 387.248 342.349C391.886 342.349 396.522 342.349 401.159 342.349C401.909 341.976 403.034 341.965 403.317 342.59C403.625 342.755 403.821 343.054 403.593 343.434C403.575 343.464 403.543 343.482 403.523 343.51C403.49 343.591 403.446 343.67 403.39 343.746C403.39 350.366 403.39 356.987 403.39 363.607C405.291 365.834 408.264 364.544 409.778 362.456C409.958 362.208 410.227 362.036 410.523 361.91C411.441 359.611 412.399 357.33 413.418 355.08C414.279 353.177 415.768 347.904 418.226 346.106ZM418.809 347.007C418.843 347.007 418.871 347.007 418.904 347.007C418.903 347.005 418.901 347.003 418.899 347.001C418.869 347.002 418.837 347.007 418.809 347.007ZM466.886 380.256C466.646 380.392 466.366 380.496 466.069 380.53C461.666 381.04 456.717 378.238 453.376 375.634C450.747 373.585 448.223 370.348 451.624 368.467C450.015 366.194 451.466 364.716 453.665 363.779C453.513 363.313 453.431 362.828 453.477 362.315C453.738 359.408 456.125 359.282 458.554 360.031C458.14 358.449 458.866 357.073 461.697 356.273C464.801 355.396 467.954 358.071 470.035 359.979C472.136 361.905 475.824 366.919 478.971 366.916C479.061 366.916 479.139 366.925 479.219 366.933C482.914 363.045 485.187 358.251 488.911 354.349C489.076 354.176 489.523 354.021 490.006 353.916C484.446 350.378 478.686 347.122 473.481 343.068C471.004 346.855 465.69 348.193 461.592 345.641C459.682 344.451 458.084 342.566 458.194 340.19C458.337 337.124 460.918 334.9 463.346 333.341C459.295 328.353 453.634 325.076 448.838 320.861C446.457 325.271 444.054 329.686 440.748 333.486C440.602 333.654 440.394 333.778 440.161 333.865C439.819 334.784 437.521 335.26 437.293 334.265C435.428 326.106 424.072 326.758 420.639 333.511C418.054 338.596 419.245 349.145 426.946 348.152C428.263 347.982 428.325 348.727 427.796 349.308C424.968 354.203 421.835 358.913 418.983 363.79C418.97 363.812 418.964 363.831 418.948 363.854C418.942 363.862 418.936 363.871 418.929 363.879C418.913 363.901 418.888 363.923 418.867 363.945C422.632 367.785 427.424 370.354 431.79 373.447C434.88 369.865 439.287 366.45 444.05 369.093C446.174 370.272 448.044 372.735 447.833 375.266C447.631 377.68 446.286 379.56 444.603 381.188C444.611 381.258 444.609 381.334 444.591 381.419C444.696 380.92 445.038 381.489 445.659 381.845C446.394 382.266 447.138 382.673 447.888 383.067C449.866 384.104 451.861 385.105 453.863 386.094C455.807 387.055 458.484 387.908 460.565 389.137C462.456 386.03 464.77 383.218 466.886 380.256ZM503.958 359.757C498.711 359.826 493.398 359.153 488.257 358.478C487.596 359.503 486.946 360.539 486.244 361.539C485.444 362.678 484.592 363.751 483.692 364.781C484.14 364.889 484.488 365.176 484.505 365.693C484.664 370.705 488.666 371.085 492.676 371.956C495.794 372.633 498.37 373.924 499.65 376.987C500.171 378.235 497.296 379.064 496.753 377.763C495.057 373.703 490.287 374.135 486.735 372.981C483.608 371.966 482.027 369.976 481.658 366.939C481.144 367.435 480.61 367.916 480.058 368.385C479.823 368.768 479.354 369.076 478.725 369.077C478.336 369.077 477.959 369.035 477.587 368.973C477.461 368.965 477.365 368.946 477.309 368.915C472.83 367.981 469.533 362.841 466.128 360.241C465.113 359.466 463.813 358.35 462.463 358.313C459.84 358.24 462.301 361.204 462.892 361.824C464.993 364.028 467.478 365.78 469.787 367.75C471.074 368.849 468.558 370.296 467.558 369.442C466.439 368.487 463.851 366.594 461.718 364.504C461.52 364.47 461.335 364.4 461.18 364.276C459.964 363.297 458.536 362.417 457.015 362.01C456.836 361.962 456.628 361.919 456.427 361.904C456.423 361.954 456.419 362.023 456.422 362.129C456.445 362.907 456.721 363.473 457.195 364.072C459.436 366.899 462.643 369.369 465.79 371.117C467.249 371.928 464.751 373.51 463.574 372.855C461.139 371.502 458.842 369.709 456.824 367.796C455.946 366.963 454.869 365.986 454.174 364.858C451.63 367.106 461.083 372.619 462.451 373.671C462.961 374.064 460.397 375.202 459.728 374.689C457.508 372.98 454.859 371.752 452.815 369.81C451.935 371.407 455.913 374.451 456.895 375.12C458.802 376.419 461.605 378.244 464.236 378.839C464.856 378.486 465.805 378.186 466.243 378.308C469.633 379.26 473.067 378.33 476.219 380.103C478.793 381.551 480.952 384.327 482.985 386.425C487.597 391.184 497.525 399.213 503.084 390.581C508.726 381.82 504.586 369.426 503.958 359.757ZM49.1137 253.208C48.6037 253.557 48.3767 254.308 48.9587 254.708C49.5827 255.137 50.4587 254.929 51.0367 254.534C54.8767 251.909 51.0467 248.463 48.3987 246.849C47.3087 246.184 44.7667 247.67 46.1657 248.523C47.3597 249.251 51.2767 251.73 49.1137 253.208ZM52.0007 244.655C51.7647 244.3 51.3697 243.834 51.3437 243.384C51.3017 242.665 50.6777 242.391 50.0067 242.443C49.4757 242.484 48.3677 242.9 48.4087 243.609C48.4617 244.506 48.8567 245.192 49.3467 245.929C50.0697 247.015 52.8347 245.908 52.0007 244.655ZM40.0827 258.459C39.5427 258.298 38.9217 258.456 38.3867 258.665C38.3537 258.66 38.3267 258.658 38.2687 258.643C38.0067 258.577 37.7887 258.431 37.5727 258.276C37.0877 257.928 36.7817 257.415 36.5607 256.874C36.2387 256.085 33.3997 257.007 33.6637 257.65C34.7347 260.273 37.4517 260.354 39.7547 259.313C40.0467 259.182 40.7187 258.649 40.0827 258.459ZM41.2357 250.51C40.6487 250.048 40.2797 249.348 39.9527 248.694C39.6447 248.077 38.8717 248.067 38.2747 248.227C37.8927 248.329 36.7537 248.867 37.0557 249.471C37.5597 250.48 38.0677 251.339 38.9657 252.045C39.8327 252.727 42.4567 251.471 41.2357 250.51ZM34.2897 246.996C34.8527 246.915 35.7127 246.669 35.9547 246.08C36.2777 245.293 36.8357 244.651 37.7167 244.632C38.3597 244.618 39.2167 244.406 39.6387 243.876C40.0637 243.343 39.2787 243.149 38.8887 243.158C36.5557 243.209 34.0097 244.21 33.0697 246.497C32.8307 247.083 34.0467 247.032 34.2897 246.996ZM105.782 365.158C105.866 365.026 105.669 364.951 105.345 364.931C104.811 361.579 104.234 358.237 103.588 354.908C103.201 352.915 102.527 344.741 98.6237 347.274C96.9727 348.345 99.4178 349.103 100.495 348.405C98.6858 349.578 98.5817 347.884 99.2467 349.735C99.6247 350.786 99.8628 351.894 100.118 352.98C100.865 356.164 101.392 359.403 101.928 362.627C102.126 363.823 102.302 365.022 102.49 366.219C96.5007 374.709 82.4417 375.871 73.0877 376.606C62.7407 377.419 51.8257 377.166 41.6817 374.788C41.0057 374.63 38.6897 375.636 39.2007 375.927C39.1047 376.052 39.0447 376.189 39.0447 376.336C39.0447 382.854 39.0447 389.372 39.0447 395.89C39.0447 397.213 41.9547 396.638 41.9547 395.574C41.9547 389.23 41.9547 382.885 41.9547 376.54C53.3967 378.825 65.6747 378.79 77.1507 377.367C85.3517 376.35 96.3127 374.663 102.863 368.606C104.084 376.69 105.103 384.809 106.092 392.922C106.237 394.11 109.145 393.418 108.989 392.146C107.91 383.302 106.837 374.432 105.451 365.619C105.559 365.461 105.681 365.318 105.782 365.158ZM132.428 45.2058C131.676 44.5268 128.962 45.6358 129.736 46.3338C131.286 47.7318 137.262 57.0238 132.446 56.9288C131.369 56.9078 129.353 58.5128 131.313 58.5518C134.34 58.6118 137.283 57.4208 137.127 53.9998C136.986 50.9148 134.672 47.2298 132.428 45.2058ZM124.431 61.5108C123.339 61.4918 122.397 61.0538 121.756 60.1468C121.229 59.3988 118.591 60.5448 118.859 60.9228C119.749 62.1828 121.045 62.7268 122.568 62.7528C123.266 62.7648 124.029 62.5958 124.617 62.2038C125.064 61.9048 125.008 61.5198 124.431 61.5108ZM122.155 50.5698C121.317 49.2448 120.982 47.7358 120.958 46.1798C120.949 45.6098 118.046 46.0728 118.061 46.9558C118.085 48.5108 118.419 50.0208 119.258 51.3458C119.743 52.1118 122.436 51.0118 122.155 50.5698ZM117.249 40.2338C117.483 40.1548 118.527 39.6418 118.072 39.2568C117.6 38.8588 116.675 39.1678 116.182 39.3338C114.77 39.8118 113.41 40.5198 112.883 42.0008C112.681 42.5688 113.842 42.4728 114.084 42.4358C114.587 42.3578 115.558 42.1228 115.759 41.5578C115.823 41.3778 115.887 41.1838 115.99 41.0228C116.108 40.8368 116.248 40.6948 116.352 40.6138C116.395 40.5848 116.407 40.5748 116.421 40.5648C116.467 40.5408 116.532 40.5078 116.566 40.4888C116.79 40.3938 117.02 40.3108 117.249 40.2338ZM128.561 37.6418C128.995 38.2378 129.951 38.1818 130.538 37.8888C130.876 37.7198 131.216 37.5538 131.564 37.4068C131.729 37.3378 131.888 37.3058 132.162 37.2968C132.815 37.2748 133.674 36.8168 133.75 36.0948C133.829 35.3418 132.994 35.0688 132.396 35.0898C131.264 35.1298 130.228 35.5968 129.231 36.0948C128.694 36.3628 128.122 37.0378 128.561 37.6418ZM133.623 43.3658C134.355 44.8088 135.218 46.1668 136.115 47.5118C136.597 48.2338 139.412 47.3128 138.818 46.4228C137.988 45.1788 137.198 43.9228 136.521 42.5888C136.058 41.6768 133.256 42.6408 133.623 43.3658ZM301.184 145.221C300.519 145.128 299.656 145.338 299.135 145.77C297.632 147.017 296.486 148.48 295.61 150.224C295.247 150.948 294.528 152.058 295.082 152.815C295.548 153.451 296.091 153.138 296.714 153.358C297.355 153.585 298.184 153.363 298.756 153.047C299.074 152.871 299.7 152.297 299.05 152.068C298.673 151.935 298.312 151.883 297.924 151.883C297.807 151.545 297.831 151.224 298.007 150.92C298.15 150.539 298.32 150.169 298.492 149.8C299.167 148.352 300.193 147.103 301.416 146.088C301.861 145.721 301.779 145.304 301.184 145.221ZM294.8 142.479C294.798 142.482 294.795 142.485 294.791 142.488C294.796 142.484 294.797 142.483 294.8 142.479ZM294.8 142.479C294.652 142.543 294.969 142.314 294.8 142.479ZM296.087 143.836C296.763 143.475 297.283 143.057 297.729 142.43C298.114 141.888 298.329 141.211 298.54 140.588C298.768 139.917 297.629 139.796 297.253 139.835C296.594 139.905 295.853 140.227 295.627 140.895C295.492 141.293 295.342 141.674 295.138 142.042C295.11 142.091 294.883 142.408 294.958 142.32C294.908 142.376 294.854 142.428 294.8 142.479C294.82 142.47 294.847 142.458 294.887 142.437C294.488 142.65 293.682 143.187 294.149 143.732C294.574 144.228 295.58 144.107 296.087 143.836ZM308.553 148.978C309.252 149.063 310.111 148.75 310.44 148.09C310.926 147.115 311.299 146.123 311.321 145.021C311.351 143.5 308.411 143.934 308.385 145.242C308.366 146.181 308.082 146.93 307.669 147.759C307.344 148.411 307.956 148.907 308.553 148.978ZM309.715 139.753C311.231 139.776 312.378 140.412 312.793 141.929C312.98 142.614 315.876 141.831 315.69 141.153C315.163 139.223 313.445 138.568 311.586 138.54C310.89 138.53 310.126 138.707 309.537 139.089C309.085 139.382 309.145 139.745 309.715 139.753ZM301.404 133.563C300.752 133.227 299.925 133.352 299.334 133.769C298.91 134.067 298.5 134.817 299.147 135.151C299.824 135.5 300.182 135.875 300.539 136.569C300.852 137.176 302.04 136.934 302.491 136.726C303.063 136.462 303.524 135.96 303.204 135.338C302.795 134.543 302.198 133.973 301.404 133.563ZM310.798 155.337C310.121 155.325 309.325 155.525 308.749 155.886C308.285 156.177 307.859 156.135 307.207 156.135C306.515 156.135 305.753 156.326 305.158 156.684C304.697 156.962 304.762 157.273 305.316 157.273C307.295 157.272 309.248 156.995 310.957 155.926C311.415 155.639 311.354 155.348 310.798 155.337Z" fill="#0F4848"/>
</svg>
