<svg width="2307" height="1172" viewBox="0 0 2307 1172" fill="none" xmlns="http://www.w3.org/2000/svg">
<rect width="2307" height="1172" fill="white"/>
<path d="M2307 0H0V1172H2307V0Z" fill="white"/>
<path d="M539.66 1100.31C249.25 1044.51 8.16 1006.31 0 987.68C8.16 817.89 348.72 298.68 372.79 221.68C388.44 171.56 503 51.25 559.55 38C616.1 24.75 880.19 26.06 1108.8 97.46L1790.33 310.33C2105.33 408.72 2092.41 461.78 2193.21 548.27C2294.01 634.76 2309.79 857.6 2260.33 1051.15C2210.87 1244.7 2184.25 1121.34 2055.82 1088.34C1916.24 1052.48 1600.24 811.74 1327.21 884.57C1102.63 944.47 911.35 1171.68 539.66 1100.31Z" fill="#E8E5DF"/>
<path d="M551.25 1065.38C262.62 1001.01 61.1 960.03 53.5 941.18C66.68 771.71 384.12 258.49 410.5 182.18C427.59 132.56 545.68 15.68 602.57 4.11999C659.46 -7.44002 923.43 1.67999 1149.82 79.81L1824.75 312.81C2136.69 420.43 2122.22 473.09 2220.42 562.52C2318.62 651.95 2327.79 875.16 2272.62 1067.17C2217.45 1259.18 2194.5 1135.07 2067.11 1098.29C1928.65 1058.29 1619.91 808.29 1344.84 873.04C1118.59 926.27 920.67 1147.76 551.25 1065.38Z" fill="#EDEAE5"/>
</svg>
