<svg width="1152" height="720" viewBox="0 0 1152 720" fill="none" xmlns="http://www.w3.org/2000/svg">
<path d="M383.4 648.3C384.1 649.3 384.3 650.5 383.8 652C382.2 656.4 371.9 665.1 363.9 663.9C355.9 662.7 352.8 661.3 347.7 666.1C342.5 671 337 666 337 666C337 666 337.5 670.5 341.2 671C342.1 671.1 342.8 671.2 343.1 671.2C347.8 670.8 350.1 670.6 354.1 669.1C360.8 666.6 362 669.7 369.6 667.8C376.3 666.1 385.5 661 385.7 654.4C385.7 651.8 384.5 649.7 383.4 648.3Z" fill="#3A4C93"/>
<path d="M356.3 643.7C356.3 643.7 341.2 642.4 338.2 647.2C335.8 651.1 334.4 661.4 336.9 666C338 668.1 342.3 670.7 347.2 666.9C352.8 662.6 355.8 662.7 363.8 663.9C371.8 665.1 382 656.5 383.7 652C384.1 651 384.1 650.2 383.9 649.4C383.9 649.4 383.7 648.8 383.3 648.2C381.6 645.8 367.6 644.8 363.5 644.4C361.8 644.4 359.3 644.1 356.3 643.7Z" fill="#292766"/>
<path d="M340.3 634.1C341 635 341.1 636.1 340.6 637.5C339.1 641.6 329.7 649.4 322.5 648.3C315.3 647.2 312.4 645.9 307.7 650.3C303 654.7 298 650.2 298 650.2C298 650.2 298.5 654.3 301.9 654.7C302.7 654.8 303.3 654.9 303.7 654.9C308.1 654.5 310.3 654.4 313.6 653.2C319.9 651 321 653.7 327.9 651.8C333.8 650.2 342.4 645.7 342.6 639.6C342.5 637.4 341.3 635.4 340.3 634.1Z" fill="#3A4C93"/>
<path d="M315.7 629.9C315.7 629.9 301.9 628.6 299.2 633.1C297 636.7 295.7 646 298 650.2C299 652.1 302.9 654.5 307.4 651C312.5 647.1 315.3 647.2 322.5 648.3C329.7 649.4 339.1 641.6 340.6 637.5C340.9 636.6 341 635.8 340.8 635.2C340.8 635.2 340.7 634.6 340.3 634.1C338.7 631.9 326.1 630.9 322.8 630.7C321.3 630.6 318.8 630.3 315.7 629.9Z" fill="#292766"/>
<path d="M320.6 454.8C323.9 450.9 327.9 447.5 332.2 445C323.1 432.1 308.4 412 297.5 400.1C294.2 396.5 284 391.7 280 394.7C275.5 398.1 278.3 409.7 281.8 414C290.7 424.8 307.1 444 320.1 454.4C320.2 454.5 320.4 454.6 320.6 454.8Z" fill="#F5B68F"/>
<path d="M319.3 453.8C319.1 453.6 318.9 453.5 318.7 453.3C319.4 453 320 452.6 320.6 452.2C324.4 449.7 327.2 446.2 328.8 442.2C329.2 442.5 329.6 442.9 330 443.2C330.7 443.6 331.4 443.9 331.8 443.8C334.7 443.3 337.1 443.7 340.1 443.3C341.3 443.1 343.8 442.2 344.8 443.1C345.9 444.1 345.3 445.4 341.9 447.6C341 448.2 339 448.7 339 450.3C339 452.9 342 455.8 344 457.6C346.1 459.3 353.3 465.2 354.7 466.6C355.4 467.3 356.1 468 356.4 468.9C356.7 469.8 356.5 471 355.7 471.2C354.9 471.5 354.1 470.9 353.4 470.3C352.9 469.9 342.1 461.1 341.6 461.3C341.3 461.4 341.2 461.9 341.3 462.2C341.5 463.2 352.6 473.9 353.4 474.9C355.1 477 352.9 479 351.1 477.6C348.4 475.4 338.9 465.2 337.8 465.6C337.5 466.4 345.5 475.9 346.1 476.9C346.5 477.6 346.8 478.1 346.3 478.7C345 480.2 343 478.2 341.5 476.7C340.2 475.5 339.1 474.2 337.9 472.9C337.6 472.5 333.8 468 333.3 468.1C333.3 468.7 336.1 472.2 337.1 475.2C337.8 477.3 336 478 334.4 476.5C331.3 473.6 330.1 468.2 326.4 464.7C321.9 460.2 319.9 455.5 319.3 453.8Z" fill="#F5B68F"/>
<path d="M277.4 372.3C277.4 372.3 275.9 398.7 278.8 403.2C281.7 407.7 292.4 403.6 293.2 401.7C294 399.8 295.6 374.9 290.8 371.1C286 367.3 278.1 370.4 277.4 372.3Z" fill="#F5B68F"/>
<path d="M341.9 324.1L339.7 336.2C339.7 336.2 320.4 340.7 318 328.4L319.4 306.4L341.9 324.1Z" fill="#E89B70"/>
<path d="M319.6 320.9C319.6 320.9 328.2 331.1 344.6 331.6C361 332.1 361.8 310.6 359.4 292.9C357 275.2 347 271.7 339.3 270.9C331.6 270.1 319.7 280.3 316.4 287C313.1 293.6 309.9 306.8 319.6 320.9Z" fill="#F5B68F"/>
<path d="M415 467.4C414.8 467.3 414.5 467.1 414.3 467C414.9 466.5 415.4 466 416 465.5C419.2 462.3 421.2 458.3 422.1 454.1C422.6 454.4 423 454.6 423.4 454.8C424.2 455.1 424.9 455.2 425.3 455C428 454 430.5 453.9 433.3 452.9C434.4 452.5 436.8 451.1 437.9 451.8C439.2 452.6 438.9 454 435.9 456.8C435.1 457.6 433.3 458.4 433.6 460C434.1 462.6 437.6 464.8 440 466.1C442.4 467.4 450.6 471.7 452.3 472.8C453.1 473.3 453.9 473.9 454.4 474.7C454.9 475.5 454.9 476.7 454.1 477.1C453.4 477.5 452.4 477.1 451.6 476.7C451.1 476.4 438.7 470 438.2 470.2C437.9 470.4 437.9 470.8 438.1 471.2C438.5 472.2 451.5 480.4 452.5 481.2C454.6 482.9 452.8 485.3 450.8 484.3C447.7 482.7 436.3 474.5 435.4 475.2C435.2 476 445 483.8 445.8 484.7C446.3 485.3 446.8 485.7 446.4 486.4C445.4 488.1 443.1 486.5 441.3 485.4C439.8 484.5 438.4 483.4 437 482.4C436.6 482.1 432 478.4 431.6 478.6C431.7 479.2 435.2 482 436.7 484.8C437.8 486.7 436.2 487.7 434.3 486.6C430.7 484.4 428.4 479.3 424.1 476.6C418.7 473.1 415.9 468.9 415 467.4Z" fill="#F5B68F"/>
<path d="M370.6 460.3C370.6 460.3 371.6 483.4 370.6 507.3C369.6 531.2 368.4 568 366.3 585.2C364.2 602.4 353.7 654 353.7 654C353.7 654 345.9 659.7 336.3 653.8C336.3 653.8 333.1 599 334.7 573.2C336.3 547.4 333.7 486.5 327.7 475.7C321.7 464.9 362.5 453.5 370.6 460.3Z" fill="#31437A"/>
<path d="M334.3 503.8C334.3 503.8 331 520.5 324.3 576.9C317.6 633.3 314.7 640.5 314.7 640.5C314.7 640.5 306.8 646.5 297 640.7C297 640.7 290.5 585.5 294.8 561.1C299.1 536.7 296.5 518.1 293.8 501.6C291.1 485.1 289.3 455.2 295.7 449.5C302.2 443.8 339.4 452.4 339.4 453.1C339.5 453.9 334.3 503.8 334.3 503.8Z" fill="#31437A"/>
<path d="M303.3 329.1C303.3 329.1 288.8 324.3 280.2 348.5C271.6 372.7 276.4 387.7 276.4 387.7C276.4 387.7 280 397 295.8 394.9C311.6 392.8 308.9 341.8 308.9 341.8L303.3 329.1Z" fill="#6A89CE"/>
<path d="M369.4 402.7C363.4 363.5 358.2 347 346.5 344.4C345.2 344.1 344 343.9 342.8 343.7C342.3 340.3 339.8 336.2 339.8 336.2C321.1 338 318.1 328.4 318.1 328.4C314.7 327.2 311.7 327.9 309.5 328.9C302 326.6 294.6 329.5 291.3 333.7C286.8 339.4 280.8 360.7 287.5 382.7C294.2 404.7 287 440.1 292.8 447.5C292.8 447.5 301.9 467.6 333 469.3C364.1 471 374.8 460.5 374.8 460.5C374.8 460.5 375.4 441.9 369.4 402.7Z" fill="url(#paint0_linear_2_3)"/>
<path d="M346.2 352.7C355.8 351.1 368 362.7 369.7 369.5C372.9 382.5 379.2 416.5 379.2 416.5C381.1 422.1 378.7 434.7 373.1 436.3C368.1 437.8 363.3 434.1 361.3 429.1L345.5 378.1C342.3 370 334.2 354.6 346.2 352.7Z" fill="#F5B68F"/>
<path d="M415.8 468.1C418.1 463.6 421.2 459.4 424.9 455.9C413.1 445.4 394.3 429.1 381 420C377 417.3 365.9 414.9 362.7 418.7C359.1 423 364.4 433.7 368.7 437.1C379.8 445.6 400.1 460.6 415.1 467.8C415.3 467.9 415.6 468 415.8 468.1Z" fill="#F5B68F"/>
<path d="M342.7 343.6C342.7 343.6 320.6 350.6 309.4 328.8C309.4 328.8 313.2 325.9 318 328.3C318 328.3 319.8 336.7 339.7 336.1C339.7 336.2 343.3 340 342.7 343.6Z" fill="#6A89CE"/>
<path d="M355.9 410.7C355.9 410.7 367.2 414.4 376.8 404.2C376.8 404.2 379.2 375.8 369.4 360.2C359.6 344.7 343.6 338.4 339.5 358.3C335.4 378.2 349.9 409.1 355.9 410.7Z" fill="#6A89CE"/>
<path d="M373.6 265.4C374.2 262.2 373.4 258.7 371.4 256.1C370 257.9 368.4 259.5 366.4 260.7C367.7 255.9 364.5 250.4 359.7 249.2C360.3 252.4 357.2 255.2 354 255.9C350.8 256.5 347.6 255.6 344.3 255.2C340.8 254.8 337.3 254.9 333.8 255.3C331.2 255.6 327.4 256.1 323.1 258.1C315.8 261.7 312.3 267.6 309.6 272C308.1 274.6 307.4 276.4 307.1 277.8C303 286.8 302.9 297.2 306.3 304.7C307.9 308.2 310.4 309.2 313.1 314.9C315.7 320.3 315.9 323.8 319.5 326.1C321.2 327.2 323.6 328 325.3 328.6C327.5 329.4 328.8 329.6 330.1 329.7C331.8 329.8 332.7 329.9 333.5 329.6C336.3 328.4 337.9 322.4 336.1 317.9C334.3 313.3 330.5 313.1 330 309C329.8 307.5 330.3 305.8 331.7 303.8C337.2 296 343.6 310.8 343.6 310.8C343.6 310.8 343.6 310.8 345.9 309.8C347.2 309.2 345.3 304.1 344.7 298.5C345.3 297.4 346.2 296.3 347.2 295.5C349.8 293.5 353 292.5 356 291.2C362.6 288.2 368.2 283 371.6 276.6C372.5 274.8 373.3 272.9 373.3 271C372.1 272.5 370.1 273.3 368.2 273C371 271.6 373 268.6 373.6 265.4Z" fill="#372111"/>
<path d="M700 621C700 621 701.7 631.3 695 635.4C688.3 639.5 679.3 644 679.3 644L625.8 480.7L487.1 57.9L500.4 50.2C500.4 50.2 503.1 48.3 507 48.2C510.9 48.1 514.7 49.5 515.8 49.9C516.8 50.3 519.4 51.6 520.7 52.3C522 53 547 67.5 547 67.5L596.2 95.9L677.4 142.8C677.4 142.8 686 146.9 692.5 156.1C695.8 160.7 697.8 164.8 699.2 168.8C700.5 172.7 700.5 176.6 701 181L700.2 202.7V621H700Z" fill="url(#paint1_linear_2_3)"/>
<path d="M700.7 621C700.7 621 702 631.3 695.3 635.4C688.6 639.5 679.4 644 679.4 644L625.8 480.7L672.3 181.7L698.9 168.7C700.2 172.6 700.6 176.5 701 180.9L700.6 202.6V621H700.7Z" fill="#A7A9B3"/>
<path d="M481.6 89.6001L495.4 81.6001L494.2 480.6L480.5 488.6L481.6 89.6001Z" fill="#C5C5C5"/>
<path d="M481.6 89.6L480.5 488.7L514.3 508.2L686.7 607.7V627.4C686.7 642.4 677 650.6 664 643.1L504.8 551.2C498.9 547.8 493.3 541.8 488.9 534.8C483.5 526.2 479.9 516.3 479.9 508L481 71.3C481 56.3 493 52.3 506.1 59.9L665.3 151.8C678.4 159.3 687.9 175.7 687.9 190.7L687.8 208.6L481.6 89.6Z" fill="url(#paint2_linear_2_3)"/>
<path opacity="0.71" d="M481.6 89.6L480.5 488.7L514.3 508.2L488.8 534.8C483.4 526.2 479.8 516.3 479.8 508L481 71.3C481 56.3 493 52.3 506.1 59.9L665.3 151.8C678.4 159.3 687.9 175.7 687.9 190.7L687.8 208.6L481.6 89.6Z" fill="white"/>
<path d="M574.9 554.6C568.6 551 563.5 553.9 563.4 561.1C563.4 568.3 568.5 577.2 574.8 580.8C581.1 584.4 586.2 581.5 586.2 574.3C586.3 567.1 581.2 558.3 574.9 554.6Z" fill="#212D3A"/>
<path d="M557 106.9C555.3 105.9 553.9 106.7 553.9 108.7C553.9 110.7 555.3 113.1 557 114.1L608.9 144.1C610.6 145.1 612 144.3 612 142.3C612 140.3 610.6 137.9 608.9 136.9L557 106.9Z" fill="#363C48"/>
<path d="M620.3 141.7C617.7 140.2 615.7 141.4 615.6 144.4C615.6 147.3 617.7 150.9 620.2 152.4C622.8 153.9 624.8 152.7 624.9 149.7C624.9 146.8 622.8 143.2 620.3 141.7Z" fill="#363C48"/>
<path d="M620.3 144.8C619.2 144.2 618.3 144.7 618.3 145.9C618.3 147.1 619.2 148.7 620.3 149.3C621.4 149.9 622.3 149.4 622.3 148.2C622.2 146.9 621.4 145.4 620.3 144.8Z" fill="white"/>
<path d="M687.9 208.8L686.8 609.8C617.8 569.8 548.9 529.9 479.9 489.9C480.3 356.2 480.7 222.4 481.1 88.7001C550 128.7 618.9 168.8 687.9 208.8Z" fill="url(#paint3_linear_2_3)"/>
<path opacity="0.5" d="M687.9 208.8L479.9 489.9C480.1 428.5 480.3 367.1 480.4 305.7C480.4 290.4 480.5 275.2 480.5 259.9C480.6 234.1 480.6 208.3 480.7 182.5C480.7 174.7 480.7 166.8 480.8 159C480.8 151.2 481.3 143.3 481.4 135.5C481.4 119.9 482 104.3 482 88.7V88.5C498 98.3 515 108 531.9 119C546 127 560.2 135 574.3 143.2C582.5 147.9 590.6 152.5 598.8 157.2C628.5 174.5 658.2 191.5 687.9 208.8Z" fill="#87FDFF"/>
<path opacity="0.5" d="M598.8 157.1L480.4 305.7C480.4 290.4 480.5 275.2 480.5 259.9L574.3 142.8C582.5 147.6 590.6 152.3 598.8 157.1Z" fill="#87FDFF"/>
<path opacity="0.5" d="M531.9 118.3L480.7 182.5C480.8 151.2 480.9 120 481 88.7001C498 98.6001 515 108.4 531.9 118.3Z" fill="#87FDFF"/>
<path d="M700.6 292.5L696.7 290.3C696.7 290.3 695.8 290 694.9 290.5C694 291 692.3 291.6 690.5 295.7C690.5 295.7 690.1 296.4 690.1 298C690.1 299.6 690.3 360.9 690.3 360.9C690.3 360.9 690.2 362.6 691.2 363.5L695.3 365.9L700.6 292.5Z" fill="#595B5D"/>
<path d="M701.6 259L698.2 257C698.2 257 697.3 256.6 696.6 256.6C695.9 256.7 694.9 256.9 693.2 258.1C691.6 259.3 689.8 262.3 689.4 263.4C689 264.5 688.5 266 688.7 267.3C688.9 268.6 689.3 269.7 689.7 270.1C690.1 270.5 693.7 272.6 693.7 272.6L701.6 259Z" fill="#595B5D"/>
<path d="M697.6 292.8C699.9 291.5 701.8 292.5 701.8 295.2L702 358.3C702 360.9 700.1 364.1 697.9 365.5C695.6 366.8 693.7 365.8 693.7 363.1L693.5 300C693.5 297.4 695.3 294.2 697.6 292.8Z" fill="url(#paint4_linear_2_3)"/>
<path d="M697.7 259.4C700.8 257.6 703.2 259.1 703.3 262.6C703.3 266.1 700.8 270.4 697.8 272.2C694.7 274 692.3 272.5 692.2 269C692.2 265.4 694.6 261.2 697.7 259.4Z" fill="url(#paint5_linear_2_3)"/>
<path d="M237.6 71.9L242.4 69.1C242.4 69.1 245.4 66.8 250.7 69.9C256 73 424 170 424 170C424 170 435.6 177 435.6 190.1L435.5 225.2C435.5 225.2 436.8 230.9 428.3 234.6C419.8 238.3 413.2 178.2 413.2 178.2L237.6 71.9Z" fill="#D3F3F6"/>
<path d="M419.1 172.7C425.6 176.4 430.8 185.5 430.8 192.9L430.7 227.4C430.7 234.8 425.4 237.8 419 234.1L413.7 231.1V243.5C413.7 244.5 413 244.8 412.2 244.3C411.8 244.1 411.5 243.7 411.2 243.2L399.7 222.9L245.9 134.1C239.4 130.4 234.2 121.3 234.2 113.9L234.3 79.4001C234.3 72.0001 239.6 69 246 72.7L419.1 172.7Z" fill="url(#paint6_linear_2_3)"/>
<path d="M255.2 114.8V129.3L406.9 216.9V202.4L255.2 114.8Z" fill="#2863B7"/>
<path d="M255.3 89.8L255.2 104.3L407 191.9V177.4L255.3 89.8Z" fill="#2863B7"/>
<path d="M917.2 320.1L916.9 422.9C916.9 422.9 916.9 425.2 914.1 426.9C911.3 428.5 910.4 428.5 910.4 428.5L891.8 404L757.8 228.8L761.9 226.4C761.9 226.4 763.6 225.6 765.5 226.7C767.4 227.8 912.4 311.5 912.4 311.5C912.4 311.5 914.4 312.5 915.8 314.8C916.6 316.2 917.2 317.9 917.2 320.1Z" fill="#D3F3F6"/>
<path d="M913 322.5L912.7 425.3C912.7 428.5 910.4 429.7 907.7 428.2L761 343.4C759.4 342.5 758 340.8 757.1 338.9C756.4 337.5 756 336.1 756 334.7L756.3 231.9C756.3 228.7 758.6 227.5 761.3 229L908 313.8C908.8 314.3 909.6 315 910.3 315.8C911.9 317.7 913 320.3 913 322.5Z" fill="url(#paint7_linear_2_3)"/>
<path d="M859.5 297.7L892.9 317L892.8 340.2L859.4 320.9L859.5 297.7Z" fill="#57BCC7"/>
<path d="M774.9 248.9L853.4 294.2L853.3 317.4L774.8 272.1L774.9 248.9Z" fill="#31437A"/>
<path d="M859.3 368.7L892.7 388.1L892.6 411.2L859.2 391.9L859.3 368.7Z" fill="#31437A"/>
<path d="M813.5 342.3L854.2 365.8L854.1 389L813.4 365.5L813.5 342.3Z" fill="#57BCC7"/>
<path d="M774.7 319.9L808.4 339.4V362.6L774.6 343.1L774.7 319.9Z" fill="#31437A"/>
<path d="M774.8 276.5L892.8 344.7L892.7 383.2L774.7 315L774.8 276.5Z" fill="#667BAD"/>
<path opacity="0.25" d="M910.4 315.8L757.1 339C756.4 337.6 756 336.2 756 334.8L756.3 232C756.3 228.8 758.6 227.6 761.3 229.1L908 313.8C908.9 314.3 909.7 315 910.4 315.8Z" fill="#FFF5DE"/>
<path d="M564.2 331.1C564.2 331.1 559.2 308.2 563.3 288.3C567.4 268.4 566.8 253.9 587 249.2C607.2 244.5 617.6 260.6 617.5 272.2C617.4 283.8 618.2 284.4 622.8 301.9C627.4 319.4 623.2 331.8 618.1 340C612.8 348.1 564.2 331.1 564.2 331.1Z" fill="#B2682B"/>
<path d="M544 371.5C544 371.5 556.3 318.6 565.9 318.1C575.5 317.6 557.3 385.6 557.3 385.6C557.3 385.6 540.6 384.7 544 371.5Z" fill="#F2F0EB"/>
<path d="M575.7 545.5C569.2 541.7 562.7 538 556.2 534.2C555.7 529.2 555.4 525.6 555.2 523.9C553.7 509.3 552 481 552 430.9C552 424.3 552 417.4 552.1 410.1L584.2 413.5C584.1 415.7 583.9 417.9 583.7 420.1C583.2 426.9 582.7 433.8 582.1 440.8C581.1 452.9 580 465.2 578.6 477.6C577 492.5 575.3 507.1 573.3 521.3C574.8 528.9 576.2 537.3 577.2 546.5L575.7 545.5Z" fill="#7FA8E6"/>
<path d="M577.4 546.4C579.4 547.5 581.5 548.7 583.4 549.8C590.2 553.8 597 557.7 604 561.7C604 551.3 604.1 544.6 600.3 536.3C599 533.4 597.5 531.2 596.5 529.7C601.5 514.3 606.1 495.6 609.1 474.1C610.9 460.9 612 448.5 612 437.2C612 436.5 612.1 435.8 612.1 435.1C612.1 433.6 612.2 432.1 612.2 430.7C612.2 429.2 612 427.7 612 426.3C612 425.4 612.2 424.6 612.2 423.8C611.8 423.8 611.5 423.8 611 423.8C609.6 423.8 608.1 423.7 606.6 423.6C606.3 423.6 606 423.6 605.7 423.5C598 422.9 590.2 421.4 583.8 419.9C574.8 417.8 568.4 415.5 568.4 415.5C568.4 415.5 568.7 424.6 569.2 437.6C570.2 465.6 571.9 512.1 572.6 525.5C572.9 531.1 574.1 538 575.7 545.4L577.4 546.4Z" fill="#7FA8E6"/>
<path d="M496.3 426.8C496.5 426.1 497 425.5 497.6 424.9C498.7 423.7 504.2 418.7 505.7 417.2C507.3 415.7 509.5 413.3 509.3 411.2C509.2 409.9 507.6 409.6 506.8 409.2C503.8 407.6 503.2 406.5 504.1 405.7C504.8 405 507 405.6 508 405.7C510.5 405.9 512.4 405.5 514.8 405.8C515.1 405.8 515.6 405.6 516.1 405.3L516.2 405.2V405.1C516.3 405 516.4 405 516.4 404.9C518.5 403.2 520.3 401.4 521.9 399.5C522.1 399.3 524.2 397.2 526.7 397.6C529 398 530.2 400.4 530.3 400.7C531.9 404.2 529.7 408.7 528 410.4C527.8 410.6 527.2 411.2 526.6 412C525.8 413.1 525.4 414.1 525.2 414.7C524.8 415.6 524.1 417 523.1 418.5C521.9 420.4 521.3 421 520.4 422.3C517.2 427 517 429.7 514.7 432.1C513.5 433.4 512 432.9 512.4 431.2C513 428.8 515.1 425.9 515 425.4C514.6 425.3 511.8 429.1 511.6 429.4C510.7 430.5 509.9 431.6 508.9 432.6C507.8 433.8 506.3 435.5 505.1 434.4C504.6 434 504.9 433.5 505.2 432.9C505.6 432 511.6 424.1 511.2 423.5C510.3 423.2 503.2 431.8 501.2 433.7C499.9 434.9 497.9 433.4 499.2 431.6C499.8 430.8 508.1 421.8 508.2 420.9C508.2 420.6 508.2 420.2 507.9 420.2C507.5 420.1 499.2 427.6 498.8 427.9C498.3 428.4 497.6 428.9 497 428.7C496.4 428.5 496.1 427.6 496.3 426.8Z" fill="#F5B68F"/>
<path d="M544 371.5L518.8 402.5C518.8 402.5 525.8 407 527 411.9C527 411.9 557.3 391.2 559.6 381.7C561.9 372.2 559.6 358.1 559.6 358.1C559.6 358.1 557.1 350.7 544 371.5Z" fill="#F2F0EB"/>
<path d="M591.1 311.6C595.9 310.8 600.5 310.1 605.7 312.2C607.1 312.8 609.1 313.7 611.8 316C617.1 320.3 622.9 327.4 625.1 334.2C626.9 339.8 625.9 344.1 612.7 377.5C605.6 395.6 603.7 400.4 605.7 406.8C607.2 412 611.1 415.4 612.3 423.8C613.1 429.1 613.7 433 611.8 436.1C605.6 446.3 578.4 440.9 564.1 436.1C558.8 434.3 554.6 432.4 551.8 431.1C550.5 420.2 551.5 411.7 552.7 405.9C555.5 392.1 560.8 386 557.4 377.3C555.8 373.2 553.4 371.4 551.8 365C551.2 362.6 550.2 358.6 550.9 353.6C551.8 347.1 554.6 345.1 557.2 333.7C557.5 332.6 557.5 332.4 557.5 332.2C557.5 332.2 557.5 332 557.6 331.8C557.7 331.5 560.5 323.2 562.6 320.1C565.5 315.9 574.1 314.5 591.1 311.6Z" fill="#F4FBFB"/>
<path d="M602.4 297L602.3 301.9V313.7C602.1 314.1 601.9 314.4 601.9 314.6V315C601.9 315.2 601.2 315.3 600.9 315.5C600.7 315.6 600.5 315.7 600.4 315.7C600.3 315.8 600.2 315.8 600.1 315.8C598.5 317.5 596 319.6 593.8 320.4C591.6 321.2 589.8 321.8 588 321.8C588 321.8 587.9 321.8 587.9 321.9C587.9 321.9 587.8 321.9 587.8 321.8C586.4 321.8 585.1 321.4 583.6 320.5C583 320.1 582.6 319.6 582.3 319.1C581.6 318.9 580.9 318.7 580.3 318.6C580.3 318.1 580.2 317.6 580.2 317.1C580.5 317 580.9 316.8 581.2 316.5C581.3 315.9 581.4 315.7 581.4 315.1C581.5 314.1 581.6 313.8 581.6 313.8C582.1 308.8 582.5 306.7 583 303.4C588.5 301.5 593.9 299.3 599.4 297.5C599.4 297.4 599.4 297.4 599.4 297.4L599.8 297.3C600.6 297 601.4 296.7 602.2 296.5H602.3C602.3 296.5 602.3 296.7 602.3 297H602.4Z" fill="#F5B68F"/>
<path d="M581.7 313.3C581.7 313.3 580.9 318.2 585.8 320.1C590.7 322 600 317.4 602.2 313.8C602.2 313.8 602.6 316.5 599.2 320.5C595.8 324.5 587.6 327.2 581.8 323.8C576 320.3 580.7 314.3 581.7 313.3Z" fill="#F2F0EB"/>
<path d="M602.3 297C602.3 296.9 602.3 296.6 602.3 296.5C602.3 296.3 602.5 295.9 602.5 295.9H603V296.4L589 301.2L583.2 303.1L582.7 310.2C583.3 314.6 589.8 314 591.6 313.1C598.1 309.9 600.6 306.2 601.5 304C601.5 304 601.5 304 601.5 303.9C601.9 303.1 602.1 302.4 602.3 301.8L602.4 296.9L602.3 297Z" fill="#E89B70"/>
<path d="M569.7 273.3C571.5 261.7 579.3 253.8 591.3 254.5C604 255.2 613.8 266.1 613.1 278.9C612.9 281.7 612.2 284.2 612 284.8C609.8 291.1 605.1 294.6 603.1 295.9C602.7 296.7 602 297.9 601.1 299.3C597.1 305.1 592.1 307.8 587.1 310.4C581.3 313.4 579.6 313 578.9 312.7C577.1 312.1 576.1 310.5 574.8 308.6C573.1 306.1 572.3 303.8 572 302.7C572 302.6 571.9 302.4 571.9 302.3C571.9 302.3 571.3 300.2 570.8 297.8C569 289.1 569.3 280.6 569.3 280.6C569.2 278.8 569.3 276.3 569.7 273.3Z" fill="#F5B68F"/>
<path d="M641.8 394.9C633.9 387.2 628.3 380.1 624.8 375.1C616.1 362.8 605.7 348.1 610.4 335.7C611 334.2 612.7 329.5 616.4 328.6C622.3 327.2 630.7 336 638.1 351.2C640.1 355 643 360.5 646.2 367.3C656.3 389.1 654.8 392.4 653.7 393.7C652.6 395 649.9 396.8 641.8 394.9Z" fill="#F2F0EB"/>
<path d="M598.3 429C601.5 425.4 602 427.3 606 424.3C606.6 422.4 612.2 422.8 612.2 425.7C612.3 426.3 612.5 426.8 612.7 427.4C613.9 431.4 611.8 439.4 611.4 441C611.3 441.5 607.7 445.9 605.8 447.9C605.3 448.5 603.9 448.9 603.9 448.9C601.2 453.7 598.8 452.9 599.5 450.4C600.8 445.8 602.1 441.4 602.1 441.4C602.2 440.3 601.1 434.9 600.9 434.5C600.4 433.8 599.4 434.2 598.7 434.8C595.8 436.9 592.6 437.3 591.4 436.2C590 434.9 592.4 434.2 593.1 433.8C595.7 432.1 596.2 431.4 598.3 429Z" fill="#F5B68F"/>
<path d="M640.2 386.7C635 393 629.3 399.6 622.9 406.4C616.5 413.2 610.2 419.4 604.1 425C607.1 427.1 610.1 429.2 613.1 431.3C618.9 427.7 626.6 422.5 635.1 415.3C645.5 406.5 656.4 397.3 654.2 391.6C653.5 390 651.2 387.1 640.2 386.7Z" fill="#F2F0EB"/>
<path d="M614.4 269C610.6 259.4 602.7 251.9 593.5 252.4C586.8 252.7 580.3 255.1 576.2 258.6C566 264.4 566.7 278 567.5 279.2C568.5 280.7 570 276.6 571.6 273.4C573.2 270.2 578.4 270.3 580.7 272.2C583 274.1 585.3 273.8 589.1 272.8C592.9 271.8 595 272.3 596.5 277.3C598 282.3 598.8 284 600.1 281.8C601.4 279.7 604.1 280.1 605.9 283.6C607.8 287.1 604.6 291.7 603 293.6C601.5 295.5 602.6 298.2 602.6 298.2C602.6 298.2 604.4 296.5 606.5 293.8L606.4 294.2C606.4 294.2 610.4 294 611.1 293.3C612 292.8 618.2 278.6 614.4 269Z" fill="#B2682B"/>
<path opacity="0.3" d="M687.9 208.8L686.8 609.8C617.8 569.8 548.9 529.9 479.9 489.9C480.3 356.2 480.7 222.4 481.1 88.7C550 128.7 618.9 168.8 687.9 208.8Z" fill="#A6D4FD"/>
<defs>
<linearGradient id="paint0_linear_2_3" x1="284.419" y1="398.548" x2="374.694" y2="398.548" gradientUnits="userSpaceOnUse">
<stop offset="8e-08" stop-color="#7FA8E6"/>
<stop offset="1" stop-color="#6A89CE"/>
</linearGradient>
<linearGradient id="paint1_linear_2_3" x1="402.012" y1="213.73" x2="578.829" y2="328.685" gradientUnits="userSpaceOnUse">
<stop stop-color="#9496A2"/>
<stop offset="0.021956" stop-color="#9395A1"/>
<stop offset="0.4014" stop-color="#8B8D99"/>
<stop offset="1" stop-color="#898B96"/>
</linearGradient>
<linearGradient id="paint2_linear_2_3" x1="644.224" y1="585.007" x2="521.352" y2="105.217" gradientUnits="userSpaceOnUse">
<stop stop-color="#E4E4E8"/>
<stop offset="0.3023" stop-color="#E9E9ED"/>
<stop offset="1" stop-color="#EFEFF4"/>
</linearGradient>
<linearGradient id="paint3_linear_2_3" x1="661.115" y1="574.951" x2="512.888" y2="141.972" gradientUnits="userSpaceOnUse">
<stop offset="0.030303" stop-color="#2B3D89"/>
<stop offset="0.2138" stop-color="#344593"/>
<stop offset="0.6184" stop-color="#4C9BE8"/>
<stop offset="1" stop-color="#2AF6FF"/>
</linearGradient>
<linearGradient id="paint4_linear_2_3" x1="693.478" y1="329.141" x2="701.962" y2="329.141" gradientUnits="userSpaceOnUse">
<stop stop-color="#9496A2"/>
<stop offset="0.021956" stop-color="#9395A1"/>
<stop offset="0.4014" stop-color="#8B8D99"/>
<stop offset="1" stop-color="#898B96"/>
</linearGradient>
<linearGradient id="paint5_linear_2_3" x1="692.182" y1="265.751" x2="703.252" y2="265.751" gradientUnits="userSpaceOnUse">
<stop stop-color="#9496A2"/>
<stop offset="0.021956" stop-color="#9395A1"/>
<stop offset="0.4014" stop-color="#8B8D99"/>
<stop offset="1" stop-color="#898B96"/>
</linearGradient>
<linearGradient id="paint6_linear_2_3" x1="234.105" y1="157.821" x2="430.738" y2="157.821" gradientUnits="userSpaceOnUse">
<stop stop-color="white"/>
<stop offset="0.4447" stop-color="#7DC6E6"/>
<stop offset="1" stop-color="#7EC7E7"/>
</linearGradient>
<linearGradient id="paint7_linear_2_3" x1="753.248" y1="227.426" x2="868.38" y2="370.754" gradientUnits="userSpaceOnUse">
<stop stop-color="white"/>
<stop offset="0.4447" stop-color="#7DC6E6"/>
<stop offset="1" stop-color="#7EC7E7"/>
</linearGradient>
</defs>
</svg>
