<svg width="460" height="265" viewBox="0 0 460 265" fill="none" xmlns="http://www.w3.org/2000/svg">
<path d="M152.949 201.513C152.421 201.628 151.805 201.784 151.155 201.993C151.582 201.509 152.21 201.383 152.949 201.513ZM122.273 242.599C122.241 242.62 122.209 242.64 122.177 242.66C122.18 242.662 122.184 242.664 122.187 242.667C122.214 242.644 122.244 242.623 122.273 242.599ZM252.079 146.523C251.038 139.346 249.094 132.118 243.293 127.54C227.38 142.553 206.072 124.469 195.172 110.277C192.693 110.506 190.162 110.753 187.607 111.04C184.579 111.4 180.91 111.894 177.029 112.538C170.889 113.637 164.863 115.201 159.375 117.624C155.587 119.297 152.235 121.63 149.221 124.405C149.221 124.42 149.221 124.435 149.221 124.451C149.221 124.904 148.721 125.263 148.137 125.435C145.807 127.723 143.685 130.275 141.726 132.991C135.964 143.073 128.265 158.053 121.774 170.987C121.786 171.035 121.753 171.093 121.688 171.16C120.262 174.002 118.898 176.739 117.625 179.306C112.046 191.797 106.934 204.467 101.974 217.302C99.0095 224.973 93.7315 237.494 98.6255 245.453C102.83 252.29 112.709 260.291 121.352 257.829C121.382 257.82 121.408 257.818 121.437 257.811C123.915 256.216 126.504 254.834 129.182 253.649C126.038 250.291 123.438 246.162 119.306 243.943C118.813 243.678 118.799 243.325 119.03 242.999C118.841 242.748 118.911 242.411 119.486 242.033C125.726 237.932 133.089 235.953 140.678 235.328C138.335 232.017 135.503 229.027 134.473 224.99C134.266 224.179 137.167 223.417 137.37 224.215C137.382 224.26 137.401 224.301 137.412 224.346C147.307 223.272 157.254 222.504 166.973 223.563C165.603 221.458 164.46 219.29 163.433 217.011C159.118 217.954 153.287 215.384 149.987 211.577C136.731 217.601 123.963 224.662 110.095 229.254C108.385 229.82 108.072 228.506 109.746 227.951C123.42 223.424 136.02 216.362 149.1 210.428C147.682 208.364 147.027 206.037 147.7 203.75C148.55 200.864 150.96 199.975 153.494 200.141C153.782 197.246 155.006 194.075 157.916 193.745C157.843 193.607 157.804 193.443 157.812 193.248C158.352 179.039 160.312 164.937 159.948 150.695C159.912 149.305 162.853 148.918 162.893 150.509C163.257 164.752 161.297 178.853 160.757 193.062C160.742 193.462 160.486 193.775 160.134 193.985C160.608 194.125 161.071 194.307 161.521 194.529C163.456 192.084 166.245 191.765 168.829 192.796C173.579 190.318 178.514 192.914 180.995 197.668C183.634 202.727 182.914 208.146 176.7 209.32C176.37 209.383 176.134 209.388 175.961 209.359C175.774 209.409 175.636 209.443 175.549 209.464C175.421 209.673 175.278 209.874 175.125 210.073L175.009 210.282C193.146 214.275 208.72 232.875 213.698 250.859C214.416 252.452 214.963 254.129 215.303 255.895C230.918 244.93 250.487 240.972 269.863 239.563C261.07 218.112 257.534 194.148 254.471 171.311C253.366 163.078 253.269 154.733 252.079 146.523ZM308.792 216.283C306.93 207.975 305.336 199.549 304.887 191.029C304.523 184.116 304.646 177.185 304.315 170.271C304.21 170.268 304.107 170.277 304.002 170.271C303.16 170.229 303.6 169.81 304.279 169.453C304.224 168.431 304.159 167.409 304.08 166.388C302.519 146.303 297.38 116.253 273.804 111.672C273.856 115.774 272.589 119.539 270.787 123.337C268.142 128.909 266.346 134.897 268.307 141.027C270.228 147.032 273.966 151.859 277.46 157.016C289.906 175.388 297.143 197.994 300.87 219.714C301.022 220.599 298.106 221.272 297.973 220.489C293.773 196.018 284.852 173.397 271.061 152.819C269.648 150.712 268.478 148.657 267.54 146.62C263.554 148.845 259.871 148.942 255.519 147.999C256.338 155.14 256.297 162.54 257.121 168.681C260.284 192.262 263.758 217.011 272.902 239.142C272.933 239.216 272.949 239.288 272.96 239.359C280.339 238.921 287.657 238.816 294.685 238.803C295.373 238.04 297.467 237.83 297.379 238.949C297.221 240.962 295.476 243.059 294.349 244.623C293.188 246.233 291.983 247.857 290.638 249.329C293.245 249.342 295.852 249.355 298.457 249.355C298.895 249.355 299.584 249.533 299.211 250.089C298.431 251.25 296.419 255.023 294.638 257.407C303.782 258.106 309.272 248.872 310.739 240.714C312.235 232.379 310.613 224.412 308.792 216.283Z" fill="#269F9C"/>
<path d="M458.507 261.575C448.801 261.575 439.095 261.575 429.389 261.575C431.973 259.566 433.261 256.634 432.733 253.215C432.702 253.01 432.556 252.876 432.349 252.799C432.363 252.517 432.126 252.306 431.477 252.31C429.729 252.322 427.986 252.358 426.246 252.4C428.243 250.395 429.772 248.224 430.904 245.924C432.458 248.08 435.237 248.821 438.409 248.094C443.105 247.018 447.289 243.799 448.967 239.211C450.938 233.829 448.68 226.256 443.582 223.453C439.983 221.474 435.883 222.767 433.012 225.318C432.712 223.4 432.323 221.472 431.868 219.547C431.848 219.456 431.814 219.375 431.773 219.302C431.898 218.998 431.721 218.754 430.977 218.755C411.388 218.786 391.803 219.683 372.215 219.101C372.553 217.957 369.652 218.328 369.297 219.418C365.865 229.916 368.102 245.746 377.496 252.679C375.257 252.922 373.025 253.256 370.801 253.718C370.707 253.738 370.646 253.774 370.565 253.8C369.774 253.929 368.904 254.377 368.922 254.99C369.014 257.973 370.97 260.261 373.484 261.575C351.59 261.575 329.697 261.575 307.802 261.575C308.165 261.228 308.214 260.855 307.496 260.674C304.115 259.815 300.613 259.332 297.09 259.019C307.298 257.655 312.889 247.303 314.172 236.898C315.281 227.891 312.327 218.794 310.517 210.085C308.247 199.166 307.685 188.372 307.471 177.252C307.428 174.999 307.356 172.588 307.237 170.07C310.251 169.761 317.079 168.367 324.284 162.156C333.951 153.822 338.284 136.822 334.284 125.822C333.964 124.943 333.569 124.015 333.126 123.058C330.477 114.553 324.03 106.816 318.646 99.6629C314.021 93.5189 309.75 86.8949 308.823 79.1009C307.507 68.0399 315.168 57.6909 315.582 46.6609C315.972 36.2649 311.485 24.6599 303.81 17.4509C299.408 13.3149 293.536 11.7819 287.628 11.2249C284.491 10.2469 282.617 9.82091 282.617 9.82091L282.331 9.62291C282.307 9.56691 282.284 9.5109 282.245 9.4539C275.367 -0.755096 260.223 -1.64009 249.48 1.84491C242.188 4.20991 235.708 9.8679 229.896 14.6429C222.101 21.0459 214.419 27.4449 206.396 33.5619C195.167 42.1249 188.368 52.4299 185.258 66.2259C181.96 80.8559 181.772 96.4759 193.589 106.929C193.256 107.156 193.081 107.426 193.262 107.683C193.31 107.751 193.361 107.822 193.41 107.891C193.156 107.956 192.905 108.023 192.646 108.077C192.265 108.156 192.01 108.316 191.827 108.503C181.486 109.543 170.578 111.082 160.871 114.783C160.901 87.1009 161.835 59.4279 161.867 31.7459C162.609 31.4159 163.187 31.0209 162.363 31.0209C115.694 31.0349 69.0315 32.0069 22.3625 32.0209C21.7695 32.0209 19.0655 33.1829 20.4775 33.1829C20.6675 33.1829 20.8585 33.1809 21.0495 33.1809C20.9555 33.3309 20.8975 33.5009 20.8975 33.6929C20.8975 109.653 20.8975 185.614 20.8975 261.575C14.4345 261.575 7.97151 261.575 1.50751 261.575C-0.123492 261.575 -0.736494 263.63 1.23351 263.63C7.78851 263.63 14.3425 263.63 20.8975 263.63C20.8975 263.651 20.8975 263.672 20.8975 263.693C20.8975 265.244 23.6655 264.933 23.8285 263.63C54.1025 263.63 84.3775 263.63 114.652 263.63C114.994 263.774 115.66 263.757 116.221 263.63C195.705 263.63 275.188 263.63 354.673 263.63C389.193 263.63 423.714 263.63 458.233 263.63C459.865 263.629 460.477 261.575 458.507 261.575ZM131.955 252.501C128.8 249.17 126.159 245.079 122.187 242.667C122.184 242.664 122.18 242.662 122.177 242.66C122.209 242.64 122.241 242.62 122.273 242.599C135.559 234.5 154.079 236.447 168.44 240.191C181.624 243.629 196.391 247.419 208.112 254.947C201.318 253.006 194.294 251.791 187.375 250.502C177.9 248.736 168.507 247.54 158.858 247.663C149.664 247.78 140.438 249.23 131.955 252.501ZM173.427 196.441C172.584 195.29 171.535 194.313 170.392 193.59C176.303 190.293 183.845 206.616 177.142 207.884C176.751 207.958 176.374 208.154 176.092 208.379C177.587 204.632 175.91 199.833 173.427 196.441ZM272.9 239.142C263.755 217.011 260.281 192.262 257.118 168.681C256.294 162.54 256.336 155.14 255.517 147.999C259.869 148.942 263.551 148.845 267.538 146.62C268.475 148.657 269.646 150.712 271.059 152.819C284.849 173.397 293.77 196.018 297.97 220.489C298.104 221.271 301.02 220.598 300.867 219.714C297.141 197.993 289.904 175.388 277.457 157.016C273.964 151.859 270.225 147.032 268.305 141.027C266.344 134.896 268.139 128.909 270.784 123.337C272.586 119.539 273.853 115.774 273.802 111.672C297.378 116.253 302.516 146.303 304.077 166.388C304.157 167.409 304.223 168.431 304.276 169.453C303.598 169.81 303.158 170.229 304 170.271C304.105 170.277 304.207 170.268 304.312 170.271C304.643 177.185 304.52 184.116 304.884 191.029C305.333 199.549 306.927 207.975 308.789 216.283C310.611 224.412 312.233 232.38 310.734 240.715C309.267 248.873 303.778 258.108 294.634 257.408C296.415 255.023 298.427 251.251 299.207 250.09C299.579 249.533 298.89 249.356 298.452 249.356C295.847 249.356 293.241 249.342 290.634 249.33C291.979 247.858 293.184 246.234 294.345 244.624C295.472 243.061 297.217 240.963 297.375 238.95C297.463 237.832 295.368 238.042 294.681 238.804C287.653 238.817 280.335 238.921 272.956 239.36C272.948 239.289 272.931 239.216 272.9 239.142ZM245.496 125.771C240.988 120.802 243.061 114.087 244.909 108.256C253.284 108.98 261.383 105.372 268.448 99.4979C268.618 102.252 269.59 105.063 270.225 107.633C271.663 113.446 270.392 118.487 267.911 123.779C264.335 131.411 264.163 137.953 266.678 144.574C262.835 147.023 259.474 146.649 255.19 145.501C254.034 137.705 251.578 130.447 245.496 125.771ZM278.753 76.7509C278.829 76.7869 278.93 76.8049 279.04 76.8129C278.941 76.9419 278.932 77.0589 279.066 77.1419C283.031 79.5769 282.046 84.0449 279.863 87.4179C276.789 92.1719 270.893 95.4059 265.62 92.1609C255.714 86.0659 270.66 72.8859 278.753 76.7509ZM281.376 64.6469C282.879 67.3949 284.257 70.2929 285.25 73.2049C284.382 74.3779 283.685 75.6869 282.853 76.8859C282.536 76.5959 282.185 76.3169 281.773 76.0639C281.646 75.9849 281.469 75.9519 281.272 75.9489C281.397 75.7669 281.371 75.5909 281.087 75.4549C275.405 72.7419 268.526 75.5409 264.077 79.3669C263.875 79.5409 263.686 79.7249 263.495 79.9069C261.674 76.3469 258.115 74.2169 254.189 73.9849C257.171 70.2269 259.104 64.5299 254.273 61.5639C254.145 61.4849 253.969 61.4519 253.771 61.4489C253.896 61.2669 253.87 61.0909 253.587 60.9549C248.452 58.5039 242.348 60.5569 237.936 63.7959C236.307 61.5679 234.359 59.6209 232.392 57.6919C233.543 57.3109 234.849 56.9919 236.284 56.8229C241.951 56.1569 256.283 58.1569 263.616 52.1569C266.853 49.5089 268.984 47.2499 270.471 45.1789C272.536 42.8029 273.935 39.9569 274.32 36.6169C274.604 35.6949 274.806 35.0379 274.947 34.5809C274.703 45.2549 276.168 55.1189 281.376 64.6469ZM251.253 62.2509C251.33 62.2869 251.43 62.3049 251.541 62.3129C251.442 62.4419 251.433 62.5589 251.567 62.6419C255.532 65.0769 254.546 69.5449 252.364 72.9179C252.003 73.4759 251.601 74.0099 251.168 74.5179C250.761 74.7519 250.478 74.9999 250.61 75.1309C247.344 78.5609 242.519 80.3669 238.12 77.6609C228.214 71.5659 243.161 58.3859 251.253 62.2509ZM211.618 101.822C217.636 93.2699 220.638 75.3969 215.775 67.6319C215.658 67.2809 215.528 66.9329 215.377 66.5859C213.253 61.7239 207.344 59.4469 210.183 53.2679C212.334 48.5839 217.773 46.9609 222.465 48.1619C224.062 48.5699 225.34 49.3629 226.331 50.3989C228.308 54.1169 226.95 60.4899 226.95 60.4899C226.95 60.4899 227.708 59.8739 229.056 59.1379C229.273 59.4719 229.856 59.5429 230.438 59.4379C232.265 61.2389 234.046 63.0839 235.501 65.2109C235.592 65.3439 235.759 65.4109 235.968 65.4309C231.718 69.5059 230.296 75.5909 236.066 79.1419C241.495 82.4829 248.498 79.6139 252.693 75.6329C252.816 75.5159 252.938 75.3849 253.06 75.2609C256.566 75.7009 259.612 78.2069 260.97 81.4899C261.066 81.7259 261.424 81.7889 261.857 81.7489C258.961 85.6609 258.604 90.5889 263.565 93.6419C265.309 94.7149 267.215 95.1409 269.138 95.1019C269.068 95.1719 269.01 95.2459 268.98 95.3249C268.822 95.7529 268.707 96.1859 268.618 96.6239C264.867 100.197 260.78 103.249 255.941 105.306C248.34 108.538 240.568 106.292 234.057 101.845C233.161 101.234 230.526 102.505 231.782 103.363C235.293 105.76 238.823 107.217 242.319 107.896C240.536 113.574 238.311 120.097 241.622 125.283C241.301 125.657 241.259 126.104 241.791 126.46C227.728 141.311 207.353 121.696 197.711 109.004C200.719 109.105 206.973 108.422 211.618 101.822ZM143.975 235.138C141.868 232.034 139.225 229.247 137.868 225.747C154.03 224.038 169.649 223.555 184.798 230.421C194.379 234.763 206.199 241.564 210.818 251.724C211.038 252.513 211.23 253.298 211.406 254.081C205.145 249.95 198.045 247.186 190.983 244.734C182.625 241.832 173.984 239.101 165.328 237.246C158.631 235.812 151.257 234.906 143.975 235.138ZM170.066 223.101C168.51 220.752 167.25 218.33 166.118 215.766C166.523 215.446 166.891 215.066 167.22 214.626C169.681 215.226 172.678 215.06 173.125 212.2C187.353 214.953 199.975 227.622 206.88 241.567C200.908 235.868 192.898 231.695 186.059 228.595C180.585 226.114 174.962 224.648 169.252 223.848C169.799 223.616 170.201 223.304 170.066 223.101ZM159.11 196.253C161.878 197.353 164.093 200.171 165.822 202.472C167.626 204.872 169.307 207.595 170.054 210.531C170.221 211.188 170.39 212.208 170.035 212.743C169.993 212.75 169.881 212.775 169.647 212.756C169.195 212.719 168.757 212.602 168.328 212.457C168.337 212.43 168.349 212.407 168.357 212.38C168.419 212.183 168.285 212.06 168.044 212C166.564 207.457 161.839 203.37 157.846 201.362C157.377 201.127 156.872 200.917 156.348 200.736C156.37 200.664 156.387 200.59 156.391 200.51C156.516 198.47 156.693 195.293 159.11 196.253ZM171.638 198.917C173.481 201.796 174.766 206.272 172.908 209.261C172.165 206.309 170.091 203.366 168.465 201.16C167.139 199.36 165.463 197.281 163.495 195.771C164.448 194.023 165.481 193.454 167.443 194.52C169.223 195.487 170.568 197.246 171.638 198.917ZM215.781 257.828C215.805 257.771 215.812 257.716 215.797 257.663C237.356 241.435 267.953 240.439 293.852 240.402C293.96 240.402 294.079 240.381 294.203 240.351C293.669 241.834 292.438 243.3 291.621 244.456C290.434 246.133 289.174 247.813 287.74 249.29C287.73 249.3 287.727 249.308 287.719 249.316C280.708 249.29 273.697 249.312 266.702 249.67C249.491 250.554 232.503 253.801 215.781 257.828ZM159.359 205.297C161.767 207.284 164.288 209.976 165.223 213.063C165.134 213.248 165.11 213.437 165.166 213.615C164.827 214.33 164.389 214.822 163.886 215.15C163.659 215.237 163.455 215.34 163.294 215.451C160.792 216.379 157.119 214.058 154.95 212.365C151.926 210.004 149.577 206.691 150.737 202.75C150.833 202.424 150.982 202.189 151.154 201.994C151.581 201.51 152.209 201.384 152.948 201.514C155.183 201.904 158.335 204.452 159.359 205.297ZM267.392 251.07C276.914 250.582 286.497 250.824 296.035 250.845C294.29 253.398 292.423 255.939 290.827 258.597C289.24 258.515 287.659 258.441 286.094 258.361C275.574 257.819 265.035 257.674 254.504 257.621C245.193 257.572 235.881 257.639 226.572 257.828C225.309 257.853 223.774 257.752 222.181 257.69C237.074 254.337 252.111 251.853 267.392 251.07ZM187.607 111.04C190.162 110.753 192.692 110.507 195.172 110.277C206.072 124.468 227.38 142.552 243.293 127.54C249.094 132.118 251.038 139.347 252.079 146.523C253.269 154.733 253.367 163.078 254.471 171.312C257.534 194.149 261.069 218.113 269.862 239.564C250.486 240.973 230.918 244.931 215.303 255.896C214.963 254.129 214.416 252.453 213.698 250.86C208.72 232.876 193.146 214.276 175.009 210.283C174.995 210.28 174.981 210.277 174.967 210.274C175.021 210.209 175.074 210.141 175.126 210.074C175.279 209.875 175.422 209.674 175.55 209.465C175.597 209.389 175.639 209.311 175.682 209.233C175.736 209.295 175.828 209.338 175.961 209.36C176.133 209.389 176.37 209.383 176.7 209.321C182.914 208.146 183.634 202.727 180.995 197.669C178.514 192.915 173.58 190.319 168.829 192.797C166.245 191.767 163.456 192.085 161.521 194.53C161.071 194.308 160.608 194.126 160.134 193.986C160.486 193.776 160.742 193.464 160.757 193.063C161.297 178.854 163.257 164.753 162.893 150.51C162.852 148.918 159.912 149.306 159.948 150.696C160.312 164.938 158.352 179.04 157.812 193.249C157.805 193.444 157.844 193.608 157.916 193.746C155.006 194.075 153.782 197.247 153.494 200.142C150.96 199.976 148.549 200.866 147.7 203.751C147.027 206.038 147.681 208.364 149.1 210.429C136.021 216.364 123.42 223.425 109.746 227.952C108.072 228.507 108.384 229.821 110.095 229.255C123.962 224.663 136.73 217.603 149.987 211.578C153.287 215.385 159.117 217.955 163.433 217.012C164.46 219.29 165.603 221.458 166.973 223.564C157.255 222.505 147.307 223.273 137.412 224.347C137.4 224.302 137.381 224.261 137.37 224.216C137.167 223.418 134.266 224.181 134.473 224.991C135.503 229.028 138.335 232.018 140.678 235.329C133.089 235.954 125.726 237.933 119.486 242.034C118.911 242.412 118.84 242.749 119.03 243C118.799 243.326 118.813 243.68 119.306 243.944C123.438 246.163 126.038 250.292 129.182 253.65C126.505 254.836 123.914 256.217 121.437 257.812C121.408 257.819 121.382 257.821 121.352 257.83C112.709 260.292 102.83 252.291 98.6255 245.454C93.7305 237.495 99.0085 224.974 101.974 217.303C106.933 204.468 112.046 191.798 117.625 179.307C118.792 176.695 119.982 174.092 121.193 171.496C121.408 171.379 121.586 171.262 121.688 171.161C121.754 171.095 121.786 171.036 121.774 170.988C121.759 170.928 121.665 170.889 121.486 170.876C123.429 166.725 125.422 162.589 127.5 158.48C127.896 157.696 128.296 156.898 128.698 156.093C128.973 155.901 129.145 155.665 129.103 155.409C129.098 155.377 129.092 155.345 129.087 155.312C132.746 147.976 136.703 139.955 141.725 132.992C143.684 130.276 145.807 127.724 148.136 125.436C148.72 125.263 149.219 124.905 149.22 124.452C149.22 124.436 149.22 124.421 149.22 124.406C152.235 121.631 155.586 119.298 159.374 117.625C164.862 115.202 170.888 113.638 177.028 112.539C180.544 111.909 184.096 111.434 187.607 111.04ZM34.8685 160.418C34.8685 122.267 34.8685 84.1129 34.8685 45.9619C72.2915 45.9169 109.71 45.1459 147.133 45.1129C147.107 71.3389 146.346 97.5579 146.31 123.784C145.616 124.449 144.937 125.135 144.276 125.845C141.972 111.734 139.669 97.6229 137.366 83.5119C137.336 83.3289 137.112 83.2409 136.802 83.2229C136.771 82.6449 135.975 82.4189 135.491 82.4979C132.799 82.9369 130.107 83.3769 127.416 83.8159C127.399 83.7139 127.382 83.6129 127.366 83.5109C127.298 83.0899 126.988 82.8649 126.596 82.7899C126.317 82.5339 125.826 82.4419 125.491 82.4969C122.799 82.9359 120.107 83.3759 117.416 83.8149C117.399 83.7129 117.382 83.6119 117.366 83.5099C117.328 83.2829 117.106 83.1619 116.8 83.1209C116.691 82.6129 115.947 82.4219 115.491 82.4959C112.799 82.9349 110.107 83.3749 107.416 83.8139C107.399 83.7119 107.382 83.6109 107.366 83.5089C107.312 83.1759 107.052 82.9909 106.715 82.9189C106.48 82.5629 105.882 82.4319 105.491 82.4949C102.799 82.9339 100.107 83.3739 97.4155 83.8129C97.3985 83.7109 97.3825 83.6099 97.3655 83.5079C97.3305 83.2939 97.1065 83.1819 96.7995 83.1479C96.7115 82.6209 95.9545 82.4189 95.4905 82.4949C92.7985 82.9339 90.1065 83.3739 87.4155 83.8129C87.3985 83.7109 87.3825 83.6099 87.3655 83.5079C87.3125 83.1829 87.0565 83.0019 86.7205 82.9319C86.4925 82.5659 85.8845 82.4299 85.4905 82.4939C82.7985 82.9329 80.1065 83.3729 77.4155 83.8119C77.3985 83.7099 77.3825 83.6089 77.3655 83.5069C77.3435 83.3679 77.1175 83.3129 76.8035 83.3159C76.8655 82.6629 76.0005 82.4109 75.4905 82.4939C72.7985 82.9329 70.1065 83.3729 67.4155 83.8119C67.3985 83.7099 67.3825 83.6089 67.3655 83.5069C67.3185 83.2159 67.0735 83.0559 66.7485 82.9949C66.5535 82.5829 65.9065 82.4249 65.4905 82.4929C62.7985 82.9319 60.1065 83.3719 57.4155 83.8109C57.3985 83.7089 57.3825 83.6079 57.3655 83.5059C57.3445 83.3759 57.1185 83.3259 56.8045 83.3339C56.8875 82.6659 56.0065 82.4079 55.4905 82.4919C52.8245 82.9269 50.1595 83.3619 47.4945 83.7969C47.4515 83.5329 47.4085 83.2699 47.3655 83.0059C47.3345 82.8169 47.1105 82.7229 46.8015 82.6999C46.7565 82.1339 45.9705 81.9139 45.4905 81.9919C42.6945 82.4479 39.8975 82.9049 37.1015 83.3609C36.4905 83.4609 35.5995 83.7489 35.4915 84.4799C35.4585 84.6999 35.5355 84.8709 35.6635 85.0049C35.6045 85.0789 35.5735 85.1549 35.5855 85.2319C39.6845 110.338 43.7825 135.444 47.8805 160.55C47.8885 160.601 47.9315 160.639 47.9895 160.669C43.5775 160.696 39.1645 160.716 34.7525 160.719C34.8255 160.629 34.8685 160.527 34.8685 160.418ZM129.018 149.491C125.539 128.179 122.06 106.867 118.58 85.5559C120.559 85.2319 122.538 84.9099 124.517 84.5859C127.573 103.306 130.629 122.028 133.685 140.748C132.033 143.637 130.488 146.582 129.018 149.491ZM136.761 135.669C134.033 118.964 131.307 102.26 128.58 85.5559C130.559 85.2319 132.538 84.9099 134.517 84.5859C136.921 99.3149 139.326 114.044 141.73 128.773C139.96 130.947 138.311 133.265 136.761 135.669ZM38.5795 85.0559C40.5585 84.7319 42.5375 84.4099 44.5165 84.0859C48.6735 109.552 52.8305 135.017 56.9875 160.482C56.9955 160.53 57.0165 160.571 57.0475 160.607C54.4145 160.631 51.7825 160.648 49.1505 160.666C49.9575 160.511 50.8385 160.15 50.7785 159.779C46.7115 134.871 42.6465 109.963 38.5795 85.0559ZM60.6665 159.591C56.6375 134.911 52.6085 110.234 48.5805 85.5559C50.5595 85.2319 52.5385 84.9099 54.5175 84.5859C58.6365 109.821 62.7565 135.058 66.8765 160.292C66.9055 160.468 67.3055 160.498 67.7975 160.437C67.8055 160.457 67.8105 160.478 67.8215 160.497C65.1715 160.526 62.5215 160.553 59.8715 160.579C60.3655 160.351 60.7325 159.999 60.6665 159.591ZM58.5795 85.5559C60.5585 85.2319 62.5375 84.9099 64.5165 84.5859C68.6355 109.821 72.7555 135.058 76.8755 160.292C76.8815 160.328 76.8975 160.357 76.9095 160.39C74.5585 160.418 72.2075 160.447 69.8575 160.473C70.3525 160.261 70.7235 159.946 70.6665 159.591C66.6375 134.912 62.6085 110.234 58.5795 85.5559ZM68.5795 85.5559C70.5585 85.2319 72.5375 84.9099 74.5165 84.5859C78.6345 109.815 82.7535 135.044 86.8715 160.273C84.5385 160.3 82.2055 160.328 79.8735 160.355C80.3535 160.16 80.7135 159.886 80.6655 159.591C76.6375 134.912 72.6085 110.234 68.5795 85.5559ZM78.5795 85.5559C80.5585 85.2319 82.5375 84.9099 84.5165 84.5859C88.6285 109.778 92.7415 134.972 96.8545 160.163C94.7525 160.184 92.6515 160.205 90.5505 160.229C90.6535 160.038 90.7045 159.825 90.6665 159.59C86.6375 134.912 82.6085 110.234 78.5795 85.5559ZM88.5795 85.5559C90.5585 85.2319 92.5375 84.9099 94.5165 84.5859C98.6235 109.747 102.731 134.91 106.84 160.071C104.711 160.088 102.582 160.104 100.454 160.126C100.612 159.965 100.699 159.784 100.667 159.591C96.6375 134.912 92.6085 110.234 88.5795 85.5559ZM98.5795 85.5559C100.559 85.2319 102.538 84.9099 104.517 84.5859C108.62 109.727 112.725 134.868 116.83 160.009C114.735 160.018 112.641 160.03 110.546 160.044C110.642 159.903 110.693 159.753 110.667 159.591C106.638 134.912 102.609 110.234 98.5795 85.5559ZM108.58 85.5559C110.559 85.2319 112.538 84.9099 114.517 84.5859C118.369 108.19 122.224 131.796 126.076 155.401C125.303 156.966 124.545 158.501 123.795 159.987C122.711 159.988 121.626 159.994 120.542 159.997C120.638 159.87 120.69 159.734 120.667 159.591C116.638 134.912 112.609 110.234 108.58 85.5559ZM23.7865 33.1739C68.8495 33.1179 113.908 32.2199 158.971 32.1869C158.946 60.1219 157.993 88.0459 157.972 115.982C157.405 116.232 156.836 116.48 156.279 116.748C153.752 117.959 151.413 119.471 149.233 121.215C149.308 95.6649 150.026 70.1209 150.048 44.5699C150.709 44.2339 151.142 43.8669 150.352 43.8669C150.194 43.8669 150.036 43.8679 149.877 43.8689C149.462 43.3939 148.378 43.4819 147.702 43.8749C109.917 43.9239 72.1365 44.7119 34.3515 44.7269C33.7075 44.7269 31.0415 45.9679 32.4855 45.9689C32.1815 46.1369 31.9715 46.3479 31.9715 46.5939C31.9715 84.7949 31.9715 122.994 31.9715 161.196C31.9715 161.35 32.1635 161.433 32.4475 161.458C32.0105 161.729 31.8485 161.97 32.4885 161.97C62.7205 161.96 92.9465 161.249 123.18 161.228C121.563 164.435 119.992 167.652 118.453 170.879C90.4165 170.942 62.3885 171.716 34.3515 171.728C33.7075 171.728 31.0375 172.971 32.4885 172.97C32.9325 172.97 33.3765 172.966 33.8205 172.965C32.9905 173.049 31.9715 173.49 31.9715 174.128C31.9715 203.276 31.9715 232.428 31.9715 261.576C29.2625 261.576 26.5535 261.576 23.8445 261.576C23.8445 185.555 23.8445 109.534 23.8445 33.5129C23.8435 33.3849 23.8195 33.2759 23.7865 33.1739ZM49.5395 261.575C50.2155 261.393 50.8295 261.091 50.7785 260.779C46.7125 235.871 42.6465 210.964 38.5795 186.056C40.5585 185.732 42.5375 185.41 44.5165 185.086C48.6735 210.552 52.8305 236.017 56.9875 261.482C56.9935 261.517 57.0105 261.546 57.0295 261.575C54.5325 261.575 52.0365 261.575 49.5395 261.575ZM59.8785 261.575C60.3685 261.347 60.7325 260.997 60.6665 260.592C56.6375 235.912 52.6085 211.235 48.5805 186.557C50.5595 186.233 52.5385 185.911 54.5175 185.587C58.6365 210.822 62.7565 236.059 66.8765 261.293C66.9055 261.469 67.3055 261.499 67.7975 261.438C67.8185 261.491 67.8525 261.537 67.8975 261.576C65.2245 261.575 62.5515 261.575 59.8785 261.575ZM69.5885 261.575C70.2095 261.371 70.7335 261.008 70.6655 260.592C66.6365 235.912 62.6075 211.235 58.5795 186.557C60.5585 186.233 62.5375 185.911 64.5165 185.587C68.6355 210.822 72.7555 236.059 76.8755 261.293C76.8945 261.408 76.9485 261.498 77.0215 261.575C74.5435 261.575 72.0665 261.575 69.5885 261.575ZM79.1365 261.575C79.9205 261.416 80.7375 261.027 80.6655 260.592C76.6365 235.912 72.6075 211.235 68.5795 186.557C70.5585 186.233 72.5375 185.911 74.5165 185.587C78.6355 210.822 82.7555 236.059 86.8755 261.293C86.9605 261.816 89.8825 261.186 89.7725 260.518C85.6365 235.182 81.5005 209.848 77.3645 184.512C77.3425 184.373 77.1165 184.318 76.8025 184.321C76.8645 183.668 75.9995 183.416 75.4895 183.499C72.7975 183.938 70.1055 184.378 67.4145 184.817C67.3975 184.715 67.3815 184.614 67.3645 184.512C67.3175 184.221 67.0725 184.061 66.7475 184C66.5525 183.588 65.9055 183.43 65.4895 183.498C62.7975 183.937 60.1055 184.377 57.4145 184.816C57.3975 184.714 57.3815 184.613 57.3645 184.511C57.3435 184.381 57.1175 184.331 56.8035 184.339C56.8865 183.671 56.0055 183.413 55.4895 183.497C52.8235 183.932 50.1585 184.367 47.4935 184.802C47.4505 184.538 47.4075 184.275 47.3645 184.011C47.3335 183.822 47.1095 183.728 46.8005 183.705C46.7555 183.139 45.9695 182.919 45.4895 182.997C42.6935 183.453 39.8965 183.91 37.1005 184.366C36.4895 184.466 35.5985 184.754 35.4905 185.485C35.4575 185.705 35.5345 185.876 35.6625 186.01C35.6035 186.084 35.5725 186.16 35.5845 186.237C39.6835 211.343 43.7815 236.449 47.8795 261.555C47.8805 261.562 47.8875 261.567 47.8905 261.574C43.5105 261.574 39.1305 261.574 34.7505 261.574C34.8245 261.463 34.8675 261.343 34.8675 261.214C34.8675 231.925 34.8675 202.638 34.8675 173.349C34.8675 173.12 34.6405 172.999 34.3175 172.961C62.1715 172.917 90.0175 172.155 117.872 172.114C114.149 179.98 110.641 187.925 107.42 196.065C103.414 206.19 98.9125 216.331 95.8275 226.785C93.2065 235.666 92.9115 244.449 99.5515 251.52C103.909 256.161 111.077 260.337 117.846 260.342C117.325 260.741 116.81 261.152 116.301 261.573C112.157 261.573 108.014 261.573 103.87 261.573C95.6255 261.575 87.3805 261.575 79.1365 261.575ZM121.165 259.977C121.405 259.923 121.647 259.882 121.884 259.815C122.599 259.611 122.937 259.168 122.974 258.744C125.574 257.044 128.29 255.611 131.102 254.421C131.459 254.347 131.8 254.199 132.058 254.01C141 250.422 150.836 249.163 160.747 249.172C169.767 249.18 178.605 250.682 187.444 252.328C196.129 253.946 204.963 255.51 213.21 258.769C213.414 258.849 213.734 258.832 214.083 258.755C214.073 258.821 214.068 258.885 214.09 258.944C214.07 258.969 214.061 258.995 214.046 259.019C197.339 261.129 179.9 260.349 163.133 260.587C153.691 260.722 144.249 260.818 134.807 260.949C131.4 260.996 126.038 260.073 122.788 261.465C122.705 261.5 122.637 261.537 122.568 261.573C121.397 261.573 120.226 261.573 119.055 261.573C119.748 261.018 120.453 260.49 121.165 259.977ZM204.543 261.575C208.285 261.321 212.005 260.964 215.684 260.444C216.188 260.373 216.629 260.105 216.905 259.802C217.66 259.764 218.417 259.733 219.173 259.706C222.311 259.599 225.452 259.538 228.592 259.482C237.598 259.324 246.607 259.291 255.614 259.346C265.407 259.407 275.203 259.595 284.986 260.074C286.591 260.153 288.216 260.224 289.846 260.308C289.839 260.323 289.829 260.338 289.822 260.353C289.646 260.682 290.176 260.827 290.361 260.874C290.367 260.875 290.374 260.877 290.38 260.879C290.771 260.981 291.555 260.75 292.103 260.437C295.523 260.647 298.949 260.968 302.296 261.574C269.711 261.575 237.127 261.575 204.543 261.575ZM433.948 227.115C436.923 223.105 440.748 223.361 443.858 226.976C446.545 230.099 447.119 235.143 446.275 239.015C444.836 245.614 433.538 251.171 432.544 241.611C433.788 237.173 433.887 232.391 433.31 227.5C433.599 227.394 433.838 227.263 433.948 227.115ZM380.223 251.503C371.388 245.419 369.159 230.893 371.732 220.809C390.822 221.346 409.91 220.509 429.003 220.455C431.737 232.097 432.346 244.157 422.668 252.493C416.096 252.682 409.548 252.908 402.915 252.595C395.409 252.24 387.878 251.859 380.404 252.411C380.628 252.119 380.637 251.789 380.223 251.503ZM377.525 260.904C374.803 260.029 372.527 258.127 371.958 255.357C382.956 253.21 394.257 254.177 405.37 254.676C410.763 254.918 416.09 254.69 421.428 254.48C421.85 255.007 423.001 255.216 423.728 254.644C423.837 254.557 423.939 254.467 424.047 254.38C425.979 254.311 427.915 254.258 429.858 254.237C430.24 257.264 429.057 259.909 426.379 261.481C426.335 261.507 426.29 261.54 426.246 261.574C410.069 261.574 393.892 261.574 377.715 261.574C377.877 261.316 377.919 261.031 377.525 260.904ZM245.072 88.8959C245.59 89.1549 246.108 89.4139 246.625 89.6719C248.107 87.6819 249.524 85.6449 251.256 83.8559C251.93 83.1599 254.773 83.1209 253.584 84.3479C251.581 86.4159 250.047 88.8819 248.271 91.1379C247.762 91.7839 246.542 92.1949 245.769 91.8079C244.769 91.3079 243.769 90.8079 242.769 90.3079C241.554 89.7019 244.215 88.4669 245.072 88.8959ZM226.972 89.4899C225.836 87.6669 225.531 85.4219 225.986 83.3359C226.158 82.5429 229.03 82.0699 228.856 82.8689C228.425 84.8479 228.799 86.9949 229.87 88.7149C230.176 89.2069 227.467 90.2859 226.972 89.4899ZM386.831 168.295C383.535 164.105 382.791 157.472 384.28 152.429C385.73 147.52 389.086 145.094 393.305 142.537C393.85 142.207 396.777 141.913 395.534 142.666C388.909 146.68 385.289 152.092 386.766 160.218C388.016 167.096 392.575 170.188 397.534 174.431C401.096 177.478 404.19 182.207 402.715 187.141C401.28 191.938 396.872 194.545 393.737 198.174C393.271 198.714 390.479 199.084 391.104 198.362C395.197 193.627 402.246 189.638 399.612 182.204C397.333 175.77 390.846 173.402 386.831 168.295ZM400.404 152.672C399.628 145.906 399.743 133.968 407.957 131.782C409.652 131.331 409.914 132.302 408.217 132.753C404.001 133.875 403.193 142.317 403.074 145.659C402.947 149.272 402.806 154.18 404.871 157.368C409.954 165.212 421.1 168.893 418.518 180.022C418.344 180.773 415.491 181.22 415.655 180.512C418.656 167.577 401.745 164.36 400.404 152.672Z" fill="#0F4851"/>
</svg>
