<svg width="494" height="416" viewBox="0 0 494 416" fill="none" xmlns="http://www.w3.org/2000/svg">
<path d="M288.522 327.347C294.433 340.824 300.572 354.436 308.569 366.834C308.552 366.855 308.532 366.875 308.52 366.897C306.979 369.743 302.939 370.294 299.053 369.774C297.449 369.399 295.817 368.992 294.412 368.632C294.066 368.504 293.735 368.37 293.421 368.231C293.752 367.978 293.917 367.661 293.709 367.337C280.332 346.566 266.206 325.895 256.562 303.042C251.843 291.859 248.802 280.865 254.732 269.521C255.456 268.138 256.27 266.775 257.145 265.432C258.259 263.886 259.325 262.414 260.33 261.028C262.111 258.793 264.073 256.647 266.179 254.628C266.519 254.596 266.853 254.491 267.099 254.302C269.839 252.199 272.503 249.919 274.973 247.456C277.92 245.425 280.984 243.655 284.074 242.195C284.55 242.692 286.06 242.698 286.664 242.062C287.281 241.411 287.962 240.93 288.684 240.574L299.565 241.19C301.461 241.793 303.287 242.446 304.887 242.842C306.206 243.169 307.542 243.315 308.885 243.34C300.71 246.823 291.979 249.091 284.218 253.618C273.477 259.884 267.942 270.882 270.303 283.124C271.726 290.499 275.84 297.673 278.755 304.551C281.979 312.163 285.202 319.776 288.522 327.347ZM321.069 241.779C319.131 242.063 317.153 242.459 315.162 242.782C306.317 247.412 296.249 249.456 287.45 254.313C273.829 261.832 269.437 275.459 275.596 289.626C286.645 315.04 296.049 342.075 311.163 365.463C311.219 365.477 311.269 365.495 311.314 365.519C316.204 368.214 327.126 367.753 330.398 362.644C330.136 362.526 329.933 362.323 329.856 362.008C326.183 346.934 320.683 332.396 316.743 317.398C315.115 311.199 313.502 304.224 310.793 297.924C310.625 297.839 310.585 297.71 310.642 297.56C308.441 292.54 305.522 287.972 301.305 284.605C300.568 284.016 301.088 283.17 301.752 282.809C302.9 282.183 304.072 281.675 305.262 281.258C305.651 280.87 306.248 280.541 306.779 280.544C307.068 280.545 307.357 280.546 307.646 280.547C317.602 278.066 328.614 281.025 338.536 278.029C352.265 273.885 360.371 262.861 360.612 248.65C360.616 248.433 360.695 248.244 360.817 248.08C347.645 245.521 334.475 239.811 321.069 241.779ZM330.578 364.889C331.497 364.433 332.063 364.119 332.063 364.119C332.063 364.119 332.026 363.987 331.959 363.753C331.542 364.161 331.077 364.537 330.578 364.889ZM400.672 102.702C402.158 102.377 403.509 101.66 404.654 100.693C402.632 101.656 400.246 102.591 398.357 102.752C399.001 102.898 399.762 102.901 400.672 102.702ZM395.7 96.9666C395.605 97.5986 395.573 98.2326 395.611 98.8416C395.606 98.2286 395.64 97.5926 395.7 96.9666ZM434.194 187.657C427.799 185.607 421.907 181.905 416.865 177.538C416.706 177.4 416.613 177.257 416.571 177.115C409.061 177.626 397.61 179 392.153 173.882C391.665 173.424 391.257 172.938 390.912 172.432C390.52 172.102 390.278 171.644 390.164 171.082C387.235 164.302 394.148 154.623 397.51 149.49C398.263 148.341 400.965 148.835 399.948 150.388C399.75 150.691 399.523 151.034 399.276 151.409C399.589 151.295 400.402 150.951 400.836 150.347C399.013 146.907 397.783 141.971 401.553 140.05C407.028 137.259 410.804 142.397 414.428 145.746C417.576 148.656 420.604 152.602 424.397 154.674C426.141 155.626 427.958 156.442 429.801 157.193C427.197 147.175 424.65 137.152 423.241 126.88C423.106 125.894 426.021 125.245 426.139 126.104C427.231 134.071 429.011 141.887 430.969 149.668C439.244 149.531 447.302 148.436 453.764 142.958C451.335 136.894 449.498 130.624 447.207 124.508C445.55 120.085 443.686 115.058 441.024 110.779C440.329 109.75 439.628 108.755 438.929 107.819C438.268 106.996 437.568 106.217 436.814 105.506C429.691 98.7966 418.809 98.2356 411.28 92.3846C411.359 92.7446 411.444 93.0996 411.538 93.4406C411.655 93.8676 411.393 94.2376 410.987 94.4926C409.802 99.4086 405.096 102.884 400.128 103.748C398.179 104.087 395.429 104.314 393.864 102.788C391.843 100.817 392.466 97.9416 393.319 95.5526C393.364 95.4266 393.488 95.3146 393.655 95.2156C393.904 94.4726 394.093 93.7816 394.214 93.1486L394.111 93.1806C394.046 93.4586 393.707 93.7886 393.024 94.0096C386.362 96.1696 379.26 97.2756 372.807 100.04C368.689 101.805 365.487 104.24 363.098 107.344C361.755 109.812 360.35 112.642 359.207 115.015C358.939 115.879 358.7 116.767 358.5 117.692C358.437 117.982 358.064 118.226 357.608 118.391C357.545 118.526 357.488 118.65 357.431 118.771C360.869 121.226 364.399 123.587 367.302 126.769C368.682 128.281 369.943 129.879 371.075 131.54C371.185 128.871 371.3 126.201 371.313 123.529C371.319 122.579 374.214 122.115 374.211 122.753C374.188 127.029 373.918 131.298 373.811 135.571V136.188C378.661 145.898 379.069 157.103 372.246 166.827C373.952 170.657 375.297 174.66 376.494 178.396C379.056 186.389 381.702 194.422 384.052 202.477C384.636 204.478 385.332 206.832 385.783 209.254C385.804 209.256 385.824 209.254 385.845 209.257C404.24 212.036 420.26 208.164 436.577 199.86C436.277 195.821 434.685 192.03 434.128 188.013C434.112 187.888 434.139 187.769 434.194 187.657ZM378.479 195.119C378.526 195.261 378.698 195.671 378.951 196.258C378.625 195.264 378.299 194.271 377.973 193.278C378.247 194.302 378.431 194.975 378.479 195.119ZM419.811 176.527C421.988 178.364 424.397 180.179 426.971 181.779L419.935 176.39C419.898 176.438 419.856 176.483 419.811 176.527ZM409.035 175.273C405.923 175.063 402.516 174.778 399.462 174.402C402.516 175.145 405.775 175.322 409.035 175.273ZM420.67 155.12L421.813 156.453L423.845 157.034C422.698 156.482 421.625 155.849 420.67 155.12ZM367.146 101.453C366.863 101.575 366.495 101.945 366.069 102.496C366.958 101.905 367.883 101.36 368.84 100.853C368.025 101.122 367.432 101.33 367.146 101.453ZM124.745 154.137C124.667 154.149 124.591 154.158 124.515 154.163C125.078 154.708 125.739 155.511 126.086 156.48C125.954 155.745 125.418 154.899 124.745 154.137ZM162.887 213.691C162.879 213.688 162.872 213.685 162.866 213.681C162.823 213.659 162.814 213.624 162.822 213.585C161.729 211.779 160.711 209.943 159.761 208.112C154.34 197.651 150.237 186.311 148.539 174.618C148.376 173.493 151.287 172.81 151.437 173.842C152.392 180.43 154.106 186.975 156.407 193.289C162.838 187.586 168.888 180.953 173.983 174.081C173.974 174.076 173.962 174.074 173.953 174.069C166.269 169.519 160.833 162.165 153.543 157.108C145.605 151.601 136.775 153.013 127.691 153.215C128.74 154.307 129.614 155.679 128.993 157.106C128.411 158.442 126.691 159.133 125.246 159.457C123.205 160.419 118.799 159.699 117.062 159.12C116.513 158.937 115.904 158.574 115.297 158.131C114.03 157.475 112.885 156.618 111.94 155.562C100.87 159.395 91.183 165.66 85.529 176.283C80.308 186.092 77.679 197.056 74.401 207.606C74.358 207.744 74.278 207.869 74.175 207.982C83.614 209.426 93.102 209.515 102.551 208.204C101.034 201.287 100.255 194.206 100.801 187.182C100.869 186.303 103.733 185.977 103.699 186.406C102.825 197.656 105.262 209.313 108.932 219.906C112.477 230.139 117.226 240.862 125.388 248.273C125.407 248.29 125.412 248.31 125.422 248.329C125.434 248.342 125.449 248.352 125.459 248.367C134.133 243.07 143.943 239.52 153.535 236.296C161.927 233.476 171.01 231.353 179.949 231.497C172.714 227.445 167.205 220.809 162.887 213.691ZM72.563 209.369C72.563 209.369 72.755 209.357 73.076 209.341C72.915 209.318 72.753 209.299 72.592 209.275L72.563 209.369Z" fill="#F1A351"/>
<path d="M134.338 121.058C134.585 123.423 132.588 125.019 130.828 126.239C129.744 126.991 127.328 126.194 128.947 125.071C130.08 124.285 132.104 122.904 131.26 121.251C130.473 119.707 128.543 118.819 127.082 118.07C125.721 117.373 128.315 115.963 129.34 116.488C131.023 117.35 134.106 118.836 134.338 121.058ZM120.461 120.577C120.889 120.378 121.668 119.7 121.17 119.173C120.604 118.575 120.464 117.953 120.463 117.151C120.462 116.444 119.754 116.235 119.148 116.289C118.62 116.336 117.538 116.718 117.538 117.41C117.539 118.554 117.688 119.548 118.507 120.412C119.001 120.934 119.86 120.857 120.461 120.577ZM129.276 112.643C129.335 113.706 130.335 114.558 131.035 115.258C131.181 115.404 131.604 115.357 131.771 115.342C132.155 115.309 132.538 115.217 132.899 115.087C133.106 115.013 134.128 114.638 133.767 114.276C133.107 113.615 132.229 112.868 132.174 111.866C132.147 111.365 129.233 111.852 129.276 112.643ZM112.827 115.687C113.573 114.164 114.161 111.971 115.737 111.098C116.203 110.84 116.541 110.157 115.954 109.827C115.307 109.465 114.484 109.733 113.891 110.061C111.842 111.196 111.071 113.542 110.1 115.522C109.438 116.875 112.356 116.647 112.827 115.687ZM125.556 106.556C126.393 106.556 127.231 106.556 128.068 106.556C128.677 106.556 129.58 106.096 129.676 105.428C129.782 104.683 128.879 104.554 128.357 104.554C127.52 104.554 126.682 104.554 125.845 104.554C125.236 104.554 124.333 105.014 124.237 105.682C124.13 106.428 125.034 106.556 125.556 106.556ZM221.356 135.063C226.541 124.9 207.778 116.928 217.478 107.181C218.208 106.447 215.374 106.723 214.822 107.278C204.742 117.408 223.675 125.328 218.481 135.509C218.166 136.126 220.944 135.87 221.356 135.063ZM223.506 117.922C223.192 118.539 225.969 118.282 226.381 117.476C231.566 107.313 212.803 99.3406 222.503 89.5936C223.233 88.8596 220.399 89.1356 219.847 89.6906C209.767 99.8206 228.7 107.741 223.506 117.922ZM229.143 232.214C234.328 222.051 215.565 214.079 225.265 204.333C225.995 203.599 223.161 203.875 222.609 204.43C212.529 214.559 231.462 222.48 226.268 232.661C225.954 233.277 228.731 233.02 229.143 232.214ZM234.167 214.626C239.353 204.463 220.59 196.491 230.289 186.745C231.019 186.011 228.185 186.287 227.633 186.842C217.554 196.971 236.487 204.892 231.292 215.073C230.978 215.689 233.756 215.433 234.167 214.626ZM493.512 280.981C493.512 286.148 493.512 291.314 493.512 296.481C493.512 296.669 493.332 296.834 493.065 296.97C492.952 297.446 491.825 298.143 491.125 298.138C473.031 298.014 454.937 297.939 436.843 297.888C438.305 314.389 439.823 330.899 442.169 347.302C443.394 349.85 444.625 352.395 445.85 354.944C455.204 374.409 464.547 393.88 473.878 413.356C474.239 414.11 472.775 414.716 472.279 414.727C467.071 414.842 460.812 415.931 455.712 414.79C455.631 414.772 455.567 414.748 455.503 414.725C455.171 414.739 454.841 414.687 454.562 414.547C454.556 414.544 454.55 414.541 454.543 414.538C454.152 414.342 454.091 414.086 454.216 413.832C454.073 413.412 452.336 410.564 451.943 409.865C450.095 406.59 448.228 403.327 446.358 400.065C444.601 397 442.843 393.935 441.084 390.87C440.844 390.951 440.617 391.003 440.45 391.004C429.198 391.032 417.953 391.477 406.7 391.504C405.572 391.507 405.896 391.075 406.526 390.715C406.5 390.638 406.482 390.555 406.484 390.459C406.595 383.643 408.02 377.016 410.543 370.699C407.789 369.149 405.629 366.916 405.565 363.528C405.441 356.899 405.528 350.253 405.765 343.627C405.88 340.418 405.097 333.99 406.771 330.736C400.817 320.095 394.971 309.396 389.354 298.581C387.417 322.17 384.163 345.621 381.744 369.161C381.714 369.457 381.352 369.717 380.897 369.893C380.986 370.111 380.867 370.39 380.386 370.715C380 370.976 379.593 371.205 379.188 371.437C379.205 371.456 379.226 371.471 379.239 371.492C384.129 379.361 382.157 387.619 374.729 392.922C374.716 392.931 374.697 392.94 374.682 392.948C374.292 393.365 373.621 393.745 373.068 393.745C357.993 393.745 342.918 393.745 327.842 393.745C326.834 393.745 326.825 393.255 327.218 392.779C326.972 392.557 326.851 392.226 326.982 391.775C327.335 390.555 327.764 389.437 328.236 388.372C323.131 393.612 317.23 397.653 313.35 398.386C308.32 399.336 300.133 399.261 298.832 394.247C293.825 397.5 282.173 401.573 278.694 394.033C275.714 387.57 279.594 383.275 283.424 378.866C282.594 379.572 281.791 380.208 281.098 380.749C275.475 385.133 268.571 390.799 261.261 392.02C258.569 392.469 255.809 392.322 253.047 392.07C243.033 394.49 235.381 384.917 230.005 377.437C229.912 377.406 229.831 377.362 229.776 377.293C221.18 366.491 208.891 359.585 199.869 349.222C198.516 347.669 197.215 346.081 195.939 344.476C195.06 345.869 194.041 346.971 192.921 347.818C192.988 347.947 193.031 348.096 193.033 348.274C193.124 357.952 202.255 407.024 179.161 397.195C169.197 392.955 167.063 375.936 165.804 366.755C164.917 360.304 164.327 353.702 164.702 347.187C164.91 343.56 165.054 338.756 167.581 335.842C167.75 335.647 167.983 335.509 168.244 335.422C168.259 334.325 168.523 333.18 169.127 331.978C171.731 326.79 175.182 322.701 176.176 316.767C176.207 316.58 176.327 316.413 176.496 316.268C175.886 315.335 175.276 314.402 174.66 313.472C171.108 308.118 167.349 303.048 163.414 298.129C130.655 298.129 97.897 298.129 65.138 298.129C64.222 303.116 62.32 307.524 59.202 311.537C59.15 311.604 59.067 311.666 58.971 311.725C79.336 311.725 99.701 311.725 120.067 311.725C121.443 311.725 120.977 312.654 120.148 313.209C120.148 345.379 120.148 377.548 120.148 409.717C121.964 409.774 120.232 411.602 119.006 411.602C79.644 411.602 40.281 411.602 0.918999 411.602C0.334999 411.602 0.087997 411.433 0.053997 411.198C0.022997 411.154 0 411.104 0 411.045C0 378.382 0 345.72 0 313.058C0 312.755 0.250997 312.499 0.602997 312.306C0.992997 311.982 1.522 311.725 1.98 311.725C14.463 311.725 26.947 311.725 39.43 311.725C42.428 307.701 45.406 303.431 46.393 298.429C46.414 298.322 46.501 298.221 46.626 298.129C42.087 298.129 37.548 298.129 33.008 298.129C32.177 298.129 32.075 297.844 32.307 297.517C31.748 297.476 31.283 297.208 31.283 296.626C31.283 291.88 31.283 287.134 31.283 282.388C31.283 281.808 31.939 281.397 32.63 281.276C33.054 280.938 33.7 280.638 34.153 280.638C35.732 280.638 37.312 280.638 38.891 280.638C37.269 280.335 35.759 279.858 34.464 279.122C32.306 277.895 32.261 274.992 34.328 273.565C37.518 271.362 42.625 271.821 46.298 271.235C62.181 268.702 74.017 254.207 77.905 239.315C79.532 233.086 80.555 226.842 80.556 220.387C80.556 217.146 79.952 214.012 79.852 210.803C79.844 210.543 79.993 210.316 80.221 210.134C77.837 209.959 75.453 209.689 73.074 209.343C72.913 209.32 72.751 209.301 72.59 209.277C72.396 209.248 72.201 209.228 72.007 209.198C71.385 209.101 71.489 208.849 71.866 208.595C71.539 208.482 71.351 208.245 71.472 207.856C75.145 196.035 77.842 182.839 84.91 172.447C91.247 163.131 100.355 157.584 110.746 153.917C110.387 151.709 110.296 148.804 109.121 146.975C107.253 144.064 104.41 144.728 101.51 145.628C97.867 146.758 95.307 145.3 94.497 141.302C94.332 140.487 94.268 139.721 94.285 139.004C87.877 134.523 83.348 128.37 82.099 121.582C81.866 120.601 81.742 119.594 81.762 118.535C81.613 114.346 82.726 109.983 85.419 105.675C87.295 102.674 89.589 99.9866 92.178 97.6326C94.183 95.5136 96.513 93.8946 98.927 92.6676C104.025 89.6806 109.769 87.7956 115.688 87.2246C115.606 86.5276 115.603 85.8506 115.652 85.1856C115.589 84.7536 115.529 84.2956 115.477 83.7856C115.316 82.1796 116.011 80.8866 117.143 79.8996C117.28 79.6006 117.417 79.3006 117.566 78.9986C117.839 78.4416 119.375 78.1686 120.084 78.2596C120.184 78.2246 120.283 78.1916 120.384 78.1596C120.876 77.8206 122.082 77.3466 122.453 77.3366C127.106 77.2086 132.432 78.7346 134.248 83.5576C135.335 86.4416 135.303 89.6156 134.23 92.4406C133.231 95.6946 131.313 98.6176 129.477 99.7856C129.396 99.8376 129.289 99.8856 129.2 99.9366C129.888 99.6226 130.824 99.5226 131.224 99.9396C135.227 104.107 138.478 109.288 141.266 114.317C143.454 118.263 146.76 123.463 146.457 128.187C146.138 133.17 142.565 136.737 138.642 139.376C133.408 142.897 128.391 145.904 126.573 152.171C126.582 152.179 126.591 152.186 126.599 152.194C127.015 151.91 127.558 151.678 127.949 151.673C136.554 151.566 146.261 149.612 153.984 154.505C162.087 159.637 167.905 167.704 176.132 172.629C176.46 172.597 176.776 172.611 177.019 172.679C178.402 169.645 179.828 166.631 181.351 163.664C183.31 159.85 184.368 154.056 188.47 151.927C188.15 151.898 187.919 151.793 187.9 151.585C186.649 138.641 199 138.787 208.316 138.776C217.559 138.765 226.779 138.162 236.014 137.948C236.792 137.634 237.805 137.717 238.009 138.48C239.535 144.183 239.658 150.685 239.965 156.543C240.281 162.589 241.706 173.065 237.433 178.189C235.919 180.004 234.062 180.145 231.844 180.385C227.638 180.84 223.404 181.262 219.169 181.285C215.669 181.305 204.833 181.74 205.307 175.993C202.953 176.343 200.298 176.586 197.797 176.286C192.377 186.512 192.757 199.072 186.641 209.023C182.029 216.526 174.911 217.993 167.59 215.672C171.629 221.692 176.587 227.099 182.958 230.459C183.046 230.505 183.11 230.556 183.16 230.608C190.985 231.471 199.056 234.71 206.28 237.624C210.238 239.221 214.703 240.987 218.918 243.187C219.311 242.97 219.767 242.806 220.087 242.806C228.462 242.806 236.837 242.806 245.212 242.806C246.394 242.806 246.059 243.339 245.4 243.76C245.801 243.895 246.094 244.195 246.094 244.691C246.094 245.655 246.094 246.62 246.094 247.585C248.785 246.112 251.452 244.987 252.538 244.439C252.796 244.309 253.216 244.242 253.63 244.235C253.173 244.014 253.026 243.584 253.749 243.013C260.214 237.911 264.56 229.765 267.81 222.35C271.085 214.877 273.943 206.769 274.104 198.523C274.105 198.447 274.125 198.374 274.152 198.303C269.983 186.467 265.889 174.601 261.111 163.007C260.908 162.515 261.632 162.038 262.415 161.854C263.143 161.305 264.6 161.263 264.885 162.123C264.692 161.465 264.002 161.593 265.156 161.733C265.745 161.804 266.336 161.869 266.927 161.925C268.72 162.096 270.515 162.244 272.311 162.381C276.638 162.71 280.968 163.002 285.298 163.281C285.316 163.238 285.335 163.194 285.369 163.145C288.623 158.46 293.722 155.234 298.502 152.072C284.88 148.387 284.612 126.553 284.627 114.255C284.351 114.212 284.121 114.104 284.002 113.9C275.904 100.039 282.764 80.5176 300.472 81.3226C300.607 81.3286 300.719 81.3436 300.818 81.3616C304.081 79.0186 308.004 77.3406 312.162 76.2306C312.282 76.1986 312.401 76.1626 312.522 76.1316C313.318 75.9256 314.122 75.7466 314.93 75.5806C315.971 75.2626 317.531 74.9076 320.011 74.7886C323.543 74.4046 327.042 74.3506 330.254 74.5726C335.632 74.9446 341.695 76.2626 345.453 80.5146C349.012 84.5406 349.464 89.3486 348.976 94.5256C348.484 99.7666 346.49 108.991 350.715 113.288C352.267 114.866 353.986 116.237 355.757 117.55C357.458 110.34 361.203 105.732 366.066 102.498C366.955 101.907 367.88 101.362 368.837 100.855C375.858 97.1316 384.566 95.4506 392.698 92.8136C393.705 92.4866 394.202 92.7796 394.107 93.1826C394.042 93.4606 393.703 93.7906 393.02 94.0116C386.358 96.1716 379.256 97.2776 372.803 100.042C368.685 101.807 365.483 104.242 363.094 107.346C361.39 109.559 360.102 112.115 359.203 115.017C358.935 115.881 358.696 116.769 358.496 117.694C358.433 117.984 358.06 118.228 357.604 118.393C357.441 118.452 357.27 118.5 357.095 118.536C357.205 118.616 357.317 118.694 357.427 118.773C360.865 121.228 364.395 123.589 367.298 126.771C368.678 128.283 369.939 129.881 371.071 131.542C371.181 128.873 371.296 126.203 371.309 123.531C371.315 122.581 374.21 122.117 374.207 122.755C374.184 127.031 373.914 131.3 373.807 135.573C373.802 135.77 373.799 135.967 373.794 136.164C373.799 136.172 373.803 136.181 373.807 136.189C378.657 145.899 379.065 157.104 372.242 166.828C373.948 170.658 375.293 174.661 376.49 178.397C379.052 186.39 381.698 194.423 384.048 202.478C384.632 204.479 385.328 206.833 385.779 209.255C385.8 209.257 385.82 209.255 385.841 209.258C404.236 212.037 420.256 208.165 436.573 199.861C436.273 195.822 434.681 192.031 434.124 188.014C434.106 187.888 434.134 187.769 434.188 187.656C427.793 185.606 421.901 181.904 416.859 177.537C416.7 177.399 416.607 177.256 416.565 177.114C409.055 177.625 397.604 178.999 392.147 173.881C391.659 173.423 391.251 172.937 390.906 172.431C390.608 171.996 390.358 171.546 390.158 171.081C387.229 164.301 394.142 154.622 397.504 149.489C398.257 148.34 400.959 148.834 399.942 150.387C399.744 150.69 399.517 151.033 399.27 151.408C395.634 156.938 387.48 169.755 396.304 173.396C397.322 173.816 398.378 174.14 399.456 174.402C402.511 175.144 405.769 175.321 409.029 175.273C412.412 175.222 415.793 174.937 418.942 174.811C420.265 174.758 420.452 175.726 419.929 176.39C419.892 176.438 419.85 176.483 419.805 176.527C421.982 178.364 424.391 180.179 426.965 181.779C431.789 184.779 437.172 187.023 442.591 187.237C446.989 187.412 452.199 186.489 453.948 181.905C454.979 179.201 455.323 176.259 455.347 173.378C455.402 167.115 454.472 160.876 453.24 154.748C452.851 152.814 451.41 149.421 451.603 147.223C445.585 150.671 438.598 151.662 431.512 151.843C432.081 154.072 432.659 156.299 433.239 158.526C433.617 158.666 433.994 158.809 434.371 158.946C437.463 160.073 440.582 161.12 443.678 162.236C444.616 162.574 446.454 162.899 447.072 163.788C447.374 164.222 444.715 165.343 444.174 164.564C443.59 163.723 440.679 163.209 439.77 162.891C437.181 161.988 434.584 161.1 432.012 160.147C431.792 160.065 431.557 159.984 431.329 159.903C430.908 159.92 430.558 159.827 430.433 159.583C428.299 158.838 425.965 158.055 423.839 157.032C422.692 156.48 421.619 155.848 420.664 155.119C420.43 154.94 420.185 154.77 419.967 154.578C415.135 150.314 410.736 145.562 405.75 141.459C404.73 140.62 403.926 140.561 403.33 140.935C403.195 141.02 403.066 141.12 402.953 141.246C402.17 142.124 401.918 143.91 402.215 145.307C402.695 147.576 403.525 149.674 404.94 151.531C405.461 152.215 402.686 153.17 402.221 152.559C401.764 151.96 401.279 151.197 400.828 150.346C399.005 146.906 397.775 141.97 401.545 140.049C407.02 137.258 410.796 142.396 414.42 145.745C417.568 148.655 420.596 152.601 424.389 154.673C426.133 155.625 427.95 156.441 429.793 157.192C427.189 147.174 424.642 137.151 423.233 126.879C423.098 125.893 426.013 125.244 426.131 126.103C427.223 134.07 429.003 141.886 430.961 149.667C439.236 149.53 447.294 148.435 453.756 142.957C451.327 136.893 449.49 130.623 447.199 124.507C445.542 120.084 443.678 115.057 441.016 110.778C440.37 109.738 439.67 108.749 438.921 107.818C438.26 106.995 437.56 106.216 436.806 105.505C429.683 98.7956 418.801 98.2346 411.272 92.3836C411.351 92.7436 411.436 93.0986 411.53 93.4396C411.647 93.8666 411.385 94.2366 410.979 94.4916C409.794 99.4076 405.088 102.883 400.12 103.747C398.171 104.086 395.421 104.313 393.856 102.787C391.835 100.816 392.458 97.9406 393.311 95.5516C393.356 95.4256 393.48 95.3136 393.647 95.2146C393.896 94.4716 394.085 93.7806 394.206 93.1476C396.156 83.0276 382.651 86.2396 376.271 81.8516C366.311 75.0016 374.883 58.2936 375.311 49.0346C375.324 48.7606 375.573 48.5336 375.916 48.3586C375.678 48.2606 375.369 48.1366 375.011 47.9896C367.36 48.1526 360.26 42.0026 362.116 32.7396C363.883 23.9216 377.2 19.3926 383.027 26.4546C388.729 19.1246 405.945 18.0786 407.356 28.4556C409.916 27.0206 412.952 26.4476 415.729 27.8036C419.466 29.6296 421.16 33.3356 421.335 37.3216C421.417 37.3596 421.508 37.4026 421.595 37.4426C430.806 37.7106 438.945 49.8226 431.805 56.5976C436.234 56.8776 439.27 60.2366 438.458 65.2596C437.745 69.6766 434.545 72.8446 430.409 73.3266C427.843 81.9166 418.862 84.4616 411.059 86.6756C411.038 86.6816 411.018 86.6826 410.997 86.6886C410.893 87.3786 410.848 88.0836 410.853 88.7886C411.099 88.7996 411.304 88.8586 411.421 88.9876C419.062 97.3956 433.196 96.3096 440.316 105.319C448.788 116.038 451.584 129.455 456.539 141.899C456.994 142.13 457.25 142.567 456.971 143.086C456.953 143.243 456.812 143.4 456.603 143.544C455.77 144.324 454.905 145.024 454.016 145.668C454.581 145.849 454.704 146.154 454.58 146.466C454.279 147.784 455.378 150.309 455.646 151.594C456.334 154.882 456.978 158.186 457.432 161.515C458.294 167.829 459.311 175.301 456.976 181.422C454.622 187.596 447.802 189.835 441.548 189.214C440.089 189.069 438.651 188.818 437.231 188.492C437.997 192.638 439.546 196.56 439.528 200.848C439.525 201.576 437.863 202.106 437.058 201.791C435.053 202.795 433.049 203.735 431.043 204.606C431.11 204.664 431.152 204.735 431.152 204.827C431.227 230.189 433.453 255.452 435.621 280.701C454.081 280.648 472.54 280.572 491 280.447C491.647 280.443 492.004 280.651 492.142 280.931C492.846 280.805 493.512 280.806 493.512 280.981ZM428.54 56.4676C428.937 56.1796 429.286 55.8676 429.598 55.5386C428.953 56.0956 428.48 56.4536 428.48 56.4536C428.48 56.4536 428.515 56.4616 428.54 56.4676ZM404.655 100.694C406.857 98.8336 408.289 96.0286 408.373 93.1716C408.373 93.1656 408.377 93.1596 408.378 93.1536C407.295 88.2446 407.968 82.7646 412.646 80.0916C413.581 79.5576 414.75 79.5526 415.746 79.2016C418.223 78.3276 419.775 76.0856 420.23 73.6456C420.712 71.0596 420.637 66.6926 417.912 66.5736C416.535 67.2796 413.342 68.9276 410.639 67.1186C408.465 66.9106 406.71 65.7246 406.108 63.0246C405.431 59.9926 405.675 56.4766 406.837 53.5156C402.579 54.1886 398.153 53.0416 397.309 48.8656C391.777 52.5456 381.888 53.8506 382.9 45.9186C381.615 46.7846 379.774 47.8976 378.212 48.3656C378.132 49.8996 377.831 51.6816 377.432 53.6146C379.854 52.6126 383.105 52.8456 384.807 54.5966C385.286 55.0896 382.615 56.1456 382.08 55.5956C381.031 54.5176 378.934 53.6386 377.849 54.9986C377.726 55.1536 377.413 55.2946 377.046 55.4036C376.803 56.5016 376.544 57.6326 376.286 58.7856C378.618 57.6926 381.672 58.2046 383.008 60.6746C383.393 61.3866 380.606 62.3686 380.11 61.4506C379.782 60.8436 379.172 60.2916 378.543 60.0116C377.585 59.5856 377.521 59.6156 376.932 60.4276C376.686 60.7666 376.24 60.9686 375.787 61.0806C373.887 70.1486 372.961 79.7246 382.468 82.2616C390.226 84.3316 400.252 84.0216 396.471 94.9536C396.418 95.1076 396.274 95.2446 396.076 95.3626C395.911 95.8816 395.784 96.4206 395.703 96.9666C395.608 97.5986 395.576 98.2326 395.614 98.8416C395.734 100.725 396.545 102.34 398.361 102.752C399.005 102.898 399.765 102.901 400.675 102.702C402.159 102.377 403.509 101.661 404.655 100.694ZM428.267 205.777C414.81 211.182 401.141 213.43 386.109 211.395C386.45 214.435 386.241 217.453 384.763 219.904C382.524 223.621 378.248 225.326 374.059 225.741C369.649 226.178 365.336 225.89 361.131 225.063C362.277 232.974 367.1 239.69 368.559 247.542C368.752 248.582 367.09 249.256 366.194 248.918C365.313 248.818 364.433 248.699 363.553 248.561C363.437 254.576 361.944 260.272 359.136 265.174C358.97 270.371 358.52 275.548 358.115 280.73C367.851 280.751 377.589 280.758 387.326 280.762C389.135 264.584 389.574 248.251 392.949 232.28C392.963 232.213 393.01 232.149 393.069 232.087C393.029 230.759 395.912 230.36 396.01 231.921C397.066 248.629 402.508 264.713 407.761 280.483C407.792 280.578 407.804 280.67 407.806 280.758C416.093 280.75 424.38 280.732 432.667 280.71C430.527 255.773 428.352 230.823 428.267 205.777ZM390.166 280.519C390.156 280.608 390.11 280.688 390.047 280.764C394.931 280.765 399.815 280.766 404.698 280.763C400.418 267.911 396.119 254.901 394.087 241.492C392.197 254.424 391.644 267.524 390.166 280.519ZM330.399 362.644C330.137 362.526 329.934 362.323 329.857 362.008C326.184 346.934 320.684 332.396 316.744 317.398C315.116 311.199 313.503 304.224 310.794 297.924C310.626 297.839 310.586 297.71 310.643 297.56C308.442 292.54 305.523 287.972 301.306 284.605C300.569 284.016 301.089 283.17 301.753 282.809C302.901 282.183 304.073 281.675 305.263 281.258C305.652 280.87 306.249 280.541 306.78 280.544C307.069 280.545 307.358 280.546 307.647 280.547C317.603 278.066 328.615 281.025 338.537 278.029C352.266 273.885 360.372 262.861 360.613 248.65C360.617 248.433 360.696 248.244 360.818 248.08C347.646 245.522 334.476 239.812 321.07 241.78C319.132 242.064 317.154 242.46 315.163 242.783C306.318 247.413 296.25 249.457 287.451 254.314C273.83 261.833 269.438 275.46 275.597 289.627C286.646 315.041 296.05 342.076 311.164 365.464C311.22 365.478 311.27 365.496 311.315 365.52C316.205 368.214 327.126 367.754 330.399 362.644ZM275.715 357.42C281.014 356.331 284.541 358.878 287.203 362.596C273.877 342.21 259.647 321.408 251.57 298.433C251.568 298.427 251.566 298.421 251.564 298.415C240.572 298.415 229.58 298.415 218.586 298.415C215.367 303.037 212.117 307.641 209.211 312.48C213.958 319.626 218.963 326.626 224.197 333.327C228.848 339.282 233.943 344.55 239.729 349.408C245.137 353.95 250.659 358.371 255.192 363.824C263.114 366.239 268.337 358.936 275.715 357.42ZM220.078 296.261C230.33 296.261 240.582 296.261 250.833 296.261C249.355 291.759 248.228 287.152 248.193 282.383C248.192 282.302 248.198 282.221 248.199 282.14C241.766 282.14 235.334 282.14 228.901 282.14C226.289 287.069 223.229 291.695 220.078 296.261ZM294.413 368.633C295.801 369.147 297.41 369.555 299.054 369.775C302.94 370.295 306.98 369.744 308.521 366.898C308.533 366.876 308.553 366.856 308.57 366.835C300.573 354.437 294.434 340.825 288.523 327.348C285.203 319.777 281.98 312.164 278.754 304.553C275.839 297.675 271.725 290.501 270.302 283.126C267.941 270.884 273.476 259.886 284.217 253.62C291.978 249.094 300.709 246.826 308.884 243.342C307.541 243.318 306.205 243.172 304.886 242.844C303.285 242.448 301.46 241.795 299.564 241.192C295.836 240.006 291.832 239.024 288.683 240.576C287.961 240.932 287.281 241.413 286.663 242.064C286.059 242.7 284.549 242.694 284.073 242.197C280.983 243.657 277.92 245.426 274.972 247.458C272.502 249.92 269.838 252.201 267.098 254.304C266.852 254.493 266.518 254.597 266.178 254.63C264.073 256.65 262.111 258.795 260.329 261.03C259.185 262.464 258.121 263.934 257.144 265.434C256.269 266.777 255.455 268.14 254.731 269.523C248.801 280.867 251.842 291.861 256.561 303.044C266.206 325.897 280.332 346.568 293.708 367.339C293.916 367.663 293.751 367.979 293.42 368.233C293.736 368.371 294.067 368.504 294.413 368.633ZM278.963 243.068C280.571 242.166 282.215 241.344 283.882 240.596C285.631 238.599 287.19 236.392 288.793 234.302C290.1 232.599 291.455 229.997 293.238 228.738C293.525 228.535 294.177 228.242 294.767 228.152C293.83 228.119 292.894 228.096 291.957 228.057C290.577 228 288.597 228.199 287.015 227.903C285.52 233.569 282.625 238.592 278.963 243.068ZM306.408 228.478C302.762 228.393 299.116 228.297 295.471 228.175C295.567 228.207 295.653 228.253 295.722 228.319C295.725 228.322 295.729 228.325 295.732 228.329C295.826 228.403 295.85 228.495 295.806 228.606C295.777 228.694 295.728 228.771 295.682 228.851C295.577 229.035 295.338 229.184 295.043 229.302C293.711 230.577 291.978 233.457 290.814 234.969C289.896 236.162 288.995 237.396 288.057 238.598C290.683 237.534 293.616 237.594 296.728 238.195C299.707 238.771 302.534 239.917 305.471 240.645C308.375 241.365 311.261 241.232 314.152 240.842C314.209 240.812 314.266 240.784 314.323 240.754C314.78 240.508 315.245 240.498 315.618 240.627C316.397 240.502 317.176 240.37 317.956 240.233C334.364 237.348 349.327 244.39 365.282 246.603C363.444 239.227 358.987 232.736 358.123 225.079C358.096 224.836 358.167 224.615 358.3 224.421C346.671 221.444 335.925 214.528 326.357 207.551C325.605 208.099 324.757 208.596 323.829 209.034C323.885 209.09 323.933 209.152 323.964 209.228C326.324 215.001 327.884 221.042 330.245 226.815C330.455 227.329 329.659 227.828 328.842 227.993C328.664 228.453 328.141 228.87 327.404 228.866C320.404 228.826 313.403 228.641 306.408 228.478ZM307.806 206.631C305.985 206.158 303.784 205.405 301.786 204.339C305.961 210.9 318.935 211.429 324.521 206.974C324.725 206.811 325.208 206.676 325.699 206.608C325.748 206.537 325.81 206.461 325.899 206.378C327.666 204.719 328.12 201.686 328.314 199.383C328.441 197.88 328.771 195.693 327.972 194.3C327.946 194.254 327.932 194.206 327.927 194.159C322.937 189.34 320.546 182.727 314.536 179.045C315.811 182.543 317.1 186.035 318.511 189.482C318.615 189.737 318.466 189.988 318.195 190.197C318.869 190.809 316.479 191.844 315.703 191.462C310.746 189.02 305.541 186.751 300.096 185.656C300.266 186.818 300.872 187.838 301.755 188.743C303.152 189.232 304.487 189.996 305.671 190.751C306.101 191.025 306.171 191.357 306.033 191.668C308.787 193.069 311.832 194.126 313.617 195.104C314.794 195.748 312.117 196.931 311.306 196.487C308.529 194.967 303.335 193.368 300.066 190.735C299.436 190.461 298.787 190.272 298.966 190.889C299.494 192.706 300.808 194.054 302.356 195.09C305.519 197.209 309.113 198.477 312.658 199.799C314.402 200.45 312.321 202.332 311.01 201.843C307.92 200.69 303.618 199.397 300.387 197.206C299.985 197.284 299.601 197.274 299.375 197.124C299.284 197.063 299.189 196.987 299.095 196.903C299.449 201.446 305.53 204.008 309.581 205.061C311.222 205.487 308.724 206.869 307.806 206.631ZM336.122 280.658C342.508 280.681 348.893 280.711 355.279 280.726C355.572 277.006 355.873 273.288 356.075 269.563C353.409 272.749 350.055 275.434 346.007 277.407C342.745 278.997 339.477 280.021 336.122 280.658ZM320.262 140.481C320.543 144.042 322.64 147.557 326.681 145.76C329.781 144.382 332.158 141.615 332.091 138.119C330.822 136.564 329.832 134.794 329.229 132.743C329.196 132.632 329.284 132.512 329.443 132.394C328.109 129.666 326.833 126.918 326.089 123.949C326.026 123.697 326.239 123.455 326.571 123.258C325.716 122.925 326.436 121.516 327.685 121.313C328.558 121.171 329.286 120.874 329.879 120.467C330.546 119.506 331.276 118.358 331.846 117.224C332.366 113.863 329.814 109.911 325.272 111.292C324.325 111.58 323.766 111.18 323.705 110.668C318.268 111.198 314.995 107.267 312.702 102.669C310.749 98.7506 307.522 86.5786 301.446 90.7666C300.872 91.1626 299.8 91.1386 299.321 90.8306C299.022 90.9556 298.696 91.0306 298.448 91.0776C295.254 91.6796 294.03 95.7976 293.463 98.9756C293.675 99.0796 293.814 99.2486 293.812 99.5086C293.804 100.585 293.761 101.789 293.712 103.074C293.852 103.06 293.992 103.047 294.125 103.053C294.644 103.076 295.159 103.256 295.648 103.419C295.868 103.492 296.086 103.569 296.309 103.631C296.362 103.646 296.393 103.655 296.414 103.663C296.424 103.664 296.428 103.664 296.441 103.665C296.505 103.675 296.571 103.681 296.636 103.681C297.247 103.708 297.818 104.252 297.513 104.874C297.176 105.561 296.324 105.785 295.624 105.754C295.105 105.731 294.59 105.551 294.101 105.388C293.945 105.336 293.787 105.286 293.628 105.236C293.593 106.213 293.561 107.219 293.542 108.249C293.81 108.107 294.105 108.023 294.366 108.023C294.501 108.023 294.636 108.025 294.77 108.017C294.797 108.016 294.877 107.999 294.942 107.987C295.018 107.927 295.092 107.866 295.161 107.798C295.666 107.328 296.678 107.234 297.242 107.634C297.875 108.083 297.548 108.756 297.098 109.176C296.284 109.934 295.212 110.205 294.125 110.207C293.938 110.207 293.727 110.181 293.525 110.125C293.531 119.359 295.004 129.479 304.507 131.152C307.515 131.682 310.813 130.496 313.732 131.467C317.215 132.626 318.673 136.455 319.711 139.809C320.016 139.909 320.234 140.124 320.262 140.481ZM295.007 107.983C295.053 107.968 295.059 107.965 295.029 107.974C295.029 107.975 295.022 107.978 295.007 107.983ZM302.011 82.4176C301.558 82.5936 300.823 82.6906 300.303 82.6476L301.48 82.7856C301.48 82.7856 301.677 82.6476 302.011 82.4176ZM287.627 163.435C294.383 163.871 301.176 164.48 307.945 164.616C308.682 164.631 308.914 164.929 308.843 165.295C309.156 165.344 309.408 165.48 309.511 165.731C311.04 169.468 312.427 173.259 313.809 177.053C314.394 176.795 315.107 176.665 315.493 176.856C322.587 180.36 325.067 187.514 330.383 192.775C330.738 192.689 331.06 192.654 331.238 192.715C339.632 195.608 348.193 197.989 356.83 200.053C351.928 191.188 347.696 180.926 347.424 170.775C347.389 169.453 350.321 169.02 350.363 170.564C350.636 180.803 355.273 191.41 360.268 200.176C360.408 200.421 360.427 200.657 360.367 200.874C364.257 201.764 368.158 202.603 372.066 203.392C372.896 203.559 370.377 204.665 369.689 204.527C356.728 201.909 343.826 198.817 331.269 194.648C331.658 196.389 331.306 198.71 331.073 200.183C330.728 202.357 330.177 204.626 328.726 206.32C335.707 211.437 342.949 216.513 350.95 219.908C357.779 222.805 374.46 229.014 380.576 222.262C384.395 218.047 383.352 211.563 382.055 206.526C381.164 203.066 380.066 199.659 378.95 196.257C378.624 195.263 378.298 194.27 377.972 193.277C377.374 191.449 376.786 189.619 376.238 187.778C372.362 174.771 368.345 158.122 355.353 151.276C349.165 148.015 340.423 145.568 334.629 140.672C332.177 148.388 319.288 152.047 317.523 142.463C317.414 142.39 317.333 142.292 317.294 142.164C316.991 141.164 316.66 139.898 316.223 138.626C314.244 143.162 309.175 146.612 305.444 149.242C304.468 149.93 303.449 150.606 302.412 151.284C302.723 151.393 302.104 151.769 301.386 152.055L300.481 152.784C300.481 152.784 300.4 152.737 300.285 152.669C295.72 155.638 291.056 158.789 288.049 163.119C287.966 163.238 287.814 163.344 287.627 163.435ZM287.405 225.243C287.447 225.344 287.485 225.447 287.527 225.548C287.528 225.551 287.53 225.555 287.531 225.558C287.542 225.584 287.541 225.61 287.547 225.636C287.737 225.709 287.902 225.818 288.014 225.975C287.743 225.589 287.306 225.658 288.142 225.73C288.71 225.779 289.28 225.82 289.85 225.852C291.392 225.937 292.936 226.002 294.48 226.057C298.793 226.21 303.109 226.323 307.424 226.421C313.958 226.569 320.495 226.744 327.032 226.788C324.858 221.287 323.331 215.569 321.097 210.088C313.102 212.581 301.969 211.43 298.451 204.351C298.261 203.966 299.201 203.459 300.071 203.3C297.173 201.305 295.225 198.493 296.568 194.723C296.669 194.44 296.89 194.225 297.163 194.066C296.886 193.643 296.635 193.204 296.441 192.732C295.69 190.896 295.849 188.846 297.933 188.361C297.3 187.285 296.998 186.07 297.197 184.678C297.317 183.828 298.915 183.635 299.535 183.718C304.889 184.437 310.048 186.366 314.965 188.631C312.075 181.359 309.634 173.917 306.678 166.67C298.215 166.489 289.719 165.712 281.277 165.149C279.832 165.053 269.707 165.11 264.74 164.061C272.903 184.21 279.141 205.129 287.405 225.243ZM258.034 241.921C258.269 241.97 258.482 242.066 258.639 242.229C261.666 245.362 263.583 249.135 265.328 253.072C267.308 251.238 269.389 249.507 271.552 247.898C277.794 241.948 282.853 234.794 284.571 226.181C281.647 219.076 278.985 211.866 276.399 204.625C275.28 211.273 272.788 217.818 269.959 223.79C266.894 230.259 263.252 236.895 258.034 241.921ZM246.066 249.32C245.926 249.857 245.31 250.202 244.679 250.281C242.774 251.73 241.507 253.344 241.979 254.972C244.169 254.214 246.401 253.697 248.74 253.486C251.009 253.282 252.615 253.525 253.829 251.33C253.708 250.36 255.536 249.453 256.41 250.195C259.225 252.587 259.835 255.697 259.47 259.1C260.738 257.645 262.072 256.235 263.452 254.867C263.082 254.791 262.765 254.601 262.614 254.257C260.912 250.382 259.039 246.719 256.1 243.635C255.932 243.774 255.769 243.917 255.598 244.052C255.349 244.248 255.009 244.356 254.664 244.388C254.98 244.535 254.994 244.785 254.297 245.138C252.929 245.83 249.112 247.372 246.066 249.32ZM220.887 244.259C224.965 246.581 228.682 249.37 231.286 252.904C237.312 261.083 233.826 272.381 229.646 280.712C234.15 280.712 238.652 280.712 243.156 280.712C243.156 280.704 243.153 280.698 243.153 280.69C243.153 272.943 243.153 265.196 243.153 257.449C243.153 256.079 246.096 255.681 246.096 257.255C246.096 265.002 246.096 272.749 246.096 280.496C246.096 280.572 246.083 280.643 246.067 280.712C246.799 280.712 247.532 280.712 248.264 280.712C248.559 277.108 249.844 273.523 251.574 270.232C251.083 270.176 250.698 269.933 250.704 269.434C250.744 265.823 252.295 259.095 248.514 256.864C247.211 256.095 249.835 254.768 250.785 255.329C254.412 257.47 254.043 262.468 253.756 266.545C254.107 266.011 254.463 265.487 254.825 264.98C255.642 263.835 256.505 262.709 257.394 261.598C256.753 261.584 256.224 261.271 256.341 260.583C256.814 257.815 256.861 255.102 255.161 252.948C254.253 253.787 253.142 254.343 251.752 254.589C248.165 255.224 244.883 255.188 241.404 256.602C240.861 256.823 239.79 257.095 239.406 256.484C237.839 253.986 240.075 251.471 243.162 249.364C243.16 249.336 243.152 249.312 243.152 249.283C243.152 247.818 243.152 246.352 243.152 244.886C243.152 244.644 243.247 244.435 243.398 244.259C235.895 244.259 228.391 244.259 220.887 244.259ZM74.176 207.981C83.615 209.425 93.103 209.514 102.552 208.203C101.035 201.286 100.256 194.205 100.802 187.181C100.87 186.302 103.734 185.976 103.7 186.405C102.826 197.655 105.263 209.312 108.933 219.905C112.478 230.138 117.227 240.861 125.389 248.272C125.408 248.289 125.413 248.309 125.423 248.328C125.435 248.341 125.45 248.351 125.46 248.366C134.134 243.069 143.944 239.519 153.536 236.295C161.928 233.475 171.011 231.352 179.95 231.496C172.713 227.445 167.204 220.809 162.886 213.691C162.878 213.688 162.871 213.685 162.865 213.681C162.822 213.659 162.813 213.624 162.821 213.585C161.728 211.779 160.71 209.943 159.76 208.112C154.339 197.651 150.236 186.311 148.538 174.618C148.375 173.493 151.286 172.81 151.436 173.842C152.391 180.43 154.105 186.975 156.406 193.289C162.837 187.586 168.887 180.953 173.982 174.081C173.973 174.076 173.961 174.074 173.952 174.069C166.268 169.519 160.832 162.165 153.542 157.108C145.604 151.601 136.774 153.013 127.69 153.215C128.739 154.307 129.613 155.679 128.992 157.106C128.41 158.442 126.69 159.133 125.245 159.457C124.98 159.516 124.723 159.567 124.485 159.603C121.458 160.061 118.09 159.579 115.297 158.131C114.03 157.475 112.885 156.618 111.94 155.562C100.87 159.395 91.183 165.66 85.529 176.283C80.308 186.092 77.679 197.056 74.401 207.606C74.359 207.743 74.279 207.868 74.176 207.981ZM100.031 240.967C96.165 248.961 90.881 256.421 85.355 263.34C81.053 268.727 75.655 276.361 69.044 279.154C67.187 279.939 65.126 280.376 62.989 280.637C91.394 280.637 119.799 280.637 148.203 280.637C148.12 280.548 148.04 280.459 147.957 280.37C138.787 270.561 129.826 260.62 122.628 249.234C114.472 241.81 109.458 230.982 106.035 220.681C105.602 219.378 105.184 218.063 104.786 216.738C104.326 220.942 103.712 225.127 102.969 229.295C102.258 233.281 101.808 237.292 100.031 240.967ZM190.801 150.81C190.813 150.93 190.776 151.045 190.702 151.152C192.176 150.788 194.178 150.439 196.021 150.485C195.865 146.225 201.269 144.009 205.313 144.463C206.183 144.007 207.572 144.158 207.572 145.24C207.572 153.336 207.572 161.432 207.572 169.528C207.572 169.695 207.527 169.848 207.45 169.985C207.398 170.406 207.061 170.842 206.37 171.05C202.951 172.082 199.089 171.841 196.413 169.236C194.119 167.003 193.225 163.91 193.51 160.819C192.845 160.963 192.192 161.048 191.569 161.083C191.099 164.684 190.981 169.283 193.72 172.046C197.013 175.368 201.915 175.178 206.249 174.511C206.695 174.307 207.227 174.235 207.645 174.319C208.102 174.315 208.269 174.466 208.24 174.677C208.329 174.818 208.369 174.993 208.325 175.217C207.208 180.907 223.366 179.058 226.383 178.807C228.759 178.609 231.955 178.812 234.224 178.02C236.103 177.363 236.532 173.376 236.745 171.773C237.643 165.005 237.252 158.046 236.63 151.271C236.273 147.384 236.14 143.161 235.14 139.361C228.382 139.514 221.629 139.921 214.871 140.083C211.159 140.172 207.434 140.29 203.724 140.127C196.092 139.793 189.965 142.164 190.801 150.81ZM200.759 154.53C200.705 155.082 200.566 155.597 200.363 156.08C201.774 155.803 203.204 155.576 204.63 155.446C204.63 152.445 204.63 149.443 204.63 146.441C201.599 145.739 198.101 147.736 199.162 151.174C200.256 151.774 200.928 152.813 200.759 154.53ZM196.565 159.754C196.4 160.841 196.41 161.917 196.578 162.94C199.122 162.641 201.683 162.527 204.224 162.185C204.379 162.164 204.511 162.157 204.63 162.157C204.63 160.249 204.63 158.34 204.63 156.432C203.058 156.478 201.435 156.701 199.855 157.011C199.083 158.173 197.903 159.087 196.565 159.754ZM196.903 164.332C197.964 167.598 200.761 169.928 204.63 169.313C204.63 167.33 204.63 165.347 204.63 163.363C204.385 163.508 204.097 163.621 203.794 163.661C201.504 163.97 199.198 164.093 196.903 164.332ZM166.183 196.649C169.572 189.784 172.532 182.716 175.649 175.723C170.245 182.815 163.932 189.615 157.204 195.366C158.456 198.593 159.844 201.76 161.38 204.824C162.7 207.459 164.138 210.13 165.722 212.735C170.853 215.423 177.236 217.606 181.636 212.475C184.526 209.107 186.206 204.865 187.521 200.674C190.008 192.744 191.06 183.943 195.039 176.566C195.18 176.305 195.596 176.111 196.067 175.986C194.491 175.605 193.03 174.944 191.816 173.879C188.123 170.637 188.111 165.556 188.749 161.04C188.791 160.745 189.152 160.49 189.604 160.316C189.701 159.664 190.608 158.848 191.515 158.893C193.25 158.979 199.131 156.772 197.821 153.789C196.737 151.321 189.669 153.098 188.482 154.711C186.572 157.311 185.584 161.161 184.14 164.053C178.73 174.885 174.328 186.181 168.969 197.037C168.37 198.248 165.434 198.167 166.183 196.649ZM97.744 133.13C98.464 132.764 99.257 132.531 100.091 132.449C99.188 132.304 98.407 132.598 97.744 133.13ZM111.288 145.228C113.149 146.925 113.25 150.606 113.642 153.097C114.3 153.163 114.596 153.683 114.419 154.195C116.639 156.843 120.239 158.419 123.687 158.314C125.701 158.252 126.263 157.471 126.084 156.479C125.952 155.745 125.417 154.899 124.743 154.136C124.665 154.148 124.589 154.157 124.513 154.162C123.847 154.211 123.282 154.01 123.408 153.451C123.453 153.25 123.519 153.066 123.57 152.869C123.583 152.823 123.597 152.777 123.609 152.731C124.871 148.016 127.752 144.502 131.787 141.709C136.074 138.741 142.25 135.923 143.31 130.227C144.369 124.537 140.136 117.953 137.334 113.341C134.751 109.089 132.01 104.726 128.548 101.121C128.216 100.775 128.441 100.397 128.879 100.112C124.962 102.084 114.993 103.372 110.232 105.555C108.235 106.953 106.768 108.912 106.215 111.88C108.804 119.354 109.212 127.837 107.475 135.547C107.269 136.464 105.154 136.915 104.658 136.309C104.469 136.306 104.315 136.269 104.23 136.182C102.785 134.698 99.637 131.574 98.051 134.673C97.54 135.672 97.203 136.776 97.124 137.9C97.587 138.222 97.48 138.602 97.126 138.916C97.147 139.178 97.177 139.439 97.23 139.7C97.524 141.157 98.321 144.215 99.931 144.818C101.282 145.323 103.285 144.119 104.591 143.72C107.254 142.907 109.249 143.368 111.288 145.228ZM53.831 278.801C53.956 278.796 54.07 278.798 54.175 278.807C55.482 278.724 56.788 278.641 58.093 278.532C60.972 278.29 65.507 278.595 68.09 277.16C74.705 273.484 79.912 266.359 84.41 260.455C89.277 254.067 94.35 247.277 97.562 239.867C99.414 235.595 99.857 230.72 100.588 226.155C101.451 220.764 102.132 215.368 102.453 209.916C102.468 209.67 102.573 209.459 102.733 209.282C96.077 210.261 89.4 210.597 82.729 210.275C82.753 210.35 82.769 210.432 82.772 210.522C83.05 219.407 83.651 227.616 81.482 236.442C80.25 241.457 78.835 246.759 76.291 251.3C73.34 256.567 68.53 260.864 64.003 264.758C60.044 268.164 55.369 271.288 50.177 272.378C47.799 272.877 35.705 273.168 35.861 276.436C36.028 279.95 51.189 278.919 53.831 278.801ZM2.9 313.615C2.9 345.647 2.9 377.679 2.9 409.712C41.016 409.712 79.133 409.712 117.251 409.712C117.251 377.68 117.251 345.647 117.251 313.615C79.133 313.615 41.016 313.615 2.9 313.615ZM62.441 298.127C58.027 298.127 53.613 298.127 49.199 298.127C48.136 303.203 45.047 307.531 41.992 311.614C41.964 311.653 41.926 311.689 41.885 311.724C46.748 311.724 51.612 311.724 56.474 311.724C56.493 311.687 56.509 311.651 56.542 311.609C59.622 307.643 61.419 303.313 62.297 298.389C62.313 298.297 62.367 298.21 62.441 298.127ZM162.157 296.549C158.178 291.659 154.003 286.919 149.659 282.215C111.177 282.215 72.694 282.215 34.212 282.215C34.212 286.934 34.212 291.653 34.212 296.372C34.212 296.434 34.199 296.492 34.186 296.549C76.842 296.549 119.499 296.549 162.157 296.549ZM190.117 349.351C184.418 351.434 177.284 348.619 172.419 343.52C170.962 341.992 169.671 340.372 168.921 338.626C167.708 341.412 167.691 345.173 167.608 347.875C167.424 353.921 167.827 359.993 168.703 365.978C169.561 371.838 170.695 377.747 172.686 383.341C173.984 386.988 176 393.118 179.976 394.81C191.813 399.847 192.077 383.922 191.95 376.076C191.807 367.138 190.293 358.271 190.117 349.351ZM194.321 342.384C188.624 334.962 183.56 327.104 178.452 319.253C177.673 322.003 176.465 324.545 174.888 327.024C173.374 329.404 170.595 332.666 171.098 335.712C171.812 340.034 176.054 343.939 179.677 346.064C185.54 349.502 191.091 349.196 194.206 342.557C194.234 342.495 194.274 342.438 194.321 342.384ZM231.456 375.048C231.734 375.098 231.978 375.218 232.134 375.436C232.596 376.083 233.054 376.738 233.512 377.393C237.547 370.376 243.934 366.031 251.685 363.948C246.928 358.48 241.206 354.064 235.728 349.343C229.991 344.398 224.903 338.993 220.38 332.907C213.004 322.983 205.748 312.84 199.287 302.29C193.341 292.579 187.682 282.696 181.802 272.945C178.599 267.635 175.196 259.766 170.205 255.654C169.902 255.565 169.65 255.383 169.532 255.097C169.522 255.075 169.511 255.053 169.504 255.029C169.476 254.939 169.456 254.842 169.456 254.733C169.456 254.454 169.456 254.174 169.456 253.896C169.456 253.169 170.462 252.745 171.047 252.704C171.308 252.686 171.572 252.725 171.8 252.822C172.24 252.701 172.699 252.688 173.038 252.865C179.004 255.983 185.422 258.264 191.844 260.243C195.431 261.348 199.302 262.873 203.057 263.289C203.709 263.361 203.973 263.645 203.989 263.984C204.294 264.229 204.374 264.613 203.967 265.119C200.441 269.495 198.562 275.134 196.503 280.295C195.79 282.082 195.046 285.256 193.349 286.759C195.859 291.013 198.375 295.262 200.945 299.48C203.13 303.066 205.389 306.636 207.706 310.178C210.473 305.787 213.5 301.568 216.479 297.316C216.539 297.03 216.727 296.749 217.015 296.548C219.622 292.809 222.166 289.029 224.405 285.049C229.05 276.791 235.82 262.98 228.63 254.162C222.537 246.689 212.256 242.472 203.506 239.098C197.062 236.614 190.006 233.732 183.062 232.789C182.652 233.075 182.098 233.292 181.67 233.261C171.51 232.524 161.235 235.157 151.732 238.533C143.128 241.59 134.379 244.758 126.603 249.618C126.535 249.661 126.456 249.697 126.372 249.729C133.981 261.432 143.426 271.609 152.927 281.795C162.029 291.554 170.228 301.536 177.562 312.694C185.781 325.197 193.36 338.728 203.806 349.568C212.518 358.611 223.313 365.457 231.456 375.048ZM193.036 281.668C193.919 279.482 194.761 277.279 195.675 275.105C197.104 271.705 198.599 268.264 200.764 265.263C197.197 264.666 193.558 263.305 190.185 262.241C185.009 260.609 179.884 258.813 174.948 256.574C178.691 260.727 181.47 266.811 184.088 271.152C186.714 275.506 189.295 279.887 191.877 284.267C191.977 284.102 192.065 283.955 192.106 283.863C192.425 283.136 192.739 282.406 193.036 281.668ZM243.238 387.832C244.604 388.671 245.915 389.229 247.18 389.567C248.654 389.61 250.123 389.727 251.59 389.862C257.378 389.078 262.21 383.865 266.973 379.442C270.757 375.927 274.627 372.505 278.434 369.013C280.204 367.391 281.97 365.488 284.102 364.338C284.372 364.193 284.627 364.082 284.876 363.985C283.03 361.044 280.572 358.417 277.389 358.558C274.012 358.708 271.006 361.051 268.126 362.597C263.222 365.23 258.15 366.888 252.785 365.131C245.174 367.032 239.346 371.366 235.656 378.38C235.516 378.645 235.104 378.86 234.638 378.989C237.048 382.366 239.629 385.618 243.238 387.832ZM286.067 372.297C286.626 371.25 287.343 369.898 287.115 368.653C286.895 367.458 286.577 367.684 286.903 367.708C286.852 367.604 286.801 367.499 286.749 367.393C285.979 367.239 285.444 366.77 286.161 366.227C286.149 366.204 286.137 366.182 286.125 366.159C285.523 365.955 284.789 366.347 283.569 367.402C280.309 370.221 277.218 373.233 273.993 376.092C268.754 380.735 263.713 386.903 257.429 390.31C257.773 390.323 258.116 390.337 258.459 390.341C262.991 390.391 266.971 388.111 270.66 385.684C276.015 382.163 282.944 378.161 286.067 372.297ZM309.608 368.529C305.366 372.04 297.051 371.65 291.758 369.677C290.572 375.658 284.352 379.184 281.772 384.513C279.92 388.338 280.019 394.864 285.227 396.045C289.413 396.994 293.621 395.423 297.092 393.132C297.503 392.861 298.143 392.804 298.659 392.899C298.645 392.07 298.779 391.141 299.103 390.091C301.46 382.456 307.694 376.248 309.608 368.529ZM328.985 383.371C332.71 378.479 339.315 368.5 332.07 363.697C332.057 363.689 332.051 363.68 332.04 363.672C332.013 363.699 331.987 363.727 331.96 363.754C331.543 364.161 331.077 364.538 330.578 364.89C328.192 366.572 324.955 367.633 321.598 368.1C321.458 368.12 321.318 368.138 321.178 368.155C320.879 368.193 320.589 368.216 320.303 368.23C317.638 368.479 314.964 368.381 312.641 367.911C311.298 373.799 307.218 378.897 304.494 384.185C303.196 386.703 301.015 390.312 301.63 393.289C302.425 397.144 307.337 396.995 310.432 396.702C318.193 395.967 324.469 389.302 328.985 383.371ZM335.294 379.27C339.016 376.259 343.525 374.071 348.351 371.856C347.752 371.628 347.776 371.259 348.087 370.919C347.912 370.8 347.816 370.62 347.859 370.363C351.899 346.366 352.987 322.051 355.361 297.866C341.572 297.9 327.783 297.952 313.994 298.019C316.155 303.329 317.631 308.998 319.012 314.23C323.178 330.019 328.888 345.362 332.755 361.231C332.805 361.435 332.783 361.623 332.719 361.796C333.026 361.793 333.26 361.826 333.342 361.895C333.703 361.845 334.055 361.885 334.312 362.055C340.15 365.926 339.156 372.645 335.294 379.27ZM376.584 372.698C369.081 375.692 359.439 374.808 351.654 372.806C351.652 372.806 351.651 372.807 351.65 372.808C341.903 377.268 333.192 380.875 329.869 391.89C344.424 391.89 358.978 391.89 373.533 391.89C379.611 386.875 380.606 379.531 376.584 372.698ZM387.146 297.832C377.512 297.837 367.877 297.839 358.243 297.861C355.889 321.944 354.793 346.152 350.77 370.045C350.752 370.146 350.706 370.239 350.646 370.328C358.841 372.844 371.121 374.72 378.543 369.694C378.638 369.63 378.748 369.581 378.863 369.539C381.299 345.838 384.584 322.228 386.515 298.476C386.536 298.228 386.795 298.003 387.146 297.832ZM411.608 368.625C411.95 368.874 412.309 369.089 412.666 369.311C413.12 369.337 413.492 369.498 413.558 369.835C417.247 371.837 421.541 372.483 425.759 372.076C427.019 371.954 428.268 371.216 429.534 370.738C429.083 369.95 428.63 369.163 428.179 368.375C421.668 356.992 415.126 345.615 408.695 334.176C408.427 337.235 408.731 340.769 408.664 342.85C408.475 348.629 408.382 354.416 408.431 360.198C408.459 363.886 408.282 366.201 411.608 368.625ZM440.439 389.748C436.948 383.666 433.456 377.585 429.971 371.499C428.442 372.024 427.183 372.939 425.445 373.107C421.55 373.483 417.285 373.497 413.573 372.091C413.347 372.006 413.124 371.916 412.899 371.825C410.691 377.691 409.498 383.871 409.395 390.149C409.395 390.173 409.385 390.196 409.382 390.22C419.736 390.163 430.084 389.801 440.439 389.748ZM443.385 356.622C442.174 354.102 440.957 351.584 439.745 349.064C439.533 349.015 439.387 348.918 439.363 348.757C439.33 348.53 439.301 348.303 439.269 348.076C434.238 337.613 429.209 327.149 424.157 316.697C421.991 312.217 419.825 307.736 417.638 303.265C416.811 301.574 416.12 299.462 414.981 297.947C414.955 297.912 414.943 297.879 414.923 297.844C407.371 297.834 399.819 297.825 392.269 297.826C397.805 308.47 403.558 319.005 409.417 329.482C409.794 329.48 410.049 329.524 409.989 329.607C409.893 329.74 409.811 329.89 409.727 330.04C417.069 343.157 424.57 356.187 432.033 369.223C438.081 379.786 444.159 390.331 450.202 400.895C451.973 403.99 453.75 407.081 455.482 410.197C455.76 410.697 456.756 411.992 457.071 412.931C457.191 412.924 457.307 412.926 457.413 412.95C461.275 413.814 466.124 413.152 470.372 412.868C461.387 394.114 452.392 375.365 443.385 356.622ZM433.874 297.882C428.705 297.868 423.535 297.86 418.366 297.852C419.121 299.204 419.694 300.768 420.338 302.083C422.48 306.462 424.604 310.85 426.725 315.239C430.5 323.049 434.256 330.868 438.018 338.685C436.321 325.119 435.08 311.497 433.874 297.882ZM490.614 296.53C490.614 291.822 490.614 287.113 490.614 282.404C446.272 282.704 401.93 282.783 357.588 282.687C356.782 283.154 355.08 283.274 355.104 282.967C355.111 282.873 355.119 282.779 355.126 282.684C339.737 282.648 324.349 282.591 308.959 282.513C307.495 282.84 306.067 283.282 304.691 283.879C308.494 287.296 311.221 291.674 313.319 296.428C372.416 296.135 431.516 296.133 490.614 296.53ZM301.362 116.505C298.03 116.966 298.154 112.978 298.835 110.81C299.143 109.833 296.241 110.237 295.942 111.188C295.414 112.866 295.088 115.015 296.166 116.563C297.252 118.122 299.209 118.298 300.952 118.056C301.489 117.982 302.44 117.713 302.604 117.092C302.77 116.461 301.709 116.456 301.362 116.505ZM310.56 119.77C309.899 119.805 309.116 120.017 308.628 120.49C308.138 120.966 307.52 121.634 306.79 121.654C306.16 121.672 305.306 121.898 304.858 122.374C304.392 122.871 305.261 122.964 305.571 122.956C307.771 122.895 309.72 121.86 311.272 120.352C311.766 119.872 310.847 119.755 310.56 119.77ZM314.213 107.669C311.232 105.509 307.522 104.953 304.976 108.086C303.823 109.505 306.587 109.87 307.386 108.887C307.933 108.215 308.358 107.799 309.245 107.898C310.236 108.009 311.189 108.74 311.969 109.304C312.969 110.028 315.535 108.626 314.213 107.669ZM308.561 101.364C310.204 101.364 310.795 99.2766 308.827 99.2776C306.33 99.2786 304.223 99.5566 302.084 100.931C301.569 101.262 301.347 102.017 301.922 102.404C302.556 102.831 303.409 102.601 303.998 102.223C305.414 101.312 306.928 101.365 308.561 101.364ZM116.663 130.224C116.622 130.449 116.584 130.682 116.551 130.92C117.235 130.587 118.202 130.474 118.658 130.905C119.896 132.076 121.246 132.224 122.875 132.226C123.446 132.226 124.046 132.713 123.723 133.308C123.637 133.465 123.522 133.591 123.39 133.698C123.578 133.745 123.69 133.831 123.573 133.992C122.534 135.425 121.375 136.717 119.737 137.46C118.686 137.937 117.137 138.372 115.995 137.948C113.182 136.905 113.36 133.13 113.801 130.717C113.935 129.984 116.797 129.488 116.663 130.224ZM116.428 132.498C116.413 133.653 116.593 134.818 117.19 135.75C117.386 136.057 117.617 136.365 117.93 136.563C118.21 136.741 118.534 136.722 118.439 136.82C119.366 136.27 120.092 135.336 120.71 134.485C120.81 134.347 120.94 134.235 121.083 134.138C119.331 134.052 117.809 133.624 116.428 132.498ZM385.008 71.2176C383.816 70.6076 382.653 69.8386 382.483 68.4126C382.335 67.1586 383.541 65.9186 384.319 65.1036C384.813 64.5846 383.899 64.3296 383.554 64.3296C382.845 64.3286 382.126 64.5866 381.635 65.1006C380.537 66.2496 379.567 67.5396 379.585 69.1896C379.604 70.8406 381.418 71.9136 382.686 72.5636C383.473 72.9646 386.15 71.8026 385.008 71.2176ZM400.944 73.2286C400.824 76.2076 398.885 78.6006 395.8 78.9106C392.664 79.2256 390.44 77.5136 389.723 74.4446C389.634 74.0626 390.205 73.7016 390.864 73.4996C391.139 72.9956 392.01 72.8176 392.49 72.7186C395.079 72.1836 397.515 72.9816 400.096 72.9366C400.243 72.9336 400.955 72.9256 400.944 73.2286ZM398.028 74.2766C396.247 74.1696 394.455 73.7266 392.688 73.9106C393.1 75.4616 394.086 77.3686 395.859 77.5836C397.365 77.7656 397.918 75.5396 398.028 74.2766ZM396.08 62.5986C396.043 62.6286 396.332 62.4406 396.426 62.3576C396.467 62.3576 396.512 62.3596 396.554 62.3726C397.057 62.5266 397.428 62.9776 397.666 63.4236C398.154 64.3336 400.941 63.3506 400.564 62.6476C399.152 60.0176 395.794 60.6356 393.789 62.2416C393.325 62.6126 393.448 63.0576 394.031 63.1486C394.713 63.2546 395.543 63.0296 396.08 62.5986ZM392.655 56.4726C392.159 56.8346 392.346 57.3136 392.905 57.4076C393.614 57.5266 394.385 57.2746 394.954 56.8586C396.973 55.3836 399.361 56.8746 400.643 58.6166C401.183 59.3506 403.983 58.3876 403.342 57.5156C400.737 53.9736 395.983 54.0396 392.655 56.4726ZM138.137 49.3816C130.355 24.4066 150.794 -0.988379 176.516 0.0296214C176.846 0.0426214 177.057 0.102626 177.188 0.187626C177.407 0.0976262 177.625 0.0366214 177.813 0.0296214C203.932 -1.00438 225.45 27.5736 213.717 52.2336C210.155 59.7186 204.427 64.0816 198.285 69.3146C192.314 74.4006 189.654 80.2466 189.272 87.9886C189.088 91.7126 189.482 97.1926 186.25 99.8766C183.396 102.247 179.817 102.632 176.259 102.445C172.179 102.714 167.746 102.303 165.524 98.5346C163.195 94.5866 164.255 89.0526 163.602 84.6956C162.321 76.1456 157.051 71.5706 150.704 66.3996C145.112 61.8426 140.323 56.3936 138.137 49.3816ZM187.487 80.6516C180.278 80.6516 173.067 80.6516 165.857 80.6516C165.886 80.7676 165.92 80.8806 165.948 80.9986C166.93 85.2616 166.55 89.5986 167.25 93.8766C167.271 93.8756 167.295 93.8716 167.315 93.8716C171.223 93.8716 175.131 93.8716 179.04 93.8716C180.997 93.8716 178.933 95.4466 177.895 95.4466C174.467 95.4466 171.041 95.4466 167.614 95.4466C168.653 98.8856 171.03 100.294 174.116 100.665C174.372 100.586 174.61 100.545 174.789 100.566C175.397 100.637 176.047 100.708 176.712 100.76C177.61 100.733 178.54 100.661 179.5 100.548C180.038 100.485 180.355 100.563 180.513 100.71C182.761 100.386 184.711 99.3736 185.439 96.8156C185.969 94.9536 186.149 93.0546 186.242 91.1266C186.31 89.7276 186.371 88.3066 186.476 86.8876C186.205 87.3396 185.216 87.9056 184.595 87.9056C180.128 87.9056 175.661 87.9056 171.195 87.9056C169.239 87.9056 171.308 86.3366 172.341 86.3366C176.808 86.3366 181.275 86.3366 185.741 86.3366C186.184 86.3366 186.413 86.4196 186.502 86.5446C186.661 84.5466 186.936 82.5616 187.487 80.6516ZM142.786 52.8566C146.092 59.2006 151.027 63.2526 156.444 67.6926C160.147 70.7276 163.456 74.1056 165.175 78.5186C165.182 78.5186 165.188 78.5176 165.194 78.5176C172.731 78.5176 180.268 78.5176 187.806 78.5176C187.969 78.5176 188.11 78.5376 188.239 78.5636C188.354 78.2936 188.456 78.0206 188.586 77.7556C191.179 72.4936 195.546 69.2086 199.994 65.5846C205.405 61.1756 210.054 55.9666 212.171 49.1726C219.419 25.9146 201.344 0.713626 176.691 1.68863C176.347 1.70263 176.13 1.65862 176.005 1.58062C175.792 1.65262 175.58 1.69563 175.394 1.68863C150.051 0.685626 130.853 29.9516 142.786 52.8566ZM105.85 35.0756C110.874 35.0756 115.9 35.0756 120.925 35.0756C121.868 35.0756 124.057 33.6446 122.109 33.6446C117.085 33.6446 112.059 33.6446 107.034 33.6446C106.09 33.6446 103.902 35.0756 105.85 35.0756ZM124.058 55.8726C119.93 58.7376 115.803 61.6026 111.675 64.4686C110.393 65.3596 113.319 65.2106 113.952 64.7706C118.079 61.9046 122.207 59.0396 126.335 56.1746C127.618 55.2846 124.692 55.4326 124.058 55.8726ZM125.774 12.2876C126.45 12.8936 129.128 11.7986 128.483 11.2196C124.743 7.86462 121.002 4.51062 117.261 1.15562C116.585 0.549621 113.907 1.64462 114.552 2.22362C118.293 5.57762 122.034 8.93262 125.774 12.2876ZM231.475 35.0756C236.499 35.0756 241.525 35.0756 246.55 35.0756C247.493 35.0756 249.682 33.6446 247.734 33.6446C242.71 33.6446 237.684 33.6446 232.659 33.6446C231.715 33.6446 229.527 35.0756 231.475 35.0756ZM227.032 56.5576C231.16 59.4226 235.288 62.2886 239.415 65.1536C240.177 65.6826 242.76 64.5266 242.124 64.0856C237.996 61.2196 233.868 58.3546 229.741 55.4896C228.979 54.9606 226.396 56.1166 227.032 56.5576ZM227.593 11.9046C231.333 8.54962 235.074 5.19463 238.816 1.84063C240.01 0.769626 237.132 1.00662 236.539 1.53862C232.798 4.89262 229.058 8.24762 225.316 11.6026C224.122 12.6736 226.999 12.4366 227.593 11.9046ZM29.58 373.995C28.787 367.126 28.758 360.224 28.757 353.319C28.756 351.858 25.829 352.346 25.829 353.571C25.831 360.651 25.869 367.73 26.682 374.771C26.828 376.028 29.734 375.327 29.58 373.995ZM61.403 374.101C65.071 374.101 68.739 374.101 72.407 374.101C72.97 374.101 75.692 372.99 74.305 372.99C70.117 372.99 65.93 372.99 61.742 372.99C61.648 372.99 61.493 373.022 61.31 373.073C60.993 370.071 60.81 367.063 60.71 364.051C64.608 364.051 68.507 364.051 72.405 364.051C72.968 364.051 75.69 362.94 74.303 362.94C70.115 362.94 65.928 362.94 61.74 362.94C61.552 362.94 61.121 363.065 60.683 363.232C60.588 359.931 60.579 356.626 60.579 353.32C60.579 353.264 60.567 353.216 60.558 353.165C64.228 353.165 67.897 353.165 71.566 353.165C71.845 353.165 72.125 353.165 72.404 353.165C72.967 353.165 75.689 352.054 74.302 352.054C74.023 352.054 73.743 352.054 73.464 352.054C69.556 352.054 65.648 352.054 61.739 352.054C61.46 352.054 61.18 352.054 60.901 352.054C60.68 352.054 60.128 352.226 59.62 352.434C58.766 352.343 57.65 352.816 57.65 353.573C57.652 360.653 57.69 367.732 58.503 374.773C58.648 375.994 61.393 375.362 61.403 374.101ZM37.241 374.18C44.271 375.813 52.01 373.271 52.968 365.254C54.038 356.288 46.177 350.62 37.961 351.15C37.158 351.202 34.805 352.515 36.727 352.391C43.214 351.972 48.392 355.739 49.865 362.062C50.428 364.481 50.136 367.02 49.178 369.292C47.425 373.452 43.336 373.94 39.366 372.961C39.083 372.891 38.497 373.033 37.958 373.24C37.958 366.586 37.958 359.93 37.958 353.276C37.958 352 35.054 352.6 35.054 353.613C35.054 360.313 35.054 367.013 35.054 373.713C35.053 374.576 36.38 374.58 37.241 374.18ZM78.187 373.933C77.686 372.856 78.606 370.583 78.865 369.555C79.2 368.224 79.557 366.899 79.928 365.578C79.94 365.539 79.949 365.501 79.959 365.463C80.353 364.067 80.764 362.678 81.191 361.293C81.992 358.7 82.869 352.193 85.49 350.7C85.845 350.497 86.676 350.376 87.219 350.42C87.829 350.082 88.684 349.902 89.147 350.166C90.123 350.722 90.527 352.695 90.864 353.641C91.794 356.248 92.644 358.885 93.439 361.537C93.714 362.455 93.988 363.377 94.257 364.3C94.313 364.3 94.368 364.3 94.424 364.3C95.695 364.3 95.336 365.03 94.616 365.545C95.056 367.102 95.47 368.666 95.812 370.243C96.027 371.234 96.539 372.652 96.078 373.641C95.613 374.641 92.696 374.844 93.346 373.45C93.754 372.573 92.647 369.85 92.42 368.979C92.164 367.997 91.897 367.019 91.624 366.042C88.51 366.042 85.395 366.042 82.279 366.042C81.349 368.629 80.406 371.699 81.085 373.157C81.346 373.719 78.543 374.699 78.187 373.933ZM82.92 364.3C85.654 364.3 88.389 364.3 91.123 364.3C90.93 363.637 90.742 362.974 90.541 362.314C89.802 359.886 89.05 357.458 88.197 355.067C87.991 354.487 87.541 352.431 87.015 351.839C86.701 352.83 86.066 354.619 85.892 355.129C85.054 357.589 84.263 360.067 83.528 362.56C83.399 363 83.178 363.604 82.92 364.3Z" fill="#0F4851"/>
</svg>
